<svg width="37" height="29" viewBox="0 0 37 29" fill="none" xmlns="http://www.w3.org/2000/svg">
<path d="M34.6875 28.375C34.6875 28.375 37 28.375 37 26.0625C37 23.75 34.6875 16.8125 25.4375 16.8125C16.1875 16.8125 13.875 23.75 13.875 26.0625C13.875 28.375 16.1875 28.375 16.1875 28.375H34.6875ZM16.2384 26.0625L16.1875 26.0533C16.1898 25.4428 16.5737 23.6714 17.945 22.0758C19.2215 20.5796 21.4646 19.125 25.4375 19.125C29.4081 19.125 31.6512 20.5819 32.93 22.0758C34.3013 23.6714 34.6829 25.4451 34.6875 26.0533L34.669 26.0579L34.6366 26.0625H16.2384ZM25.4375 12.1875C26.6641 12.1875 27.8405 11.7002 28.7079 10.8329C29.5752 9.96551 30.0625 8.78913 30.0625 7.5625C30.0625 6.33587 29.5752 5.15949 28.7079 4.29213C27.8405 3.42478 26.6641 2.9375 25.4375 2.9375C24.2109 2.9375 23.0345 3.42478 22.1671 4.29213C21.2998 5.15949 20.8125 6.33587 20.8125 7.5625C20.8125 8.78913 21.2998 9.96551 22.1671 10.8329C23.0345 11.7002 24.2109 12.1875 25.4375 12.1875ZM32.375 7.5625C32.375 8.47355 32.1956 9.37567 31.8469 10.2174C31.4983 11.0591 30.9873 11.8238 30.3431 12.4681C29.6988 13.1123 28.9341 13.6233 28.0924 13.9719C27.2507 14.3206 26.3485 14.5 25.4375 14.5C24.5265 14.5 23.6243 14.3206 22.7826 13.9719C21.9409 13.6233 21.1762 13.1123 20.5319 12.4681C19.8877 11.8238 19.3767 11.0591 19.0281 10.2174C18.6794 9.37567 18.5 8.47355 18.5 7.5625C18.5 5.72256 19.2309 3.95798 20.5319 2.65695C21.833 1.35591 23.5976 0.625 25.4375 0.625C27.2774 0.625 29.042 1.35591 30.3431 2.65695C31.6441 3.95798 32.375 5.72256 32.375 7.5625ZM16.0395 17.46C15.1139 17.1707 14.1606 16.9793 13.1951 16.8888C12.6525 16.8359 12.1076 16.8104 11.5625 16.8125C2.3125 16.8125 0 23.75 0 26.0625C0 27.6042 0.770833 28.375 2.3125 28.375H12.062C11.7193 27.653 11.5484 26.8615 11.5625 26.0625C11.5625 23.7269 12.4343 21.3404 14.0831 19.347C14.6451 18.6671 15.2995 18.0312 16.0395 17.46ZM11.3775 19.125C10.0097 21.1818 9.27045 23.5925 9.25 26.0625H2.3125C2.3125 25.4613 2.69175 23.6806 4.07 22.0758C5.33031 20.605 7.52025 19.1713 11.3775 19.1273V19.125ZM3.46875 8.71875C3.46875 6.87881 4.19966 5.11423 5.5007 3.8132C6.80173 2.51216 8.56631 1.78125 10.4062 1.78125C12.2462 1.78125 14.0108 2.51216 15.3118 3.8132C16.6128 5.11423 17.3438 6.87881 17.3438 8.71875C17.3438 10.5587 16.6128 12.3233 15.3118 13.6243C14.0108 14.9253 12.2462 15.6562 10.4062 15.6562C8.56631 15.6562 6.80173 14.9253 5.5007 13.6243C4.19966 12.3233 3.46875 10.5587 3.46875 8.71875ZM10.4062 4.09375C9.17962 4.09375 8.00324 4.58103 7.13588 5.44838C6.26853 6.31574 5.78125 7.49212 5.78125 8.71875C5.78125 9.94538 6.26853 11.1218 7.13588 11.9891C8.00324 12.8565 9.17962 13.3438 10.4062 13.3438C11.6329 13.3438 12.8093 12.8565 13.6766 11.9891C14.544 11.1218 15.0312 9.94538 15.0312 8.71875C15.0312 7.49212 14.544 6.31574 13.6766 5.44838C12.8093 4.58103 11.6329 4.09375 10.4062 4.09375Z" fill="#77548C"/>
</svg>
