<svg width="36" height="36" viewBox="0 0 36 36" fill="none" xmlns="http://www.w3.org/2000/svg">
<path d="M16.5 10.5H25.5M10.5 10.5H12M10.5 18H12M10.5 25.5H12M16.5 18H25.5M16.5 25.5H25.5M3.75 18C3.75 11.283 3.75 7.923 5.8365 5.8365C7.923 3.75 11.2815 3.75 18 3.75C24.717 3.75 28.077 3.75 30.1635 5.8365C32.25 7.923 32.25 11.2815 32.25 18C32.25 24.717 32.25 28.077 30.1635 30.1635C28.077 32.25 24.7185 32.25 18 32.25C11.283 32.25 7.923 32.25 5.8365 30.1635C3.75 28.077 3.75 24.7185 3.75 18Z" stroke="#77548C" stroke-width="1.5" stroke-linecap="round" stroke-linejoin="round"/>
</svg>
