<svg width="40" height="40" viewBox="0 0 40 40" fill="none" xmlns="http://www.w3.org/2000/svg">
<path d="M10 13.75C10 11.0978 11.0536 8.55427 12.9289 6.67891C14.8043 4.80354 17.3478 3.74998 20 3.74998C22.6522 3.74998 25.1957 4.80354 27.0711 6.67891C28.9464 8.55427 30 11.0978 30 13.75C30 13.9157 30.0658 14.0747 30.1831 14.1919C30.3003 14.3091 30.4592 14.375 30.625 14.375C30.7908 14.375 30.9497 14.3091 31.0669 14.1919C31.1842 14.0747 31.25 13.9157 31.25 13.75C31.2497 11.6229 30.6463 9.5394 29.5099 7.7413C28.3734 5.94319 26.7505 4.50412 24.8293 3.591C22.9082 2.67788 20.7675 2.32814 18.6556 2.58233C16.5437 2.83653 14.5472 3.68425 12.8976 5.02717C11.2479 6.37008 10.0128 8.15316 9.33554 10.1696C8.65823 12.186 8.56647 14.3531 9.0709 16.4196C9.57533 18.486 10.6553 20.3671 12.1855 21.8447C13.7157 23.3222 15.6334 24.3357 17.7163 24.7675C17.9624 25.3195 18.4002 25.7636 18.9485 26.0177C19.4969 26.2718 20.1188 26.3186 20.699 26.1495C21.2792 25.9804 21.7786 25.6068 22.1046 25.0979C22.4306 24.589 22.5613 23.9792 22.4723 23.3814C22.3834 22.7836 22.0809 22.2383 21.6208 21.8464C21.1608 21.4544 20.5743 21.2424 19.97 21.2495C19.3657 21.2567 18.7844 21.4825 18.3337 21.8852C17.8831 22.2879 17.5935 22.8402 17.5188 23.44C15.3675 22.889 13.4608 21.6375 12.0994 19.883C10.738 18.1285 9.9994 15.9707 10 13.75ZM20 7.49998C18.3424 7.49998 16.7527 8.15846 15.5806 9.33056C14.4085 10.5027 13.75 12.0924 13.75 13.75C13.75 15.4076 14.4085 16.9973 15.5806 18.1694C16.7527 19.3415 18.3424 20 20 20C19.0913 20 18.2587 20.3237 17.6087 20.8612C15.9224 20.2941 14.4926 19.146 13.5746 17.6219C12.6567 16.0978 12.3105 14.297 12.5978 12.5412C12.8851 10.7854 13.7873 9.18893 15.1431 8.03693C16.499 6.88492 18.2202 6.25243 19.9994 6.25243C21.7785 6.25243 23.4998 6.88492 24.8556 8.03693C26.2114 9.18893 27.1136 10.7854 27.4009 12.5412C27.6883 14.297 27.342 16.0978 26.4241 17.6219C25.5062 19.146 24.0764 20.2941 22.39 20.8612C21.7178 20.3048 20.8726 20.0002 20 20C21.6576 20 23.2473 19.3415 24.4194 18.1694C25.5915 16.9973 26.25 15.4076 26.25 13.75C26.25 12.0924 25.5915 10.5027 24.4194 9.33056C23.2473 8.15846 21.6576 7.49998 20 7.49998ZM30.625 23.75H23.75C23.75 23.3125 23.675 22.8912 23.5375 22.5H30.625C31.7853 22.5 32.8981 22.9609 33.7186 23.7814C34.5391 24.6019 35 25.7147 35 26.875V27.7087C35 30.3962 31.5425 37.5 20 37.5C8.4575 37.5 5 30.395 5 27.7087V26.875C5 25.7147 5.46094 24.6019 6.28141 23.7814C7.10188 22.9609 8.21468 22.5 9.375 22.5H11.0738C11.5171 22.9525 11.9921 23.3691 12.4987 23.75H9.375C8.5462 23.75 7.75134 24.0792 7.16529 24.6653C6.57924 25.2513 6.25 26.0462 6.25 26.875V27.7087C6.25 29.605 9.0425 36.25 20 36.25C30.9575 36.25 33.75 29.605 33.75 27.7087V26.875C33.75 26.0462 33.4208 25.2513 32.8347 24.6653C32.2487 24.0792 31.4538 23.75 30.625 23.75Z" fill="#77548C"/>
</svg>
