<svg width="37" height="37" viewBox="0 0 37 37" fill="none" xmlns="http://www.w3.org/2000/svg">
<path d="M2.3125 9.82812C2.3125 8.2325 3.6075 6.9375 5.20312 6.9375H27.1719C28.7675 6.9375 30.0625 8.2325 30.0625 9.82812V22.5469C30.0625 24.1425 28.7675 25.4375 27.1719 25.4375H5.20312C3.6075 25.4375 2.3125 24.1425 2.3125 22.5469V9.82812ZM9.25 10.4062V9.25H6.9375V10.4062C6.9375 10.7129 6.81568 11.007 6.59884 11.2238C6.382 11.4407 6.08791 11.5625 5.78125 11.5625H4.625V13.875H5.78125C6.70122 13.875 7.58351 13.5095 8.23403 12.859C8.88454 12.2085 9.25 11.3262 9.25 10.4062ZM20.8125 16.1875C20.8125 14.9609 20.3252 13.7845 19.4579 12.9171C18.5905 12.0498 17.4141 11.5625 16.1875 11.5625C14.9609 11.5625 13.7845 12.0498 12.9171 12.9171C12.0498 13.7845 11.5625 14.9609 11.5625 16.1875C11.5625 17.4141 12.0498 18.5905 12.9171 19.4579C13.7845 20.3252 14.9609 20.8125 16.1875 20.8125C17.4141 20.8125 18.5905 20.3252 19.4579 19.4579C20.3252 18.5905 20.8125 17.4141 20.8125 16.1875ZM25.4375 9.25H23.125V10.4062C23.125 11.3262 23.4905 12.2085 24.141 12.859C24.7915 13.5095 25.6738 13.875 26.5938 13.875H27.75V11.5625H26.5938C26.2871 11.5625 25.993 11.4407 25.7762 11.2238C25.5593 11.007 25.4375 10.7129 25.4375 10.4062V9.25ZM9.25 21.9688C9.25 21.0488 8.88454 20.1665 8.23403 19.516C7.58351 18.8655 6.70122 18.5 5.78125 18.5H4.625V20.8125H5.78125C6.08791 20.8125 6.382 20.9343 6.59884 21.1512C6.81568 21.368 6.9375 21.6621 6.9375 21.9688V23.125H9.25V21.9688ZM25.4375 23.125V21.9688C25.4375 21.6621 25.5593 21.368 25.7762 21.1512C25.993 20.9343 26.2871 20.8125 26.5938 20.8125H27.75V18.5H26.5938C25.6738 18.5 24.7915 18.8655 24.141 19.516C23.4905 20.1665 23.125 21.0488 23.125 21.9688V23.125H25.4375ZM10.4062 30.0625C9.67369 30.0628 8.95986 29.8311 8.36705 29.4008C7.77425 28.9704 7.33292 28.3634 7.10631 27.6667C7.42698 27.7222 7.75612 27.75 8.09375 27.75H27.1719C28.5518 27.75 29.8753 27.2018 30.851 26.226C31.8268 25.2503 32.375 23.9268 32.375 22.5469V11.7591C33.0516 11.9983 33.6373 12.4414 34.0515 13.0275C34.4657 13.6135 34.6879 14.3136 34.6875 15.0312V22.5469C34.6875 23.5338 34.4931 24.5111 34.1154 25.423C33.7377 26.3348 33.1841 27.1633 32.4862 27.8612C31.7883 28.5591 30.9598 29.1127 30.048 29.4904C29.1361 29.8681 28.1588 30.0625 27.1719 30.0625H10.4062Z" fill="#77548C"/>
</svg>
