<svg width="35" height="35" viewBox="0 0 35 35" fill="none" xmlns="http://www.w3.org/2000/svg">
<path d="M2.91669 5.46874C2.91669 4.05999 4.06002 2.91666 5.46877 2.91666H29.5313C30.94 2.91666 32.0834 4.05999 32.0834 5.46874V29.5312C32.0834 30.2081 31.8145 30.8572 31.3359 31.3358C30.8573 31.8144 30.2081 32.0833 29.5313 32.0833H14.2188C13.9287 32.0833 13.6505 31.9681 13.4454 31.763C13.2403 31.5579 13.125 31.2797 13.125 30.9896C13.125 30.6995 13.2403 30.4213 13.4454 30.2162C13.6505 30.0111 13.9287 29.8958 14.2188 29.8958H29.5313C29.628 29.8958 29.7207 29.8574 29.7891 29.789C29.8574 29.7207 29.8959 29.6279 29.8959 29.5312V13.125H5.10419V17.5C5.10419 17.7901 4.98895 18.0683 4.78384 18.2734C4.57872 18.4785 4.30052 18.5937 4.01044 18.5937C3.72036 18.5937 3.44216 18.4785 3.23704 18.2734C3.03192 18.0683 2.91669 17.7901 2.91669 17.5V5.46874ZM13.125 10.9375H29.8959V5.46874C29.8959 5.37205 29.8574 5.27931 29.7891 5.21094C29.7207 5.14257 29.628 5.10416 29.5313 5.10416H13.125V10.9375ZM5.10419 10.9375H10.9375V5.10416H5.46877C5.37208 5.10416 5.27934 5.14257 5.21097 5.21094C5.1426 5.27931 5.10419 5.37205 5.10419 5.46874V10.9375Z" fill="#77548C"/>
<path d="M13.5742 21.1458L10.5059 17.885C10.4043 17.781 10.3245 17.6579 10.2711 17.5227C10.2178 17.3876 10.1918 17.2431 10.1949 17.0978C10.1979 16.9526 10.2299 16.8093 10.289 16.6766C10.348 16.5438 10.4329 16.4241 10.5387 16.3245C10.6445 16.2249 10.7691 16.1473 10.9052 16.0964C11.0413 16.0455 11.1862 16.0222 11.3314 16.0279C11.4766 16.0337 11.6192 16.0682 11.7509 16.1297C11.8826 16.1911 12.0007 16.2782 12.0984 16.3858L16.9021 21.49C17.093 21.6929 17.1994 21.961 17.1994 22.2396C17.1994 22.5182 17.093 22.7863 16.9021 22.9892L12.0984 28.0933C12.0007 28.2009 11.8826 28.288 11.7509 28.3495C11.6192 28.4109 11.4766 28.4455 11.3314 28.4512C11.1862 28.4569 11.0413 28.4336 10.9052 28.3827C10.7691 28.3318 10.6445 28.2543 10.5387 28.1547C10.4329 28.0551 10.348 27.9354 10.289 27.8026C10.2299 27.6698 10.1979 27.5266 10.1949 27.3813C10.1918 27.236 10.2178 27.0916 10.2711 26.9564C10.3245 26.8213 10.4043 26.6981 10.5059 26.5942L13.5742 23.3333H8.88127C7.87953 23.3333 6.91881 23.7313 6.21047 24.4396C5.50213 25.1479 5.10419 26.1087 5.10419 27.1104V30.9896C5.10419 31.2797 4.98895 31.5579 4.78384 31.763C4.57872 31.9681 4.30052 32.0833 4.01044 32.0833C3.72036 32.0833 3.44216 31.9681 3.23704 31.763C3.03192 31.5579 2.91669 31.2797 2.91669 30.9896V27.1104C2.91669 25.5285 3.5451 24.0114 4.66367 22.8928C5.78225 21.7742 7.29937 21.1458 8.88127 21.1458H13.5742Z" fill="#77548C"/>
</svg>
