<svg xmlns="http://www.w3.org/2000/svg" fill-rule="evenodd" clip-rule="evenodd" image-rendering="optimizeQuality" shape-rendering="geometricPrecision" text-rendering="geometricPrecision" viewBox="0 0 6.827 6.827"><path fill="none" d="M0 0h6.827v6.827H0z"/><path fill="none" d="M.853.853h5.12v5.12H.853z"/><path fill="#424242" fill-rule="nonzero" d="M3.974 4.018c.003.07.01.206.035.21l.035.007c-.453.444-.888.471-1.333 0a.762.762 0 0 1 .033-.007c.025-.004.033-.14.035-.21a1.852 1.852 0 0 1-.423-.79.313.313 0 0 1-.12-.09.552.552 0 0 1-.099-.188.731.731 0 0 1-.035-.22c0-.119.031-.236.104-.322l-.002-.02a3.11 3.11 0 0 1-.02-.328c0-.49.156-1.204 1.193-1.204 1.037 0 1.194.714 1.194 1.204 0 .133-.013.25-.021.328l-.003.02a.495.495 0 0 1 .104.322.73.73 0 0 1-.034.22.552.552 0 0 1-.1.187.313.313 0 0 1-.12.09 1.84 1.84 0 0 1-.423.79zm.193.249c.31.093.837.326 1.235.63.325.248.57.546.57.866v.106H.781v-.106c0-.32.246-.618.57-.866.401-.305.93-.54 1.24-.632l-.001.001c.512.564 1.054.535 1.577 0z"/></svg>