<svg width="22" height="23" viewBox="0 0 22 23" fill="none" xmlns="http://www.w3.org/2000/svg">
<path d="M9.75003 3.50003V7.50003C9.75029 7.86124 9.67934 8.21896 9.54123 8.55272C9.40313 8.88649 9.20057 9.18975 8.94516 9.44516C8.68975 9.70057 8.38649 9.90313 8.05272 10.0412C7.71896 10.1793 7.36124 10.2503 7.00003 10.25H3.00003C2.4268 10.2499 1.86795 10.0705 1.40173 9.73701C0.935514 9.40348 0.585268 8.93251 0.400031 8.39003C0.299314 8.10417 0.248572 7.80311 0.250031 7.50003V3.50003C0.249768 3.13882 0.320719 2.7811 0.458826 2.44734C0.596934 2.11358 0.799487 1.81031 1.0549 1.5549C1.31031 1.29949 1.61358 1.09693 1.94734 0.958826C2.2811 0.820719 2.63882 0.749768 3.00003 0.750031H7.00003C7.30311 0.748572 7.60417 0.799314 7.89003 0.900031C8.43251 1.08527 8.90348 1.43551 9.23701 1.90173C9.57053 2.36795 9.74991 2.9268 9.75003 3.50003Z" fill="#410C9E"/>
<path d="M21.75 5.5C21.7505 6.50737 21.4305 7.48876 20.8364 8.30229C20.2423 9.11581 19.4048 9.71929 18.4451 10.0255C17.4854 10.3316 16.4532 10.3246 15.4977 10.0055C14.5422 9.68629 13.713 9.07151 13.13 8.25C12.5554 7.44837 12.2475 6.48629 12.25 5.5C12.2511 4.24055 12.7519 3.03298 13.6424 2.14241C14.533 1.25184 15.7406 0.751059 17 0.75C18.2593 0.751588 19.4666 1.25254 20.357 2.143C21.2475 3.03345 21.7484 4.24071 21.75 5.5Z" fill="#FFCB03"/>
<path d="M7.89003 0.900031C7.59389 2.78007 6.70939 4.51783 5.36361 5.86361C4.01783 7.20939 2.28007 8.09389 0.400031 8.39003C0.299314 8.10417 0.248572 7.80311 0.250031 7.50003V3.50003C0.249768 3.13882 0.320719 2.7811 0.458826 2.44734C0.596934 2.11358 0.799487 1.81031 1.0549 1.5549C1.31031 1.29949 1.61358 1.09693 1.94734 0.958826C2.2811 0.820719 2.63882 0.749768 3.00003 0.750031H7.00003C7.30311 0.748572 7.60417 0.799314 7.89003 0.900031Z" fill="#D84467"/>
<path d="M19.75 1.63002C19.3549 3.23213 18.5294 4.69574 17.3625 5.86255C16.1957 7.02935 14.7321 7.85494 13.13 8.25002C12.5554 7.44839 12.2475 6.48631 12.25 5.50002C12.2511 4.24056 12.7519 3.033 13.6424 2.14243C14.533 1.25186 15.7406 0.751074 17 0.750015C17.9863 0.747538 18.9484 1.0554 19.75 1.63002Z" fill="#FFD869"/>
<path d="M21.75 15.5V19.5C21.7503 19.8612 21.6793 20.2189 21.5412 20.5527C21.4031 20.8865 21.2005 21.1897 20.9451 21.4451C20.6897 21.7006 20.3865 21.9031 20.0527 22.0412C19.7189 22.1793 19.3612 22.2503 19 22.25H15C14.6388 22.2503 14.2811 22.1793 13.9473 22.0412C13.6135 21.9031 13.3103 21.7006 13.0549 21.4451C12.7995 21.1897 12.5969 20.8865 12.4588 20.5527C12.3207 20.2189 12.2497 19.8612 12.25 19.5V15.5C12.2497 15.1388 12.3207 14.7811 12.4588 14.4473C12.5969 14.1136 12.7995 13.8103 13.0549 13.5549C13.3103 13.2995 13.6135 13.0969 13.9473 12.9588C14.2811 12.8207 14.6388 12.7498 15 12.75H19C19.233 12.7491 19.465 12.7794 19.69 12.84C20.2805 12.9908 20.8038 13.3343 21.177 13.8161C21.5501 14.298 21.7518 14.8906 21.75 15.5ZM9.75 15.5V19.5C9.75026 19.8612 9.67931 20.2189 9.54121 20.5527C9.4031 20.8865 9.20054 21.1897 8.94513 21.4451C8.68972 21.7006 8.38646 21.9031 8.05269 22.0412C7.71893 22.1793 7.36121 22.2503 7 22.25H3C2.63879 22.2503 2.28107 22.1793 1.94731 22.0412C1.61355 21.9031 1.31028 21.7006 1.05487 21.4451C0.799457 21.1897 0.596904 20.8865 0.458796 20.5527C0.320689 20.2189 0.249738 19.8612 0.250001 19.5V15.5C0.249738 15.1388 0.320689 14.7811 0.458796 14.4473C0.596904 14.1136 0.799457 13.8103 1.05487 13.5549C1.31028 13.2995 1.61355 13.0969 1.94731 12.9588C2.28107 12.8207 2.63879 12.7498 3 12.75H7C7.23299 12.7491 7.46505 12.7794 7.69 12.84C8.28051 12.9908 8.80381 13.3343 9.17697 13.8161C9.55013 14.298 9.75179 14.8906 9.75 15.5Z" fill="#410C9E"/>
<path d="M7.69 12.84C7.23061 14.544 6.2804 16.0752 4.95757 17.2434C3.63475 18.4115 1.99768 19.165 0.250001 19.41V15.5C0.249738 15.1388 0.320689 14.7811 0.458796 14.4473C0.596904 14.1136 0.799457 13.8103 1.05487 13.5549C1.31028 13.2995 1.61355 13.0969 1.94731 12.9588C2.28107 12.8207 2.63879 12.7498 3 12.75H7C7.23299 12.7491 7.46505 12.7794 7.69 12.84ZM19.69 12.84C19.2306 14.544 18.2804 16.0752 16.9576 17.2434C15.6347 18.4115 13.9977 19.165 12.25 19.41V15.5C12.2497 15.1388 12.3207 14.7811 12.4588 14.4473C12.5969 14.1136 12.7995 13.8103 13.0549 13.5549C13.3103 13.2995 13.6135 13.0969 13.9473 12.9588C14.2811 12.8207 14.6388 12.7498 15 12.75H19C19.233 12.7491 19.465 12.7794 19.69 12.84Z" fill="#D84467"/>
</svg>
