<svg xmlns="http://www.w3.org/2000/svg" enable-background="new 0 0 2500 2500" viewBox="0 0 2500 2500"><path fill="#fff" d="M1172.45,620.12c0,54.42-22.03,103.7-57.71,139.38c-35.68,35.63-84.92,57.71-139.38,57.71h-554.4
						c-109.4,0-201.75-89.53-200.72-198.97c0.47-53.71,22.45-102.24,57.71-137.5c35.68-35.68,84.97-57.71,139.38-57.71h181.46
						c4.47,0,9.04,0.09,13.65,0.23c-3.29-0.14-6.64-0.23-9.98-0.23h372.89C1084.23,423.03,1172.45,511.24,1172.45,620.12z"/><path fill="#fff" d="M975.36,819.13h-554.4c-53.83,0-106.66-22.17-144.95-60.83c-37.69-38.05-58.18-87.8-57.69-140.09
						c0.46-52.41,21.16-101.72,58.27-138.84c37.58-37.58,87.56-58.27,140.74-58.27h181.46c1.22,0,2.44,0.01,3.67,0.02v-0.02h372.89
						c109.74,0,199.01,89.28,199.01,199.01c0,53.18-20.7,103.16-58.27,140.74C1078.46,798.43,1028.48,819.13,975.36,819.13z
						 M417.33,424.95c-52.15,0-101.17,20.3-138.03,57.15c-36.4,36.4-56.7,84.76-57.15,136.16c-0.49,51.25,19.61,100.03,56.57,137.35
						c37.58,37.93,89.41,59.69,142.22,59.69h554.4c52.1,0,101.12-20.3,138.02-57.15c36.85-36.85,57.15-85.87,57.15-138.02
						c0-107.62-87.55-195.17-195.17-195.17H612.39l-0.01,0.23c-4.6-0.14-9.14-0.23-13.59-0.23H417.33z"/><path fill="#060f11" d="M975.36,820.57h-554.4c-54.21,0-107.41-22.33-145.97-61.25c-37.97-38.33-58.6-88.44-58.1-141.11
						c0.46-52.79,21.31-102.46,58.69-139.84c37.85-37.85,88.2-58.69,141.76-58.69h181.46c1.11,0,2.22,0.01,3.34,0.02
						c0.11-0.01,0.22-0.02,0.34-0.02h372.89c110.53,0,200.45,89.92,200.45,200.45c0,53.56-20.85,103.91-58.69,141.76
						C1079.21,799.73,1028.87,820.57,975.36,820.57z M417.33,426.39c-51.77,0-100.42,20.15-137.01,56.73
						c-36.13,36.13-56.28,84.13-56.73,135.16c-0.48,50.87,19.46,99.28,56.16,136.32c37.31,37.66,88.77,59.26,141.2,59.26h554.4
						c51.72,0,100.38-20.15,137.01-56.73c36.58-36.58,56.72-85.23,56.72-137c0-106.82-86.91-193.73-193.73-193.73H613.68
						c-0.41,0.16-0.85,0.25-1.34,0.23c-4.58-0.14-9.11-0.23-13.55-0.23H417.33z"/><path fill="#141323" d="M479.76,551.61c-31.27-31.27-82.15-31.27-113.41,0c-31.27,31.27-31.27,82.15,0,113.42
						c27.69,27.69,70.74,30.84,101.94,9.5l40.83,40.83c5.79,5.79,15.18,5.79,20.97,0s5.79-15.18,0-20.97l-40.83-40.83
						C510.6,622.35,507.45,579.3,479.76,551.61z M458.79,644.06c-19.71,19.71-51.77,19.71-71.48,0c-19.71-19.71-19.71-51.77,0-71.48
						c19.71-19.71,51.77-19.71,71.47,0C478.5,592.29,478.5,624.35,458.79,644.06z"/><path fill="#060f11" d="M629.33,739.72c-1.86,0-3.36-1.5-3.36-3.36V514.81c0-1.86,1.5-3.36,3.36-3.36s3.36,1.5,3.36,3.36v221.55
						C632.69,738.21,631.19,739.72,629.33,739.72z"/><polyline fill="#ffc1a4" points="2144.9 1918.09 2056.19 1846.87 1966.28 1969.15 2082.4 2039.61"/><polygon points="2014.7 1996.86 2123.26 1900.71 2097.17 1880.22"/><path fill="#ff452d" d="M2118.03,2211.18c0.18,0.15,0.42,0.29,0.62,0.41l23.36,14.48l141.13-227.72l-22.79-14.12l-7.29-4.53
												c-46.77-26.37-109.45-72.16-109.45-72.16l-82.06,134.08l14.29,12.11c11.57,9.83,19.31,22.82,22.67,36.86
												c3.36,14.09,2.36,29.18-3.55,43.17C2082.27,2161.73,2092.18,2194.75,2118.03,2211.18z"/><path d="M2118.03,2211.18c0.18,0.15,0.42,0.29,0.62,0.41l23.36,14.48l141.13-227.72l-22.77-14.15l-0.02,0.03
												L2118.03,2211.18z"/><path fill="#060606" d="M2096.68,2087.84c-1.2,0-2.37-0.57-3.1-1.58c-1.02-1.4-0.97-3.3,0.1-4.65l24.41-30.6l-29.54,9.8
												c-1.6,0.53-3.37-0.05-4.35-1.44c-0.97-1.39-0.92-3.25,0.12-4.58l31.26-39.81c1.31-1.67,3.72-1.96,5.39-0.65
												c1.67,1.31,1.96,3.72,0.65,5.39l-23.38,29.78l29.71-9.86c1.6-0.53,3.39,0.05,4.36,1.45c0.97,1.39,0.91,3.26-0.15,4.59
												l-23.77,29.8l30.71-11.57c1.98-0.74,4.2,0.25,4.95,2.24c0.75,1.98-0.26,4.2-2.24,4.95l-43.76,16.5
												C2097.59,2087.76,2097.13,2087.84,2096.68,2087.84z"/><path fill="#060606" d="M2100.91,2127.79c-0.41,0-0.82-0.07-1.23-0.2c-2-0.68-3.08-2.84-2.41-4.84
												c0.09-0.28,9.63-27.57,45.7-19.89c2.07,0.44,3.4,2.48,2.96,4.55c-0.45,2.08-2.49,3.39-4.56,2.96
												c-29.19-6.21-36.52,13.97-36.82,14.83C2104,2126.79,2102.51,2127.79,2100.91,2127.79z"/><path fill="#141323" d="M2124.57,1858.85l-152.12,206.26L1590.04,1767l-21.92-17.09c-25.88-15.32-46.15-37.2-59.44-62.66
										c-16.01-30.64-21.89-66.42-15.2-102.02l68.73-365.41l254.41-17.39l-70.57,381.34L2124.57,1858.85z"/><path d="M1740.62,1537.71l-176.58,209.71c-23.92-15.17-42.77-36.05-55.37-60.17c67.96-55.71,219.7-177,219.7-177
										L1740.62,1537.71z"/><path fill="#fff" d="M1972.16,1910.96c-0.66,0-1.34-0.2-1.92-0.61l-324.41-227.44c-36.61-25.67-52.87-71.77-40.46-114.73
										l74.03-256.31c0.52-1.78,2.37-2.81,4.16-2.29c1.78,0.51,2.81,2.38,2.29,4.16l-74.03,256.31
										c-11.61,40.2,3.61,83.34,37.86,107.36l324.41,227.44c1.52,1.07,1.89,3.16,0.82,4.68
										C1974.26,1910.47,1973.22,1910.96,1972.16,1910.96z"/><polyline fill="#ffc1a4" points="1179.53 2083.84 1252.79 1996.81 1132.63 1904.08 1059.5 2018.54"/><polygon points="1103.81 1951.85 1197.4 2062.61 1218.49 2037"/><path fill="#ff452d" d="M887.15,2050.17c-0.15,0.18-0.3,0.41-0.43,0.61l-15.02,23.01l224.38,146.38l14.64-22.46l4.7-7.18
												c27.45-46.14,74.68-107.75,74.68-107.75l-132.14-85.15l-12.44,14c-10.09,11.34-23.27,18.78-37.37,21.81
												c-14.16,3.03-29.23,1.68-43.07-4.55C937.41,2015.58,904.17,2024.72,887.15,2050.17z"/><path d="M887.15,2050.17c-0.15,0.18-0.3,0.41-0.43,0.61l-15.02,23.01l224.38,146.38l14.67-22.44l-0.03-0.03
												L887.15,2050.17z"/><path fill="#060606" d="M1030.26,2079.76c-1.59,0-3.07-0.99-3.62-2.57l-15.47-44.13c-0.57-1.63,0.02-3.44,1.44-4.43
												c1.42-0.98,3.32-0.9,4.65,0.21l30.02,25.1l-9.11-29.75c-0.5-1.62,0.13-3.37,1.54-4.31c1.4-0.94,3.26-0.85,4.58,0.23
												l39.08,32.17c1.64,1.35,1.87,3.77,0.52,5.4c-1.35,1.64-3.76,1.87-5.4,0.52l-29.23-24.06l9.16,29.93
												c0.5,1.62-0.13,3.38-1.55,4.32c-1.41,0.94-3.28,0.84-4.59-0.25l-29.24-24.45l10.86,30.97c0.7,2-0.35,4.19-2.35,4.89
												C1031.11,2079.69,1030.68,2079.76,1030.26,2079.76z"/><path fill="#060606" d="M991.13,2080.58c-0.29,0-0.59-0.03-0.89-0.1c-2.06-0.49-3.34-2.56-2.85-4.62
												c6.88-29.03-13.12-36.84-13.97-37.16c-1.98-0.74-3-2.94-2.28-4.92s2.91-3.01,4.89-2.3c0.28,0.1,27.33,10.28,18.83,46.15
												C994.44,2079.4,992.87,2080.58,991.13,2080.58z"/><path fill="#141323" d="M1960.14,1166.16l-6.36,65.17c-8.74,89.58-53.12,171.88-123.16,228.41l-241.42,194.83l-347.7,401.35
										l-182.01-140.42l321.2-383.36c6.74-9.03,13.92-17.72,21.5-26.06l287.95-298.4L1960.14,1166.16z"/><path fill="#fff" d="M1510.09,1400.87c-0.82,0-1.65-0.3-2.3-0.91c-1.35-1.27-1.42-3.4-0.15-4.75L1620,1275.53
										c1.27-1.35,3.39-1.42,4.75-0.15c1.35,1.27,1.42,3.4,0.15,4.75l-112.36,119.68
										C1511.88,1400.51,1510.99,1400.87,1510.09,1400.87z"/><path fill="#ffc1a4" d="M1388.7,915.41l-85.05,175.48l-197.85-0.68l-12.59,165.29l246.71,22.32
													c60.42-2.43,113.7-40.31,135.83-96.59l74.29-188.9L1388.7,915.41z"/><polygon fill="#f7b094" points="1354.3 986.38 1497.51 1125.91 1529.86 1049.5"/><path fill="#4a4ddc" d="M1536.5,744.65l-71.23,24.88c-33.36,11.65-60.32,36.69-74.39,69.11
													c-24.03,55.37-58.86,136.14-57.53,136.14c2.03,0,193.74,111.38,193.74,111.38l120.16-253.15L1536.5,744.65z"/><path fill="#4a4ddc" d="M1543.85,741.69l195.61-72.11c36.59-13.49,66.82-7.14,92.84,12.42
													c24.21,18.2,40.18,45.3,46.19,74.99l93.68,445.46l-432.25,23.46l-48.19-398.95
													C1487.25,789.89,1508.82,754.6,1543.85,741.69z"/><path fill="#ffc1a4" d="M2156.61,874.06c0,36.94-17.55,72.22-47.99,94.49l-270.22,197.62l-28.11,17.81
													c-30.87,26.88-78.83,68.38-82.9,71.22c-6.1,4.22-17.66,4.88-22.84-0.35c-8.6-8.64,2.69-22.04,3.92-23.46
													c-1.38,1.34-16.93,15.9-26.99,4.76c-10.6-11.75,6.18-28.49,6.18-28.49s-23.65,17.81-34.94,1.65
													c-10.14-14.63,4.19-30.37,7.56-32.79c-3.72,2.27-21.27,10.33-34.4-7.41c-11.33-15.24,53.18-68.38,53.18-68.38
													l-34.63,0.5c-8.56-1.73-14.71-9.29-14.63-18.05c0.04-5.53,2.53-10.44,6.45-13.74c3.07-2.57,6.91-4.11,11.14-4.22
													l91.57-17.24l19.39-9.14l224.34-147.59l-74.6-29.18L1965.32,712l122.52,55.44c35.17,15.93,60.24,48.19,66.96,86.2
													C2155.99,860.47,2156.61,867.27,2156.61,874.06z"/><polygon fill="#f7b094" points="1929.33 872.56 2015 734.47 1983.46 720.19"/><path fill="#4a4ddc" d="M1724.96,674.59l58.96-22.11c23.15-7.12,49.74-3.01,72.48,5.34l131.92,48.47l-68.94,196.69
													l-114.99-45.26c-45.94-15.33-77.22-57.94-78.08-106.36L1724.96,674.59z"/><path fill="#fff" d="M1919.39,906.35c-0.41,0-0.82-0.08-1.23-0.23l-114.99-45.26c-19.59-6.53-37.29-18.28-51.01-33.92
													c-1.23-1.39-1.09-3.52,0.31-4.74c1.39-1.22,3.51-1.09,4.74,0.31c12.94,14.75,29.63,25.83,48.26,32.04l115.15,45.33
													c1.73,0.68,2.58,2.63,1.9,4.36C1921.99,905.55,1920.72,906.35,1919.39,906.35z"/><path fill="#4a4ddc" d="M1020,847.57c-8.37-92.22-67.19-167.36-131.5-167.79c-64.31-0.42-109.62,74.02-101.32,166.25
											c8.37,92.22,67.27,167.36,131.58,167.79C983.03,1014.24,1028.37,939.8,1020,847.57z M911.96,983.95
											c-46.65-1.38-90.61-63.51-98.18-138.72c-7.6-75.22,24.11-135.07,70.8-133.69c46.65,1.42,90.61,63.54,98.18,138.76
											C990.36,925.51,958.64,985.37,911.96,983.95z"/><path fill="#e7ebfb" d="M911.96,983.95c-46.65-1.38-90.61-63.51-98.18-138.72c-7.6-75.22,24.11-135.07,70.8-133.69
											c46.65,1.42,90.61,63.54,98.18,138.76C990.36,925.51,958.64,985.37,911.96,983.95z" opacity=".3"/><path d="M813.77,845.24c7.56,75.2,51.5,137.33,98.2,138.7c8.67,0.26,16.82-1.59,24.32-5.34c-2.11,0.26-4.23,0.32-6.4,0.26
											c-46.69-1.37-90.64-63.51-98.25-138.7c-6.13-61.23,13.7-112.26,46.43-128.34C834.98,715.85,806.58,773.54,813.77,845.24z"/><path fill="#4a4ddc" d="M908.22,996.11l45.68,271.22c2.83,16.73,18.63,28.01,35.36,25.23c16.72-2.83,28-18.69,25.23-35.41
											l-45.74-271.28L908.22,996.11z"/><path fill="#ffc1a4" d="M1076.43,1083.81l-91.24-67.44c-13.92-10.29-33.54-7.33-43.81,6.59l0,0
											c-9.41,12.76-7.8,30.54,3.75,41.4l43.8,41.18l25.56,151.61l78.71-1.64l12.59-165.29L1076.43,1083.81z"/><path fill="#fff" d="M1522.73,1087c-1.68,0-3.13-1.25-3.33-2.96l-19.27-159.56c-0.22-1.84,1.09-3.52,2.94-3.74
										c1.81-0.22,3.51,1.09,3.74,2.93l19.27,159.56c0.22,1.84-1.09,3.52-2.94,3.74C1523,1086.99,1522.86,1087,1522.73,1087z"/><path fill="#fff" d="M1896.67,850.16c-0.3,0-0.61-0.04-0.93-0.13c-1.78-0.51-2.82-2.37-2.3-4.16l32.67-113.94
										c0.51-1.78,2.35-2.82,4.15-2.3c1.78,0.51,2.82,2.37,2.3,4.16l-32.67,113.94C1899.48,849.2,1898.13,850.16,1896.67,850.16z"/><path fill="#fff" d="M1497.86,1030.42c-0.59,0-1.18-0.15-1.72-0.48l-114.25-68.42c-1.59-0.95-2.11-3.02-1.16-4.61
										c0.95-1.59,3.02-2.11,4.61-1.16l114.25,68.42c1.59,0.95,2.11,3.02,1.16,4.61C1500.12,1029.84,1499,1030.42,1497.86,1030.42
										z"/><path fill="#fff" d="M1879.98,1316.17c-0.56,0-1.13-0.14-1.66-0.44c-23.03-13.09-36.34-40.52-32.38-66.7
										c0.28-1.83,2-3.09,3.82-2.82c1.83,0.28,3.1,1.99,2.82,3.82c-3.5,23.13,8.73,48.3,29.06,59.86
										c1.61,0.92,2.17,2.97,1.26,4.58C1882.29,1315.56,1881.15,1316.17,1879.98,1316.17z"/><path fill="#fff" d="M1214.58,1907.44c-0.72,0-1.44-0.23-2.05-0.7c-1.47-1.13-1.74-3.24-0.61-4.71l292.93-379.56
										c9.47-12.95,20.99-24.26,34.18-33.54l228.59-160.82c1.52-1.07,3.61-0.7,4.68,0.81c1.07,1.52,0.7,3.61-0.81,4.68
										l-228.59,160.82c-12.59,8.86-23.59,19.66-32.68,32.08l-292.98,379.63C1216.58,1906.99,1215.58,1907.44,1214.58,1907.44z"/><g><path fill="#fff" d="M1237.12,1988.16c-0.78,0-1.56-0.27-2.2-0.82l-93.13-80.72c-1.4-1.21-1.55-3.34-0.34-4.74
										c1.21-1.4,3.34-1.56,4.74-0.34l93.13,80.72c1.4,1.21,1.55,3.34,0.34,4.74C1239,1987.77,1238.06,1988.16,1237.12,1988.16z"/></g><g><path fill="#ffc1a4" d="M890.52,1109.22c22.09-20.48,74.04-38.89,94.48-6.74c14.42,22.69-11.42,34.86-11.42,34.86
										s16.36,1.62,20.69,14.51c4.33,13.04-12.66,22.34-12.66,22.34s16.33,10.89,15.68,21.11c-0.69,10.2-12.83,18-12.83,18
										s31.33,13.69,12.85,36.3c-18.03,22.06-59.73,17.42-68.33,7.39c-14.49-16.81,6.43-25.97,6.43-25.97s-20.96-7.54-20.76-19.71
										c0.13-7.78,4.94-11.9,8.4-13.88l-1.22-3.24c-7.26-2.84-20.85-9.3-25.52-19.3c-5.07-10.8,5.92-18.3,10.72-20.93l-0.86-2.23
										c-6.95-2.82-23.87-10.7-26.32-21.77C878.51,1123.84,882.84,1116.33,890.52,1109.22z"/><path fill="#060606" d="M916.08,1208.19c-0.46,0-0.93-0.1-1.38-0.3c-1.69-0.76-2.44-2.75-1.68-4.45
										c1.38-3.06,3.43-5.32,5.46-6.97c-7.99-3.36-20.48-10.01-25.22-20.14c-1.93-4.13-2.14-8.27-0.62-12.29
										c3.42-9.04,14.68-14.02,15.16-14.22c1.7-0.74,3.67,0.04,4.41,1.74c0.74,1.7-0.04,3.68-1.73,4.42
										c-2.54,1.11-9.57,5.16-11.56,10.46c-0.86,2.28-0.72,4.59,0.43,7.04c5.77,12.34,27.89,19.08,28.11,19.15
										c1.43,0.43,2.41,1.75,2.4,3.24c-0.01,1.49-1,2.8-2.44,3.21c-0.04,0.01-5.87,1.79-8.28,7.13
										C918.59,1207.45,917.36,1208.19,916.08,1208.19z"/><path fill="#060606" d="M928.99,1260.36c-0.94,0-1.88-0.4-2.55-1.17c-4.93-5.72-6.8-11.41-5.55-16.91
										c2.13-9.39,12.73-14.14,13.18-14.34c1.7-0.75,3.68,0.03,4.43,1.73c0.75,1.7-0.03,3.68-1.73,4.43
										c-0.07,0.03-7.98,3.62-9.34,9.69c-0.74,3.3,0.64,7.01,4.09,11.01c1.21,1.41,1.06,3.53-0.35,4.74
										C930.55,1260.09,929.77,1260.36,928.99,1260.36z"/><path fill="#060606" d="M957.86,1268.72c-13.92,0-26.46-3.78-31.41-9.53c-1.21-1.41-1.06-3.53,0.35-4.74
										c1.4-1.21,3.53-1.05,4.74,0.35c3.12,3.62,13.68,7.33,27.26,7.19c15.49-0.21,28.59-5.49,35.95-14.5
										c4.25-5.2,5.84-10.2,4.72-14.85c-2.4-10.03-16.17-16.22-16.31-16.28c-1.13-0.5-1.89-1.58-1.99-2.81
										c-0.1-1.23,0.49-2.42,1.52-3.09c0.11-0.07,10.72-7.05,11.27-15.42c0.44-6.71-10.37-15.51-14.2-18.06
										c-0.97-0.65-1.54-1.77-1.49-2.94c0.05-1.17,0.7-2.23,1.73-2.8c0.14-0.08,14.47-8.15,11.08-18.33
										c-3.54-10.61-17.66-12.21-17.8-12.22c-1.5-0.16-2.71-1.29-2.96-2.77c-0.25-1.48,0.5-2.96,1.86-3.6
										c0.1-0.05,10.65-5.18,13.28-14.31c1.39-4.85,0.29-10.15-3.27-15.75c-13.14-20.67-37.62-16.91-51.04-12.84
										c-26.1,7.93-48.16,27.77-47.91,38.45c0.04,1.86-1.43,3.39-3.28,3.44c-1.9,0.04-3.4-1.43-3.44-3.28
										c-0.35-15.09,24.75-36.55,52.68-45.03c25.94-7.88,47.32-2.17,58.66,15.66c4.65,7.31,6.01,14.46,4.04,21.25
										c-1.82,6.29-6.18,10.98-10.01,14.06c5.66,2.1,12.74,6.35,15.56,14.82c3.66,10.98-4.6,19.4-10.01,23.54
										c5.31,4.28,13.79,12.53,13.22,21.16c-0.49,7.52-5.99,13.7-10.03,17.28c5.25,3.22,13.22,9.4,15.36,18.28
										c1.64,6.81-0.39,13.77-6.04,20.69c-8.62,10.55-23.59,16.74-41.06,16.97C958.54,1268.72,958.2,1268.72,957.86,1268.72z"/><path fill="#060606" d="M956.13,1225.61c-1.65,0-3.09-1.21-3.32-2.89c-0.26-1.84,1.03-3.54,2.86-3.79
										c12.27-1.71,27.56-8.83,27.72-8.9c1.67-0.78,3.68-0.06,4.47,1.62c0.79,1.68,0.06,3.68-1.62,4.47
										c-0.66,0.31-16.36,7.62-29.64,9.47C956.44,1225.6,956.29,1225.61,956.13,1225.61z"/><path fill="#060606" d="M940.85,1189.11c-1.64,0-3.07-1.2-3.32-2.87c-0.27-1.84,1-3.54,2.83-3.81
										c13-1.91,39.87-11.3,40.14-11.4c1.75-0.62,3.67,0.31,4.28,2.06c0.61,1.75-0.31,3.67-2.06,4.28
										c-1.13,0.4-27.75,9.7-41.38,11.7C941.18,1189.09,941.02,1189.11,940.85,1189.11z"/><path fill="#060606" d="M934.01,1150.65c-0.07,0-0.15,0-0.23,0c-1.86-0.02-3.35-1.53-3.33-3.39c0.02-1.85,1.41-3.35,3.39-3.33
										c11.61,0.07,38.33-9.63,38.6-9.73c1.74-0.64,3.67,0.25,4.31,1.99c0.64,1.74-0.25,3.67-1.99,4.31
										C973.64,1140.93,947.07,1150.65,934.01,1150.65z"/></g><g><path fill="#060606" d="M1400.82,437.09c-5.25,24.13-3.54,50.24,7.73,72.21s32.74,39.17,57.22,42.44
								c13.22,1.77,27.51-0.77,37.73-9.33c12.92-10.83,16.98-30.91,9.27-45.91"/></g><g><path fill="#ffc1a4" d="M1611.48,822.61c-69.96,14.78-74.6-52.99-52.64-83.86l-5.68-36.94l-4.34-28.03l6.53-9.18
											l72.03-101.02l43.27,170.55C1670.64,734.15,1687.15,806.64,1611.48,822.61z"/><path fill="#060606" d="M1589.59,654.06c-3.65,20.73-24,38.55-36.44,47.76l-4.34-28.03l6.53-9.18L1589.59,654.06z"/><circle cx="1520.76" cy="572.05" r="110.2" fill="#ffc1a4"/><path fill="#060606" d="M1515.93,570.89c0.02,6.87-3.82,12.47-8.57,12.53c-4.78,0.01-8.72-5.52-8.78-12.35
										c-0.05-6.91,3.79-12.52,8.57-12.52C1511.9,558.48,1515.83,564.01,1515.93,570.89z"/><path fill="#060606" d="M1459.24,571.96c0.02,6.87-3.82,12.47-8.57,12.53c-4.78,0.01-8.72-5.52-8.78-12.35
										c-0.05-6.91,3.79-12.52,8.57-12.52C1455.2,559.55,1459.14,565.08,1459.24,571.96z"/><path fill="#060606" d="M1642.24,624.22c-6.46-0.78-14.7-95.26-36.53-79.54c-24.31,17.53,6.95,15.04,6.95,15.04l-29.28,8.14
										l-20.68-35.84c0,0-51.42,22.36-85.35-30.68c0,0-57.59,20.14-75.06-44.57c-17.46-64.67,44.06-84.11,97.87-88.2
										c27.1-2.05,41.56,14.67,49.24,31.78c8.47-4.35,58.26-24.36,97.73,6.89C1690.43,441.53,1734.13,582.26,1642.24,624.22z"/><circle cx="1623.5" cy="544.49" r="30.25" fill="#ffc1a4"/></g><g><path fill="#060606" d="M1478.82,634.29c-3.01,0-6.4-0.03-9.65-0.98c-4.07-1.19-7.26-3.73-8.76-6.98
								c-2.64-5.73,0.25-11.92,2.37-16.44c4.62-9.89,8.26-20.3,10.79-30.94c0.34-1.44,1.78-2.34,3.24-1.99
								c1.44,0.34,2.34,1.79,1.99,3.24c-2.62,10.99-6.37,21.74-11.15,31.97c-2.16,4.62-3.83,8.71-2.35,11.91
								c0.85,1.84,2.81,3.32,5.38,4.08c2.62,0.76,5.46,0.77,8.43,0.76c1.48,0,2.69,1.2,2.69,2.69
								C1481.79,633.18,1480.4,634.3,1478.82,634.29z"/></g><g><path fill="#fff" d="M1538.66,517.54c-6.24,0-12.57-0.64-18.74-2.67c-11.17-3.67-19.51-11.58-22.31-21.16
								c-0.52-1.78,0.5-3.65,2.28-4.17c1.8-0.51,3.65,0.51,4.17,2.29c2.14,7.34,9.02,13.73,17.96,16.66
								c8.72,2.86,18.2,2.57,27.14,1.82c1.91-0.13,3.48,1.22,3.63,3.07c0.15,1.85-1.22,3.47-3.07,3.63
								C1546.11,517.31,1542.4,517.54,1538.66,517.54z"/></g><g><path fill="#fff" d="M1451.65,488.64c-10.47,0-19.51-7.54-24.12-15.62c-5.22-9.13-6.54-19.81-7.7-29.23
								c-0.23-1.84,1.08-3.52,2.92-3.75c1.91-0.22,3.52,1.08,3.75,2.92c1.14,9.22,2.32,18.76,6.87,26.72
								c3.79,6.65,11.78,13.27,20.34,12.09c1.86-0.25,3.53,1.04,3.79,2.87c0.25,1.84-1.03,3.53-2.87,3.79
								C1453.62,488.57,1452.63,488.64,1451.65,488.64z"/></g><g><path fill="#fff" d="M1656.7,481.16c-1.67,0-3.11-1.24-3.33-2.93c-1.83-14.34-9.87-28.01-21.51-36.59
								c-1.5-1.1-1.81-3.2-0.71-4.7c1.09-1.49,3.19-1.82,4.69-0.71c13.09,9.64,22.14,25.02,24.19,41.15
								c0.23,1.84-1.07,3.52-2.91,3.76C1656.99,481.16,1656.84,481.16,1656.7,481.16z"/></g><g><circle cx="1532.47" cy="633.91" r="13.15" fill="#060606"/></g><g><path fill="#060f11" d="M1715.4,1261.9c-5.08,0-10.05-1.44-13.27-4.71c-4.68-4.74-4.84-10.35-3.4-15.31
									c-2.69,1.12-5.73,1.85-8.58,1.79c-4.35-0.11-8.11-1.88-11.18-5.27c-6.2-6.85-4.94-14.8-1.98-21.2
									c-4.49,1.67-9.65,2.77-14.61,1.98c-5.13-0.83-9.31-3.51-12.41-7.97c-7.06-10.16-4.08-20.52,0.27-27.82
									c-8.43,1.08-18.8-1.14-27.07-12.26c-10.77-14.49,26.56-49.7,46.53-66.89l-25.22,0.37c-0.23,0-0.47-0.02-0.7-0.06
									c-10.15-2.01-17.46-10.99-17.37-21.35c0.07-6.31,2.88-12.26,7.71-16.31c3.64-3.06,8.1-4.78,12.92-5.01l91.32-17.13
									c1.83-0.33,3.58,0.86,3.92,2.68c0.34,1.82-0.86,3.58-2.68,3.92l-91.56,17.18c-0.17,0.03-0.33,0.05-0.5,0.06
									c-3.4,0.12-6.54,1.31-9.09,3.45c-3.33,2.79-5.26,6.88-5.31,11.23c-0.06,7.02,4.81,13.12,11.63,14.62l34.26-0.5
									c1.46,0.02,2.71,0.86,3.2,2.2c0.49,1.34,0.08,2.84-1.02,3.75c-29.85,24.57-58.46,55.95-52.64,63.78
									c12.57,16.91,29.22,6.95,29.93,6.52c1.53-0.94,3.53-0.51,4.54,0.98c1.01,1.49,0.66,3.51-0.78,4.58
									c-0.17,0.13-16.25,14.53-6.76,28.18c2.05,2.95,4.65,4.64,7.95,5.17c9.82,1.58,22.1-7.47,22.22-7.56
									c1.41-1.05,3.39-0.85,4.55,0.49c1.15,1.33,1.08,3.33-0.16,4.57c-0.15,0.15-14.41,14.67-6.1,23.84c1.81,2,3.9,3.01,6.36,3.07
									c6.34,0.17,13.61-5.78,15.91-8.07c1.29-1.29,3.37-1.32,4.69-0.06c1.32,1.26,1.4,3.34,0.18,4.69
									c-0.11,0.12-10.87,12.19-4.17,18.96c3.97,4.02,13.69,3.32,18.58-0.05c4.82-3.35,58.14-50.31,78.27-68.12
									c1.39-1.23,3.51-1.1,4.74,0.29c1.23,1.39,1.1,3.51-0.29,4.74c-2.97,2.62-72.76,64.34-78.9,68.61
									C1725.67,1260.45,1720.49,1261.9,1715.4,1261.9z"/><path fill="#060f11" d="M1708.6,1234.61c-0.9,0-1.79-0.36-2.45-1.06c-1.27-1.35-1.2-3.48,0.15-4.75l38.86-36.51
									c1.35-1.27,3.48-1.2,4.75,0.15s1.2,3.48-0.15,4.75l-38.86,36.51C1710.25,1234.31,1709.42,1234.61,1708.6,1234.61z"/><path fill="#060f11" d="M1687.67,1211.03c-0.96,0-1.91-0.41-2.58-1.2c-1.19-1.42-1-3.54,0.42-4.73l41.46-34.77
									c1.41-1.19,3.53-1.01,4.74,0.42c1.19,1.42,1,3.54-0.42,4.73l-41.46,34.77C1689.2,1210.77,1688.44,1211.03,1687.67,1211.03z"/><path fill="#060f11" d="M1660.25,1179.86c-0.96,0-1.91-0.41-2.57-1.2c-1.19-1.42-1.01-3.54,0.41-4.73l42.21-35.41
									c1.42-1.19,3.54-1.01,4.73,0.42c1.19,1.42,1.01,3.54-0.41,4.73l-42.21,35.41
									C1661.78,1179.6,1661.01,1179.86,1660.25,1179.86z"/></g><g><path fill="#ffd400" d="M1171.61,906.59c-3.89,4.48-7.52,7.93-10.88,10.37c-3.37,2.44-6.75,3.81-10.17,4.1
						c-3.41,0.29-6.98-0.46-10.69-2.25c-3.71-1.79-7.76-4.58-12.12-8.37c-4.59-3.98-8-7.66-10.23-11.04
						c-2.24-3.38-3.45-6.78-3.64-10.2c-0.19-3.42,0.68-6.97,2.63-10.64c1.94-3.67,4.86-7.75,8.75-12.22
						c3.98-4.59,7.68-8.13,11.09-10.62c3.41-2.5,6.85-3.92,10.31-4.26c3.46-0.34,7.02,0.35,10.68,2.09
						c3.66,1.74,7.78,4.6,12.37,8.59c4.37,3.79,7.7,7.4,9.99,10.83c2.29,3.43,3.5,6.88,3.65,10.35c0.14,3.48-0.79,7.07-2.77,10.81
						C1178.58,897.84,1175.6,902,1171.61,906.59z M1341.99,808.35c-7.78,8.95-16.08,15.92-24.9,20.89
						c-8.82,4.98-17.83,8.07-27.02,9.28c-9.19,1.21-18.41,0.58-27.66-1.9c-9.25-2.48-18.18-6.69-26.8-12.65l-29.05,30.79
						c-1.82,1.87-4.65,1.99-8.51,0.37c-3.86-1.63-8.62-4.9-14.3-9.83c-3.6-3.13-6.56-5.84-8.88-8.14c-2.31-2.29-3.99-4.28-5.03-5.95
						c-1.04-1.67-1.56-3.17-1.54-4.5c0-1.33,0.48-2.65,1.41-3.94l32.1-39.93c2.92-3.59,5.55-6.28,7.89-8.09
						c2.33-1.81,4.64-2.86,6.93-3.18c2.28-0.32,4.51,0.04,6.69,1.07c2.17,1.03,4.46,2.58,6.87,4.67l2.29,1.99
						c5.78,5.02,11.58,8.44,17.4,10.23c5.81,1.79,11.41,2.35,16.8,1.66c5.38-0.69,10.5-2.56,15.37-5.61
						c4.85-3.06,9.33-6.93,13.4-11.63c4.55-5.24,7.99-10.68,10.31-16.33c2.32-5.64,3.35-11.36,3.1-17.13
						c-0.25-5.77-1.91-11.47-4.97-17.1c-3.06-5.63-7.65-11.1-13.76-16.41c-5.57-4.84-10.95-8.55-16.16-11.16
						c-5.21-2.61-9.91-4.58-14.1-5.93c-4.2-1.34-7.78-2.35-10.74-3.01c-2.97-0.66-5-1.47-6.09-2.42c-0.77-0.67-1.26-1.53-1.49-2.59
						c-0.23-1.06,0.01-2.44,0.71-4.12c0.7-1.69,1.96-3.85,3.77-6.49c1.81-2.64,4.33-5.81,7.56-9.53c3.32-3.82,5.9-6.46,7.74-7.92
						c1.84-1.46,3.79-2.27,5.83-2.41c2.04-0.14,5.23,0.38,9.57,1.56c4.33,1.18,9.18,2.99,14.53,5.44c5.35,2.44,11.02,5.5,17.02,9.18
						c6,3.68,11.84,7.98,17.51,12.91c12.88,11.19,22.36,22.54,28.46,34.06c6.09,11.51,9.44,22.81,10.07,33.89
						c0.62,11.08-1.06,21.68-5.07,31.8C1355.23,790.35,1349.48,799.73,1341.99,808.35z"/></g><g><path fill="#ff452d" d="M491.6,1004.21c11.4-3.26,22.16-4.56,32.27-3.91c10.11,0.65,19.35,2.97,27.71,6.97
						c8.37,4.01,15.74,9.57,22.14,16.69c6.4,7.12,11.58,15.53,15.55,25.22l41.15-9.95c2.54-0.57,4.99,0.87,7.33,4.34
						c2.34,3.47,4.55,8.82,6.61,16.04c1.31,4.59,2.31,8.48,3,11.67c0.68,3.18,1.01,5.76,0.97,7.73c-0.04,1.96-0.43,3.5-1.16,4.61
						c-0.73,1.11-1.84,1.96-3.34,2.53l-48.69,15.94c-4.41,1.41-8.08,2.23-11.03,2.47c-2.94,0.24-5.45-0.13-7.54-1.11
						c-2.08-0.99-3.76-2.5-5.02-4.54c-1.26-2.05-2.33-4.6-3.2-7.66l-0.83-2.92c-2.1-7.36-5.1-13.39-9-18.07
						c-3.89-4.68-8.28-8.2-13.17-10.56c-4.89-2.37-10.2-3.59-15.94-3.69c-5.74-0.09-11.6,0.72-17.58,2.43
						c-6.67,1.9-12.52,4.59-17.55,8.06c-5.02,3.46-9.01,7.68-11.95,12.66c-2.94,4.98-4.66,10.66-5.17,17.04
						c-0.51,6.39,0.35,13.47,2.57,21.26c2.03,7.09,4.51,13.15,7.45,18.17c2.94,5.02,5.8,9.25,8.58,12.67
						c2.78,3.42,5.24,6.21,7.36,8.39c2.13,2.17,3.39,3.96,3.78,5.35c0.28,0.97,0.22,1.96-0.16,2.98c-0.39,1.02-1.33,2.04-2.85,3.07
						c-1.51,1.03-3.74,2.16-6.7,3.38c-2.96,1.22-6.8,2.5-11.53,3.85c-4.87,1.39-8.47,2.19-10.82,2.41c-2.34,0.21-4.41-0.17-6.2-1.16
						c-1.78-0.99-4.18-3.17-7.17-6.53c-2.99-3.35-6.06-7.52-9.21-12.49c-3.15-4.96-6.23-10.62-9.25-16.98
						c-3.02-6.36-5.56-13.15-7.63-20.38c-4.68-16.4-6.43-31.09-5.25-44.07c1.19-12.97,4.54-24.26,10.06-33.89
						c5.52-9.62,12.73-17.58,21.6-23.87C470.68,1012.06,480.61,1007.34,491.6,1004.21z M687.97,1014.9
						c5.7-1.63,10.63-2.55,14.78-2.75c4.15-0.21,7.74,0.49,10.76,2.11c3.02,1.62,5.6,4.2,7.73,7.72c2.14,3.53,4,8.07,5.59,13.63
						c1.67,5.84,2.52,10.79,2.54,14.84c0.03,4.05-0.81,7.56-2.52,10.53c-1.71,2.97-4.38,5.47-8.02,7.48c-3.63,2.01-8.3,3.84-14,5.47
						c-5.84,1.67-10.87,2.61-15.09,2.84c-4.22,0.23-7.87-0.46-10.96-2.06c-3.09-1.6-5.69-4.12-7.81-7.58
						c-2.11-3.46-4.01-8.11-5.67-13.95c-1.59-5.56-2.41-10.4-2.46-14.52c-0.05-4.12,0.82-7.68,2.59-10.67
						c1.78-2.99,4.52-5.5,8.22-7.54C677.36,1018.42,682.14,1016.57,687.97,1014.9z"/></g><g><path fill="#fff" d="M1952.32,599.45L1779.7,469.23c-47.62-35.93-36.78-110.29,19.12-131.11l188.38-70.19
					c51.75-19.28,106.03,21.66,101.7,76.72l-15.76,200.42C2068.47,604.53,1999.94,635.38,1952.32,599.45z"/><path fill="#060f11" d="M1997.57,618.21c-16.71,0-33.18-5.44-47.28-16.07l0,0l-172.62-130.23
					c-23.36-17.62-34.78-45.43-30.56-74.38c4.22-28.96,23.12-52.34,50.54-62.56l188.38-70.19c25.39-9.46,53.46-5.36,75.08,10.95
					c21.63,16.32,33.27,42.18,31.14,69.18l-15.76,200.42c-2.29,29.17-19.59,53.76-46.27,65.77
					C2019.64,615.86,2008.55,618.21,1997.57,618.21z M1954.34,596.77c21.37,16.12,48.7,19.19,73.12,8.2
					c24.41-10.99,40.24-33.48,42.34-60.17l15.76-200.42c1.94-24.71-8.71-48.37-28.49-63.29c-19.79-14.93-45.46-18.67-68.68-10.02
					l-188.38,70.19c-25.09,9.35-42.37,30.74-46.24,57.23c-3.86,26.49,6.59,51.93,27.96,68.05L1954.34,596.77z"/><path fill="#ff452d" d="M2015.26,385.42c-0.8,1.02-1.68,1.99-2.63,2.94l-56.84,56.11c-7.17,7.1-18.5,7.75-26.45,1.54
						c-7.96-6.22-10.04-17.37-4.9-26.05l40.75-68.69c9.36-15.74,30.39-19.7,44.81-8.42
						C2023.37,353.29,2025.42,372.43,2015.26,385.42z"/><circle cx="1909.74" cy="472.1" r="20.83" fill="#ff452d"/></g><g><path fill="#fff" d="M817.04,1932.45c0,0,13.14-41.61-4.82-53.43s-49.93,0-49.93,0s24.97-31.97,18.4-57.81
				c-6.57-25.84-29.78-38.98-53.87-11.83c0,0,59.28-98.15,41.17-135.34c-32.85-67.45-121.32,27.16-131.4,113.25
				c0,0-25.84-173.7-70.52-169.75s-17.08,118.26-7.45,143.22c0,0-55.62-81.03-93.73-54.31s6.13,180.89,107.31,226"/><path fill="#060f11" d="M572.21,1935.81c-0.46,0-0.92-0.09-1.37-0.29c-75.69-33.75-117.05-124.79-122.24-178.66
				c-2.51-26.03,2.6-44.91,14.37-53.16c7.56-5.3,16.25-7.11,25.82-5.38c23.41,4.23,47.28,28.85,60.99,45.38
				c-8.81-32.49-19.6-91.54-3.67-117.1c4.67-7.5,11.29-11.67,19.67-12.41c38.72-3.4,62.6,106.51,70.98,153.48
				c13.71-56.19,56.89-113.11,93.54-119.33c12.18-2.07,29.13,0.45,40.72,24.23c14.34,29.44-16.18,92.82-32.28,122.6
				c7-3.87,14.1-5.1,20.81-3.46c11.42,2.77,20.55,13.49,24.41,28.67c4.91,19.33-6.28,41.24-13.51,52.74
				c11.35-2.77,30.57-5.51,43.64,3.1c19.85,13.07,6.74,55.45,6.17,57.25c-0.56,1.77-2.44,2.75-4.21,2.19
				c-1.77-0.56-2.75-2.44-2.19-4.21c3.43-10.9,9.51-41.08-3.46-49.62c-16.3-10.74-46.61,0.24-46.92,0.35
				c-1.41,0.52-2.99,0.04-3.88-1.17c-0.88-1.21-0.86-2.86,0.06-4.05c0.24-0.31,23.87-31,17.79-54.92
				c-3.23-12.72-10.52-21.62-19.48-23.8c-9.03-2.19-18.92,2.43-28.62,13.37c-1.15,1.3-3.1,1.51-4.51,0.48
				c-1.4-1.03-1.78-2.96-0.88-4.44c0.58-0.97,58.13-97.01,41.03-132.13c-7.84-16.09-19.13-23.01-33.55-20.55
				c-38.39,6.53-84.56,73.51-91.49,132.73c-0.2,1.67-1.6,2.94-3.28,2.97c-1.64-0.03-3.13-1.2-3.37-2.86
				c-7.06-47.44-33.01-169.87-66.9-166.9c-6.25,0.55-11.02,3.58-14.56,9.27c-17.26,27.71,1.6,107.76,9.95,129.4
				c0.61,1.59-0.06,3.39-1.57,4.18c-1.51,0.79-3.37,0.34-4.34-1.07c-0.36-0.52-35.98-51.9-68.27-57.73
				c-7.85-1.42-14.65-0.02-20.76,4.27c-9.57,6.71-13.77,23.84-11.54,47.02c5.03,52.25,45.06,140.52,118.28,173.17
				c1.69,0.76,2.46,2.74,1.7,4.44C574.72,1935.06,573.49,1935.81,572.21,1935.81z"/><path fill="#060f11" d="M654.69,1896.83c-1.84,0-3.34-1.49-3.36-3.33c-0.31-39.18,10.04-77.75,29.92-111.52
				c0.94-1.6,3-2.13,4.6-1.19c1.6,0.94,2.13,3,1.19,4.6c-19.26,32.73-29.29,70.09-28.99,108.06c0.02,1.86-1.48,3.37-3.33,3.39
				C654.71,1896.83,654.7,1896.83,654.69,1896.83z"/><path fill="#060f11" d="M626.84,1876.86c-1.41,0-2.72-0.89-3.19-2.3l-33.79-102.03c-0.58-1.76,0.37-3.66,2.13-4.25
				c1.77-0.59,3.66,0.37,4.24,2.13l33.79,102.03c0.58,1.76-0.37,3.66-2.13,4.25C627.54,1876.81,627.19,1876.86,626.84,1876.86z"/><path fill="#060f11" d="M581.28,1897.5c-1.1,0-2.17-0.54-2.82-1.52c-14.66-22.48-26.96-46.59-36.56-71.66
				c-0.66-1.73,0.2-3.68,1.94-4.34c1.73-0.67,3.67,0.2,4.34,1.94c9.42,24.62,21.51,48.31,35.91,70.39c1.01,1.55,0.58,3.64-0.98,4.65
				C582.54,1897.33,581.9,1897.5,581.28,1897.5z"/><path fill="#060f11" d="M682.32,1900.16c-0.47,0-0.95-0.1-1.4-0.31c-1.69-0.78-2.42-2.77-1.65-4.46l25.23-54.83
				c0.78-1.69,2.77-2.42,4.46-1.65c1.69,0.78,2.42,2.77,1.65,4.46l-25.23,54.83C684.81,1899.43,683.59,1900.16,682.32,1900.16z"/></g><g><path fill="#fff" d="M1716.38,2202.01c0,0,16.29-20.86,12-37.73c-4.29-16.86-19.43-25.44-35.15-7.72c0,0,38.68-64.05,26.87-88.31
				c-21.44-44.01-74.13-12.84-80.7,43.35c0,0-21.9-82.79-51.05-80.21c-29.15,2.57-11.15,77.17-4.86,93.46
				c0,0-36.3-52.87-61.16-35.44c-24.86,17.43,4,118.04,70.02,147.47"/><path fill="#060f11" d="M1592.34,2240.24c-0.45,0-0.92-0.09-1.36-0.29c-49.82-22.21-77.03-82.1-80.45-117.53
				c-1.68-17.42,1.83-30.12,9.87-35.76c5.2-3.64,11.16-4.89,17.72-3.7c13.87,2.51,27.9,15.64,37.21,26.19
				c-5.45-22.02-10.83-56.7-1.01-72.46c3.25-5.22,7.87-8.13,13.72-8.64c24.35-2.16,42.83,44.96,50.65,69.35
				c7.36-27.54,26.16-49.24,47.2-52.82c15.5-2.63,29.07,5.46,37.23,22.21c9.1,18.68-8.58,57.36-19.44,77.98
				c3.77-1.43,7.54-1.74,11.18-0.86c7.88,1.91,14.16,9.22,16.78,19.55c4.64,18.25-11.9,39.72-12.61,40.62
				c-1.14,1.46-3.25,1.72-4.71,0.58c-1.46-1.14-1.72-3.25-0.58-4.71c0.15-0.2,15.23-19.79,11.4-34.83
				c-2.01-7.88-6.44-13.36-11.86-14.68c-5.37-1.31-11.59,1.67-17.53,8.36c-1.15,1.3-3.1,1.51-4.5,0.48
				c-1.4-1.03-1.78-2.96-0.88-4.44c10.49-17.38,35.76-66.56,26.72-85.1c-6.85-14.07-17.53-20.66-30.05-18.53
				c-18.39,3.13-40.16,25.5-44.29,60.8c-0.19,1.6-1.49,2.85-3.1,2.96c-1.59,0.11-3.07-0.93-3.49-2.49
				c-5.89-22.27-26.04-79.66-47.51-77.73c-3.69,0.33-6.51,2.13-8.61,5.5c-11.05,17.74,1.19,69.41,6.59,83.4
				c0.61,1.59-0.06,3.39-1.57,4.18c-1.51,0.8-3.37,0.33-4.34-1.07c-0.23-0.33-23.21-33.47-43.79-37.18
				c-4.8-0.87-8.94-0.02-12.67,2.59c-5.89,4.13-8.45,14.92-7.04,29.61c3.26,33.81,29.15,90.93,76.5,112.04
				c1.69,0.76,2.46,2.74,1.7,4.44C1594.86,2239.49,1593.63,2240.24,1592.34,2240.24z"/><path fill="#060f11" d="M1598.27,2215.24c-1.1,0-2.17-0.54-2.82-1.52c-9.62-14.74-17.68-30.54-23.97-46.98
				c-0.66-1.73,0.21-3.68,1.94-4.34c1.71-0.66,3.67,0.2,4.34,1.94c6.12,15.99,13.96,31.37,23.32,45.71
				c1.02,1.55,0.58,3.64-0.97,4.65C1599.53,2215.06,1598.9,2215.24,1598.27,2215.24z"/><path fill="#060f11" d="M1664.19,2216.97c-0.47,0-0.94-0.1-1.4-0.31c-1.68-0.78-2.42-2.77-1.65-4.46l16.46-35.78
				c0.77-1.68,2.76-2.43,4.45-1.65c1.69,0.78,2.43,2.77,1.65,4.46l-16.46,35.78C1666.68,2216.25,1665.46,2216.97,1664.19,2216.97z"/></g><g><path fill="#060f11" d="M1638.52,2216.32c-1.39,0-2.68-0.86-3.17-2.25c-7.44-21.17-11.81-43.26-12.97-65.67
			c-0.09-1.85,1.33-3.43,3.18-3.53c1.72-0.09,3.43,1.33,3.53,3.18c1.13,21.76,5.37,43.23,12.59,63.79c0.61,1.75-0.3,3.67-2.05,4.28
			C1639.26,2216.26,1638.89,2216.32,1638.52,2216.32z"/></g></svg>