<svg width="241" height="220" viewBox="0 0 241 220" fill="none" xmlns="http://www.w3.org/2000/svg">
<path d="M13.8401 33.4695C13.0701 32.1595 12.2901 30.8895 11.5501 29.5895C9.55008 26.0895 7.58008 22.5595 5.56008 19.0695C3.90008 16.1995 2.18008 13.3595 0.500081 10.4895C0.210081 9.98953 -0.169919 9.49953 0.0700807 8.84953C0.110081 8.79953 0.140081 8.72953 0.200081 8.69953C2.33008 7.71953 4.57008 7.03953 6.83008 6.47953C8.98008 5.94953 11.2101 5.91953 13.4001 5.61953C19.8401 4.75953 26.3001 4.96953 32.7501 4.96953C35.3001 4.96953 37.8801 4.90953 40.3801 5.27953C43.0901 5.67953 45.8401 5.59953 48.5201 6.20953C50.1701 6.57953 51.8801 6.63953 53.5601 6.90953C55.6201 7.23953 57.6701 7.59953 59.7101 8.04953C62.3801 8.64953 65.0601 9.27953 67.6901 10.0195C70.2001 10.7295 72.6801 11.5495 75.1301 12.4195C77.5901 13.2795 80.0501 14.1695 82.4301 15.2195C85.4101 16.5295 88.3801 17.8995 91.2501 19.4395C103.19 25.8395 113.35 34.3995 121.81 44.9795C122.54 45.8995 123.19 46.8795 123.92 47.7995C124.14 48.0795 124.47 48.2895 124.84 48.6095C125.24 48.1195 125.6 47.7595 125.87 47.3295C130 40.6195 134.1 33.9095 138.23 27.1995C142.94 19.5495 147.67 11.9095 152.38 4.25953C153.2 2.92953 154 1.58953 154.75 0.359527C156.64 0.0095275 175.26 -0.120473 186.45 0.119527C186.96 0.129527 187.46 0.219527 187.9 0.259527C187.99 0.429527 188.03 0.479527 188.04 0.539527C188.05 0.599527 188.07 0.689527 188.04 0.729527C165.51 36.5195 143.69 72.7495 121.35 108.65C121.29 108.74 121.13 108.77 120.92 108.89C120.38 107.56 119.83 106.26 119.32 104.93C116.9 98.6595 114.51 92.3795 112.08 86.1195C111 83.3195 109.98 80.4895 108.74 77.7595C104.61 68.6895 98.9101 60.7395 91.4801 54.0795C87.9301 50.8995 84.0601 48.1295 79.9601 45.6995C76.0901 43.3995 72.0301 41.4495 67.8101 39.8795C65.0601 38.8595 62.2301 38.0595 59.4401 37.1695C56.0201 36.0895 52.4801 35.4695 48.9801 34.7295C48.0901 34.5395 47.1801 34.3895 46.2701 34.3195C42.3101 33.9995 38.4101 33.1395 34.4001 33.2595C32.5201 33.3195 30.6201 33.4095 28.7401 33.0195C28.2401 32.9195 27.7001 32.9895 27.1801 33.0195C25.8801 33.0895 24.5801 33.2295 23.2801 33.2695C20.2101 33.3595 17.1501 33.4095 13.8701 33.4895L13.8401 33.4695Z" fill="#410C9E"/>
<path d="M24.5498 52.0095C27.1398 50.7895 29.6298 50.0695 32.1998 49.6195C34.0598 49.2895 35.9198 48.9795 37.7798 48.6495C37.8398 48.6395 37.9098 48.6095 37.9698 48.6095C42.2798 48.4195 46.5898 48.2595 50.8898 48.7095C52.9598 48.9295 55.0198 49.3195 57.0698 49.7395C58.5398 50.0395 59.9798 50.4895 61.4198 50.8995C65.5298 52.0495 69.3398 53.8795 73.0098 56.0295C81.1698 60.8095 87.5598 67.3795 92.5498 75.3595C95.1498 79.5095 97.3198 83.8795 99.2298 88.3895C101.12 92.8795 102.18 97.5895 102.78 102.389C103.35 106.929 103.7 111.489 103.5 116.069C103.33 119.989 102.93 123.889 102.19 127.739C101.6 130.809 100.85 133.849 99.8098 136.819C98.1198 141.649 95.7998 146.149 93.0298 150.429C88.6198 157.269 84.1798 164.099 79.7398 170.929C74.3498 179.229 68.9398 187.519 63.5498 195.829C59.9298 201.399 56.3498 206.989 52.7298 212.569C51.3098 214.759 49.8598 216.919 48.4298 219.089C48.1298 219.159 47.8798 219.259 47.6198 219.259C36.8998 219.259 26.1898 219.249 15.4698 219.229C15.2898 219.229 15.1098 219.119 14.7998 219.019C15.2698 218.049 15.8998 217.239 16.4598 216.409C17.6598 214.629 18.9598 212.929 20.1398 211.129C23.3198 206.289 26.4698 201.429 29.5998 196.559C33.6198 190.309 37.5998 184.039 41.6198 177.779C47.3598 168.849 53.1098 159.919 58.8698 150.989C62.4698 145.409 66.1198 139.869 69.6998 134.279C71.8998 130.849 73.3998 127.149 74.2198 123.109C75.5098 116.739 75.3898 110.399 74.3398 104.029C73.7898 100.689 72.4098 97.6695 70.9498 94.6895C68.9198 90.5595 66.3198 86.7995 62.9098 83.6895C60.1398 81.1595 57.0098 79.2195 53.3998 78.0595C49.0898 76.6795 44.7098 76.3995 40.2498 76.8295C39.8698 76.8695 39.4798 76.9195 39.0098 76.9695C38.5498 76.3195 38.0598 75.7195 37.6698 75.0595C36.5198 73.0895 35.4398 71.0795 34.2998 69.0995C31.6898 64.5895 29.0498 60.0995 26.4398 55.5995C25.7898 54.4795 25.2098 53.3195 24.5198 52.0095H24.5498Z" fill="#410C9E"/>
<path d="M149.8 88.3197C151.66 87.9797 176.35 87.8097 182.33 88.0697C182.63 88.0797 182.92 88.1697 183.41 88.2597C181.62 91.3897 179.66 94.1997 177.84 97.1097C176.01 100.04 174.08 102.9 172.2 105.8C170.32 108.7 168.45 111.61 166.57 114.52C164.7 117.42 162.83 120.32 160.96 123.22C159.1 126.12 157.24 129.03 155.38 131.93C153.51 134.84 151.62 137.73 149.75 140.64C147.88 143.55 146.03 146.46 144.15 149.37C142.24 152.32 140.31 155.26 138.4 158.2C136.52 161.09 134.65 164 132.78 166.9C130.9 169.81 129.02 172.71 127.14 175.61C125.27 178.51 123.41 181.42 121.54 184.33C119.68 187.23 117.81 190.13 115.94 193.02C114.07 195.92 112.19 198.83 110.31 201.73C108.43 204.64 106.57 207.55 104.69 210.45C102.82 213.34 100.95 216.23 99.0298 219.18C98.6798 219.23 98.3098 219.34 97.9298 219.34C87.6698 219.34 77.4098 219.32 67.1498 219.3C66.7698 219.3 66.3798 219.25 65.8398 219.21C65.9598 218.82 65.9898 218.51 66.1398 218.27C67.8598 215.6 69.5998 212.94 71.3298 210.28C72.3598 208.7 73.3998 207.12 74.4198 205.54C75.7198 203.52 77.0098 201.48 78.3098 199.45C79.7198 197.25 81.1298 195.06 82.5398 192.87C83.8398 190.85 85.1498 188.83 86.4498 186.81C88.6298 183.41 90.8098 180.02 92.9898 176.62C95.5898 172.56 98.1898 168.51 100.79 164.45C102.3 162.09 103.82 159.73 105.34 157.38C107.46 154.1 109.6 150.82 111.71 147.53C113.85 144.19 115.97 140.83 118.11 137.49C121.35 132.44 124.6 127.39 127.84 122.34C132.77 114.67 137.71 107 142.64 99.3297C144.65 96.1997 146.66 93.0797 148.68 89.9597C149.03 89.4197 149.4 88.8797 149.78 88.3197H149.8Z" fill="#410C9E"/>
<path d="M185.72 33.0892C186.04 32.4392 186.19 32.0192 186.43 31.6492C193.05 21.2992 199.68 10.9492 206.18 0.809228C207.22 0.0992283 208.15 0.189228 209.06 0.189228C213.96 0.189228 218.85 0.189228 223.75 0.189228C228.45 0.189228 233.15 0.189228 237.85 0.189228C238.56 0.189228 239.27 0.229228 240.01 0.249228C240.09 1.01923 239.66 1.44923 239.35 1.90923C237.59 4.56923 235.78 7.18923 234.04 9.85923C230.38 15.4792 226.74 21.1092 223.1 26.7392C221.69 28.9192 220.28 31.0992 218.9 33.2192C217.4 33.4592 191.01 33.5592 186.91 33.3392C186.6 33.3192 186.29 33.2192 185.73 33.0992L185.72 33.0892Z" fill="#410C9E"/>
<path d="M190.48 77.0499C179.81 76.9499 169.24 76.8499 158.66 76.7399C158.48 76.7399 158.3 76.5999 158.14 76.5399C157.78 76.0599 158.02 75.6799 158.27 75.2799C161.31 70.5799 164.36 65.8899 167.38 61.1799C170.75 55.9299 174.11 50.6599 177.47 45.3999C177.61 45.1799 177.79 44.9999 177.93 44.8299C179.55 44.6099 209.28 44.5699 211.04 44.7899C211.36 45.2999 210.95 45.6499 210.73 46.0099C209.29 48.2599 207.84 50.4999 206.38 52.7399C201.47 60.3299 196.56 67.9299 191.63 75.5099C191.28 76.0499 190.85 76.5299 190.47 77.0399L190.48 77.0499Z" fill="#410C9E"/>
</svg>
