<svg width="25" height="24" viewBox="0 0 25 24" fill="none" xmlns="http://www.w3.org/2000/svg">
<g clip-path="url(#clip0_2078_5808)">
<path d="M12.5 2.03467L5.92102 6.58534V9.55229C5.92102 15.4801 9.79097 17.8021 9.79097 17.8021H12.5V2.03467Z" fill="#A46A5A"/>
<path d="M14.4129 14.9951L10.178 14.9697V15.9391C10.178 16.2593 10.0787 16.5717 9.89369 16.8331C9.70872 17.0946 9.44721 17.2922 9.14521 17.3988L8.27474 17.706L8.2229 20.3299H17.1375L14.4129 14.9951Z" fill="#FBBD80"/>
<path d="M14.8219 15.9388V13.5449H10.178V14.9695C10.356 15.0495 10.537 15.1241 10.7241 15.1866C11.6728 15.5038 12.582 15.5437 13.4304 15.4018C13.7554 15.3475 14.048 15.6097 14.048 15.9392C14.048 16.9236 14.6688 17.801 15.5971 18.1286L15.8548 17.3986C15.5528 17.292 15.2912 17.0944 15.1063 16.8329C14.9213 16.5715 14.8219 16.2591 14.8219 15.9388Z" fill="#F4AA73"/>
<path d="M19.4738 19.0674L17.345 18.4565L12.9672 20.6964L6.74708 18.2451L5.14817 18.8094C4.21981 19.1371 3.599 20.0146 3.599 20.999V22.8392C3.599 23.4804 4.1188 24.0002 4.76 24.0002H20.2399C20.3756 24.0002 20.5059 23.9769 20.6269 23.9342L21.023 23.2029V21.0833C21.023 20.0987 20.4022 19.395 19.4738 19.0674Z" fill="#F1DB8C"/>
<path d="M19.8517 18.8091L16.7252 17.7056C15.7322 18.9427 14.2098 19.7367 12.4999 19.7367C10.7901 19.7367 9.26768 18.9427 8.27473 17.7056L6.74707 18.2447C8.00163 20.0795 10.1095 21.2847 12.4999 21.2847C14.5975 21.2847 16.4773 20.3566 17.7541 18.8896L19.594 19.5388C19.896 19.6454 20.1575 19.8431 20.3425 20.1045C20.5275 20.3659 20.6269 20.6783 20.6269 20.9986V23.9338C21.0768 23.7739 21.4009 23.3436 21.4009 22.8388V20.9987C21.4009 20.0142 20.7801 19.1367 19.8517 18.8091Z" fill="#F8EBCC"/>
<path d="M14.8219 11.0142V16.2601C14.8219 19.6773 17.5309 20.9041 17.5309 24.0001L17.9355 23.3026V11.0142H14.8219Z" fill="#C6805D"/>
<path d="M19.0622 6.13489L16.37 5.80518V16.2603C16.37 17.5795 16.6046 18.4846 16.8762 19.5326C17.1832 20.7166 17.531 22.0588 17.531 24.0002L17.5794 24.0002L19.079 23.998V6.57913C19.0789 6.42814 19.0734 6.28293 19.0622 6.13489Z" fill="#A46A5A"/>
<path d="M8.24301 4.25684V6.96584C8.24301 7.60704 7.72322 8.12684 7.08201 8.12684H6.94368C6.43762 8.12684 5.97642 8.49096 5.92603 8.99449C5.86804 9.57358 6.32123 10.0618 6.88851 10.0618H7.48856C7.66697 12.3992 9.4387 14.2908 11.7215 14.6458C11.7215 14.6458 16.7138 14.6692 16.7138 9.77693V4.25684H8.24301Z" fill="#FFD18D"/>
<path d="M18.0562 8.12684H17.9179C17.2767 8.12684 16.7569 7.60704 16.7569 6.96584V4.25684H9.44751C10.9807 5.59807 12.9141 6.50773 15.005 6.87696C15.5667 6.97615 15.9829 7.45174 15.9829 8.02212V9.67479C15.9829 12.1902 14.1327 14.2737 11.7215 14.6458C11.9751 14.6853 12.2352 14.7057 12.4999 14.7057C15.1478 14.7057 17.3131 12.6589 17.5113 10.0618H18.1114C18.6786 10.0618 19.1318 9.57359 19.0739 8.99449C19.0234 8.49096 18.5623 8.12684 18.0562 8.12684Z" fill="#FBBD80"/>
<path d="M12.4999 12.0033C11.9194 12.0033 11.3835 11.8169 11.0672 11.5048C10.9149 11.3548 10.9134 11.1097 11.0634 10.9576C11.2134 10.8053 11.459 10.8038 11.6106 10.9538C11.7395 11.081 12.0498 11.2293 12.4999 11.2293C12.95 11.2293 13.2603 11.081 13.3891 10.9538C13.5407 10.8037 13.7863 10.8052 13.9363 10.9576C14.0864 11.1097 14.0849 11.3548 13.9325 11.5048C13.6163 11.8169 13.0804 12.0033 12.4999 12.0033Z" fill="#F4AA73"/>
<path d="M10.1779 9.2943C10.1271 9.29431 10.0767 9.28431 10.0298 9.26487C9.98282 9.24542 9.94015 9.21692 9.90422 9.18098C9.86828 9.14504 9.83977 9.10237 9.82033 9.05541C9.80088 9.00846 9.79088 8.95813 9.79089 8.9073V8.5203C9.79089 8.3066 9.964 8.1333 10.1779 8.1333C10.3918 8.1333 10.5649 8.3066 10.5649 8.5203V8.9073C10.5649 8.95813 10.5549 9.00846 10.5355 9.05541C10.516 9.10237 10.4875 9.14504 10.4516 9.18098C10.4156 9.21692 10.373 9.24542 10.326 9.26487C10.279 9.28431 10.2287 9.29431 10.1779 9.2943ZM14.8219 9.2943C14.7711 9.29431 14.7207 9.28431 14.6738 9.26487C14.6268 9.24542 14.5842 9.21692 14.5482 9.18098C14.5123 9.14504 14.4838 9.10237 14.4643 9.05541C14.4449 9.00846 14.4349 8.95813 14.4349 8.9073V8.5203C14.4349 8.3066 14.608 8.1333 14.8219 8.1333C15.0358 8.1333 15.2089 8.3066 15.2089 8.5203V8.9073C15.2089 8.95813 15.1989 9.00846 15.1795 9.05541C15.16 9.10237 15.1315 9.14504 15.0956 9.18098C15.0596 9.21692 15.017 9.24542 14.97 9.26487C14.923 9.28431 14.8727 9.29431 14.8219 9.2943Z" fill="#845252"/>
<path d="M9.79062 7.74616C9.59862 7.74616 9.43198 7.60348 9.40704 7.40829C9.38023 7.19627 9.52985 7.0024 9.74187 6.97535L10.6115 6.86426C10.8254 6.8359 11.0174 6.98726 11.0446 7.1989C11.0714 7.41091 10.9218 7.60479 10.7098 7.63184L9.84016 7.74293C9.82374 7.74514 9.80719 7.74622 9.79062 7.74616ZM15.2094 7.74616C15.1931 7.74616 15.1765 7.74523 15.1599 7.74293L14.2902 7.63184C14.0782 7.60484 13.9286 7.41096 13.9554 7.1989C13.9826 6.98726 14.1773 6.83646 14.3885 6.86426L15.2582 6.97535C15.4702 7.00235 15.6199 7.19627 15.593 7.40829C15.568 7.60348 15.4013 7.74616 15.2094 7.74616Z" fill="#A46A5A"/>
<path d="M5.92102 6.58512V6.5869C8.08346 6.53876 9.94505 5.68329 11.2064 4.42784L8.18588 1.62598C6.80063 2.83202 5.92102 4.60409 5.92102 6.58512Z" fill="#C6805D"/>
<path d="M18.7703 4.60552L10.1939 0.424316C9.45182 0.703879 8.77354 1.11404 8.18591 1.62568C9.96351 4.42135 13.2868 6.30554 17.0988 6.30554C17.7569 6.3052 18.4139 6.24795 19.0622 6.13444C19.0267 5.60527 18.9232 5.09316 18.7703 4.60552Z" fill="#A46A5A"/>
<path d="M17.2136 4.75772C17.7359 4.75772 18.2643 4.70578 18.7701 4.60575C17.9321 1.93852 15.444 0 12.4999 0V0.0061875C11.6878 0.0061875 10.911 0.154406 10.1938 0.424594C11.4893 3.06033 14.2227 4.75772 17.2136 4.75772Z" fill="#845252"/>
</g>
<defs>
<clipPath id="clip0_2078_5808">
<rect width="24" height="24" fill="white" transform="translate(0.5)"/>
</clipPath>
</defs>
</svg>
