<svg width="49" height="48" viewBox="0 0 49 48" fill="none" xmlns="http://www.w3.org/2000/svg">
<g clip-path="url(#clip0_489_1503)">
<path d="M24.7502 4.06891L11.5923 13.1703V19.1042C11.5923 30.9598 19.3322 35.6038 19.3322 35.6038H24.7502V4.06891Z" fill="#A46A5A"/>
<path d="M28.5759 29.9897L20.106 29.939V31.8776C20.106 32.5181 19.9073 33.1429 19.5374 33.6658C19.1674 34.1886 18.6444 34.5839 18.0404 34.7971L16.2995 35.4115L16.1958 40.6594H34.0249L28.5759 29.9897Z" fill="#FBBD80"/>
<path d="M29.3944 31.8777V27.0898H20.1064V29.9391C20.4625 30.0989 20.8245 30.2482 21.1986 30.3732C23.096 31.0076 24.9144 31.0873 26.6113 30.8036C27.2613 30.6949 27.8464 31.2194 27.8464 31.8784C27.8464 33.8472 29.0881 35.6021 30.9447 36.2572L31.46 34.7971C30.856 34.584 30.333 34.1887 29.963 33.6658C29.593 33.143 29.3944 32.5182 29.3944 31.8777Z" fill="#F4AA73"/>
<path d="M38.6979 38.1345L34.4402 36.9127L25.6846 41.3924L13.2444 36.4899L10.0466 37.6186C8.18987 38.2739 6.94824 40.0288 6.94824 41.9977V45.6781C6.94824 46.9605 7.98784 48.0001 9.27024 48.0001H40.2301C40.5015 48.0001 40.762 47.9536 41.0041 47.8681L41.7962 46.4056V42.1662C41.7962 40.1972 40.5546 38.7897 38.6979 38.1345Z" fill="#FBF4DB"/>
<path d="M39.4539 37.6185L33.2008 35.4115C31.2149 37.8857 28.17 39.4737 24.7504 39.4737C21.3308 39.4737 18.2858 37.8857 16.2999 35.4115L13.2446 36.4898C15.7538 40.1593 19.9695 42.5697 24.7504 42.5697C28.9455 42.5697 32.7052 40.7135 35.2587 37.7795L38.9385 39.0781C39.5425 39.2912 40.0656 39.6865 40.4355 40.2093C40.8055 40.7322 41.0042 41.357 41.0042 41.9975V47.868C41.904 47.5481 42.5522 46.6876 42.5522 45.6781V41.9977C42.5523 40.0288 41.3107 38.2738 39.4539 37.6185Z" fill="#F8EBCC"/>
<path d="M29.394 22.0281V32.5201C29.394 39.3545 34.812 41.808 34.812 48L35.6213 46.6051V22.0281H29.394Z" fill="#C6805D"/>
<path d="M37.8746 12.2694L32.4902 11.61V32.5203C32.4902 35.1586 32.9595 36.9688 33.5027 39.0649C34.1166 41.4329 34.8122 44.1173 34.8122 48L34.909 48.0001L37.9082 47.9957V13.1579C37.9081 12.8559 37.897 12.5655 37.8746 12.2694Z" fill="#A46A5A"/>
<path d="M16.2363 8.51392V13.9319C16.2363 15.2143 15.1967 16.2539 13.9143 16.2539H13.6376C12.6255 16.2539 11.7031 16.9822 11.6023 17.9892C11.4863 19.1474 12.3927 20.1238 13.5273 20.1238H14.7274C15.0842 24.7986 18.6276 28.5819 23.1933 29.2919C23.1933 29.2919 33.1778 29.3386 33.1778 19.5541V8.51392H16.2363Z" fill="#FFD18D"/>
<path d="M35.8629 16.2539H35.5862C34.3038 16.2539 33.2642 15.2143 33.2642 13.9319V8.51392H18.6455C21.7119 11.1964 25.5786 13.0157 29.7604 13.7542C30.8838 13.9525 31.7162 14.9037 31.7162 16.0445V19.3498C31.7162 24.3807 28.0159 28.5477 23.1934 29.2919C23.7006 29.3708 24.2208 29.4117 24.7503 29.4117C30.0461 29.4117 34.3767 25.3179 34.7731 20.1238H35.9732C37.1078 20.1238 38.0142 19.1474 37.8982 17.9892C37.7973 16.9822 36.875 16.2539 35.8629 16.2539Z" fill="#FBBD80"/>
<path d="M24.7503 24.0063C23.5893 24.0063 22.5176 23.6337 21.8848 23.0094C21.5802 22.7093 21.5772 22.2192 21.8772 21.9149C22.1773 21.6103 22.6686 21.6073 22.9717 21.9073C23.2294 22.1617 23.85 22.4584 24.7502 22.4584C25.6504 22.4584 26.271 22.1617 26.5287 21.9073C26.8318 21.6072 27.3232 21.6102 27.6232 21.9149C27.9233 22.2192 27.9203 22.7094 27.6156 23.0094C26.9831 23.6337 25.9113 24.0063 24.7503 24.0063Z" fill="#F4AA73"/>
<path d="M20.106 18.5884C20.0044 18.5884 19.9037 18.5684 19.8098 18.5295C19.7159 18.4906 19.6306 18.4336 19.5587 18.3617C19.4868 18.2898 19.4298 18.2045 19.3909 18.1106C19.352 18.0167 19.332 17.916 19.332 17.8144V17.0404C19.332 16.613 19.6783 16.2664 20.106 16.2664C20.5338 16.2664 20.88 16.613 20.88 17.0404V17.8144C20.8801 17.916 20.8601 18.0167 20.8212 18.1106C20.7823 18.2045 20.7253 18.2898 20.6534 18.3617C20.5815 18.4336 20.4962 18.4906 20.4023 18.5295C20.3083 18.5684 20.2077 18.5884 20.106 18.5884ZM29.394 18.5884C29.2924 18.5884 29.1917 18.5684 29.0978 18.5295C29.0039 18.4906 28.9186 18.4336 28.8467 18.3617C28.7748 18.2898 28.7178 18.2045 28.6789 18.1106C28.64 18.0167 28.62 17.916 28.62 17.8144V17.0404C28.62 16.613 28.9663 16.2664 29.394 16.2664C29.8218 16.2664 30.168 16.613 30.168 17.0404V17.8144C30.1681 17.916 30.1481 18.0167 30.1092 18.1106C30.0703 18.2045 30.0133 18.2898 29.9414 18.3617C29.8695 18.4336 29.7842 18.4906 29.6903 18.5295C29.5963 18.5684 29.4957 18.5884 29.394 18.5884Z" fill="#845252"/>
<path d="M19.3315 15.4924C18.9475 15.4924 18.6142 15.207 18.5643 14.8166C18.5107 14.3926 18.8099 14.0049 19.234 13.9508L20.9732 13.7286C21.401 13.6719 21.785 13.9746 21.8395 14.3979C21.8931 14.8219 21.5939 15.2096 21.1698 15.2637L19.4306 15.4859C19.3977 15.4903 19.3646 15.4925 19.3315 15.4924ZM30.169 15.4924C30.1364 15.4924 30.1033 15.4905 30.07 15.4859L28.3307 15.2637C27.9067 15.2097 27.6074 14.822 27.6611 14.3979C27.7155 13.9746 28.1048 13.673 28.5273 13.7286L30.2666 13.9508C30.6906 14.0048 30.9899 14.3926 30.9362 14.8166C30.8863 15.207 30.5529 15.4924 30.169 15.4924Z" fill="#A46A5A"/>
<path d="M11.5923 13.1703V13.1739C15.9172 13.0776 19.6403 11.3666 22.1631 8.85573L16.122 3.25201C13.3515 5.66411 11.5923 9.20823 11.5923 13.1703Z" fill="#C6805D"/>
<path d="M37.2908 9.21153L20.1381 0.849121C18.6539 1.40825 17.2973 2.22856 16.1221 3.25184C19.6773 8.84318 26.3239 12.6116 33.9478 12.6116C35.2641 12.6109 36.578 12.4964 37.8746 12.2694C37.8037 11.211 37.5967 10.1868 37.2908 9.21153Z" fill="#A46A5A"/>
<path d="M34.1777 9.51544C35.2224 9.51544 36.2791 9.41156 37.2908 9.2115C35.6147 3.87703 30.6386 0 24.7503 0V0.012375C23.126 0.012375 21.5726 0.308812 20.1382 0.849188C22.7291 6.12066 28.1959 9.51544 34.1777 9.51544Z" fill="#845252"/>
</g>
<defs>
<clipPath id="clip0_489_1503">
<rect width="48" height="48" fill="white" transform="translate(0.75)"/>
</clipPath>
</defs>
</svg>
