<svg width="49" height="49" viewBox="0 0 49 49" fill="none" xmlns="http://www.w3.org/2000/svg">
<g clip-path="url(#clip0_380_3979)">
<path fill-rule="evenodd" clip-rule="evenodd" d="M42.9155 35.077C43.0561 35.2177 43.135 35.4086 43.1349 35.6075C43.1348 35.8065 43.0556 35.9972 42.9148 36.1378C42.7741 36.2784 42.5832 36.3574 42.3843 36.3572C42.1853 36.3571 41.9946 36.278 41.854 36.1372L39.95 34.2332V40.2596C39.95 40.4585 39.871 40.6492 39.7303 40.7899C39.5897 40.9305 39.3989 41.0096 39.2 41.0096C39.0011 41.0096 38.8103 40.9305 38.6697 40.7899C38.529 40.6492 38.45 40.4585 38.45 40.2596V34.2332L36.5459 36.1369C36.4038 36.2696 36.2157 36.3419 36.0213 36.3386C35.8269 36.3352 35.6414 36.2565 35.5039 36.1191C35.3663 35.9816 35.2876 35.7961 35.2842 35.6017C35.2809 35.4072 35.3532 35.2191 35.4858 35.077L38.6695 31.8925C38.8103 31.7518 39.0012 31.6729 39.2002 31.6729C39.3993 31.6729 39.5902 31.7518 39.731 31.8925L42.9155 35.077ZM46.9422 37.2809C47.0656 36.2643 46.9875 35.2332 46.7125 34.2467C46.4374 33.2602 45.9707 32.3375 45.339 31.5313C44.7073 30.7252 43.9231 30.0514 43.0309 29.5484C42.1388 29.0453 41.1564 28.723 40.1397 28.5997C39.8227 28.5612 39.5037 28.5417 39.1843 28.5413C37.6827 28.5444 36.2139 28.9809 34.9543 29.7985C33.6947 30.616 32.698 31.7798 32.0837 33.1501C31.4695 34.5204 31.264 36.0389 31.4918 37.5232C31.7196 39.0074 32.3711 40.3944 33.368 41.5174C34.3648 42.6404 35.6648 43.4517 37.1115 43.8539C38.5583 44.2561 40.0905 44.232 41.5239 43.7846C42.9574 43.3372 44.2312 42.4855 45.1923 41.3317C46.1535 40.178 46.7611 38.7713 46.9422 37.2806V37.2809ZM6.39988 40.3653H30.8153C30.0583 38.7885 29.7616 37.0301 29.9591 35.2922C30.1567 33.5543 30.8405 31.9074 31.9321 30.5407C33.0236 29.174 34.4786 28.143 36.1298 27.5661C37.781 26.9892 39.5615 26.8899 41.2666 27.2795V21.3688L36.3276 16.4288L26.0818 23.8146L29.1363 25.9558C29.2191 26.0114 29.29 26.0829 29.3447 26.1663C29.3995 26.2496 29.4372 26.343 29.4554 26.4411C29.4736 26.5392 29.4721 26.6399 29.451 26.7373C29.4298 26.8348 29.3895 26.9271 29.3322 27.0087C29.275 27.0904 29.202 27.1598 29.1176 27.213C29.0332 27.2661 28.9391 27.3019 28.8407 27.3182C28.7423 27.3345 28.6416 27.331 28.5446 27.308C28.4476 27.2849 28.3561 27.2427 28.2756 27.1839L12.8818 16.3933L2 25.5958V35.9645C2.00124 37.131 2.46513 38.2494 3.2899 39.0743C4.11468 39.8993 5.23298 40.3634 6.3995 40.3648L6.39988 40.3653ZM6.39988 4.53125H36.8668C38.0333 4.53247 39.1517 4.9964 39.9766 5.82125C40.8014 6.64611 41.2654 7.7645 41.2666 8.93103V19.2471L36.9371 14.9179C36.8111 14.7918 36.6444 14.7147 36.4668 14.7003C36.2891 14.6858 36.1122 14.7351 35.9675 14.8392L24.7813 22.9035L13.2697 14.8334C13.1339 14.7385 12.9705 14.6911 12.805 14.6987C12.6395 14.7063 12.4811 14.7684 12.3546 14.8754L2 23.632V8.93103C2.00119 7.76448 2.46513 6.64604 3.29001 5.82117C4.11489 4.99629 5.23332 4.53244 6.39988 4.53125ZM46.5193 30.6069C45.5358 29.3484 44.2428 28.3664 42.7664 27.7569V8.93103C42.7647 7.36685 42.1426 5.86723 41.0366 4.76118C39.9305 3.65513 38.4309 3.03299 36.8668 3.03125H6.39988C4.83567 3.03294 3.336 3.65506 2.22993 4.76111C1.12386 5.86717 0.501712 7.36682 0.5 8.93103V35.9649C0.501761 37.5291 1.12388 39.0288 2.2299 40.135C3.33592 41.2412 4.83553 41.8635 6.39978 41.8655H31.7217C31.7734 41.9358 31.8269 42.0061 31.881 42.0751C33.4018 44.0163 35.6314 45.2738 38.0794 45.5711C40.5274 45.8683 42.9932 45.1809 44.9343 43.6602C46.8755 42.1394 48.133 39.9098 48.4303 37.4618C48.7275 35.0138 48.0401 32.548 46.5193 30.6069ZM24.1477 9.86075C24.8277 9.86073 25.4924 10.0623 26.0578 10.4401C26.6231 10.8179 27.0638 11.3548 27.324 11.983C27.5843 12.6112 27.6524 13.3025 27.5197 13.9694C27.3871 14.6363 27.0597 15.2489 26.5789 15.7297C26.0981 16.2105 25.4855 16.538 24.8186 16.6707C24.1517 16.8033 23.4604 16.7353 22.8322 16.4751C22.204 16.2149 21.667 15.7742 21.2892 15.2089C20.9115 14.6435 20.7098 13.9788 20.7098 13.2988C20.711 12.3874 21.0737 11.5137 21.7181 10.8693C22.3626 10.2248 23.2363 9.8622 24.1477 9.86094V9.86075ZM24.1477 18.2365C23.1711 18.2365 22.2164 17.9469 21.4044 17.4043C20.5923 16.8618 19.9594 16.0906 19.5857 15.1883C19.2119 14.2861 19.1141 13.2932 19.3046 12.3354C19.4952 11.3775 19.9654 10.4977 20.656 9.80713C21.3466 9.11655 22.2264 8.64626 23.1842 8.45573C24.1421 8.2652 25.1349 8.36297 26.0372 8.7367C26.9395 9.11043 27.7107 9.74332 28.2532 10.5553C28.7958 11.3674 29.0854 12.322 29.0854 13.2987C29.0839 14.6078 28.5632 15.8628 27.6375 16.7885C26.7118 17.7142 25.4568 18.2349 24.1477 18.2365Z" fill="#AAAAAA"/>
</g>
<defs>
<clipPath id="clip0_380_3979">
<rect width="48" height="48" fill="white" transform="translate(0.5 0.333008)"/>
</clipPath>
</defs>
</svg>
