<svg width="201" height="200" viewBox="0 0 201 200" fill="none" xmlns="http://www.w3.org/2000/svg">
<g clip-path="url(#clip0_21_2388)">
<path d="M193.044 97.7656H137.628C137.628 97.7656 143.126 82.7559 151.584 82.7559C160.041 82.7559 162.689 93.1153 162.689 93.1153C162.689 93.1153 168.398 87.489 173.085 87.489C177.772 87.489 181.833 94.9248 181.833 94.9248C181.833 94.9248 188.472 90.9099 193.044 97.7656Z" fill="#EBEBEB"/>
<path d="M127.227 19.6508H101.324C101.324 19.6508 107.111 11.2573 111.674 11.2573C116.237 11.2573 117.581 16.856 117.581 16.856C117.581 16.856 120.804 14.2501 123.779 14.7151C126.753 15.1801 127.227 19.6508 127.227 19.6508Z" fill="#EBEBEB"/>
<path d="M176.469 37.1652H150.562C150.562 37.1652 156.349 28.7764 160.907 28.7764C165.465 28.7764 166.801 34.3705 166.801 34.3705C166.801 34.3705 170.023 31.7599 172.998 32.2249C175.972 32.6899 176.469 37.1652 176.469 37.1652Z" fill="#EBEBEB"/>
<path d="M140.022 79.0727H114.119C114.119 79.0727 119.907 70.6838 124.465 70.6838C129.023 70.6838 130.372 76.2779 130.372 76.2779C130.372 76.2779 133.595 73.6674 136.574 74.1324C139.553 74.5974 140.022 79.0727 140.022 79.0727Z" fill="#EBEBEB"/>
<path d="M33.845 96.9691H7.95557C7.95557 96.9691 13.7292 88.6079 18.2874 88.6079C22.8456 88.6079 24.1992 94.1974 24.1992 94.1974C24.1992 94.1974 27.4221 91.5868 30.3965 92.0565C33.3708 92.5261 33.845 96.9691 33.845 96.9691Z" fill="#EBEBEB"/>
<path d="M68.229 44.9922H17.7715C17.7715 44.9922 24.6778 29.5681 32.0721 28.6012C39.4665 27.6343 42.9979 40.0657 42.9979 40.0657C42.9979 40.0657 47.7679 35.6733 51.5157 35.6733C55.2635 35.6733 58.1411 41.4562 58.1411 41.4562C58.1411 41.4562 65.6552 37.5011 68.229 44.9922Z" fill="#EBEBEB"/>
<path d="M156.317 109.143H141.049V189.187H156.317V109.143Z" fill="#DBDBDB"/>
<path d="M146.385 111.744H143.416V114.801H146.385V111.744Z" fill="#EBEBEB"/>
<path d="M150.184 111.744H147.214V114.801H150.184V111.744Z" fill="#EBEBEB"/>
<path d="M146.385 116.928H143.416V119.986H146.385V116.928Z" fill="#EBEBEB"/>
<path d="M150.184 116.928H147.214V119.986H150.184V116.928Z" fill="#EBEBEB"/>
<path d="M146.385 122.117H143.416V125.175H146.385V122.117Z" fill="#EBEBEB"/>
<path d="M150.184 122.117H147.214V125.175H150.184V122.117Z" fill="#EBEBEB"/>
<path d="M146.385 127.306H143.416V130.363H146.385V127.306Z" fill="#EBEBEB"/>
<path d="M150.184 127.306H147.214V130.363H150.184V127.306Z" fill="#EBEBEB"/>
<path d="M146.385 132.495H143.416V135.552H146.385V132.495Z" fill="#EBEBEB"/>
<path d="M150.184 132.495H147.214V135.552H150.184V132.495Z" fill="#EBEBEB"/>
<path d="M146.385 137.684H143.416V140.742H146.385V137.684Z" fill="#EBEBEB"/>
<path d="M150.184 137.684H147.214V140.742H150.184V137.684Z" fill="#EBEBEB"/>
<path d="M146.385 142.873H143.416V145.93H146.385V142.873Z" fill="#EBEBEB"/>
<path d="M150.184 142.873H147.214V145.93H150.184V142.873Z" fill="#EBEBEB"/>
<path d="M146.385 148.062H143.416V151.119H146.385V148.062Z" fill="#EBEBEB"/>
<path d="M150.184 148.062H147.214V151.119H150.184V148.062Z" fill="#EBEBEB"/>
<path d="M146.385 153.251H143.416V156.308H146.385V153.251Z" fill="#EBEBEB"/>
<path d="M150.184 153.251H147.214V156.308H150.184V153.251Z" fill="#EBEBEB"/>
<path d="M146.385 158.44H143.416V161.497H146.385V158.44Z" fill="#EBEBEB"/>
<path d="M150.184 158.44H147.214V161.497H150.184V158.44Z" fill="#EBEBEB"/>
<path d="M146.385 163.629H143.416V166.686H146.385V163.629Z" fill="#EBEBEB"/>
<path d="M150.184 163.629H147.214V166.686H150.184V163.629Z" fill="#EBEBEB"/>
<path d="M146.385 168.818H143.416V171.875H146.385V168.818Z" fill="#EBEBEB"/>
<path d="M150.184 168.818H147.214V171.875H150.184V168.818Z" fill="#EBEBEB"/>
<path d="M146.385 174.007H143.416V177.064H146.385V174.007Z" fill="#EBEBEB"/>
<path d="M150.184 174.007H147.214V177.064H150.184V174.007Z" fill="#EBEBEB"/>
<path d="M146.385 179.196H143.416V182.253H146.385V179.196Z" fill="#EBEBEB"/>
<path d="M150.976 182.253H153.946V179.196H150.976V182.253Z" fill="#EBEBEB"/>
<path d="M150.976 177.064H153.946V174.007H150.976V177.064Z" fill="#EBEBEB"/>
<path d="M150.976 171.875H153.946V168.818H150.976V171.875Z" fill="#EBEBEB"/>
<path d="M150.976 166.686H153.946V163.629H150.976V166.686Z" fill="#EBEBEB"/>
<path d="M150.976 161.497H153.946V158.44H150.976V161.497Z" fill="#EBEBEB"/>
<path d="M150.976 156.313H153.946V153.256H150.976V156.313Z" fill="#EBEBEB"/>
<path d="M150.976 151.124H153.946V148.067H150.976V151.124Z" fill="#EBEBEB"/>
<path d="M150.976 145.935H153.946V142.878H150.976V145.935Z" fill="#EBEBEB"/>
<path d="M150.976 140.746H153.946V137.689H150.976V140.746Z" fill="#EBEBEB"/>
<path d="M150.976 135.557H153.946V132.5H150.976V135.557Z" fill="#EBEBEB"/>
<path d="M150.976 130.368H153.946V127.311H150.976V130.368Z" fill="#EBEBEB"/>
<path d="M150.976 125.179H153.946V122.122H150.976V125.179Z" fill="#EBEBEB"/>
<path d="M150.976 119.99H153.946V116.933H150.976V119.99Z" fill="#EBEBEB"/>
<path d="M150.976 114.797H153.946V111.739H150.976V114.797Z" fill="#EBEBEB"/>
<path d="M150.184 179.196H147.214V182.253H150.184V179.196Z" fill="#EBEBEB"/>
<path d="M168.357 109.143H156.317V189.187H168.357V109.143Z" fill="#A6A6A6"/>
<path d="M164.664 182.253H167.114V179.196H164.664V182.253Z" fill="#C7C7C7"/>
<path d="M161.529 182.253H163.978V179.196H161.529V182.253Z" fill="#C7C7C7"/>
<path d="M164.664 177.064H167.114V174.007H164.664V177.064Z" fill="#C7C7C7"/>
<path d="M161.529 177.064H163.978V174.007H161.529V177.064Z" fill="#C7C7C7"/>
<path d="M164.664 171.875H167.114V168.818H164.664V171.875Z" fill="#C7C7C7"/>
<path d="M161.529 171.875H163.978V168.818H161.529V171.875Z" fill="#C7C7C7"/>
<path d="M164.664 166.686H167.114V163.629H164.664V166.686Z" fill="#C7C7C7"/>
<path d="M161.529 166.686H163.978V163.629H161.529V166.686Z" fill="#C7C7C7"/>
<path d="M164.664 161.497H167.114V158.44H164.664V161.497Z" fill="#C7C7C7"/>
<path d="M161.529 161.497H163.978V158.44H161.529V161.497Z" fill="#C7C7C7"/>
<path d="M164.664 156.313H167.114V153.256H164.664V156.313Z" fill="#C7C7C7"/>
<path d="M161.529 156.313H163.978V153.256H161.529V156.313Z" fill="#C7C7C7"/>
<path d="M164.664 151.124H167.114V148.067H164.664V151.124Z" fill="#C7C7C7"/>
<path d="M161.529 151.124H163.978V148.067H161.529V151.124Z" fill="#C7C7C7"/>
<path d="M164.664 145.935H167.114V142.878H164.664V145.935Z" fill="#C7C7C7"/>
<path d="M161.529 145.935H163.978V142.878H161.529V145.935Z" fill="#C7C7C7"/>
<path d="M164.664 140.746H167.114V137.689H164.664V140.746Z" fill="#C7C7C7"/>
<path d="M161.529 140.746H163.978V137.689H161.529V140.746Z" fill="#C7C7C7"/>
<path d="M164.664 135.557H167.114V132.5H164.664V135.557Z" fill="#C7C7C7"/>
<path d="M161.529 135.557H163.978V132.5H161.529V135.557Z" fill="#C7C7C7"/>
<path d="M164.664 130.368H167.114V127.311H164.664V130.368Z" fill="#C7C7C7"/>
<path d="M161.529 130.368H163.978V127.311H161.529V130.368Z" fill="#C7C7C7"/>
<path d="M164.664 125.179H167.114V122.122H164.664V125.179Z" fill="#C7C7C7"/>
<path d="M161.529 125.179H163.978V122.122H161.529V125.179Z" fill="#C7C7C7"/>
<path d="M164.664 119.99H167.114V116.933H164.664V119.99Z" fill="#C7C7C7"/>
<path d="M161.529 119.99H163.978V116.933H161.529V119.99Z" fill="#C7C7C7"/>
<path d="M164.664 114.797H167.114V111.739H164.664V114.797Z" fill="#C7C7C7"/>
<path d="M160.87 111.744H158.421V114.801H160.87V111.744Z" fill="#C7C7C7"/>
<path d="M160.87 116.928H158.421V119.986H160.87V116.928Z" fill="#C7C7C7"/>
<path d="M160.87 122.117H158.421V125.175H160.87V122.117Z" fill="#C7C7C7"/>
<path d="M160.87 127.306H158.421V130.363H160.87V127.306Z" fill="#C7C7C7"/>
<path d="M160.87 132.495H158.421V135.552H160.87V132.495Z" fill="#C7C7C7"/>
<path d="M160.87 137.684H158.421V140.742H160.87V137.684Z" fill="#C7C7C7"/>
<path d="M160.87 142.873H158.421V145.93H160.87V142.873Z" fill="#C7C7C7"/>
<path d="M160.87 148.062H158.421V151.119H160.87V148.062Z" fill="#C7C7C7"/>
<path d="M160.87 153.251H158.421V156.308H160.87V153.251Z" fill="#C7C7C7"/>
<path d="M160.87 158.44H158.421V161.497H160.87V158.44Z" fill="#C7C7C7"/>
<path d="M160.87 163.629H158.421V166.686H160.87V163.629Z" fill="#C7C7C7"/>
<path d="M160.87 168.818H158.421V171.875H160.87V168.818Z" fill="#C7C7C7"/>
<path d="M160.87 174.007H158.421V177.064H160.87V174.007Z" fill="#C7C7C7"/>
<path d="M160.87 179.196H158.421V182.253H160.87V179.196Z" fill="#C7C7C7"/>
<path d="M161.529 114.797H163.978V111.739H161.529V114.797Z" fill="#C7C7C7"/>
<path d="M47.9014 104.824H29.8391V189.182H47.9014V104.824Z" fill="#EBEBEB"/>
<path d="M47.9015 102.978H29.4019V104.824H47.9015V102.978Z" fill="#C7C7C7"/>
<path d="M33.2971 107.55H31.4692V189.187H33.2971V107.55Z" fill="white"/>
<path d="M36.543 107.55H34.7151V189.187H36.543V107.55Z" fill="white"/>
<path d="M39.7844 107.55H37.9565V189.187H39.7844V107.55Z" fill="white"/>
<path d="M43.0302 107.55H41.1978V189.187H43.0302V107.55Z" fill="white"/>
<path d="M46.2671 107.55H44.4392V189.187H46.2671V107.55Z" fill="white"/>
<path d="M33.2971 109.884H31.4692V113.531H33.2971V109.884Z" fill="#EBEBEB"/>
<path d="M36.543 109.884H34.7151V113.531H36.543V109.884Z" fill="#EBEBEB"/>
<path d="M39.7844 109.884H37.9565V113.531H39.7844V109.884Z" fill="#EBEBEB"/>
<path d="M43.0302 109.884H41.1978V113.531H43.0302V109.884Z" fill="#EBEBEB"/>
<path d="M46.2671 109.884H44.4392V113.531H46.2671V109.884Z" fill="#EBEBEB"/>
<path d="M33.2971 115.805H31.4692V119.451H33.2971V115.805Z" fill="#EBEBEB"/>
<path d="M36.543 115.805H34.7151V119.451H36.543V115.805Z" fill="#EBEBEB"/>
<path d="M39.7844 115.805H37.9565V119.451H39.7844V115.805Z" fill="#EBEBEB"/>
<path d="M43.0302 115.805H41.1978V119.451H43.0302V115.805Z" fill="#EBEBEB"/>
<path d="M46.2671 115.805H44.4392V119.451H46.2671V115.805Z" fill="#EBEBEB"/>
<path d="M33.2971 121.73H31.4692V125.377H33.2971V121.73Z" fill="#EBEBEB"/>
<path d="M36.543 121.73H34.7151V125.377H36.543V121.73Z" fill="#EBEBEB"/>
<path d="M39.7844 121.73H37.9565V125.377H39.7844V121.73Z" fill="#EBEBEB"/>
<path d="M43.0302 121.73H41.1978V125.377H43.0302V121.73Z" fill="#EBEBEB"/>
<path d="M46.2671 121.73H44.4392V125.377H46.2671V121.73Z" fill="#EBEBEB"/>
<path d="M33.2971 127.656H31.4692V131.303H33.2971V127.656Z" fill="#EBEBEB"/>
<path d="M36.543 127.656H34.7151V131.303H36.543V127.656Z" fill="#EBEBEB"/>
<path d="M39.7844 127.656H37.9565V131.303H39.7844V127.656Z" fill="#EBEBEB"/>
<path d="M43.0302 127.656H41.1978V131.303H43.0302V127.656Z" fill="#EBEBEB"/>
<path d="M46.2671 127.656H44.4392V131.303H46.2671V127.656Z" fill="#EBEBEB"/>
<path d="M33.2971 133.582H31.4692V137.228H33.2971V133.582Z" fill="#EBEBEB"/>
<path d="M36.543 133.582H34.7151V137.228H36.543V133.582Z" fill="#EBEBEB"/>
<path d="M39.7844 133.582H37.9565V137.228H39.7844V133.582Z" fill="#EBEBEB"/>
<path d="M43.0302 133.582H41.1978V137.228H43.0302V133.582Z" fill="#EBEBEB"/>
<path d="M46.2671 133.582H44.4392V137.228H46.2671V133.582Z" fill="#EBEBEB"/>
<path d="M33.2971 139.508H31.4692V143.154H33.2971V139.508Z" fill="#EBEBEB"/>
<path d="M36.543 139.508H34.7151V143.154H36.543V139.508Z" fill="#EBEBEB"/>
<path d="M39.7844 139.508H37.9565V143.154H39.7844V139.508Z" fill="#EBEBEB"/>
<path d="M43.0302 139.508H41.1978V143.154H43.0302V139.508Z" fill="#EBEBEB"/>
<path d="M46.2671 139.508H44.4392V143.154H46.2671V139.508Z" fill="#EBEBEB"/>
<path d="M33.2971 145.433H31.4692V149.08H33.2971V145.433Z" fill="#EBEBEB"/>
<path d="M36.543 145.433H34.7151V149.08H36.543V145.433Z" fill="#EBEBEB"/>
<path d="M39.7844 145.433H37.9565V149.08H39.7844V145.433Z" fill="#EBEBEB"/>
<path d="M43.0302 145.433H41.1978V149.08H43.0302V145.433Z" fill="#EBEBEB"/>
<path d="M46.2671 145.433H44.4392V149.08H46.2671V145.433Z" fill="#EBEBEB"/>
<path d="M33.2971 151.359H31.4692V155.005H33.2971V151.359Z" fill="#EBEBEB"/>
<path d="M36.543 151.359H34.7151V155.005H36.543V151.359Z" fill="#EBEBEB"/>
<path d="M39.7844 151.359H37.9565V155.005H39.7844V151.359Z" fill="#EBEBEB"/>
<path d="M43.0302 151.359H41.1978V155.005H43.0302V151.359Z" fill="#EBEBEB"/>
<path d="M46.2671 151.359H44.4392V155.005H46.2671V151.359Z" fill="#EBEBEB"/>
<path d="M33.2971 157.284H31.4692V160.931H33.2971V157.284Z" fill="#EBEBEB"/>
<path d="M36.543 157.284H34.7151V160.931H36.543V157.284Z" fill="#EBEBEB"/>
<path d="M39.7844 157.284H37.9565V160.931H39.7844V157.284Z" fill="#EBEBEB"/>
<path d="M43.0302 157.284H41.1978V160.931H43.0302V157.284Z" fill="#EBEBEB"/>
<path d="M46.2671 157.284H44.4392V160.931H46.2671V157.284Z" fill="#EBEBEB"/>
<path d="M33.2971 163.21H31.4692V166.856H33.2971V163.21Z" fill="#EBEBEB"/>
<path d="M36.543 163.21H34.7151V166.856H36.543V163.21Z" fill="#EBEBEB"/>
<path d="M39.7844 163.21H37.9565V166.856H39.7844V163.21Z" fill="#EBEBEB"/>
<path d="M43.0302 163.21H41.1978V166.856H43.0302V163.21Z" fill="#EBEBEB"/>
<path d="M46.2671 163.21H44.4392V166.856H46.2671V163.21Z" fill="#EBEBEB"/>
<path d="M33.2971 169.135H31.4692V172.782H33.2971V169.135Z" fill="#EBEBEB"/>
<path d="M36.543 169.135H34.7151V172.782H36.543V169.135Z" fill="#EBEBEB"/>
<path d="M39.7844 169.135H37.9565V172.782H39.7844V169.135Z" fill="#EBEBEB"/>
<path d="M43.0302 169.135H41.1978V172.782H43.0302V169.135Z" fill="#EBEBEB"/>
<path d="M46.2671 169.135H44.4392V172.782H46.2671V169.135Z" fill="#EBEBEB"/>
<path d="M33.2971 175.061H31.4692V178.708H33.2971V175.061Z" fill="#EBEBEB"/>
<path d="M36.543 175.061H34.7151V178.708H36.543V175.061Z" fill="#EBEBEB"/>
<path d="M39.7844 175.061H37.9565V178.708H39.7844V175.061Z" fill="#EBEBEB"/>
<path d="M43.0302 175.061H41.1978V178.708H43.0302V175.061Z" fill="#EBEBEB"/>
<path d="M46.2671 175.061H44.4392V178.708H46.2671V175.061Z" fill="#EBEBEB"/>
<path d="M33.2971 180.987H31.4692V184.633H33.2971V180.987Z" fill="#EBEBEB"/>
<path d="M36.543 180.987H34.7151V184.633H36.543V180.987Z" fill="#EBEBEB"/>
<path d="M39.7844 180.987H37.9565V184.633H39.7844V180.987Z" fill="#EBEBEB"/>
<path d="M43.0302 180.987H41.1978V184.633H43.0302V180.987Z" fill="#EBEBEB"/>
<path d="M46.2671 180.987H44.4392V184.633H46.2671V180.987Z" fill="#EBEBEB"/>
<path d="M33.2971 186.912H31.4692V189.187H33.2971V186.912Z" fill="#EBEBEB"/>
<path d="M36.543 186.912H34.7151V189.187H36.543V186.912Z" fill="#EBEBEB"/>
<path d="M39.7844 186.912H37.9565V189.187H39.7844V186.912Z" fill="#EBEBEB"/>
<path d="M43.0302 186.912H41.1978V189.187H43.0302V186.912Z" fill="#EBEBEB"/>
<path d="M46.2671 186.912H44.4392V189.187H46.2671V186.912Z" fill="#EBEBEB"/>
<path d="M59.4996 104.824H47.9016V189.182H59.4996V104.824Z" fill="#DBDBDB"/>
<path d="M60.0015 102.978H47.9016V104.824H60.0015V102.978Z" fill="#C7C7C7"/>
<path d="M51.3686 107.55H49.5361V189.187H51.3686V107.55Z" fill="#C7C7C7"/>
<path d="M54.6052 107.55H52.7773V189.187H54.6052V107.55Z" fill="#C7C7C7"/>
<path d="M57.8467 107.55H56.0188V189.187H57.8467V107.55Z" fill="#C7C7C7"/>
<path d="M51.3686 109.884H49.5361V113.531H51.3686V109.884Z" fill="#DBDBDB"/>
<path d="M54.6052 109.884H52.7773V113.531H54.6052V109.884Z" fill="#DBDBDB"/>
<path d="M57.8467 109.884H56.0188V113.531H57.8467V109.884Z" fill="#DBDBDB"/>
<path d="M51.3686 115.805H49.5361V119.451H51.3686V115.805Z" fill="#DBDBDB"/>
<path d="M54.6052 115.805H52.7773V119.451H54.6052V115.805Z" fill="#DBDBDB"/>
<path d="M57.8467 115.805H56.0188V119.451H57.8467V115.805Z" fill="#DBDBDB"/>
<path d="M51.3686 121.73H49.5361V125.377H51.3686V121.73Z" fill="#DBDBDB"/>
<path d="M54.6052 121.73H52.7773V125.377H54.6052V121.73Z" fill="#DBDBDB"/>
<path d="M57.8467 121.73H56.0188V125.377H57.8467V121.73Z" fill="#DBDBDB"/>
<path d="M51.3686 127.656H49.5361V131.303H51.3686V127.656Z" fill="#DBDBDB"/>
<path d="M54.6052 127.656H52.7773V131.303H54.6052V127.656Z" fill="#DBDBDB"/>
<path d="M57.8467 127.656H56.0188V131.303H57.8467V127.656Z" fill="#DBDBDB"/>
<path d="M51.3686 133.582H49.5361V137.228H51.3686V133.582Z" fill="#DBDBDB"/>
<path d="M54.6052 133.582H52.7773V137.228H54.6052V133.582Z" fill="#DBDBDB"/>
<path d="M57.8467 133.582H56.0188V137.228H57.8467V133.582Z" fill="#DBDBDB"/>
<path d="M51.3686 139.508H49.5361V143.154H51.3686V139.508Z" fill="#DBDBDB"/>
<path d="M54.6052 139.508H52.7773V143.154H54.6052V139.508Z" fill="#DBDBDB"/>
<path d="M57.8467 139.508H56.0188V143.154H57.8467V139.508Z" fill="#DBDBDB"/>
<path d="M51.3686 145.433H49.5361V149.08H51.3686V145.433Z" fill="#DBDBDB"/>
<path d="M54.6052 145.433H52.7773V149.08H54.6052V145.433Z" fill="#DBDBDB"/>
<path d="M57.8467 145.433H56.0188V149.08H57.8467V145.433Z" fill="#DBDBDB"/>
<path d="M51.3686 151.359H49.5361V155.005H51.3686V151.359Z" fill="#DBDBDB"/>
<path d="M54.6052 151.359H52.7773V155.005H54.6052V151.359Z" fill="#DBDBDB"/>
<path d="M57.8467 151.359H56.0188V155.005H57.8467V151.359Z" fill="#DBDBDB"/>
<path d="M51.3686 157.284H49.5361V160.931H51.3686V157.284Z" fill="#DBDBDB"/>
<path d="M54.6052 157.284H52.7773V160.931H54.6052V157.284Z" fill="#DBDBDB"/>
<path d="M57.8467 157.284H56.0188V160.931H57.8467V157.284Z" fill="#DBDBDB"/>
<path d="M51.3686 163.21H49.5361V166.856H51.3686V163.21Z" fill="#DBDBDB"/>
<path d="M54.6052 163.21H52.7773V166.856H54.6052V163.21Z" fill="#DBDBDB"/>
<path d="M57.8467 163.21H56.0188V166.856H57.8467V163.21Z" fill="#DBDBDB"/>
<path d="M51.3686 169.135H49.5361V172.782H51.3686V169.135Z" fill="#DBDBDB"/>
<path d="M54.6052 169.135H52.7773V172.782H54.6052V169.135Z" fill="#DBDBDB"/>
<path d="M57.8467 169.135H56.0188V172.782H57.8467V169.135Z" fill="#DBDBDB"/>
<path d="M51.3686 175.061H49.5361V178.708H51.3686V175.061Z" fill="#DBDBDB"/>
<path d="M54.6052 175.061H52.7773V178.708H54.6052V175.061Z" fill="#DBDBDB"/>
<path d="M57.8467 175.061H56.0188V178.708H57.8467V175.061Z" fill="#DBDBDB"/>
<path d="M51.3686 180.987H49.5361V184.633H51.3686V180.987Z" fill="#DBDBDB"/>
<path d="M54.6052 180.987H52.7773V184.633H54.6052V180.987Z" fill="#DBDBDB"/>
<path d="M57.8467 180.987H56.0188V184.633H57.8467V180.987Z" fill="#DBDBDB"/>
<path d="M51.3686 186.912H49.5361V189.187H51.3686V186.912Z" fill="#DBDBDB"/>
<path d="M54.6052 186.912H52.7773V189.187H54.6052V186.912Z" fill="#DBDBDB"/>
<path d="M57.8467 186.912H56.0188V189.187H57.8467V186.912Z" fill="#DBDBDB"/>
<path d="M25.1476 135.829H7.15894V189.187H25.1476V135.829Z" fill="#EBEBEB"/>
<path d="M25.1474 131.303H9.71875V135.829H25.1474V131.303Z" fill="#C7C7C7"/>
<path d="M23.1769 138.191H9.13403V189.187H23.1769V138.191Z" fill="#DBDBDB"/>
<path d="M23.1769 143.057H9.13403V144.264H23.1769V143.057Z" fill="white"/>
<path d="M23.1769 148.048H9.13403V149.254H23.1769V148.048Z" fill="white"/>
<path d="M23.1769 153.039H9.13403V154.246H23.1769V153.039Z" fill="white"/>
<path d="M23.1769 158.03H9.13403V159.236H23.1769V158.03Z" fill="white"/>
<path d="M23.1769 163.021H9.13403V164.227H23.1769V163.021Z" fill="white"/>
<path d="M23.1769 168.012H9.13403V169.218H23.1769V168.012Z" fill="white"/>
<path d="M23.1769 173.003H9.13403V174.209H23.1769V173.003Z" fill="white"/>
<path d="M23.1769 177.994H9.13403V179.2H23.1769V177.994Z" fill="white"/>
<path d="M23.1769 182.99H9.13403V184.196H23.1769V182.99Z" fill="white"/>
<path d="M23.1769 187.98H9.13403V189.187H23.1769V187.98Z" fill="white"/>
<path d="M36.4142 135.829H25.1477V189.187H36.4142V135.829Z" fill="#DBDBDB"/>
<path d="M34.7245 131.303H25.1477V135.829H34.7245V131.303Z" fill="#A6A6A6"/>
<path d="M35.3597 138.191H26.6992V189.187H35.3597V138.191Z" fill="#C7C7C7"/>
<path d="M35.3597 143.057H26.6992V144.264H35.3597V143.057Z" fill="white"/>
<path d="M35.3597 148.048H26.6992V149.254H35.3597V148.048Z" fill="white"/>
<path d="M35.3597 153.039H26.6992V154.246H35.3597V153.039Z" fill="white"/>
<path d="M35.3597 158.03H26.6992V159.236H35.3597V158.03Z" fill="white"/>
<path d="M35.3597 163.021H26.6992V164.227H35.3597V163.021Z" fill="white"/>
<path d="M35.3597 168.012H26.6992V169.218H35.3597V168.012Z" fill="white"/>
<path d="M35.3597 173.003H26.6992V174.209H35.3597V173.003Z" fill="white"/>
<path d="M35.3597 177.994H26.6992V179.2H35.3597V177.994Z" fill="white"/>
<path d="M35.3597 182.99H26.6992V184.196H35.3597V182.99Z" fill="white"/>
<path d="M35.3597 187.98H26.6992V189.187H35.3597V187.98Z" fill="white"/>
<path d="M75.559 157.947H61.6543V189.182H75.559V157.947Z" fill="#DBDBDB"/>
<path d="M66.3 160.65H63.8413V162.565H66.3V160.65Z" fill="#C7C7C7"/>
<path d="M66.3 164.739H63.8413V166.654H66.3V164.739Z" fill="#C7C7C7"/>
<path d="M66.3 168.827H63.8413V170.742H66.3V168.827Z" fill="#C7C7C7"/>
<path d="M66.3 172.916H63.8413V174.831H66.3V172.916Z" fill="#C7C7C7"/>
<path d="M66.3 177.004H63.8413V178.919H66.3V177.004Z" fill="#C7C7C7"/>
<path d="M66.3 181.088H63.8413V183.003H66.3V181.088Z" fill="#C7C7C7"/>
<path d="M66.3 185.177H63.8413V187.092H66.3V185.177Z" fill="#C7C7C7"/>
<path d="M69.8405 160.65H67.3818V162.565H69.8405V160.65Z" fill="#C7C7C7"/>
<path d="M69.8405 164.739H67.3818V166.654H69.8405V164.739Z" fill="#C7C7C7"/>
<path d="M69.8405 168.827H67.3818V170.742H69.8405V168.827Z" fill="#C7C7C7"/>
<path d="M69.8405 172.916H67.3818V174.831H69.8405V172.916Z" fill="#C7C7C7"/>
<path d="M69.8405 177.004H67.3818V178.919H69.8405V177.004Z" fill="#C7C7C7"/>
<path d="M69.8405 181.088H67.3818V183.003H69.8405V181.088Z" fill="#C7C7C7"/>
<path d="M69.8405 185.177H67.3818V187.092H69.8405V185.177Z" fill="#C7C7C7"/>
<path d="M73.372 160.65H70.9133V162.565H73.372V160.65Z" fill="#C7C7C7"/>
<path d="M73.372 164.739H70.9133V166.654H73.372V164.739Z" fill="#C7C7C7"/>
<path d="M73.372 168.827H70.9133V170.742H73.372V168.827Z" fill="#C7C7C7"/>
<path d="M73.372 172.916H70.9133V174.831H73.372V172.916Z" fill="#C7C7C7"/>
<path d="M73.372 177.004H70.9133V178.919H73.372V177.004Z" fill="#C7C7C7"/>
<path d="M73.372 181.088H70.9133V183.003H73.372V181.088Z" fill="#C7C7C7"/>
<path d="M73.372 185.177H70.9133V187.092H73.372V185.177Z" fill="#C7C7C7"/>
<path d="M85.3151 157.947H75.5588V189.182H85.3151V157.947Z" fill="#A6A6A6"/>
<path d="M82.3133 186.783H84.3162V184.868H82.3133V186.783Z" fill="#C7C7C7"/>
<path d="M82.3133 182.699H84.3162V180.784H82.3133V182.699Z" fill="#C7C7C7"/>
<path d="M82.3133 178.611H84.3162V176.695H82.3133V178.611Z" fill="#C7C7C7"/>
<path d="M82.3133 174.527H84.3162V172.612H82.3133V174.527Z" fill="#C7C7C7"/>
<path d="M82.3133 170.434H84.3162V168.518H82.3133V170.434Z" fill="#C7C7C7"/>
<path d="M82.3133 166.345H84.3162V164.43H82.3133V166.345Z" fill="#C7C7C7"/>
<path d="M82.3133 162.261H84.3162V160.346H82.3133V162.261Z" fill="#C7C7C7"/>
<path d="M79.431 186.783H81.4338V184.868H79.431V186.783Z" fill="#C7C7C7"/>
<path d="M79.431 182.699H81.4338V180.784H79.431V182.699Z" fill="#C7C7C7"/>
<path d="M79.431 178.611H81.4338V176.695H79.431V178.611Z" fill="#C7C7C7"/>
<path d="M79.431 174.527H81.4338V172.612H79.431V174.527Z" fill="#C7C7C7"/>
<path d="M79.431 170.434H81.4338V168.518H79.431V170.434Z" fill="#C7C7C7"/>
<path d="M79.431 166.345H81.4338V164.43H79.431V166.345Z" fill="#C7C7C7"/>
<path d="M79.431 162.261H81.4338V160.346H79.431V162.261Z" fill="#C7C7C7"/>
<path d="M76.558 186.783H78.5608V184.868H76.558V186.783Z" fill="#C7C7C7"/>
<path d="M76.558 182.699H78.5608V180.784H76.558V182.699Z" fill="#C7C7C7"/>
<path d="M76.558 178.611H78.5608V176.695H76.558V178.611Z" fill="#C7C7C7"/>
<path d="M76.558 174.527H78.5608V172.612H76.558V174.527Z" fill="#C7C7C7"/>
<path d="M76.558 170.434H78.5608V168.518H76.558V170.434Z" fill="#C7C7C7"/>
<path d="M76.558 166.345H78.5608V164.43H76.558V166.345Z" fill="#C7C7C7"/>
<path d="M76.558 162.261H78.5608V160.346H76.558V162.261Z" fill="#C7C7C7"/>
<path d="M179.006 122.117H169.402V133.467H179.006V122.117Z" fill="#DBDBDB"/>
<path d="M185.102 122.117H179.011V133.881H185.102V122.117Z" fill="#C7C7C7"/>
<path d="M185.507 127.131H179.462V133.886H185.507V127.131Z" fill="#DBDBDB"/>
<path d="M189.278 127.131H185.507V133.886H189.278V127.131Z" fill="#C7C7C7"/>
<path d="M181.253 132.73H165.719V189.182H181.253V132.73Z" fill="#EBEBEB"/>
<path d="M172.381 135.156H167.496V137.15H172.381V135.156Z" fill="white"/>
<path d="M178.629 135.156H173.744V137.15H178.629V135.156Z" fill="white"/>
<path d="M172.381 138.545H167.496V140.539H172.381V138.545Z" fill="white"/>
<path d="M178.629 138.545H173.744V140.539H178.629V138.545Z" fill="white"/>
<path d="M172.381 141.934H167.496V143.927H172.381V141.934Z" fill="white"/>
<path d="M178.629 141.934H173.744V143.927H178.629V141.934Z" fill="white"/>
<path d="M172.381 145.323H167.496V147.316H172.381V145.323Z" fill="white"/>
<path d="M178.629 145.323H173.744V147.316H178.629V145.323Z" fill="white"/>
<path d="M172.381 148.711H167.496V150.705H172.381V148.711Z" fill="white"/>
<path d="M178.629 148.711H173.744V150.705H178.629V148.711Z" fill="white"/>
<path d="M172.381 152.1H167.496V154.093H172.381V152.1Z" fill="white"/>
<path d="M178.629 152.1H173.744V154.093H178.629V152.1Z" fill="white"/>
<path d="M172.381 155.489H167.496V157.482H172.381V155.489Z" fill="white"/>
<path d="M178.629 155.489H173.744V157.482H178.629V155.489Z" fill="white"/>
<path d="M172.381 158.877H167.496V160.871H172.381V158.877Z" fill="white"/>
<path d="M178.629 158.877H173.744V160.871H178.629V158.877Z" fill="white"/>
<path d="M172.381 162.266H167.496V164.26H172.381V162.266Z" fill="white"/>
<path d="M178.629 162.266H173.744V164.26H178.629V162.266Z" fill="white"/>
<path d="M172.381 165.655H167.496V167.648H172.381V165.655Z" fill="white"/>
<path d="M178.629 165.655H173.744V167.648H178.629V165.655Z" fill="white"/>
<path d="M172.381 169.043H167.496V171.037H172.381V169.043Z" fill="white"/>
<path d="M178.629 169.043H173.744V171.037H178.629V169.043Z" fill="white"/>
<path d="M172.381 172.432H167.496V174.43H172.381V172.432Z" fill="white"/>
<path d="M178.629 172.432H173.744V174.43H178.629V172.432Z" fill="white"/>
<path d="M172.381 175.821H167.496V177.814H172.381V175.821Z" fill="white"/>
<path d="M178.629 175.821H173.744V177.814H178.629V175.821Z" fill="white"/>
<path d="M172.381 179.209H167.496V181.203H172.381V179.209Z" fill="white"/>
<path d="M178.629 179.209H173.744V181.203H178.629V179.209Z" fill="white"/>
<path d="M193.841 132.73H181.253V189.182H193.841V132.73Z" fill="#C7C7C7"/>
<path d="M188.569 181.203H192.579V179.21H188.569V181.203Z" fill="#EBEBEB"/>
<path d="M183.436 181.203H187.446V179.21H183.436V181.203Z" fill="#EBEBEB"/>
<path d="M188.569 177.814H192.579V175.821H188.569V177.814Z" fill="#EBEBEB"/>
<path d="M183.436 177.814H187.446V175.821H183.436V177.814Z" fill="#EBEBEB"/>
<path d="M188.569 174.426H192.579V172.428H188.569V174.426Z" fill="#EBEBEB"/>
<path d="M183.436 174.426H187.446V172.428H183.436V174.426Z" fill="#EBEBEB"/>
<path d="M188.569 171.037H192.579V169.043H188.569V171.037Z" fill="#EBEBEB"/>
<path d="M183.436 171.037H187.446V169.043H183.436V171.037Z" fill="#EBEBEB"/>
<path d="M188.569 167.648H192.579V165.655H188.569V167.648Z" fill="#EBEBEB"/>
<path d="M183.436 167.648H187.446V165.655H183.436V167.648Z" fill="#EBEBEB"/>
<path d="M188.569 164.26H192.579V162.266H188.569V164.26Z" fill="#EBEBEB"/>
<path d="M183.436 164.26H187.446V162.266H183.436V164.26Z" fill="#EBEBEB"/>
<path d="M188.569 160.871H192.579V158.877H188.569V160.871Z" fill="#EBEBEB"/>
<path d="M183.436 160.871H187.446V158.877H183.436V160.871Z" fill="#EBEBEB"/>
<path d="M188.569 157.482H192.579V155.489H188.569V157.482Z" fill="#EBEBEB"/>
<path d="M183.436 157.482H187.446V155.489H183.436V157.482Z" fill="#EBEBEB"/>
<path d="M188.569 154.094H192.579V152.1H188.569V154.094Z" fill="#EBEBEB"/>
<path d="M183.436 154.094H187.446V152.1H183.436V154.094Z" fill="#EBEBEB"/>
<path d="M188.569 150.705H192.579V148.711H188.569V150.705Z" fill="#EBEBEB"/>
<path d="M183.436 150.705H187.446V148.711H183.436V150.705Z" fill="#EBEBEB"/>
<path d="M188.569 147.316H192.579V145.323H188.569V147.316Z" fill="#EBEBEB"/>
<path d="M183.436 147.316H187.446V145.323H183.436V147.316Z" fill="#EBEBEB"/>
<path d="M188.569 143.927H192.579V141.934H188.569V143.927Z" fill="#EBEBEB"/>
<path d="M183.436 143.927H187.446V141.934H183.436V143.927Z" fill="#EBEBEB"/>
<path d="M188.569 140.539H192.579V138.545H188.569V140.539Z" fill="#EBEBEB"/>
<path d="M183.436 140.539H187.446V138.545H183.436V140.539Z" fill="#EBEBEB"/>
<path d="M188.569 137.155H192.579V135.161H188.569V137.155Z" fill="#EBEBEB"/>
<path d="M183.436 137.155H187.446V135.161H183.436V137.155Z" fill="#EBEBEB"/>
<path d="M115.528 152.399H97.208V189.187H115.528V152.399Z" fill="#C7C7C7"/>
<path d="M103.331 155.581H100.09V157.832H103.331V155.581Z" fill="#DBDBDB"/>
<path d="M103.331 160.397H100.09V162.653H103.331V160.397Z" fill="#DBDBDB"/>
<path d="M103.331 165.208H100.09V167.464H103.331V165.208Z" fill="#DBDBDB"/>
<path d="M103.331 170.024H100.09V172.28H103.331V170.024Z" fill="#DBDBDB"/>
<path d="M103.331 174.835H100.09V177.092H103.331V174.835Z" fill="#DBDBDB"/>
<path d="M103.331 179.651H100.09V181.907H103.331V179.651Z" fill="#DBDBDB"/>
<path d="M103.331 184.463H100.09V186.719H103.331V184.463Z" fill="#DBDBDB"/>
<path d="M107.996 155.581H104.754V157.832H107.996V155.581Z" fill="#DBDBDB"/>
<path d="M107.996 160.397H104.754V162.653H107.996V160.397Z" fill="#DBDBDB"/>
<path d="M107.996 165.208H104.754V167.464H107.996V165.208Z" fill="#DBDBDB"/>
<path d="M107.996 170.024H104.754V172.28H107.996V170.024Z" fill="#DBDBDB"/>
<path d="M107.996 174.835H104.754V177.092H107.996V174.835Z" fill="#DBDBDB"/>
<path d="M107.996 179.651H104.754V181.907H107.996V179.651Z" fill="#DBDBDB"/>
<path d="M107.996 184.463H104.754V186.719H107.996V184.463Z" fill="#DBDBDB"/>
<path d="M112.646 155.581H109.405V157.832H112.646V155.581Z" fill="#DBDBDB"/>
<path d="M112.646 160.397H109.405V162.653H112.646V160.397Z" fill="#DBDBDB"/>
<path d="M112.646 165.208H109.405V167.464H112.646V165.208Z" fill="#DBDBDB"/>
<path d="M112.646 170.024H109.405V172.28H112.646V170.024Z" fill="#DBDBDB"/>
<path d="M112.646 174.835H109.405V177.092H112.646V174.835Z" fill="#DBDBDB"/>
<path d="M112.646 179.651H109.405V181.907H112.646V179.651Z" fill="#DBDBDB"/>
<path d="M112.646 184.463H109.405V186.719H112.646V184.463Z" fill="#DBDBDB"/>
<path d="M115.528 148.564H103.332V152.395H115.528V148.564Z" fill="#DBDBDB"/>
<path d="M115.533 146.193H107.798V148.564H115.533V146.193Z" fill="#EBEBEB"/>
<path d="M128.383 152.399H115.528V189.187H128.383V152.399Z" fill="#A6A6A6"/>
<path d="M124.433 186.36H127.071V184.104H124.433V186.36Z" fill="#C7C7C7"/>
<path d="M124.433 181.544H127.071V179.288H124.433V181.544Z" fill="#C7C7C7"/>
<path d="M124.433 176.732H127.071V174.476H124.433V176.732Z" fill="#C7C7C7"/>
<path d="M124.433 171.917H127.071V169.66H124.433V171.917Z" fill="#C7C7C7"/>
<path d="M124.433 167.105H127.071V164.849H124.433V167.105Z" fill="#C7C7C7"/>
<path d="M124.433 162.289H127.071V160.033H124.433V162.289Z" fill="#C7C7C7"/>
<path d="M124.433 157.478H127.071V155.221H124.433V157.478Z" fill="#C7C7C7"/>
<path d="M120.634 186.36H123.272V184.104H120.634V186.36Z" fill="#C7C7C7"/>
<path d="M120.634 181.544H123.272V179.288H120.634V181.544Z" fill="#C7C7C7"/>
<path d="M120.634 176.732H123.272V174.476H120.634V176.732Z" fill="#C7C7C7"/>
<path d="M120.634 171.917H123.272V169.66H120.634V171.917Z" fill="#C7C7C7"/>
<path d="M120.634 167.105H123.272V164.849H120.634V167.105Z" fill="#C7C7C7"/>
<path d="M120.634 162.289H123.272V160.033H120.634V162.289Z" fill="#C7C7C7"/>
<path d="M120.634 157.478H123.272V155.221H120.634V157.478Z" fill="#C7C7C7"/>
<path d="M116.85 186.36H119.488V184.104H116.85V186.36Z" fill="#C7C7C7"/>
<path d="M116.85 181.544H119.488V179.288H116.85V181.544Z" fill="#C7C7C7"/>
<path d="M116.85 176.732H119.488V174.476H116.85V176.732Z" fill="#C7C7C7"/>
<path d="M116.85 171.917H119.488V169.66H116.85V171.917Z" fill="#C7C7C7"/>
<path d="M116.85 167.105H119.488V164.849H116.85V167.105Z" fill="#C7C7C7"/>
<path d="M116.85 162.289H119.488V160.033H116.85V162.289Z" fill="#C7C7C7"/>
<path d="M116.85 157.478H119.488V155.221H116.85V157.478Z" fill="#C7C7C7"/>
<path d="M126.435 148.564H115.528V152.395H126.435V148.564Z" fill="#C7C7C7"/>
<path d="M121.44 146.193H115.528V148.564H121.44V146.193Z" fill="#DBDBDB"/>
<path d="M197.179 192.106L173.012 192.216L148.84 192.258L100.5 192.336L52.1606 192.258L27.9931 192.216L3.82104 192.106L27.9931 191.991L52.1606 191.954L100.5 191.875L148.84 191.954L173.012 191.995L197.179 192.106Z" fill="#231F20"/>
<path d="M197.179 189.182H3.82104V191.986H197.179V189.182Z" fill="#C7C7C7"/>
<path d="M17.3758 189.182C17.5371 189.632 17.6151 190.108 17.606 190.586C17.6151 191.057 17.537 191.525 17.3758 191.968C17.0688 191.058 17.0688 190.073 17.3758 189.164V189.182Z" fill="#231F20"/>
<path d="M32.4913 189.182C32.7983 190.091 32.7983 191.076 32.4913 191.986C32.33 191.544 32.252 191.075 32.2611 190.605C32.2497 190.12 32.3278 189.638 32.4913 189.182Z" fill="#231F20"/>
<path d="M47.6023 189.182C47.7636 189.632 47.8416 190.108 47.8325 190.586C47.8416 191.057 47.7636 191.525 47.6023 191.968C47.2953 191.058 47.2953 190.073 47.6023 189.164V189.182Z" fill="#231F20"/>
<path d="M62.7181 189.182C63.0251 190.091 63.0251 191.076 62.7181 191.986C62.5568 191.544 62.4788 191.075 62.4879 190.605C62.4765 190.12 62.5546 189.638 62.7181 189.182Z" fill="#231F20"/>
<path d="M77.8289 189.182C77.9902 189.632 78.0682 190.108 78.0591 190.586C78.0682 191.057 77.9902 191.525 77.8289 191.968C77.5219 191.058 77.5219 190.073 77.8289 189.164V189.182Z" fill="#231F20"/>
<path d="M92.9447 189.182C93.2517 190.091 93.2517 191.076 92.9447 191.986C92.7834 191.544 92.7054 191.075 92.7145 190.605C92.7031 190.12 92.7811 189.638 92.9447 189.182Z" fill="#231F20"/>
<path d="M108.056 189.182C108.217 189.632 108.295 190.108 108.286 190.586C108.295 191.057 108.217 191.525 108.056 191.968C107.749 191.058 107.749 190.073 108.056 189.164V189.182Z" fill="#231F20"/>
<path d="M123.171 189.182C123.478 190.091 123.478 191.076 123.171 191.986C123.01 191.544 122.932 191.075 122.941 190.605C122.93 190.12 123.008 189.638 123.171 189.182Z" fill="#231F20"/>
<path d="M138.282 189.182C138.444 189.632 138.522 190.108 138.512 190.586C138.522 191.057 138.444 191.525 138.282 191.968C137.975 191.058 137.975 190.073 138.282 189.164V189.182Z" fill="#231F20"/>
<path d="M153.398 189.182C153.705 190.091 153.705 191.076 153.398 191.986C153.237 191.544 153.158 191.075 153.168 190.605C153.156 190.12 153.234 189.638 153.398 189.182Z" fill="#231F20"/>
<path d="M168.509 189.182C168.67 189.632 168.748 190.108 168.739 190.586C168.748 191.057 168.67 191.525 168.509 191.968C168.202 191.058 168.202 190.073 168.509 189.164V189.182Z" fill="#231F20"/>
<path d="M183.624 189.182C183.931 190.091 183.931 191.076 183.624 191.986C183.463 191.544 183.385 191.075 183.394 190.605C183.383 190.12 183.461 189.638 183.624 189.182Z" fill="#231F20"/>
<path d="M162.311 12.7169L162.201 12.39C162.491 12.2887 162.786 12.1966 163.08 12.1045L163.182 12.4314L162.311 12.7169Z" fill="#231F20"/>
<path d="M118.664 49.9327L118.59 49.592C119.198 49.4677 119.801 49.3157 120.385 49.1316L120.478 49.4631C119.888 49.6518 119.276 49.8038 118.664 49.9327ZM122.692 48.731L122.568 48.4087C123.134 48.1877 123.705 47.9483 124.258 47.672L124.405 47.9851C123.843 48.2568 123.268 48.5054 122.692 48.731ZM126.463 46.8893L126.283 46.5947C126.804 46.2816 127.324 45.9409 127.83 45.5863L128.028 45.8672C127.513 46.2125 126.988 46.5532 126.463 46.8709V46.8893ZM129.884 44.4491L129.663 44.1821C130.123 43.7999 130.584 43.3855 131.044 42.9573L131.279 43.2106C130.823 43.6249 130.354 44.0393 129.884 44.4307V44.4491ZM132.955 41.5669L132.702 41.3274C133.116 40.8993 133.535 40.4388 133.959 39.9462L134.217 40.1764C133.793 40.6506 133.369 41.1157 132.955 41.5484V41.5669ZM135.717 38.4084L135.45 38.1874C135.842 37.727 136.224 37.2251 136.606 36.7325L136.878 36.9442C136.5 37.4231 136.115 37.905 135.722 38.39L135.717 38.4084ZM138.287 35.0841L138.01 34.8816L139.115 33.3806L139.392 33.5832L138.287 35.0841ZM140.759 31.6955L140.478 31.4929L141.579 29.9827L141.855 30.1853L140.759 31.6955ZM143.241 28.2929L142.964 28.0858C143.337 27.5885 143.715 27.0912 144.097 26.5986L144.369 26.8104C143.987 27.303 143.614 27.7957 143.241 28.2929ZM145.814 24.9917L145.547 24.7707C145.943 24.3103 146.344 23.8131 146.754 23.3434L147.012 23.569C146.606 24.0387 146.206 24.5129 145.814 24.9917ZM148.577 21.8471L148.324 21.6122C148.761 21.1518 149.203 20.6914 149.636 20.277L149.88 20.5257C149.443 20.9262 149.001 21.3866 148.572 21.8471H148.577ZM151.584 18.9556L151.358 18.6932C151.818 18.2788 152.32 17.8782 152.799 17.5053L153.015 17.7769C152.527 18.1637 152.067 18.5412 151.579 18.9556H151.584ZM154.885 16.4141L154.691 16.1286C155.207 15.7787 155.737 15.438 156.266 15.1249L156.446 15.4196C155.916 15.7327 155.391 16.0688 154.88 16.4141H154.885ZM158.471 14.3146L158.32 14.0061C158.872 13.7299 159.448 13.4674 160.018 13.2234L160.152 13.5411C159.581 13.7805 159.019 14.0429 158.467 14.3146H158.471Z" fill="#231F20"/>
<path d="M115.395 50.4208L115.362 50.0754C115.669 50.0478 115.976 50.0156 116.283 49.9788L116.325 50.3195L115.395 50.4208Z" fill="#231F20"/>
<path d="M166.658 6.43202L163.131 12.2702L168.674 9.46159L188.357 6.41821L166.658 6.43202Z" fill="#410C9E"/>
<path opacity="0.1" d="M166.658 6.43202L163.131 12.2702L168.674 9.46159L188.357 6.41821L166.658 6.43202Z" fill="black"/>
<path d="M169.006 11.0501L163.131 12.2702L168.674 9.46167L169.006 11.0501Z" fill="#231F20"/>
<path d="M168.674 9.46159L188.357 6.41821L170.392 18.1543L168.674 9.46159Z" fill="#410C9E"/>
<path d="M166.658 6.43207L159.995 0L188.357 6.41826L166.658 6.43207Z" fill="#410C9E"/>
<path d="M56.9165 55.8262H50.9817V189.187H56.9165V55.8262Z" fill="#37474F"/>
<path d="M56.9213 189.182H60.1396L60.1396 55.8214H56.9213L56.9213 189.182Z" fill="#455A64"/>
<path d="M56.9166 54.1455H50.4338V55.8214H56.9166V54.1455Z" fill="#231F20"/>
<path d="M56.9165 55.8262H60.6965V54.1502H56.9165V55.8262Z" fill="#37474F"/>
<path d="M56.9166 52.6628H51.7415V54.15H56.9166V52.6628Z" fill="#37474F"/>
<path d="M59.5041 52.6628H56.9165V54.15H59.5041V52.6628Z" fill="#455A64"/>
<path d="M58.9931 49.3157C58.9922 49.9776 58.7951 50.6243 58.4267 51.1741C58.0584 51.724 57.5353 52.1523 56.9236 52.4049C56.3119 52.6575 55.639 52.7232 54.99 52.5935C54.341 52.4638 53.745 52.1447 53.2773 51.6764C52.8097 51.2081 52.4913 50.6116 52.3626 49.9624C52.2338 49.3133 52.3003 48.6405 52.5538 48.0291C52.8073 47.4178 53.2363 46.8953 53.7867 46.5277C54.337 46.1601 54.984 45.9639 55.6458 45.9639C56.0858 45.9639 56.5214 46.0506 56.9278 46.2191C57.3342 46.3876 57.7035 46.6346 58.0143 46.9459C58.3252 47.2572 58.5717 47.6267 58.7396 48.0334C58.9076 48.44 58.9937 48.8758 58.9931 49.3157Z" fill="#37474F"/>
<path d="M31.4 67.355V81.628H16.0173V67.4885C16.0167 66.4953 16.2118 65.5118 16.5915 64.594C16.9712 63.6762 17.5279 62.8423 18.23 62.1398C18.9321 61.4373 19.7657 60.88 20.6832 60.4997C21.6008 60.1195 22.5842 59.9238 23.5774 59.9238H23.9688C25.9397 59.9238 27.8298 60.7068 29.2234 62.1004C30.6171 63.494 31.4 65.3841 31.4 67.355Z" fill="#410C9E"/>
<path d="M55.6457 66.1948V81.6419H31.3999V67.3688C31.4018 66.3918 31.2109 65.424 30.8382 64.5208C30.4656 63.6176 29.9185 62.7968 29.2283 62.1053C28.5381 61.4137 27.7182 60.8651 26.8157 60.4908C25.9132 60.1165 24.9458 59.9238 23.9688 59.9238H49.3932C51.0531 59.9287 52.6434 60.5915 53.8155 61.767C54.9875 62.9425 55.6457 64.5348 55.6457 66.1948Z" fill="#410C9E"/>
<path opacity="0.1" d="M55.6457 66.1948V81.6419H31.3999V67.3688C31.4018 66.3918 31.2109 65.424 30.8382 64.5208C30.4656 63.6176 29.9185 62.7968 29.2283 62.1053C28.5381 61.4137 27.7182 60.8651 26.8157 60.4908C25.9132 60.1165 24.9458 59.9238 23.9688 59.9238H49.3932C51.0531 59.9287 52.6434 60.5915 53.8155 61.767C54.9875 62.9425 55.6457 64.5348 55.6457 66.1948Z" fill="#020100"/>
<path opacity="0.1" d="M35.6084 67.0788V81.6419H34.6185V67.3688C34.6203 66.3922 34.4296 65.4247 34.0572 64.5219C33.6849 63.619 33.1382 62.7983 32.4484 62.1069C31.7587 61.4154 30.9394 60.8667 30.0375 60.4921C29.1355 60.1176 28.1685 59.9244 27.1919 59.9238H28.4534C30.3511 59.9238 32.1709 60.6776 33.5127 62.0195C34.8546 63.3613 35.6084 65.1812 35.6084 67.0788Z" fill="#020100"/>
<path opacity="0.1" d="M53.3945 67.0789V81.642H52.4046V67.3689C52.4046 65.3989 51.6223 63.5094 50.2297 62.1159C48.8371 60.7224 46.9481 59.939 44.978 59.9377H46.2396C48.1348 59.9377 49.9526 60.6897 51.294 62.0285C52.6354 63.3673 53.3909 65.1837 53.3945 67.0789Z" fill="#020100"/>
<g opacity="0.1">
<path d="M40.9906 77.811V75.5089L40.1572 77.1849H39.6968L38.8634 75.5089V77.811H37.9702V73.9619H38.9371L39.9362 75.9693L40.9353 73.9619H41.8976V77.811H40.9906Z" fill="#020100"/>
<path d="M43.6611 73.9619H44.4668L45.848 77.811H44.9272L44.6279 76.9454H43.4308L43.1362 77.811H42.2153L43.6611 73.9619ZM44.5128 76.3331L44.0524 74.9518L43.592 76.3331H44.5128Z" fill="#020100"/>
<path d="M46.2485 77.811V73.9619H47.1372V77.811H46.2485Z" fill="#020100"/>
<path d="M47.8738 77.811V73.9619H48.7624V77.0283H50.6271V77.811H47.8738Z" fill="#020100"/>
</g>
<path opacity="0.3" d="M30.6127 67.705V80.5323H16.8V67.8247C16.8 66.9313 16.9763 66.0467 17.3188 65.2215C17.6612 64.3964 18.1631 63.6469 18.7957 63.016C19.4282 62.3852 20.1791 61.8853 21.0051 61.5451C21.8312 61.2049 22.7163 61.031 23.6097 61.0335H23.9596C25.7258 61.0383 27.418 61.7434 28.6651 62.994C29.9123 64.2446 30.6127 65.9388 30.6127 67.705Z" fill="#020100"/>
<path d="M14.3092 83.0831L16.0174 81.6558H31.4L29.853 82.9495C24.8759 87.1256 18.0663 90.5143 13.8902 90.5143H12.8865C8.78418 90.5004 8.19023 87.7932 14.3092 83.0831Z" fill="#37474F"/>
<path d="M31.3954 81.6418L29.853 82.9356C24.8759 87.1116 18.0663 90.5003 13.8903 90.5003H12.7991C8.77499 90.4589 8.23169 87.7378 14.3092 83.0692L16.0128 81.6418H31.3954Z" fill="#37474F"/>
<path d="M30.2582 81.6418L28.7158 82.9356C23.7571 87.0794 16.9797 90.4727 12.7991 90.5003C8.77499 90.4589 8.23169 87.7378 14.3092 83.0692L16.0128 81.6418H30.2582Z" fill="#455A64"/>
<path d="M53.2653 87.9772V91.9046L45.1021 81.6418H48.2283L53.2653 87.9772Z" fill="#455A64"/>
<path d="M53.2655 91.9046H52.1144L43.9512 81.6418H45.1068L53.2655 91.9046Z" fill="#37474F"/>
<path d="M40.6453 53.2798V56.9171H37.3165V70.5778C37.3165 70.8831 37.1952 71.1758 36.9794 71.3917C36.7635 71.6076 36.4707 71.7288 36.1655 71.7288C35.8602 71.7288 35.5674 71.6076 35.3515 71.3917C35.1357 71.1758 35.0144 70.8831 35.0144 70.5778V52.3682L37.3165 52.7411L40.6453 53.2798Z" fill="#455A64"/>
<path d="M40.6453 53.2798V56.9171H37.3164V70.5778C37.3154 70.8424 37.2233 71.0985 37.0556 71.3031C36.8879 71.5077 36.6548 71.6483 36.3956 71.7012C36.3171 71.7198 36.2368 71.729 36.1562 71.7288C36.0919 71.7361 36.0271 71.7361 35.9628 71.7288C35.7268 71.6926 35.5089 71.5812 35.3412 71.4112C35.1263 71.1943 35.0056 70.9015 35.0051 70.5962V52.3682L37.3072 52.7411L40.6453 53.2798Z" fill="#455A64"/>
<path d="M36.1516 71.7288H35.2538C35.0022 71.7317 34.7591 71.6377 34.5748 71.4663C34.3906 71.2949 34.2793 71.0592 34.2639 70.808V52.3682H35.0006V70.5778C35.001 70.8831 35.1218 71.1759 35.3367 71.3927C35.5628 71.5932 35.8499 71.7116 36.1516 71.7288Z" fill="#37474F"/>
<path d="M30.6128 67.705V76.7247L28.3107 75.7624L26.9663 75.1961L26.3724 74.9475L25.9856 74.7817L25.5758 74.6113L25.4515 74.5607L25.2904 74.4916L21.9109 73.0643L22.6245 71.3654L22.7627 71.0431L23.375 69.5974L23.619 69.008L23.7203 68.7778L24.1439 67.7649L24.6044 66.6231L26.446 62.2214L28.8586 63.239C29.5727 64.0258 30.0861 64.9735 30.355 66.0015C30.5143 66.5558 30.6009 67.1284 30.6128 67.705Z" fill="#EBEBEB"/>
<path d="M30.6128 70.0531V71.0568L30.5575 70.9417V70.8911L30.5161 70.8036C30.499 70.7754 30.4836 70.7462 30.47 70.7161L29.9221 69.5881C29.9221 69.5421 29.8761 69.496 29.8531 69.4454L29.3696 68.4324C29.2683 68.2298 29.1717 68.0273 29.075 67.8201L29.0473 67.7556L28.3153 66.2132C28.1357 65.8219 27.9515 65.4305 27.772 65.0345C27.3484 64.1137 26.911 63.1652 26.5012 62.2122C26.9985 63.0916 27.4635 63.9848 27.9469 64.8734C28.1772 65.3338 28.4074 65.7436 28.6376 66.181L29.365 67.5622L29.4617 67.751L29.7702 68.3496L30.1477 69.0908C30.1477 69.1277 30.1892 69.1645 30.2076 69.2013L30.6128 70.0531Z" fill="#DBDBDB"/>
<path d="M30.6127 70.8819V70.9233H30.5575L30.4193 70.9647C29.8346 71.1443 29.2499 71.3055 28.6605 71.4574L28.4672 71.5034L28.039 71.6093H27.9883L27.4819 71.729L26.492 71.9501C25.7921 72.0974 25.1107 72.2355 24.3878 72.3552H24.305L23.8768 72.4243C23.2828 72.5256 22.6889 72.6084 22.0903 72.6729C22.606 72.5026 23.1217 72.3552 23.6419 72.2125L24.1024 72.0928L24.2451 72.0513C24.9634 71.8672 25.6908 71.706 26.4137 71.5449L27.0629 71.4068C27.2562 71.3745 27.445 71.3331 27.6384 71.2962C27.8318 71.2594 28.0988 71.2042 28.3382 71.1673L28.6053 71.1213L28.7526 71.0937C29.2867 71.0016 29.8254 70.9187 30.3733 70.8542H30.539L30.6127 70.8819Z" fill="#DBDBDB"/>
<path d="M30.6173 68.5981H18.7017V80.3665H30.6173V68.5981Z" fill="white"/>
<path d="M30.6127 74.0312V74.6068L30.5022 74.7035L30.2904 74.8922C30.2647 74.9124 30.2401 74.9339 30.2167 74.9567L30.1523 75.0165L30.1062 75.058L28.3244 76.605L28.0804 76.8122L27.9745 76.8997L27.8686 76.8122L26.9754 76.0341L26.515 75.6519C26.4229 75.569 26.3262 75.4908 26.2341 75.4033C26.2096 75.3888 26.1877 75.3701 26.1696 75.348L25.8473 75.0718L25.8059 75.035L25.7322 74.9705L25.6586 74.9106C25.0447 74.3919 24.4492 73.867 23.8721 73.336L23.6327 73.1242L23.2506 72.7835L22.6152 72.2172C22.1548 71.8212 21.7266 71.4207 21.2892 71.0155L21.1326 70.8774L20.9623 70.7254C20.2072 70.021 19.4429 69.3442 18.697 68.6167C19.4935 69.2291 20.2763 69.8782 21.0636 70.5044C21.1234 70.5551 21.1879 70.6011 21.2478 70.6564L21.4457 70.8175L22.7533 71.8903L23.4163 72.4382L24.0931 73.0045L24.3832 73.2485C24.9296 73.7059 25.4744 74.1663 26.0177 74.6298L26.1374 74.7311L26.4551 75.0027L26.5978 75.1224L26.8649 75.3527L27.9653 76.2735C28.6099 75.721 29.2591 75.1639 29.9083 74.616L30.1016 74.4502C30.2259 74.3443 30.3457 74.2384 30.4746 74.1371L30.6127 74.0312Z" fill="#DBDBDB"/>
<path d="M26.0546 74.8782L25.76 75.1268C25.2995 75.5182 24.8391 75.8957 24.3327 76.2594C23.7433 76.7199 23.1402 77.1434 22.5324 77.5716C21.9247 77.9998 21.3077 78.4096 20.6907 78.8102C20.0738 79.2107 19.4292 79.6067 18.7754 79.9658C19.3371 79.4732 19.9264 79.0127 20.5158 78.5615C21.1051 78.1103 21.7129 77.6775 22.316 77.2493C22.9192 76.8212 23.5453 76.4068 24.1577 76.0062C24.655 75.6885 25.1614 75.3708 25.6817 75.0854L26.0454 74.8828L26.0546 74.8782Z" fill="#DBDBDB"/>
<path d="M30.6127 75.2881V75.4815L30.2168 75.15L30.1063 75.0579L29.9221 74.9014H29.9543L30.1754 75.0257L30.3135 75.1086L30.6127 75.2881Z" fill="#DBDBDB"/>
<path d="M72.8244 139.715C72.8244 139.715 58.229 152.086 58.2152 152.091C55.4113 154.443 52.9941 156.557 51.8476 157.763C51.5505 158.014 51.3143 158.329 51.157 158.684C51.157 158.684 51.157 158.707 51.157 158.716C51.2905 160.024 69.4265 182.98 70.3289 183.579C71.2313 184.177 72.9763 181.645 72.9809 180.19C72.9855 178.735 69.9744 166.838 69.9744 166.838L84.4454 154.333L72.8244 139.715Z" fill="#EB9481"/>
<path d="M61.2126 149.545C61.2126 149.545 58.229 152.077 58.2152 152.082C55.4113 154.434 52.9941 156.548 51.8476 157.754C51.5818 158.033 51.35 158.342 51.157 158.675C51.157 158.675 51.157 158.698 51.157 158.707C51.2905 160.015 69.4265 182.971 70.3289 183.57C71.2313 184.168 72.9763 181.636 72.9809 180.181C72.9855 178.726 69.9744 166.829 69.9744 166.829L73.05 164.292L61.2126 149.545Z" fill="#EBEBEB"/>
<path d="M70.3058 183.588C69.3849 183.003 51.2674 160.047 51.1339 158.725C51.074 158.223 54.2647 155.387 58.2152 152.072L58.3441 151.966L70.2045 166.645L69.9513 166.838C69.9513 166.838 72.9624 178.731 72.9578 180.19C72.9532 181.65 71.2036 184.182 70.3058 183.588Z" fill="#410C9E"/>
<path d="M70.987 182.626C68.0265 178.685 55.7103 163.053 52.4828 159.379C52.4551 159.352 52.4321 159.379 52.4597 159.379C55.3097 163.353 67.7503 178.883 70.9272 182.658C70.9917 182.755 71.0331 182.709 70.987 182.626Z" fill="#231F20"/>
<path d="M70.8905 168.132C69.9696 166.387 68.2661 164.706 66.2632 164.402C66.185 164.402 66.1665 164.499 66.2218 164.536C67.8411 165.621 69.3399 166.876 70.6925 168.279C70.7134 168.301 70.7417 168.315 70.7719 168.317C70.8022 168.32 70.8323 168.311 70.8567 168.293C70.881 168.275 70.8979 168.249 70.9041 168.219C70.9103 168.189 70.9055 168.158 70.8905 168.132Z" fill="#231F20"/>
<path d="M71.0932 169.752C70.1723 168.007 68.4688 166.331 66.489 166.023C66.4107 166.023 66.3969 166.12 66.4522 166.156C68.0701 167.241 69.5673 168.496 70.9182 169.9C70.94 169.911 70.9645 169.915 70.9887 169.912C71.0129 169.909 71.0358 169.9 71.0544 169.884C71.073 169.868 71.0867 169.847 71.0936 169.824C71.1005 169.801 71.1003 169.776 71.0932 169.752Z" fill="#231F20"/>
<path d="M71.3003 171.378C70.3795 169.628 68.6759 167.952 66.6731 167.644C66.5948 167.644 66.581 167.745 66.6362 167.782C68.2541 168.865 69.7513 170.118 71.1023 171.52C71.1233 171.54 71.1506 171.552 71.1794 171.554C71.2082 171.556 71.2367 171.547 71.2601 171.531C71.2836 171.514 71.3004 171.489 71.3077 171.461C71.315 171.433 71.3124 171.404 71.3003 171.378Z" fill="#231F20"/>
<path d="M80.5364 125.188C79.6155 130.419 58.4915 151.695 58.4915 151.695L73.9524 168.73C73.9524 168.73 103.88 137.422 102.038 125.948C100.413 115.975 84.496 76.0938 84.496 76.0938L67.2164 76.4989C67.2164 76.4989 81.4526 120.045 80.5364 125.188Z" fill="#37474F"/>
<path d="M75.5683 164.55C73.5103 162.105 74.1364 162.777 72.0507 160.355C71.0286 159.172 64.3157 151.396 63.1692 150.456C63.1416 150.456 63.1002 150.456 63.1186 150.502C63.9013 151.759 70.7523 159.416 71.7929 160.581C73.9246 162.961 73.3399 162.257 75.4763 164.61C75.4802 164.616 75.4853 164.621 75.4912 164.625C75.4972 164.629 75.5039 164.632 75.5109 164.633C75.518 164.635 75.5252 164.635 75.5323 164.634C75.5394 164.632 75.5462 164.63 75.5522 164.626C75.5583 164.622 75.5635 164.617 75.5676 164.611C75.5717 164.605 75.5745 164.598 75.576 164.591C75.5775 164.584 75.5776 164.577 75.5763 164.57C75.575 164.563 75.5723 164.556 75.5683 164.55Z" fill="#231F20"/>
<path d="M83.4647 123.407C83.1885 122.113 82.8754 120.824 82.5715 119.539C81.9576 116.912 81.3023 114.29 80.6055 111.675C79.2365 106.491 77.7617 101.339 76.1809 96.2188C74.5878 91.0851 72.9119 85.956 71.0011 80.9282C70.7617 80.3066 70.5177 79.6897 70.2783 79.0865C70.2746 79.0762 70.267 79.0676 70.2571 79.0629C70.2471 79.0581 70.2357 79.0575 70.2253 79.0612C70.215 79.0649 70.2065 79.0725 70.2017 79.0824C70.197 79.0924 70.1964 79.1038 70.2 79.1142C71.8713 84.1558 73.5933 89.1835 75.168 94.2574C76.7426 99.3312 78.1975 104.387 79.5834 109.502C80.2786 112.066 80.9278 114.64 81.5678 117.219C81.8747 118.486 82.1817 119.755 82.4886 121.026C82.8563 122.312 83.1287 123.623 83.3036 124.949C83.3799 126.209 83.0577 127.46 82.3827 128.526C81.7612 129.599 81.0015 130.617 80.3108 131.63C78.8789 133.669 65.1814 149.669 64.7394 150.102C64.7026 150.139 64.7394 150.189 64.7947 150.152C66.6364 148.417 78.2758 135.221 79.7445 133.186C80.4674 132.182 81.1764 131.16 81.8717 130.133C82.5663 129.197 83.1201 128.164 83.5154 127.067C83.8175 125.863 83.8 124.601 83.4647 123.407Z" fill="#231F20"/>
<path d="M80.9417 76.1765L80.2925 122.002C78.3495 110.565 67.2166 76.4988 67.2166 76.4988L80.9417 76.1765Z" fill="#231F20"/>
<path d="M76.0703 161.092C76.0703 161.092 80.2141 179.168 80.2141 179.177C80.3476 182.861 80.5318 186.038 80.785 187.686C80.7829 187.695 80.7829 187.704 80.785 187.713C80.8003 188.105 80.9059 188.488 81.0935 188.832L81.1165 188.855C82.2307 189.555 111.504 189.316 112.503 188.975C113.502 188.634 112.6 185.692 111.458 184.799C110.316 183.906 99.0729 178.979 99.0729 178.979L94.7358 160.917L76.0703 161.092Z" fill="#EB9481"/>
<path d="M112.517 188.979C111.5 189.334 82.2445 189.564 81.1302 188.864L81.1072 188.841C80.9166 188.498 80.8108 188.115 80.7987 187.723C80.7967 187.718 80.7956 187.713 80.7956 187.709C80.7956 187.704 80.7967 187.699 80.7987 187.695C80.5501 186.047 80.3705 182.847 80.2324 179.191L79.5142 176.042L98.2809 175.604L99.0912 178.984C99.0912 178.984 110.33 183.91 111.481 184.808C112.632 185.706 113.539 188.625 112.517 188.979Z" fill="#EBEBEB"/>
<path d="M112.517 188.98C111.5 189.33 82.2491 189.56 81.1303 188.86C80.6975 188.602 80.4167 184.343 80.2095 179.191C80.2095 179.141 80.2095 179.085 80.2095 179.03L99.0867 178.676V178.993C99.0867 178.993 110.321 183.915 111.472 184.813C112.623 185.711 113.535 188.625 112.517 188.98Z" fill="#410C9E"/>
<path d="M112.176 187.842C107.245 187.759 87.3459 187.893 82.4654 188.183C82.424 188.183 82.424 188.215 82.4654 188.215C87.3505 188.404 107.25 188.109 112.176 187.925C112.282 187.921 112.282 187.842 112.176 187.842Z" fill="#231F20"/>
<path d="M100.671 179.025C98.7277 178.675 96.3565 178.993 94.8878 180.406C94.8279 180.462 94.8878 180.54 94.9707 180.522C96.819 179.906 98.7286 179.492 100.666 179.288C100.683 179.288 100.7 179.285 100.716 179.279C100.732 179.272 100.747 179.263 100.76 179.251C100.772 179.239 100.782 179.225 100.789 179.209C100.796 179.193 100.799 179.176 100.8 179.159C100.8 179.142 100.797 179.124 100.79 179.108C100.784 179.092 100.775 179.078 100.763 179.065C100.751 179.053 100.736 179.043 100.721 179.036C100.705 179.029 100.688 179.026 100.671 179.025Z" fill="#231F20"/>
<path d="M102.079 179.859C100.136 179.509 97.7651 179.826 96.2918 181.24C96.2365 181.295 96.2918 181.373 96.3746 181.355C98.2247 180.74 100.136 180.326 102.075 180.121C102.092 180.121 102.109 180.118 102.125 180.112C102.141 180.106 102.156 180.096 102.168 180.084C102.181 180.072 102.19 180.058 102.197 180.042C102.204 180.026 102.208 180.009 102.208 179.992C102.208 179.975 102.205 179.958 102.199 179.942C102.193 179.926 102.183 179.911 102.171 179.899C102.159 179.886 102.145 179.876 102.129 179.87C102.113 179.863 102.096 179.859 102.079 179.859Z" fill="#231F20"/>
<path d="M103.484 180.692C101.541 180.342 99.1695 180.66 97.7008 182.073C97.6409 182.128 97.7008 182.207 97.7836 182.188C99.6321 181.573 101.542 181.159 103.479 180.954C103.514 180.955 103.547 180.942 103.573 180.918C103.598 180.893 103.612 180.86 103.613 180.825C103.613 180.791 103.6 180.757 103.576 180.732C103.552 180.707 103.518 180.693 103.484 180.692Z" fill="#231F20"/>
<path d="M82.8246 76.126C82.8246 76.4897 81.4203 91.3198 80.9507 91.7388C80.481 92.1578 77.4239 94.3034 76.5168 94.8881C76.5168 94.8881 85.4029 120.497 87.7971 129.047C91.2733 141.446 99.7681 178.685 99.7681 178.685L79.4405 179.145C79.4405 179.145 72.4283 143.67 69.4494 131.86C66.8986 121.731 57.3127 91.4027 57.3127 91.4027C56.0334 86.5669 56.1628 81.4662 57.6856 76.7015C57.6856 76.7015 82.8292 76.1122 82.8246 76.126Z" fill="#37474F"/>
<path d="M98.9485 174.748C95.7531 174.803 96.6694 174.748 93.4741 174.836C91.9132 174.882 81.6413 175.19 80.1909 175.489C80.1587 175.489 80.1633 175.549 80.1909 175.554C81.6597 175.738 91.9224 175.25 93.4833 175.176C96.674 175.02 95.7577 175.029 98.9485 174.84C98.9607 174.84 98.9724 174.835 98.981 174.827C98.9897 174.818 98.9945 174.806 98.9945 174.794C98.9945 174.782 98.9897 174.77 98.981 174.762C98.9724 174.753 98.9607 174.748 98.9485 174.748Z" fill="#231F20"/>
<path d="M81.8348 90.9699C79.8833 92.1016 78.0346 93.4018 76.3098 94.8558C76.3022 94.8609 76.2957 94.8675 76.2907 94.8752C76.2857 94.8828 76.2822 94.8914 76.2805 94.9003C76.2788 94.9093 76.2789 94.9185 76.2807 94.9275C76.2826 94.9364 76.2862 94.9449 76.2913 94.9525C76.2965 94.96 76.3031 94.9665 76.3107 94.9715C76.3183 94.9766 76.3269 94.98 76.3359 94.9817C76.3448 94.9834 76.3541 94.9834 76.363 94.9815C76.372 94.9796 76.3805 94.976 76.388 94.9709C78.2573 93.7324 80.1773 92.5307 81.9821 91.1955C82.004 91.173 82.0175 91.1437 82.0205 91.1125C82.0235 91.0813 82.0158 91.05 81.9986 91.0238C81.9815 90.9975 81.9559 90.9779 81.9262 90.9681C81.8964 90.9583 81.8642 90.9589 81.8348 90.9699Z" fill="#231F20"/>
<path d="M79.9517 76.9639C79.9517 76.8949 79.809 76.9041 79.8228 76.9639C80.2311 79.2329 80.5246 81.521 80.7022 83.8196C80.7943 84.8786 80.9877 90.8042 79.1046 90.7259C78.7869 90.7259 78.5797 90.4404 78.4462 89.9938C78.3478 89.3944 78.3231 88.7852 78.3725 88.1798C78.3725 86.932 78.2988 85.6935 78.1837 84.4504C77.989 82.1385 77.5538 79.8532 76.8853 77.6315C76.88 77.6183 76.87 77.6074 76.8573 77.6008C76.8445 77.5942 76.8298 77.5925 76.8159 77.5958C76.802 77.5992 76.7897 77.6074 76.7813 77.619C76.7729 77.6306 76.769 77.6449 76.7702 77.6592C77.3901 80.8027 77.7702 83.9888 77.9075 87.1899C77.9535 88.7323 77.599 91.1311 79.2151 91.0804C80.8311 91.0298 81.2133 87.0563 81.2225 85.9836C81.1931 82.9345 80.7659 79.9024 79.9517 76.9639Z" fill="#231F20"/>
<path d="M79.1734 90.8549C79.0839 91.2743 79.0193 91.6986 78.98 92.1256C78.9155 92.4617 78.9155 92.8071 78.98 93.1432C78.98 93.203 79.0813 93.1938 79.109 93.1432C79.2455 92.8146 79.3295 92.4665 79.3576 92.1118C79.4313 91.7159 79.5095 91.3245 79.5694 90.9285C79.5669 90.8821 79.5489 90.8379 79.5182 90.803C79.4876 90.768 79.4461 90.7444 79.4004 90.7359C79.3547 90.7274 79.3075 90.7345 79.2663 90.7561C79.2251 90.7777 79.1924 90.8125 79.1734 90.8549Z" fill="#231F20"/>
<path d="M76.7333 164.062C76.6688 163.601 76.5952 163.141 76.5169 162.657C76.3696 161.76 76.1946 160.866 76.0565 159.969C75.7342 158.168 75.3843 156.373 75.0205 154.582C74.2977 151.009 73.4781 147.445 72.6217 143.904C72.1337 141.902 71.5766 139.922 70.9919 137.947C70.9504 137.808 70.757 137.882 70.7847 138.016C71.153 139.825 71.5121 141.639 71.9265 143.444C72.3409 145.249 72.7507 147.04 73.1558 148.84C73.9478 152.399 74.6936 155.972 75.481 159.531C75.7066 160.535 75.9092 161.543 76.1302 162.547C76.2407 163.05 76.3558 163.552 76.4755 164.052C76.5952 164.55 76.7609 165.038 76.8576 165.54C76.8576 165.586 76.9359 165.563 76.9267 165.54C76.8208 165.038 76.8024 164.545 76.7333 164.062Z" fill="#231F20"/>
<path d="M90.1176 136.727C89.3625 133.37 88.3726 130.064 87.3781 126.772C85.3753 120.147 83.0455 113.623 80.725 107.103L78.7176 101.468C78.3815 100.547 76.7286 95.4592 76.5306 94.9803C76.5269 94.9699 76.5193 94.9614 76.5094 94.9567C76.4994 94.9519 76.488 94.9513 76.4776 94.955C76.4673 94.9587 76.4588 94.9663 76.454 94.9762C76.4493 94.9862 76.4487 94.9976 76.4523 95.0079C76.9127 96.7345 77.5942 99.253 78.1375 100.966C78.6807 102.679 79.2655 104.327 79.8364 106.03C80.9506 109.332 82.0833 112.628 83.1698 115.943C85.3154 122.49 87.4472 129.038 89.2244 135.7C89.717 137.565 90.2143 139.429 90.6701 141.308C91.1259 143.186 91.5265 145.065 91.9639 146.943C91.9639 146.994 92.0606 146.976 92.056 146.943C91.5814 143.507 90.9344 140.098 90.1176 136.727Z" fill="#231F20"/>
<path d="M77.8934 154.665C76.6273 148.256 75.1309 141.888 73.501 135.566C71.8711 129.245 70.0525 122.896 68.0727 116.639C66.0929 110.381 63.9289 104.184 61.5992 98.0421C60.4362 95.1549 59.4446 92.2015 58.6294 89.1975C57.8928 86.2047 57.4738 82.9634 58.1046 79.9154C58.2616 79.142 58.4771 78.3817 58.7492 77.6409C58.7492 77.5903 58.6893 77.5488 58.6709 77.5995C56.3688 83.3547 58.0908 89.5474 60.0844 95.0954C61.1756 98.148 62.3312 101.178 63.4086 104.235C64.5198 107.372 65.5833 110.524 66.5993 113.692C68.6252 119.972 70.5129 126.289 72.2211 132.661C73.9292 139.033 75.4716 145.442 76.8253 151.893C78.1789 158.343 79.3898 164.868 80.5869 171.373C80.7434 172.22 80.8723 173.072 81.0013 173.924C81.0013 173.97 81.0841 173.97 81.0795 173.924C80.1633 167.492 79.1596 161.064 77.8934 154.665Z" fill="#231F20"/>
<path d="M73.7959 49.7992C75.9 57.5711 80.8403 69.5973 84.9565 69.45C88.7089 69.3026 96.9274 62.447 100.394 60.1817C103.861 57.9164 95.7901 49.5 93.8011 50.9411C90.7301 53.1695 86.1535 57.1291 85.357 56.8943C84.3671 56.5996 83.0549 54.2147 77.2905 47.2255C74.9055 44.3525 72.875 46.4888 73.7959 49.7992Z" fill="#EB9481"/>
<path d="M97.4753 47.5385C99.1144 46.9123 100.947 46.0651 102.789 46.0559C104.63 46.0467 106.209 48.4409 106.228 49.1361C106.246 49.8314 105.648 54.2008 103.811 54.2284C101.974 54.256 103.005 50.9134 102.927 50.545C102.848 50.1767 102.766 49.6794 102.42 49.7255C102.075 49.7715 96.071 52.7873 96.071 52.7873L97.4753 47.5385Z" fill="#EB9481"/>
<path d="M97.595 47.787C97.7009 47.787 102.581 45.729 104.423 45.7198C106.265 45.7105 107.867 48.0909 107.867 48.7954C107.867 49.4998 107.287 53.86 105.45 53.8876C103.613 53.9152 104.644 50.5726 104.566 50.2042C104.487 49.8359 104.405 49.3341 104.059 49.3801C103.714 49.4261 97.7101 52.4465 97.7101 52.4465L97.595 47.787Z" fill="#EB9481"/>
<path d="M104.814 53.6713C104.613 53.3448 104.499 52.9723 104.483 52.5893C104.437 52.1981 104.451 51.8022 104.524 51.4152C104.618 51.0819 104.684 50.7417 104.722 50.3977C104.712 50.0574 104.617 49.7251 104.446 49.4308C104.299 49.1776 104.027 49.2697 103.797 49.3571C103.459 49.4929 103.128 49.6466 102.807 49.8176L101.776 50.3931C101.412 50.5755 101.06 50.78 100.721 51.0054C100.714 51.0085 100.709 51.0141 100.707 51.021C100.704 51.0279 100.704 51.0356 100.707 51.0423C100.71 51.049 100.716 51.0542 100.723 51.0568C100.73 51.0594 100.737 51.0591 100.744 51.0561C101.059 50.9186 101.366 50.765 101.665 50.5957L102.706 50.0892C103.032 49.9373 103.35 49.7623 103.682 49.6288C103.797 49.5781 104.027 49.4446 104.142 49.4722C104.257 49.4999 104.358 49.8452 104.395 49.9557C104.478 50.2842 104.464 50.6297 104.354 50.9502C104.264 51.2814 104.209 51.6207 104.188 51.9631C104.162 52.2856 104.195 52.61 104.285 52.9208C104.407 53.1975 104.561 53.4588 104.745 53.6989C104.782 53.7403 104.842 53.6989 104.814 53.6713Z" fill="#231F20"/>
<path d="M91.8765 52.7504C91.8765 52.7504 96.8628 47.985 97.9034 47.0412C99.9891 45.1397 108.866 41.2675 110.114 41.1064C111.361 40.9452 111.868 43.4959 105.846 46.2999C102.673 47.7733 102.162 49.6241 102.231 50.6417C102.3 51.6592 103.332 53.5331 105.04 53.4456C106.748 53.3582 107.802 50.835 109.372 50.522C110.942 50.2089 109.966 53.1141 108.912 54.8039C107.784 56.4349 106.216 57.7122 104.391 58.4872C102.922 59.0766 98.4052 61.1577 98.4052 61.1577L91.8765 52.7504Z" fill="#EB9481"/>
<path d="M107.139 52.1934C106.504 52.7091 105.79 53.3721 104.943 53.4227C104.096 53.4734 103.484 52.9209 103.06 52.2164C102.595 51.5246 102.414 50.6807 102.554 49.8591C102.736 49.1157 103.128 48.44 103.682 47.9115C104.369 47.2719 105.144 46.7339 105.984 46.3138C106.021 46.3138 105.984 46.2402 105.947 46.2586C105.169 46.6315 102.724 47.6905 102.305 49.8637C102.169 50.703 102.358 51.5626 102.834 52.2671C103.23 52.9393 103.797 53.5839 104.63 53.6483C105.643 53.7082 106.495 52.8656 107.208 52.2348C107.218 52.1888 107.172 52.1658 107.139 52.1934Z" fill="#231F20"/>
<path d="M91.8626 52.1012L99.7588 63.7452C99.7588 63.7452 87.8247 70.8127 84.3854 69.7997C80.9461 68.7868 75.5407 59.0996 73.211 50.545C70.8813 41.9904 76.2452 45.1581 78.3585 47.7824C80.4718 50.4068 85.0622 56.4384 85.3062 56.3509C85.5503 56.2634 91.8626 52.1012 91.8626 52.1012Z" fill="#410C9E"/>
<path d="M96.3288 65.6561C95.5876 66.052 94.7726 66.471 93.9162 66.89L87.033 55.2506C87.7236 54.7902 88.5247 54.2837 89.2752 53.7957C91.4438 57.433 94.0774 61.8576 96.3288 65.6561Z" fill="#EBEBEB"/>
<path d="M92.9861 67.3412L92.1941 67.7049L85.4167 56.2727C85.5641 56.1898 85.8127 56.0333 86.135 55.8123C88.2667 59.4035 90.8037 63.667 92.9861 67.3412Z" fill="#EBEBEB"/>
<path d="M91.3332 68.0871C88.6029 69.2749 85.9186 70.1543 84.5005 69.8321L84.3762 69.7998C80.9323 68.7869 75.5362 59.1043 73.2018 50.545C72.8546 49.4001 72.6611 48.2141 72.6263 47.0182C72.6263 46.9722 72.6263 46.9354 72.6263 46.8893C72.6263 46.8433 72.6263 46.7558 72.6263 46.6867C72.624 46.6591 72.624 46.6314 72.6263 46.6039C72.6213 46.5426 72.6213 46.481 72.6263 46.4197L91.3332 68.0871Z" fill="#231F20"/>
<path d="M95.4771 62.6909C95.2284 62.2765 94.9706 61.8622 94.7174 61.4524C94.2063 60.6282 91.1399 55.7432 89.9382 54.2652C89.906 54.2238 89.8461 54.2652 89.8645 54.3159C90.7209 56.0286 93.8932 60.8216 94.4227 61.6135C94.6943 62.0141 94.9614 62.4193 95.2376 62.8198C95.5139 63.2204 95.8362 63.5933 96.1124 63.9985C96.1401 64.0354 96.2045 63.9985 96.1815 63.9617C95.9283 63.5473 95.7257 63.1053 95.4771 62.6909Z" fill="#231F20"/>
<path d="M55.9775 84.2202C56.0512 84.2985 86.508 80.6658 86.775 80.3389C87.1526 79.8785 79.3669 49.5275 76.0749 45.5219C75.3704 44.6655 73.1374 44.4952 71.2543 44.7944C70.7631 44.8667 70.2793 44.9822 69.8085 45.1397H69.7625C69.3814 45.263 69.0247 45.4515 68.7081 45.6969C63.5883 50.0754 59.6517 64.9056 58.7677 69.3532C57.2943 76.6923 55.7151 83.9394 55.9775 84.2202Z" fill="#410C9E"/>
<path d="M86.1487 77.047C78.782 78 62.8008 80.0719 56.447 80.8316C56.668 79.7036 56.9351 78.3592 57.2389 76.8766L85.2463 73.3728C85.6008 74.7541 85.9093 76.0064 86.1487 77.047Z" fill="#EBEBEB"/>
<path d="M84.8689 71.8764C77.5943 72.8203 64.15 74.556 57.5476 75.3618L57.8054 74.1002L84.5697 70.7253C84.671 71.1121 84.7723 71.4988 84.8689 71.8764Z" fill="#EBEBEB"/>
<path d="M66.6362 53.6576C68.1787 61.5999 75.2185 76.3517 79.6109 77.6547C84.6985 79.1603 102.089 73.1518 105.468 70.5504C106.813 69.5191 99.3123 60.8816 97.641 61.5262C90.5689 64.3163 84.2888 65.8127 83.3449 65.2096C81.9084 64.2887 75.9782 56.1715 72.1014 51.1437C67.2348 44.8268 65.941 50.0986 66.6362 53.6576Z" fill="#EB9481"/>
<path d="M105.021 70.8035C105.795 70.5043 111.071 66.4848 112.609 64.6201C114.281 62.6878 115.625 60.4948 116.587 58.1282C118.093 54.3803 118.779 51.65 118.369 50.4437C117.909 49.0395 117.757 48.8139 114.188 55.0479C112.172 58.5794 110.178 59.0168 108.442 59.0214C104.169 59.0413 99.9625 60.0865 96.1768 62.0694C96.1768 62.0694 102.052 71.9408 105.021 70.8035Z" fill="#EB9481"/>
<path d="M120.924 45.7889L111.928 57.7C111.799 57.8635 111.626 57.9871 111.43 58.0564C111.233 58.1257 111.021 58.1378 110.818 58.0913L104.303 56.0931C104.219 56.0759 104.142 56.0356 104.08 55.9769C104.017 55.9181 103.973 55.8431 103.951 55.7604C103.929 55.6777 103.93 55.5904 103.955 55.5085C103.98 55.4266 104.027 55.3532 104.091 55.2966L113.088 43.3855C113.216 43.2211 113.389 43.0968 113.586 43.0275C113.782 42.9581 113.995 42.9465 114.198 42.9942L120.713 44.9924C120.796 45.0096 120.874 45.0498 120.936 45.1086C120.998 45.1674 121.043 45.2423 121.065 45.3251C121.087 45.4078 121.085 45.4951 121.061 45.577C121.036 45.6589 120.989 45.7323 120.924 45.7889Z" fill="#37474F"/>
<path d="M120.128 44.7943L113.613 42.7961C113.409 42.7501 113.197 42.7629 113.001 42.8331C112.804 42.9032 112.632 43.0277 112.503 43.192L103.511 55.1031C103.441 55.1586 103.389 55.2331 103.361 55.3177C103.333 55.4022 103.33 55.4932 103.352 55.5795C103.374 55.6658 103.421 55.7438 103.487 55.8039C103.553 55.864 103.635 55.9036 103.723 55.9181L110.238 57.9163C110.441 57.9616 110.653 57.949 110.849 57.8798C111.045 57.8106 111.218 57.6876 111.348 57.5249L120.34 45.6138C120.411 45.5588 120.465 45.484 120.494 45.3987C120.523 45.3134 120.527 45.2215 120.504 45.1342C120.481 45.047 120.434 44.9683 120.367 44.9078C120.3 44.8474 120.217 44.8079 120.128 44.7943ZM111.21 57.0093C111.093 57.1634 110.935 57.2815 110.754 57.3499C110.573 57.4183 110.377 57.4343 110.187 57.396L104.363 55.6096C104.036 55.5083 103.963 55.1492 104.202 54.8591L112.577 43.7676C113.037 43.1322 113.346 43.1782 113.673 43.2795L114.838 43.6386C114.907 43.6386 114.911 43.7445 114.838 43.8274L114.81 43.8643C114.658 44.0668 114.782 44.1037 114.934 44.1497L117.632 44.9785C117.704 45.0187 117.789 45.0291 117.868 45.0076C117.947 44.9861 118.015 44.9343 118.056 44.8634L118.084 44.8265C118.109 44.7867 118.144 44.7547 118.187 44.7343C118.229 44.714 118.276 44.706 118.323 44.7114L119.492 45.0706C119.815 45.1672 120.017 45.333 119.575 45.9177L111.21 57.0093Z" fill="#231F20"/>
<path d="M116.845 44.4306L116.113 44.2004C116.109 44.1973 116.106 44.1935 116.104 44.1891C116.102 44.1847 116.101 44.1799 116.101 44.175C116.101 44.1702 116.102 44.1653 116.104 44.161C116.106 44.1566 116.109 44.1527 116.113 44.1497C116.122 44.1378 116.134 44.1288 116.148 44.1238C116.162 44.1189 116.177 44.1183 116.191 44.1221L116.928 44.3477C116.933 44.3506 116.937 44.3546 116.939 44.3595C116.942 44.3643 116.943 44.3698 116.943 44.3753C116.943 44.3809 116.942 44.3864 116.939 44.3912C116.937 44.396 116.933 44.4001 116.928 44.4029C116.918 44.4148 116.905 44.4237 116.89 44.4286C116.876 44.4334 116.86 44.4341 116.845 44.4306Z" fill="white"/>
<path d="M119.585 45.9179L111.209 57.0095C111.093 57.1636 110.935 57.2817 110.754 57.3501C110.573 57.4186 110.377 57.4345 110.187 57.3962L104.363 55.6098C104.036 55.5085 103.962 55.1494 104.202 54.8593L112.577 43.7678C113.037 43.1324 113.346 43.1784 113.673 43.2797L114.838 43.6389C114.907 43.6389 114.911 43.7448 114.838 43.8276L114.81 43.8645C114.658 44.067 114.782 44.1039 114.934 44.1499L117.632 44.9787C117.704 45.0189 117.788 45.0293 117.868 45.0078C117.947 44.9863 118.015 44.9345 118.056 44.8636L118.084 44.8267C118.109 44.7869 118.144 44.7549 118.187 44.7345C118.229 44.7142 118.276 44.7062 118.323 44.7116L119.492 45.0708C119.838 45.1675 120.027 45.3286 119.585 45.9179Z" fill="white"/>
<path d="M119.584 45.9179L118.958 46.7467L111.951 44.5965L112.577 43.7678C113.037 43.1324 113.346 43.1784 113.673 43.2797L114.838 43.6389C114.907 43.6389 114.911 43.7448 114.838 43.8276L114.81 43.8645C114.658 44.067 114.782 44.1039 114.934 44.1499L117.632 44.9787C117.704 45.0189 117.788 45.0293 117.868 45.0078C117.947 44.9863 118.014 44.9345 118.056 44.8636L118.083 44.8267C118.108 44.7869 118.144 44.7549 118.187 44.7345C118.229 44.7142 118.276 44.7062 118.323 44.7116L119.488 45.0708C119.838 45.1675 120.026 45.3286 119.584 45.9179Z" fill="#410C9E"/>
<path d="M112.964 44.4076L112.89 44.1728L113.226 44.0669L113.235 44.1037L112.959 44.1958L113.019 44.3892L112.964 44.4076Z" fill="white"/>
<path d="M118.944 45.9454C118.935 45.9516 118.924 45.9549 118.912 45.9549C118.901 45.9549 118.89 45.9516 118.88 45.9454C118.876 45.9429 118.873 45.9395 118.871 45.9355C118.869 45.9315 118.868 45.927 118.868 45.9224C118.868 45.9179 118.869 45.9134 118.871 45.9094C118.873 45.9054 118.876 45.9019 118.88 45.8994C118.887 45.8891 118.897 45.881 118.908 45.8761C118.92 45.8712 118.932 45.8697 118.944 45.8718C118.954 45.904 118.963 45.927 118.944 45.9454Z" fill="white"/>
<path d="M118.848 46.0744C118.837 46.0809 118.825 46.0844 118.813 46.0844C118.801 46.0844 118.789 46.0809 118.779 46.0744C118.775 46.0719 118.772 46.0684 118.77 46.0644C118.767 46.0604 118.766 46.0559 118.766 46.0514C118.766 46.0468 118.767 46.0423 118.77 46.0383C118.772 46.0343 118.775 46.0309 118.779 46.0283C118.785 46.0175 118.795 46.0091 118.806 46.0041C118.818 45.9991 118.831 45.998 118.843 46.0007C118.853 46.0001 118.863 46.0034 118.87 46.0099C118.877 46.0164 118.882 46.0255 118.882 46.0353C118.883 46.045 118.88 46.0546 118.873 46.062C118.867 46.0693 118.858 46.0738 118.848 46.0744Z" fill="white"/>
<path d="M118.751 46.2033C118.741 46.2099 118.729 46.2134 118.717 46.2134C118.704 46.2134 118.692 46.2099 118.682 46.2033C118.659 46.2033 118.654 46.1757 118.682 46.1527C118.691 46.1436 118.702 46.1367 118.714 46.1327C118.726 46.1287 118.739 46.1276 118.751 46.1297C118.761 46.1297 118.77 46.1336 118.777 46.1405C118.784 46.1474 118.788 46.1568 118.788 46.1665C118.788 46.1763 118.784 46.1857 118.777 46.1926C118.77 46.1995 118.761 46.2033 118.751 46.2033Z" fill="white"/>
<path d="M114.451 43.8275H114.419C114.414 43.8091 114.404 43.7925 114.39 43.7794C114.376 43.7664 114.359 43.7575 114.34 43.7538C114.295 43.7403 114.247 43.7403 114.202 43.7538H114.225H114.271H114.349H114.382V43.7815L114.451 43.8275Z" fill="white"/>
<path d="M114.216 43.8137C114.247 43.8046 114.281 43.8046 114.313 43.8137C114.331 43.814 114.35 43.8205 114.365 43.8321C114.38 43.8437 114.39 43.8599 114.395 43.8782H114.368C114.363 43.8668 114.355 43.8568 114.345 43.8488C114.336 43.8409 114.325 43.8351 114.313 43.8321C114.284 43.8134 114.249 43.8068 114.216 43.8137Z" fill="white"/>
<path d="M114.313 43.8691H114.285C114.283 43.8626 114.28 43.8567 114.275 43.8519C114.27 43.8471 114.264 43.8435 114.257 43.8415C114.241 43.8372 114.223 43.8372 114.207 43.8415C114.271 43.8139 114.313 43.8277 114.313 43.8691Z" fill="white"/>
<path d="M114.271 43.8827C114.271 43.8827 114.271 43.8827 114.244 43.8827C114.216 43.8827 114.244 43.8827 114.244 43.8827H114.267C114.267 43.8827 114.276 43.8781 114.271 43.8827Z" fill="white"/>
<path d="M113.327 43.5191C113.335 43.5087 113.344 43.5002 113.356 43.4946C113.367 43.4889 113.379 43.4863 113.392 43.4869C113.397 43.4898 113.401 43.4938 113.403 43.4987C113.406 43.5035 113.408 43.509 113.408 43.5145C113.408 43.5201 113.406 43.5256 113.403 43.5304C113.401 43.5352 113.397 43.5393 113.392 43.5422C113.383 43.5541 113.371 43.5631 113.357 43.568C113.343 43.573 113.328 43.5736 113.314 43.5698C113.31 43.5658 113.308 43.5611 113.307 43.5561C113.306 43.5511 113.306 43.5458 113.308 43.5409C113.309 43.5359 113.311 43.5314 113.315 43.5276C113.318 43.5238 113.323 43.5209 113.327 43.5191Z" fill="white"/>
<path d="M113.475 43.5652C113.484 43.5533 113.496 43.5443 113.51 43.5394C113.524 43.5344 113.539 43.5338 113.553 43.5376C113.558 43.5405 113.562 43.5445 113.565 43.5494C113.567 43.5542 113.569 43.5597 113.569 43.5652C113.569 43.5708 113.567 43.5763 113.565 43.5811C113.562 43.586 113.558 43.59 113.553 43.5929C113.544 43.6039 113.531 43.6123 113.518 43.6172C113.504 43.622 113.489 43.6232 113.475 43.6205C113.47 43.6176 113.466 43.6136 113.463 43.6087C113.461 43.6039 113.459 43.5984 113.459 43.5929C113.459 43.5873 113.461 43.5818 113.463 43.577C113.466 43.5722 113.47 43.5681 113.475 43.5652Z" fill="white"/>
<path d="M113.622 43.6065C113.63 43.5953 113.642 43.5869 113.655 43.5828C113.668 43.5786 113.683 43.5789 113.696 43.5835C113.723 43.5835 113.728 43.6157 113.696 43.6388C113.684 43.6461 113.67 43.65 113.657 43.65C113.643 43.65 113.629 43.6461 113.617 43.6388C113.608 43.6572 113.604 43.6295 113.622 43.6065Z" fill="white"/>
<path d="M113.765 43.6525C113.775 43.6417 113.787 43.6336 113.801 43.6288C113.814 43.6239 113.829 43.6226 113.843 43.6248C113.848 43.6277 113.852 43.6317 113.855 43.6366C113.857 43.6414 113.859 43.6469 113.859 43.6525C113.859 43.658 113.857 43.6635 113.855 43.6683C113.852 43.6732 113.848 43.6772 113.843 43.6801C113.834 43.6916 113.822 43.7002 113.808 43.7051C113.794 43.71 113.779 43.7109 113.765 43.7077C113.76 43.7048 113.756 43.7008 113.753 43.6959C113.751 43.6911 113.749 43.6856 113.749 43.6801C113.749 43.6745 113.751 43.669 113.753 43.6642C113.756 43.6594 113.76 43.6553 113.765 43.6525Z" fill="white"/>
<path d="M113.912 43.6985C113.921 43.6866 113.933 43.6776 113.947 43.6727C113.961 43.6677 113.976 43.6671 113.99 43.6709C114.018 43.6709 114.023 43.7031 113.99 43.7262C113.982 43.7381 113.969 43.7471 113.955 43.7521C113.942 43.757 113.926 43.7576 113.912 43.7538C113.907 43.7509 113.903 43.7469 113.901 43.742C113.898 43.7372 113.896 43.7317 113.896 43.7262C113.896 43.7206 113.898 43.7151 113.901 43.7103C113.903 43.7055 113.907 43.7014 113.912 43.6985Z" fill="white"/>
<path d="M119.327 45.5816L118.733 45.3974L118.986 45.0659L119.58 45.2455L119.327 45.5816Z" fill="white"/>
<path d="M119.281 45.2963L119.037 45.2227L118.958 45.3239L119.202 45.4022L119.281 45.2963Z" fill="white"/>
<path d="M119.345 45.4297L119.313 45.4205L119.377 45.3376L119.41 45.3468L119.345 45.4297Z" fill="white"/>
<path d="M105.348 55.0757L105.298 55.0573L105.132 55.2783L105.031 55.246L105.114 55.1355L104.939 55.0803L104.856 55.1908L104.754 55.1632L104.92 54.9422L104.865 54.9283L105.275 54.781L105.348 55.0757Z" fill="#EBEBEB"/>
<path d="M110.823 56.5719L110.238 56.3923L110.293 56.3232L110.878 56.4982L110.823 56.5719Z" fill="#EBEBEB"/>
<path d="M110.685 56.7562L110.104 56.5766L110.16 56.5029L110.74 56.6825L110.685 56.7562Z" fill="#EBEBEB"/>
<path d="M110.546 56.9402L109.966 56.7607L110.022 56.687L110.602 56.8666L110.546 56.9402Z" fill="#EBEBEB"/>
<path d="M107.977 55.8446L107.692 55.9505L107.646 55.7433L107.692 55.7249L107.733 55.8998L107.963 55.8077L107.977 55.8446Z" fill="#EBEBEB"/>
<path d="M107.687 56.3372C107.631 56.3464 107.573 56.3464 107.517 56.3372C107.45 56.3165 107.389 56.2809 107.338 56.2331C107.287 56.1852 107.247 56.1263 107.222 56.0609C107.202 55.9892 107.199 55.9136 107.214 55.8406C107.23 55.7676 107.262 55.6995 107.31 55.6419C107.393 55.5365 107.506 55.4574 107.633 55.4142C107.76 55.3709 107.897 55.3652 108.028 55.3979C108.095 55.4168 108.157 55.4519 108.207 55.5C108.258 55.5482 108.296 55.6079 108.318 55.6742C108.339 55.7455 108.343 55.8209 108.328 55.8938C108.314 55.9668 108.282 56.0352 108.235 56.0931C108.167 56.1716 108.083 56.2342 107.988 56.2764C107.894 56.3185 107.791 56.3393 107.687 56.3372ZM107.848 55.8123C107.792 55.8172 107.739 55.8397 107.696 55.8767C107.759 55.8748 107.819 55.8521 107.867 55.8123H107.848Z" fill="#EBEBEB"/>
<path d="M115.234 44.9601C115.271 44.915 115.32 44.8809 115.375 44.8614C115.43 44.8419 115.489 44.8378 115.547 44.8496C115.566 44.8543 115.585 44.8633 115.601 44.8761C115.617 44.8888 115.63 44.9049 115.639 44.9232C115.639 44.9232 115.639 44.9555 115.616 44.9601C115.593 44.9647 115.579 44.9601 115.574 44.9601C115.568 44.9472 115.559 44.9359 115.548 44.9272C115.537 44.9184 115.524 44.9123 115.51 44.9094C115.471 44.8957 115.429 44.8957 115.39 44.9094C115.353 44.9226 115.32 44.9448 115.293 44.9739C115.283 44.9864 115.275 45.0012 115.271 45.0172C115.267 45.0332 115.267 45.0499 115.27 45.066C115.276 45.0813 115.285 45.0951 115.297 45.1063C115.309 45.1175 115.324 45.1258 115.339 45.1304C115.373 45.1396 115.408 45.1396 115.441 45.1304H115.478C115.477 45.1386 115.473 45.1463 115.467 45.1521C115.461 45.158 115.454 45.1617 115.445 45.1626C115.397 45.1765 115.346 45.1765 115.298 45.1626C115.279 45.1557 115.261 45.1444 115.247 45.1296C115.232 45.1149 115.222 45.0969 115.216 45.0773C115.209 45.0577 115.208 45.0369 115.211 45.0166C115.214 44.9962 115.222 44.9769 115.234 44.9601Z" fill="white"/>
<path d="M115.519 45.2227L115.722 44.9556C115.729 44.9516 115.738 44.9495 115.747 44.9495C115.756 44.9495 115.764 44.9516 115.772 44.9556C115.775 44.9578 115.777 44.9605 115.779 44.9637C115.781 44.9669 115.781 44.9704 115.781 44.974C115.781 44.9776 115.781 44.9811 115.779 44.9843C115.777 44.9875 115.775 44.9903 115.772 44.9924L115.689 45.0983L115.823 45.1398L115.906 45.0293C115.913 45.0252 115.921 45.0231 115.929 45.0231C115.937 45.0231 115.945 45.0252 115.952 45.0293C115.952 45.0293 115.975 45.0293 115.952 45.0615L115.749 45.3332C115.742 45.3372 115.734 45.3393 115.726 45.3393C115.718 45.3393 115.71 45.3372 115.703 45.3332C115.703 45.3332 115.68 45.3332 115.703 45.2963L115.786 45.1858L115.653 45.1444L115.57 45.2549C115.562 45.2589 115.553 45.261 115.544 45.261C115.535 45.261 115.527 45.2589 115.519 45.2549C115.519 45.2549 115.51 45.2411 115.519 45.2227Z" fill="white"/>
<path d="M116.076 45.3284L115.947 45.2916L115.878 45.3422C115.873 45.3454 115.866 45.3471 115.86 45.3471C115.853 45.3471 115.847 45.3454 115.841 45.3422C115.841 45.3422 115.841 45.3146 115.841 45.3008L116.159 45.066C116.165 45.0627 116.173 45.061 116.18 45.061C116.187 45.061 116.194 45.0627 116.2 45.066C116.2 45.066 116.2 45.066 116.2 45.089L116.113 45.3929C116.109 45.401 116.104 45.4079 116.096 45.4128C116.089 45.4177 116.08 45.4203 116.072 45.4205C116.072 45.4205 116.072 45.4205 116.072 45.3975L116.076 45.3284ZM116.076 45.2732L116.108 45.158L115.993 45.2455L116.076 45.2732Z" fill="white"/>
<path d="M116.536 45.2363L116.458 45.2086L116.274 45.4573C116.266 45.4617 116.258 45.4641 116.249 45.4641C116.24 45.4641 116.231 45.4617 116.223 45.4573V45.425L116.408 45.181L116.329 45.1534C116.329 45.1534 116.306 45.1534 116.329 45.1212C116.336 45.1171 116.344 45.115 116.352 45.115C116.36 45.115 116.368 45.1171 116.375 45.1212L116.596 45.1902V45.2225C116.589 45.231 116.58 45.237 116.569 45.2395C116.558 45.242 116.547 45.2408 116.536 45.2363Z" fill="white"/>
<path d="M109.22 49.4632L114.23 51.001L115.289 49.6013L110.275 48.0635L109.22 49.4632Z" fill="#455A64"/>
<path d="M114.695 51.1436L114.23 51.0009L114.557 50.5681L114.695 51.1436Z" fill="#455A64"/>
<path d="M114.801 49.7806L110.363 48.4178L110.381 48.3948L114.819 49.753L114.801 49.7806Z" fill="white"/>
<path d="M113.77 49.6426L110.252 48.5652L110.27 48.5376L113.788 49.615L113.77 49.6426Z" fill="white"/>
<path d="M114.11 50.0984L110.035 48.8506L110.054 48.823L114.129 50.0753L114.11 50.0984Z" fill="white"/>
<path d="M114.363 50.3563L109.929 48.9935L109.948 48.9658L114.386 50.3287L114.363 50.3563Z" fill="white"/>
<path d="M114.258 50.4989L109.819 49.136L109.838 49.1084L114.276 50.4712L114.258 50.4989Z" fill="white"/>
<path d="M112.918 50.2642L109.708 49.2789L109.732 49.2559L112.941 50.2366L112.918 50.2642Z" fill="white"/>
<path d="M106.725 52.7644L111.739 54.3022L112.793 52.9025L107.784 51.3647L106.725 52.7644Z" fill="#455A64"/>
<path d="M112.204 54.4447L111.739 54.302L112.061 53.8738L112.204 54.4447Z" fill="#455A64"/>
<path d="M112.305 53.0819L107.867 51.7191L107.885 51.696L112.324 53.0543L112.305 53.0819Z" fill="white"/>
<path d="M111.274 52.9439L107.756 51.8665L107.779 51.8389L111.297 52.9162L111.274 52.9439Z" fill="white"/>
<path d="M111.615 53.3996L107.544 52.1519L107.563 52.1243L111.633 53.3766L111.615 53.3996Z" fill="white"/>
<path d="M111.873 53.6576L107.434 52.2947L107.453 52.2671L111.891 53.6299L111.873 53.6576Z" fill="white"/>
<path d="M111.762 53.8001L107.324 52.4373L107.347 52.4097L111.785 53.7725L111.762 53.8001Z" fill="white"/>
<path d="M110.427 53.5655L107.218 52.5802L107.236 52.5571L110.445 53.5424L110.427 53.5655Z" fill="white"/>
<path d="M116.799 48.358L111.79 46.8202L112.678 45.637L117.692 47.1748L116.799 48.358Z" fill="#410C9E"/>
<path d="M111.325 46.6775L111.79 46.8202L112.112 46.3875L111.325 46.6775Z" fill="#410C9E"/>
<path d="M116.481 47.1058L112.789 45.9732L112.807 45.9456L116.504 47.0828L116.481 47.1058Z" fill="white"/>
<path d="M117.117 47.4786L112.678 46.1158L112.701 46.0881L117.135 47.451L117.117 47.4786Z" fill="white"/>
<path d="M117.006 47.6215L112.572 46.2586L112.591 46.2356L117.029 47.5938L117.006 47.6215Z" fill="white"/>
<path d="M116.55 47.6581L112.462 46.4058L112.48 46.3782L116.569 47.6305L116.55 47.6581Z" fill="white"/>
<path d="M116.79 47.9069L112.356 46.5486L112.374 46.521L116.813 47.8838L116.79 47.9069Z" fill="white"/>
<path d="M115.524 47.6952L112.246 46.6914L112.264 46.6638L115.547 47.6721L115.524 47.6952Z" fill="white"/>
<path d="M115.993 49.4216L110.984 47.8838L111.642 47.009L116.656 48.5468L115.993 49.4216Z" fill="#410C9E"/>
<path d="M110.519 47.741L110.984 47.8838L111.306 47.4556L110.519 47.741Z" fill="#410C9E"/>
<path d="M116.182 48.7035L111.753 47.3453L111.771 47.3176L116.2 48.6759L116.182 48.7035Z" fill="white"/>
<path d="M115.289 48.6066L111.642 47.4878L111.665 47.4602L115.312 48.579L115.289 48.6066Z" fill="white"/>
<path d="M115.547 48.86L111.536 47.6307L111.555 47.603L115.57 48.837L115.547 48.86Z" fill="white"/>
<path d="M114.52 48.7217L111.426 47.7732L111.449 47.7456L114.543 48.6987L114.52 48.7217Z" fill="white"/>
<path d="M113.507 52.7183L108.493 51.1805L109.428 49.9465L114.437 51.4843L113.507 52.7183Z" fill="#DBDBDB"/>
<path d="M108.033 51.0376L108.493 51.1804L108.82 50.7476L108.033 51.0376Z" fill="#DBDBDB"/>
<path d="M113.401 51.9907L109.211 50.7061L109.234 50.6785L113.424 51.9676L113.401 51.9907Z" fill="white"/>
<path d="M112.955 52.0322L109.105 50.8489L109.124 50.8213L112.973 52.0046L112.955 52.0322Z" fill="white"/>
<path d="M113.378 51.6316L109.428 50.4207L109.451 50.3931L113.397 51.604L113.378 51.6316Z" fill="white"/>
<path d="M113.922 51.6225L109.538 50.2781L109.557 50.2505L113.94 51.5949L113.922 51.6225Z" fill="white"/>
<path d="M112.982 52.2165L108.995 50.9918L109.018 50.9688L113.001 52.1889L112.982 52.2165Z" fill="white"/>
<path d="M111.154 55.8353L106.14 54.2975L106.918 53.2708L111.928 54.8086L111.154 55.8353Z" fill="#410C9E"/>
<path d="M105.675 54.1548L106.14 54.2975L106.463 53.8647L105.675 54.1548Z" fill="#410C9E"/>
<path d="M111.467 54.9559L107.033 53.5931L107.052 53.5701L111.49 54.9283L111.467 54.9559Z" fill="white"/>
<path d="M111.362 55.0985L106.923 53.7357L106.942 53.7126L111.38 55.0709L111.362 55.0985Z" fill="white"/>
<path d="M110.901 55.1354L106.812 53.8831L106.836 53.8555L110.919 55.1078L110.901 55.1354Z" fill="white"/>
<path d="M111.145 55.3842L106.707 54.0259L106.725 53.9983L111.164 55.3611L111.145 55.3842Z" fill="white"/>
<path d="M109.879 55.1722L106.596 54.1685L106.619 54.1409L109.897 55.1492L109.879 55.1722Z" fill="white"/>
<path d="M109.308 58.9846C107.517 59.0536 113.258 55.3012 113.3 53.2339C113.341 51.1666 111.366 51.8803 109.824 53.0682C104.478 57.212 100.367 57.0968 97.6962 60.9828C95.0258 64.8687 109.308 58.9846 109.308 58.9846Z" fill="#EB9481"/>
<path d="M103.829 56.6226C102.667 56.9404 101.55 57.4046 100.505 58.0038C99.5752 58.6136 98.7704 59.3949 98.1335 60.3059C98.1058 60.3474 98.1611 60.398 98.1933 60.3566C99.6206 58.5149 101.775 57.5618 103.843 56.641C103.842 56.6371 103.84 56.6334 103.838 56.6303C103.835 56.6271 103.832 56.6245 103.829 56.6226Z" fill="#231F20"/>
<path d="M83.6948 64.7076C85.0991 65.0529 94.7449 62.1661 94.7449 62.1661L100.5 75.2558C100.5 75.2558 83.6764 79.5838 79.6983 78.3084C75.7203 77.0331 69.2744 63.7453 67.1058 55.9964C65.0662 48.7126 67.4465 43.8736 72.8565 51.3416C72.8749 51.3416 82.9627 64.528 83.6948 64.7076Z" fill="#410C9E"/>
<path d="M97.4429 75.9833C96.3563 76.2319 95.0579 76.5266 93.6537 76.8259L88.3818 63.9341C89.6434 63.6256 90.9648 63.2665 92.0652 62.958C93.6905 66.8716 95.6611 71.6461 97.4429 75.9833Z" fill="#EBEBEB"/>
<path d="M92.1803 77.125L90.9601 77.369L85.7021 64.5187C86.0705 64.4496 86.471 64.3667 86.8854 64.2747C88.4785 68.1238 90.4168 72.8201 92.1803 77.125Z" fill="#EBEBEB"/>
<path d="M79.4959 77.8893C76.1486 76.2733 71.8621 67.5022 71.038 65.7803C70.5085 64.6799 70.0251 63.5564 69.5462 62.433C68.5931 60.177 67.7045 57.8979 66.862 55.605C66.8639 55.6001 66.8646 55.5948 66.8641 55.5896C66.8635 55.5843 66.8617 55.5793 66.8587 55.5749C66.8558 55.5706 66.8518 55.567 66.8471 55.5645C66.8425 55.5621 66.8373 55.5608 66.832 55.5608C66.8268 55.5608 66.8216 55.5621 66.8169 55.5645C66.8123 55.567 66.8083 55.5706 66.8054 55.5749C66.8024 55.5793 66.8006 55.5843 66.8 55.5896C66.7994 55.5948 66.8002 55.6001 66.8021 55.605C67.2779 57.3822 67.8411 59.1349 68.4918 60.863C68.0767 60.223 67.7 59.5588 67.3638 58.874C67.3638 58.8417 67.2901 58.874 67.304 58.9016C67.6474 59.7188 68.088 60.4917 68.6162 61.2037C69.2792 62.9395 70.0204 64.643 70.84 66.3006C71.0748 66.761 76.0473 77.5302 79.7675 78.451C81.0613 78.7733 85.4537 78.3544 86.3838 78.1195C86.4206 78.1195 86.4298 78.0597 86.3838 78.0597C85.1176 78.0781 80.7022 78.4787 79.4959 77.8893Z" fill="#231F20"/>
<path d="M96.8168 73.7226C96.6418 73.2622 96.4669 72.8018 96.2873 72.369C95.9282 71.4712 93.7642 66.1211 92.8434 64.4544C92.8434 64.4083 92.7513 64.4544 92.7651 64.4912C93.3038 66.3329 95.5875 71.6047 95.988 72.4749C96.1814 72.9353 96.3748 73.3635 96.5774 73.8055C96.7799 74.2475 97.0378 74.6757 97.2312 75.1223C97.2312 75.1638 97.3232 75.1223 97.3048 75.0947C97.1207 74.6481 97.001 74.1738 96.8168 73.7226Z" fill="#231F20"/>
<path d="M94.7542 62.1845C93.9485 62.2398 86.7199 64.0998 85.1222 64.4866C84.7432 64.6238 84.3419 64.6893 83.9389 64.68C83.5447 64.5721 83.2019 64.3273 82.9721 63.9893C82.438 63.4046 76.5768 56.0241 76.1532 55.6649C75.9967 55.5268 75.8724 55.5038 76.0243 55.7386C76.2868 56.1392 81.9868 63.4276 82.5024 64.0262C83.0181 64.6247 83.4233 65.1174 84.2198 65.0667C84.5605 65.0437 94.3168 62.6173 94.8095 62.4055C94.8923 62.3641 94.8785 62.1753 94.7542 62.1845Z" fill="#231F20"/>
<path d="M75.6374 49.8958C74.1824 50.1629 70.4668 48.4547 69.546 46.3506C69.4815 46.2032 69.8222 44.7759 70.1538 43.0171C70.3471 41.949 70.5405 40.7519 70.6142 39.6515C70.6142 39.4259 77.3777 41.9536 77.3777 41.9536C76.8614 43.2978 76.5119 44.7002 76.3372 46.1296C76.3206 46.2826 76.3206 46.437 76.3372 46.59C76.3395 46.6145 76.3395 46.6392 76.3372 46.6637C76.4431 47.52 77.2028 49.6057 75.6374 49.8958Z" fill="#EB9481"/>
<path d="M76.3786 46.5717V46.6453C76.142 46.6554 75.905 46.6477 75.6695 46.6223C71.6086 46.1619 70.9825 40.9822 70.8904 39.6746C72.1059 39.96 77.4099 41.9398 77.4099 41.9398C76.8936 43.284 76.5441 44.6865 76.3694 46.1158C76.3584 46.2677 76.3615 46.4203 76.3786 46.5717Z" fill="#231F20"/>
<path d="M67.8471 32.4368C67.5939 34.9967 70.2597 41.7096 72.2902 42.9206C75.2276 44.6794 79.3438 44.0762 80.656 40.7059C81.9314 37.4369 78.3032 28.735 76.1024 27.7175C72.8749 26.1981 68.22 28.6521 67.8471 32.4368Z" fill="#EB9481"/>
<path d="M75.481 35.2454C75.481 35.2454 75.4534 35.2822 75.481 35.296C75.6698 35.7564 75.8171 36.2905 75.481 36.6036C75.9322 36.3596 75.7343 35.6597 75.481 35.2454Z" fill="#231F20"/>
<path d="M74.8918 34.9275C74.1413 35.1578 74.6569 36.6449 75.3522 36.4285C76.0474 36.2121 75.5179 34.7388 74.8918 34.9275Z" fill="#231F20"/>
<path d="M78.1653 34.3936C78.1653 34.3936 78.2113 34.3936 78.2159 34.4212C78.3633 34.8816 78.6073 35.3973 79.0769 35.4065C78.5474 35.5354 78.2297 34.8586 78.1653 34.3936Z" fill="#231F20"/>
<path d="M78.3998 33.7719C79.1227 33.4588 79.6936 34.923 79.026 35.213C78.3584 35.5031 77.8059 34.0344 78.3998 33.7719Z" fill="#231F20"/>
<path d="M74.0675 34.4533C74.2433 34.3289 74.4124 34.1952 74.574 34.0528C74.7705 33.9354 74.9238 33.7578 75.0114 33.5463C75.024 33.4739 75.0129 33.3994 74.9797 33.3339C74.9465 33.2683 74.893 33.2152 74.8272 33.1826C74.6872 33.1394 74.5381 33.1346 74.3956 33.1686C74.2531 33.2026 74.1223 33.2742 74.0168 33.376C73.769 33.547 73.5948 33.8051 73.5288 34.0988C73.5163 34.1665 73.524 34.2364 73.551 34.2997C73.5779 34.363 73.623 34.417 73.6805 34.4548C73.738 34.4927 73.8054 34.5127 73.8742 34.5125C73.9431 34.5122 74.0103 34.4916 74.0675 34.4533Z" fill="#231F20"/>
<path d="M78.727 32.8282C78.506 32.865 78.3034 32.8604 78.0824 32.8788C77.8577 32.9267 77.6236 32.9009 77.4148 32.8052C77.3557 32.7624 77.3124 32.7012 77.2916 32.6313C77.2708 32.5614 77.2736 32.4866 77.2997 32.4184C77.373 32.2904 77.479 32.1842 77.6068 32.1106C77.7346 32.037 77.8797 31.9986 78.0271 31.9994C78.3242 31.9595 78.6257 32.03 78.8743 32.1974C78.9289 32.2388 78.9704 32.2951 78.9937 32.3596C79.017 32.4241 79.0211 32.4939 79.0055 32.5606C78.9899 32.6274 78.9553 32.6882 78.9059 32.7357C78.8564 32.7831 78.7943 32.8153 78.727 32.8282Z" fill="#231F20"/>
<path d="M78.1282 38.1735C78.0216 38.4933 77.8345 38.7803 77.5849 39.0069C77.4448 39.126 77.271 39.1984 77.0877 39.2141C76.6871 39.2463 76.5628 38.9102 76.5306 38.6017C76.5116 38.435 76.5116 38.2666 76.5306 38.0999C77.0414 38.2954 77.6016 38.3212 78.1282 38.1735Z" fill="#231F20"/>
<path d="M77.5851 39.007C77.445 39.1261 77.2711 39.1986 77.0879 39.2142C76.6873 39.2464 76.563 38.9103 76.5308 38.6018C76.7265 38.5427 76.9365 38.5504 77.1274 38.6238C77.3183 38.6971 77.4793 38.832 77.5851 39.007Z" fill="#FF9BBC"/>
<path d="M70.1769 38.6478C71.4937 38.1045 69.8315 34.4579 69.8315 34.4579C70.3715 34.188 70.8238 33.7705 71.136 33.2538C71.4481 32.7371 71.6073 32.1424 71.595 31.5389C71.595 31.5389 77.2443 31.0785 78.0408 28.8776C78.8374 26.6768 77.2765 23.8637 76.5813 23.9005C75.8861 23.9373 75.2 25.1436 75.2 25.1436C75.2 25.1436 74.468 24.2504 73.8971 24.3149C73.0177 24.4116 72.8795 25.581 72.5158 25.9632C71.5213 26.9623 68.0958 28.0673 67.3545 29.048C67.1421 29.2896 66.9927 29.58 66.9196 29.8932C66.8465 30.2065 66.852 30.533 66.9355 30.8436C66.6252 31.0474 66.37 31.3247 66.1925 31.6508C66.015 31.9769 65.9207 32.3417 65.918 32.713C65.8075 34.3751 68.8508 39.2003 70.1769 38.6478Z" fill="#231F20"/>
<path d="M70.292 38.33C71.2542 36.9487 70.3196 35.0656 69.408 33.8823C69.408 33.8823 69.408 33.8455 69.4402 33.8823C70.361 34.9643 71.4568 37.1053 70.361 38.3945C70.3525 38.4036 70.3406 38.409 70.3281 38.4094C70.3156 38.4099 70.3034 38.4053 70.2943 38.3968C70.2851 38.3882 70.2797 38.3764 70.2793 38.3639C70.2789 38.3513 70.2834 38.3392 70.292 38.33Z" fill="#231F20"/>
<path d="M70.6743 31.3365C71.9673 31.507 73.2786 31.4837 74.5648 31.2674C75.1491 31.145 75.7175 30.9566 76.2592 30.7057C76.7978 30.4571 77.7555 30.0289 77.9673 29.4165C77.7528 29.9013 77.3701 30.2922 76.8899 30.5169C76.2679 30.899 75.5909 31.1831 74.8825 31.3595C73.4937 31.7205 72.0393 31.7489 70.6374 31.4424C70.573 31.4331 70.6052 31.3319 70.6743 31.3365Z" fill="#231F20"/>
<path d="M67.907 28.2053C68.5344 27.8394 69.185 27.5149 69.8546 27.2338C70.6741 26.8332 71.6686 26.4419 72.3178 25.7881H72.3409C71.8847 26.2547 71.3482 26.6353 70.757 26.9115C70.1769 27.2292 69.5829 27.5239 68.9844 27.8047C68.303 28.127 67.5525 28.4954 67.1427 29.186C66.7329 29.8766 66.8711 30.5672 66.9585 31.2625C66.9585 31.2763 66.9538 31.2897 66.945 31.3004C66.9362 31.3111 66.924 31.3185 66.9104 31.3212C66.8969 31.3239 66.8828 31.3218 66.8706 31.3153C66.8583 31.3088 66.8488 31.2983 66.8434 31.2855C66.6468 30.7274 66.6449 30.1192 66.838 29.5599C67.0312 29.0006 67.4079 28.5232 67.907 28.2053Z" fill="#231F20"/>
<path d="M66.6224 31.175C65.1767 32.2248 65.9134 34.3612 66.6546 35.6181C67.3028 36.8503 68.327 37.8438 69.5783 38.4543C69.6382 38.4773 69.5783 38.5694 69.5323 38.5464C68.0313 37.957 66.9263 36.5205 66.2357 35.1116C65.72 34.0481 65.1399 31.8058 66.6224 31.175Z" fill="#231F20"/>
<path d="M70.7617 37.8373C70.7617 37.8373 68.6944 35.9404 67.8012 36.7277C66.908 37.515 68.8049 40.5032 70.1033 40.6827C70.2677 40.7173 70.4375 40.7183 70.6023 40.6857C70.7672 40.6531 70.9237 40.5876 71.0626 40.493C71.2015 40.3984 71.3198 40.2767 71.4105 40.1352C71.5012 39.9938 71.5625 39.8355 71.5905 39.6698L70.7617 37.8373Z" fill="#EB9481"/>
<path d="M68.3674 37.5705V37.6027C69.2883 37.7592 69.896 38.4361 70.3795 39.1773C70.3129 39.1039 70.231 39.0459 70.1397 39.0073C70.0484 38.9688 69.9497 38.9506 69.8506 38.9541C69.7516 38.9577 69.6544 38.9827 69.5661 39.0276C69.4777 39.0726 69.4002 39.1362 69.3389 39.2142C69.3389 39.2142 69.3389 39.2648 69.3711 39.2556C69.5074 39.1747 69.6657 39.1388 69.8235 39.1528C69.9813 39.1669 70.1307 39.2302 70.2505 39.3339C70.4509 39.5051 70.6316 39.6982 70.7892 39.9094C70.8491 39.9785 70.9734 39.9094 70.9274 39.8265C70.7018 38.7353 69.5369 37.4231 68.3674 37.5705Z" fill="#231F20"/>
<path d="M76.8715 46.3967H76.8485C77.3089 47.7227 78.285 50.8168 76.1947 51.1897C75.3235 51.2635 74.4496 51.0811 73.6808 50.6648C72.8893 50.2991 72.1392 49.8499 71.4431 49.325C70.6381 48.7582 69.8806 48.1268 69.1779 47.4373C69.1456 47.405 69.1088 47.4373 69.1364 47.4833C69.8501 48.1739 70.5177 48.9198 71.2728 49.5414C72.0113 50.1485 72.8292 50.6519 73.7038 51.0378C74.5167 51.4584 75.4393 51.6192 76.3466 51.4982C76.7351 51.407 77.0792 51.1824 77.319 50.8635C77.5588 50.5446 77.6791 50.1517 77.6588 49.7532C77.639 48.591 77.3705 47.4465 76.8715 46.3967Z" fill="#231F20"/>
<path d="M118.668 189.27H193.551V157.837H118.668V189.27Z" fill="#231F20"/>
<path d="M120.086 157.837C120.086 157.837 121.118 153.209 123.176 152.5C125.234 151.791 126.491 153.882 126.491 153.882C126.491 153.882 126.974 149.462 129.893 148.14C132.812 146.819 135.008 149.521 135.008 149.521C135.008 149.521 137.251 143.914 141.252 143.914C145.253 143.914 147.274 152.118 147.274 152.118C147.274 152.118 149.641 149.673 152.062 151.055C154.484 152.436 154.484 157.851 154.484 157.851L120.086 157.837Z" fill="#37474F"/>
<path d="M161.114 157.837H192.124C192.124 157.837 191.101 153.633 189.043 153.334C186.985 153.035 186.028 154.987 186.028 154.987C186.028 154.987 186.12 149.126 182.28 148.126C178.44 147.127 175.217 152.307 175.217 152.307C175.217 152.307 172.804 149.356 169.522 149.545C166.239 149.733 165.405 154.609 165.405 154.609C165.405 154.609 162.431 152.919 161.114 157.837Z" fill="#37474F"/>
<path d="M152.26 157.837H171.322C171.322 157.837 171.276 155.111 169.402 154.388C168.895 154.173 168.333 154.123 167.797 154.246C167.26 154.369 166.776 154.659 166.414 155.074C166.414 155.074 165.65 150.06 162.16 150.06C158.67 150.06 156.994 154.388 156.994 154.388C156.69 153.969 156.273 153.646 155.792 153.457C155.31 153.269 154.784 153.223 154.277 153.324C152.339 153.564 152.26 157.837 152.26 157.837Z" fill="#455A64"/>
<path d="M133.549 189.182H196.162V185.471H133.549V189.182Z" fill="#410C9E"/>
<path d="M133.549 184.578H196.162V180.867H133.549V184.578Z" fill="#410C9E"/>
<path d="M133.549 179.969H196.162V176.258H133.549V179.969Z" fill="#410C9E"/>
<path d="M133.549 175.365H196.162V171.654H133.549V175.365Z" fill="#410C9E"/>
<path d="M133.549 170.756H196.162V167.045H133.549V170.756Z" fill="#410C9E"/>
<path d="M133.549 166.152H196.162V162.441H133.549V166.152Z" fill="#410C9E"/>
<path d="M133.549 161.543H196.162V157.832H133.549V161.543Z" fill="#410C9E"/>
<path d="M116.058 189.182H133.549V185.471H116.058V189.182Z" fill="#410C9E"/>
<path opacity="0.2" d="M116.058 189.182H133.549V185.471H116.058V189.182Z" fill="#020100"/>
<path d="M116.058 184.578H133.549V180.867H116.058V184.578Z" fill="#410C9E"/>
<path opacity="0.2" d="M116.058 184.578H133.549V180.867H116.058V184.578Z" fill="#020100"/>
<path d="M116.058 179.969H133.549V176.258H116.058V179.969Z" fill="#410C9E"/>
<path opacity="0.2" d="M116.058 179.969H133.549V176.258H116.058V179.969Z" fill="#020100"/>
<path d="M116.058 175.365H133.549V171.654H116.058V175.365Z" fill="#410C9E"/>
<path opacity="0.2" d="M116.058 175.365H133.549V171.654H116.058V175.365Z" fill="#020100"/>
<path d="M116.058 170.756H133.549V167.045H116.058V170.756Z" fill="#410C9E"/>
<path opacity="0.2" d="M116.058 170.756H133.549V167.045H116.058V170.756Z" fill="#020100"/>
<path d="M116.058 166.152H133.549V162.441H116.058V166.152Z" fill="#410C9E"/>
<path opacity="0.2" d="M116.058 166.152H133.549V162.441H116.058V166.152Z" fill="#020100"/>
<path d="M116.058 161.543H133.549V157.832H116.058V161.543Z" fill="#410C9E"/>
<path opacity="0.2" d="M116.058 161.543H133.549V157.832H116.058V161.543Z" fill="#020100"/>
</g>
<defs>
<clipPath id="clip0_21_2388">
<rect width="200" height="200" fill="white" transform="translate(0.5)"/>
</clipPath>
</defs>
</svg>
