<svg width="201" height="200" viewBox="0 0 201 200" fill="none" xmlns="http://www.w3.org/2000/svg">
<g clip-path="url(#clip0_380_4015)">
<path d="M193.044 97.7656H137.628C137.628 97.7656 143.126 82.7559 151.584 82.7559C160.041 82.7559 162.689 93.1153 162.689 93.1153C162.689 93.1153 168.398 87.489 173.085 87.489C177.772 87.489 181.833 94.9248 181.833 94.9248C181.833 94.9248 188.472 90.9099 193.044 97.7656Z" fill="#212121"/>
<path d="M127.227 19.6503H101.324C101.324 19.6503 107.111 11.2568 111.674 11.2568C116.237 11.2568 117.581 16.8555 117.581 16.8555C117.581 16.8555 120.804 14.2496 123.779 14.7146C126.753 15.1796 127.227 19.6503 127.227 19.6503Z" fill="#212121"/>
<path d="M176.469 37.1642H150.562C150.562 37.1642 156.349 28.7754 160.907 28.7754C165.465 28.7754 166.801 34.3695 166.801 34.3695C166.801 34.3695 170.023 31.7589 172.998 32.2239C175.972 32.689 176.469 37.1642 176.469 37.1642Z" fill="#212121"/>
<path d="M140.022 79.0724H114.119C114.119 79.0724 119.907 70.6836 124.465 70.6836C129.023 70.6836 130.372 76.2777 130.372 76.2777C130.372 76.2777 133.595 73.6671 136.574 74.1321C139.553 74.5972 140.022 79.0724 140.022 79.0724Z" fill="#212121"/>
<path d="M33.845 96.9687H7.95557C7.95557 96.9687 13.7292 88.6074 18.2874 88.6074C22.8456 88.6074 24.1992 94.1969 24.1992 94.1969C24.1992 94.1969 27.4221 91.5863 30.3965 92.056C33.3708 92.5256 33.845 96.9687 33.845 96.9687Z" fill="#212121"/>
<path d="M68.229 44.9915H17.7715C17.7715 44.9915 24.6778 29.5674 32.0721 28.6005C39.4665 27.6336 42.9979 40.065 42.9979 40.065C42.9979 40.065 47.7679 35.6725 51.5157 35.6725C55.2635 35.6725 58.1411 41.4554 58.1411 41.4554C58.1411 41.4554 65.6552 37.5004 68.229 44.9915Z" fill="#212121"/>
<path d="M156.317 109.143H141.049V189.187H156.317V109.143Z" fill="#313131"/>
<path d="M146.385 111.743H143.416V114.8H146.385V111.743Z" fill="#212121"/>
<path d="M150.184 111.743H147.214V114.8H150.184V111.743Z" fill="#212121"/>
<path d="M146.385 116.928H143.416V119.985H146.385V116.928Z" fill="#212121"/>
<path d="M150.184 116.928H147.214V119.985H150.184V116.928Z" fill="#212121"/>
<path d="M146.385 122.117H143.416V125.174H146.385V122.117Z" fill="#212121"/>
<path d="M150.184 122.117H147.214V125.174H150.184V122.117Z" fill="#212121"/>
<path d="M146.385 127.306H143.416V130.363H146.385V127.306Z" fill="#212121"/>
<path d="M150.184 127.306H147.214V130.363H150.184V127.306Z" fill="#212121"/>
<path d="M146.385 132.495H143.416V135.552H146.385V132.495Z" fill="#212121"/>
<path d="M150.184 132.495H147.214V135.552H150.184V132.495Z" fill="#212121"/>
<path d="M146.385 137.684H143.416V140.741H146.385V137.684Z" fill="#212121"/>
<path d="M150.184 137.684H147.214V140.741H150.184V137.684Z" fill="#212121"/>
<path d="M146.385 142.873H143.416V145.93H146.385V142.873Z" fill="#212121"/>
<path d="M150.184 142.873H147.214V145.93H150.184V142.873Z" fill="#212121"/>
<path d="M146.385 148.062H143.416V151.119H146.385V148.062Z" fill="#212121"/>
<path d="M150.184 148.062H147.214V151.119H150.184V148.062Z" fill="#212121"/>
<path d="M146.385 153.25H143.416V156.307H146.385V153.25Z" fill="#212121"/>
<path d="M150.184 153.25H147.214V156.307H150.184V153.25Z" fill="#212121"/>
<path d="M146.385 158.439H143.416V161.497H146.385V158.439Z" fill="#212121"/>
<path d="M150.184 158.439H147.214V161.497H150.184V158.439Z" fill="#212121"/>
<path d="M146.385 163.628H143.416V166.685H146.385V163.628Z" fill="#212121"/>
<path d="M150.184 163.628H147.214V166.685H150.184V163.628Z" fill="#212121"/>
<path d="M146.385 168.817H143.416V171.875H146.385V168.817Z" fill="#212121"/>
<path d="M150.184 168.817H147.214V171.875H150.184V168.817Z" fill="#212121"/>
<path d="M146.385 174.006H143.416V177.063H146.385V174.006Z" fill="#212121"/>
<path d="M150.184 174.006H147.214V177.063H150.184V174.006Z" fill="#212121"/>
<path d="M146.385 179.195H143.416V182.253H146.385V179.195Z" fill="#212121"/>
<path d="M150.976 182.252H153.946V179.195H150.976V182.252Z" fill="#212121"/>
<path d="M150.976 177.063H153.946V174.006H150.976V177.063Z" fill="#212121"/>
<path d="M150.976 171.875H153.946V168.818H150.976V171.875Z" fill="#212121"/>
<path d="M150.976 166.686H153.946V163.628H150.976V166.686Z" fill="#212121"/>
<path d="M150.976 161.497H153.946V158.44H150.976V161.497Z" fill="#212121"/>
<path d="M150.976 156.312H153.946V153.255H150.976V156.312Z" fill="#212121"/>
<path d="M150.976 151.123H153.946V148.066H150.976V151.123Z" fill="#212121"/>
<path d="M150.976 145.935H153.946V142.877H150.976V145.935Z" fill="#212121"/>
<path d="M150.976 140.745H153.946V137.688H150.976V140.745Z" fill="#212121"/>
<path d="M150.976 135.557H153.946V132.499H150.976V135.557Z" fill="#212121"/>
<path d="M150.976 130.367H153.946V127.31H150.976V130.367Z" fill="#212121"/>
<path d="M150.976 125.179H153.946V122.122H150.976V125.179Z" fill="#212121"/>
<path d="M150.976 119.989H153.946V116.932H150.976V119.989Z" fill="#212121"/>
<path d="M150.976 114.796H153.946V111.739H150.976V114.796Z" fill="#212121"/>
<path d="M150.184 179.195H147.214V182.253H150.184V179.195Z" fill="#212121"/>
<path d="M168.357 109.143H156.317V189.187H168.357V109.143Z" fill="#A6A6A6"/>
<path d="M164.664 182.252H167.114V179.195H164.664V182.252Z" fill="#C7C7C7"/>
<path d="M161.529 182.252H163.978V179.195H161.529V182.252Z" fill="#C7C7C7"/>
<path d="M164.664 177.063H167.114V174.006H164.664V177.063Z" fill="#C7C7C7"/>
<path d="M161.529 177.063H163.978V174.006H161.529V177.063Z" fill="#C7C7C7"/>
<path d="M164.664 171.875H167.114V168.818H164.664V171.875Z" fill="#C7C7C7"/>
<path d="M161.529 171.875H163.978V168.818H161.529V171.875Z" fill="#C7C7C7"/>
<path d="M164.664 166.686H167.114V163.628H164.664V166.686Z" fill="#C7C7C7"/>
<path d="M161.529 166.686H163.978V163.628H161.529V166.686Z" fill="#C7C7C7"/>
<path d="M164.664 161.497H167.114V158.44H164.664V161.497Z" fill="#C7C7C7"/>
<path d="M161.529 161.497H163.978V158.44H161.529V161.497Z" fill="#C7C7C7"/>
<path d="M164.664 156.312H167.114V153.255H164.664V156.312Z" fill="#C7C7C7"/>
<path d="M161.529 156.312H163.978V153.255H161.529V156.312Z" fill="#C7C7C7"/>
<path d="M164.664 151.123H167.114V148.066H164.664V151.123Z" fill="#C7C7C7"/>
<path d="M161.529 151.123H163.978V148.066H161.529V151.123Z" fill="#C7C7C7"/>
<path d="M164.664 145.935H167.114V142.877H164.664V145.935Z" fill="#C7C7C7"/>
<path d="M161.529 145.935H163.978V142.877H161.529V145.935Z" fill="#C7C7C7"/>
<path d="M164.664 140.745H167.114V137.688H164.664V140.745Z" fill="#C7C7C7"/>
<path d="M161.529 140.745H163.978V137.688H161.529V140.745Z" fill="#C7C7C7"/>
<path d="M164.664 135.557H167.114V132.499H164.664V135.557Z" fill="#C7C7C7"/>
<path d="M161.529 135.557H163.978V132.499H161.529V135.557Z" fill="#C7C7C7"/>
<path d="M164.664 130.367H167.114V127.31H164.664V130.367Z" fill="#C7C7C7"/>
<path d="M161.529 130.367H163.978V127.31H161.529V130.367Z" fill="#C7C7C7"/>
<path d="M164.664 125.179H167.114V122.122H164.664V125.179Z" fill="#C7C7C7"/>
<path d="M161.529 125.179H163.978V122.122H161.529V125.179Z" fill="#C7C7C7"/>
<path d="M164.664 119.989H167.114V116.932H164.664V119.989Z" fill="#C7C7C7"/>
<path d="M161.529 119.989H163.978V116.932H161.529V119.989Z" fill="#C7C7C7"/>
<path d="M164.664 114.796H167.114V111.739H164.664V114.796Z" fill="#C7C7C7"/>
<path d="M160.87 111.743H158.421V114.8H160.87V111.743Z" fill="#C7C7C7"/>
<path d="M160.87 116.928H158.421V119.985H160.87V116.928Z" fill="#C7C7C7"/>
<path d="M160.87 122.117H158.421V125.174H160.87V122.117Z" fill="#C7C7C7"/>
<path d="M160.87 127.306H158.421V130.363H160.87V127.306Z" fill="#C7C7C7"/>
<path d="M160.87 132.495H158.421V135.552H160.87V132.495Z" fill="#C7C7C7"/>
<path d="M160.87 137.684H158.421V140.741H160.87V137.684Z" fill="#C7C7C7"/>
<path d="M160.87 142.873H158.421V145.93H160.87V142.873Z" fill="#C7C7C7"/>
<path d="M160.87 148.062H158.421V151.119H160.87V148.062Z" fill="#C7C7C7"/>
<path d="M160.87 153.25H158.421V156.307H160.87V153.25Z" fill="#C7C7C7"/>
<path d="M160.87 158.439H158.421V161.497H160.87V158.439Z" fill="#C7C7C7"/>
<path d="M160.87 163.628H158.421V166.685H160.87V163.628Z" fill="#C7C7C7"/>
<path d="M160.87 168.817H158.421V171.875H160.87V168.817Z" fill="#C7C7C7"/>
<path d="M160.87 174.006H158.421V177.063H160.87V174.006Z" fill="#C7C7C7"/>
<path d="M160.87 179.195H158.421V182.253H160.87V179.195Z" fill="#C7C7C7"/>
<path d="M161.529 114.796H163.978V111.739H161.529V114.796Z" fill="#C7C7C7"/>
<path d="M47.9014 104.823H29.8391V189.181H47.9014V104.823Z" fill="#212121"/>
<path d="M47.9015 102.978H29.4019V104.824H47.9015V102.978Z" fill="#C7C7C7"/>
<path d="M33.2971 107.549H31.4692V189.186H33.2971V107.549Z" fill="#0D0D0D"/>
<path d="M36.543 107.549H34.7151V189.186H36.543V107.549Z" fill="#0D0D0D"/>
<path d="M39.7844 107.549H37.9565V189.186H39.7844V107.549Z" fill="#0D0D0D"/>
<path d="M43.0302 107.549H41.1978V189.186H43.0302V107.549Z" fill="#0D0D0D"/>
<path d="M46.2671 107.549H44.4392V189.186H46.2671V107.549Z" fill="#0D0D0D"/>
<path d="M33.2971 109.884H31.4692V113.53H33.2971V109.884Z" fill="#212121"/>
<path d="M36.543 109.884H34.7151V113.53H36.543V109.884Z" fill="#212121"/>
<path d="M39.7844 109.884H37.9565V113.53H39.7844V109.884Z" fill="#212121"/>
<path d="M43.0302 109.884H41.1978V113.53H43.0302V109.884Z" fill="#212121"/>
<path d="M46.2671 109.884H44.4392V113.53H46.2671V109.884Z" fill="#212121"/>
<path d="M33.2971 115.805H31.4692V119.451H33.2971V115.805Z" fill="#212121"/>
<path d="M36.543 115.805H34.7151V119.451H36.543V115.805Z" fill="#212121"/>
<path d="M39.7844 115.805H37.9565V119.451H39.7844V115.805Z" fill="#212121"/>
<path d="M43.0302 115.805H41.1978V119.451H43.0302V115.805Z" fill="#212121"/>
<path d="M46.2671 115.805H44.4392V119.451H46.2671V115.805Z" fill="#212121"/>
<path d="M33.2971 121.73H31.4692V125.377H33.2971V121.73Z" fill="#212121"/>
<path d="M36.543 121.73H34.7151V125.377H36.543V121.73Z" fill="#212121"/>
<path d="M39.7844 121.73H37.9565V125.377H39.7844V121.73Z" fill="#212121"/>
<path d="M43.0302 121.73H41.1978V125.377H43.0302V121.73Z" fill="#212121"/>
<path d="M46.2671 121.73H44.4392V125.377H46.2671V121.73Z" fill="#212121"/>
<path d="M33.2971 127.655H31.4692V131.302H33.2971V127.655Z" fill="#212121"/>
<path d="M36.543 127.655H34.7151V131.302H36.543V127.655Z" fill="#212121"/>
<path d="M39.7844 127.655H37.9565V131.302H39.7844V127.655Z" fill="#212121"/>
<path d="M43.0302 127.655H41.1978V131.302H43.0302V127.655Z" fill="#212121"/>
<path d="M46.2671 127.655H44.4392V131.302H46.2671V127.655Z" fill="#212121"/>
<path d="M33.2971 133.581H31.4692V137.228H33.2971V133.581Z" fill="#212121"/>
<path d="M36.543 133.581H34.7151V137.228H36.543V133.581Z" fill="#212121"/>
<path d="M39.7844 133.581H37.9565V137.228H39.7844V133.581Z" fill="#212121"/>
<path d="M43.0302 133.581H41.1978V137.228H43.0302V133.581Z" fill="#212121"/>
<path d="M46.2671 133.581H44.4392V137.228H46.2671V133.581Z" fill="#212121"/>
<path d="M33.2971 139.507H31.4692V143.153H33.2971V139.507Z" fill="#212121"/>
<path d="M36.543 139.507H34.7151V143.153H36.543V139.507Z" fill="#212121"/>
<path d="M39.7844 139.507H37.9565V143.153H39.7844V139.507Z" fill="#212121"/>
<path d="M43.0302 139.507H41.1978V143.153H43.0302V139.507Z" fill="#212121"/>
<path d="M46.2671 139.507H44.4392V143.153H46.2671V139.507Z" fill="#212121"/>
<path d="M33.2971 145.433H31.4692V149.079H33.2971V145.433Z" fill="#212121"/>
<path d="M36.543 145.433H34.7151V149.079H36.543V145.433Z" fill="#212121"/>
<path d="M39.7844 145.433H37.9565V149.079H39.7844V145.433Z" fill="#212121"/>
<path d="M43.0302 145.433H41.1978V149.079H43.0302V145.433Z" fill="#212121"/>
<path d="M46.2671 145.433H44.4392V149.079H46.2671V145.433Z" fill="#212121"/>
<path d="M33.2971 151.358H31.4692V155.005H33.2971V151.358Z" fill="#212121"/>
<path d="M36.543 151.358H34.7151V155.005H36.543V151.358Z" fill="#212121"/>
<path d="M39.7844 151.358H37.9565V155.005H39.7844V151.358Z" fill="#212121"/>
<path d="M43.0302 151.358H41.1978V155.005H43.0302V151.358Z" fill="#212121"/>
<path d="M46.2671 151.358H44.4392V155.005H46.2671V151.358Z" fill="#212121"/>
<path d="M33.2971 157.284H31.4692V160.931H33.2971V157.284Z" fill="#212121"/>
<path d="M36.543 157.284H34.7151V160.931H36.543V157.284Z" fill="#212121"/>
<path d="M39.7844 157.284H37.9565V160.931H39.7844V157.284Z" fill="#212121"/>
<path d="M43.0302 157.284H41.1978V160.931H43.0302V157.284Z" fill="#212121"/>
<path d="M46.2671 157.284H44.4392V160.931H46.2671V157.284Z" fill="#212121"/>
<path d="M33.2971 163.209H31.4692V166.856H33.2971V163.209Z" fill="#212121"/>
<path d="M36.543 163.209H34.7151V166.856H36.543V163.209Z" fill="#212121"/>
<path d="M39.7844 163.209H37.9565V166.856H39.7844V163.209Z" fill="#212121"/>
<path d="M43.0302 163.209H41.1978V166.856H43.0302V163.209Z" fill="#212121"/>
<path d="M46.2671 163.209H44.4392V166.856H46.2671V163.209Z" fill="#212121"/>
<path d="M33.2971 169.135H31.4692V172.781H33.2971V169.135Z" fill="#212121"/>
<path d="M36.543 169.135H34.7151V172.781H36.543V169.135Z" fill="#212121"/>
<path d="M39.7844 169.135H37.9565V172.781H39.7844V169.135Z" fill="#212121"/>
<path d="M43.0302 169.135H41.1978V172.781H43.0302V169.135Z" fill="#212121"/>
<path d="M46.2671 169.135H44.4392V172.781H46.2671V169.135Z" fill="#212121"/>
<path d="M33.2971 175.061H31.4692V178.707H33.2971V175.061Z" fill="#212121"/>
<path d="M36.543 175.061H34.7151V178.707H36.543V175.061Z" fill="#212121"/>
<path d="M39.7844 175.061H37.9565V178.707H39.7844V175.061Z" fill="#212121"/>
<path d="M43.0302 175.061H41.1978V178.707H43.0302V175.061Z" fill="#212121"/>
<path d="M46.2671 175.061H44.4392V178.707H46.2671V175.061Z" fill="#212121"/>
<path d="M33.2971 180.986H31.4692V184.633H33.2971V180.986Z" fill="#212121"/>
<path d="M36.543 180.986H34.7151V184.633H36.543V180.986Z" fill="#212121"/>
<path d="M39.7844 180.986H37.9565V184.633H39.7844V180.986Z" fill="#212121"/>
<path d="M43.0302 180.986H41.1978V184.633H43.0302V180.986Z" fill="#212121"/>
<path d="M46.2671 180.986H44.4392V184.633H46.2671V180.986Z" fill="#212121"/>
<path d="M33.2971 186.912H31.4692V189.187H33.2971V186.912Z" fill="#212121"/>
<path d="M36.543 186.912H34.7151V189.187H36.543V186.912Z" fill="#212121"/>
<path d="M39.7844 186.912H37.9565V189.187H39.7844V186.912Z" fill="#212121"/>
<path d="M43.0302 186.912H41.1978V189.187H43.0302V186.912Z" fill="#212121"/>
<path d="M46.2671 186.912H44.4392V189.187H46.2671V186.912Z" fill="#212121"/>
<path d="M59.4996 104.823H47.9016V189.181H59.4996V104.823Z" fill="#313131"/>
<path d="M60.0015 102.978H47.9016V104.824H60.0015V102.978Z" fill="#C7C7C7"/>
<path d="M51.3686 107.549H49.5361V189.186H51.3686V107.549Z" fill="#C7C7C7"/>
<path d="M54.6052 107.549H52.7773V189.186H54.6052V107.549Z" fill="#C7C7C7"/>
<path d="M57.8467 107.549H56.0188V189.186H57.8467V107.549Z" fill="#C7C7C7"/>
<path d="M51.3686 109.884H49.5361V113.53H51.3686V109.884Z" fill="#313131"/>
<path d="M54.6052 109.884H52.7773V113.53H54.6052V109.884Z" fill="#313131"/>
<path d="M57.8467 109.884H56.0188V113.53H57.8467V109.884Z" fill="#313131"/>
<path d="M51.3686 115.805H49.5361V119.451H51.3686V115.805Z" fill="#313131"/>
<path d="M54.6052 115.805H52.7773V119.451H54.6052V115.805Z" fill="#313131"/>
<path d="M57.8467 115.805H56.0188V119.451H57.8467V115.805Z" fill="#313131"/>
<path d="M51.3686 121.73H49.5361V125.377H51.3686V121.73Z" fill="#313131"/>
<path d="M54.6052 121.73H52.7773V125.377H54.6052V121.73Z" fill="#313131"/>
<path d="M57.8467 121.73H56.0188V125.377H57.8467V121.73Z" fill="#313131"/>
<path d="M51.3686 127.655H49.5361V131.302H51.3686V127.655Z" fill="#313131"/>
<path d="M54.6052 127.655H52.7773V131.302H54.6052V127.655Z" fill="#313131"/>
<path d="M57.8467 127.655H56.0188V131.302H57.8467V127.655Z" fill="#313131"/>
<path d="M51.3686 133.581H49.5361V137.228H51.3686V133.581Z" fill="#313131"/>
<path d="M54.6052 133.581H52.7773V137.228H54.6052V133.581Z" fill="#313131"/>
<path d="M57.8467 133.581H56.0188V137.228H57.8467V133.581Z" fill="#313131"/>
<path d="M51.3686 139.507H49.5361V143.153H51.3686V139.507Z" fill="#313131"/>
<path d="M54.6052 139.507H52.7773V143.153H54.6052V139.507Z" fill="#313131"/>
<path d="M57.8467 139.507H56.0188V143.153H57.8467V139.507Z" fill="#313131"/>
<path d="M51.3686 145.433H49.5361V149.079H51.3686V145.433Z" fill="#313131"/>
<path d="M54.6052 145.433H52.7773V149.079H54.6052V145.433Z" fill="#313131"/>
<path d="M57.8467 145.433H56.0188V149.079H57.8467V145.433Z" fill="#313131"/>
<path d="M51.3686 151.358H49.5361V155.005H51.3686V151.358Z" fill="#313131"/>
<path d="M54.6052 151.358H52.7773V155.005H54.6052V151.358Z" fill="#313131"/>
<path d="M57.8467 151.358H56.0188V155.005H57.8467V151.358Z" fill="#313131"/>
<path d="M51.3686 157.284H49.5361V160.931H51.3686V157.284Z" fill="#313131"/>
<path d="M54.6052 157.284H52.7773V160.931H54.6052V157.284Z" fill="#313131"/>
<path d="M57.8467 157.284H56.0188V160.931H57.8467V157.284Z" fill="#313131"/>
<path d="M51.3686 163.209H49.5361V166.856H51.3686V163.209Z" fill="#313131"/>
<path d="M54.6052 163.209H52.7773V166.856H54.6052V163.209Z" fill="#313131"/>
<path d="M57.8467 163.209H56.0188V166.856H57.8467V163.209Z" fill="#313131"/>
<path d="M51.3686 169.135H49.5361V172.781H51.3686V169.135Z" fill="#313131"/>
<path d="M54.6052 169.135H52.7773V172.781H54.6052V169.135Z" fill="#313131"/>
<path d="M57.8467 169.135H56.0188V172.781H57.8467V169.135Z" fill="#313131"/>
<path d="M51.3686 175.061H49.5361V178.707H51.3686V175.061Z" fill="#313131"/>
<path d="M54.6052 175.061H52.7773V178.707H54.6052V175.061Z" fill="#313131"/>
<path d="M57.8467 175.061H56.0188V178.707H57.8467V175.061Z" fill="#313131"/>
<path d="M51.3686 180.986H49.5361V184.633H51.3686V180.986Z" fill="#313131"/>
<path d="M54.6052 180.986H52.7773V184.633H54.6052V180.986Z" fill="#313131"/>
<path d="M57.8467 180.986H56.0188V184.633H57.8467V180.986Z" fill="#313131"/>
<path d="M51.3686 186.912H49.5361V189.187H51.3686V186.912Z" fill="#313131"/>
<path d="M54.6052 186.912H52.7773V189.187H54.6052V186.912Z" fill="#313131"/>
<path d="M57.8467 186.912H56.0188V189.187H57.8467V186.912Z" fill="#313131"/>
<path d="M25.1476 135.828H7.15894V189.186H25.1476V135.828Z" fill="#212121"/>
<path d="M25.1474 131.302H9.71875V135.828H25.1474V131.302Z" fill="#C7C7C7"/>
<path d="M23.1769 138.19H9.13403V189.187H23.1769V138.19Z" fill="#313131"/>
<path d="M23.1769 143.057H9.13403V144.263H23.1769V143.057Z" fill="#0D0D0D"/>
<path d="M23.1769 148.048H9.13403V149.254H23.1769V148.048Z" fill="#0D0D0D"/>
<path d="M23.1769 153.039H9.13403V154.245H23.1769V153.039Z" fill="#0D0D0D"/>
<path d="M23.1769 158.029H9.13403V159.236H23.1769V158.029Z" fill="#0D0D0D"/>
<path d="M23.1769 163.021H9.13403V164.227H23.1769V163.021Z" fill="#0D0D0D"/>
<path d="M23.1769 168.012H9.13403V169.218H23.1769V168.012Z" fill="#0D0D0D"/>
<path d="M23.1769 173.003H9.13403V174.209H23.1769V173.003Z" fill="#0D0D0D"/>
<path d="M23.1769 177.993H9.13403V179.199H23.1769V177.993Z" fill="#0D0D0D"/>
<path d="M23.1769 182.989H9.13403V184.196H23.1769V182.989Z" fill="#0D0D0D"/>
<path d="M23.1769 187.979H9.13403V189.186H23.1769V187.979Z" fill="#0D0D0D"/>
<path d="M36.4142 135.828H25.1477V189.186H36.4142V135.828Z" fill="#313131"/>
<path d="M34.7245 131.302H25.1477V135.828H34.7245V131.302Z" fill="#A6A6A6"/>
<path d="M35.3597 138.19H26.6992V189.187H35.3597V138.19Z" fill="#C7C7C7"/>
<path d="M35.3597 143.057H26.6992V144.263H35.3597V143.057Z" fill="#0D0D0D"/>
<path d="M35.3597 148.048H26.6992V149.254H35.3597V148.048Z" fill="#0D0D0D"/>
<path d="M35.3597 153.039H26.6992V154.245H35.3597V153.039Z" fill="#0D0D0D"/>
<path d="M35.3597 158.029H26.6992V159.236H35.3597V158.029Z" fill="#0D0D0D"/>
<path d="M35.3597 163.021H26.6992V164.227H35.3597V163.021Z" fill="#0D0D0D"/>
<path d="M35.3597 168.012H26.6992V169.218H35.3597V168.012Z" fill="#0D0D0D"/>
<path d="M35.3597 173.003H26.6992V174.209H35.3597V173.003Z" fill="#0D0D0D"/>
<path d="M35.3597 177.993H26.6992V179.199H35.3597V177.993Z" fill="#0D0D0D"/>
<path d="M35.3597 182.989H26.6992V184.196H35.3597V182.989Z" fill="#0D0D0D"/>
<path d="M35.3597 187.979H26.6992V189.186H35.3597V187.979Z" fill="#0D0D0D"/>
<path d="M75.559 157.947H61.6543V189.182H75.559V157.947Z" fill="#313131"/>
<path d="M66.3 160.649H63.8413V162.565H66.3V160.649Z" fill="#C7C7C7"/>
<path d="M66.3 164.738H63.8413V166.654H66.3V164.738Z" fill="#C7C7C7"/>
<path d="M66.3 168.826H63.8413V170.742H66.3V168.826Z" fill="#C7C7C7"/>
<path d="M66.3 172.915H63.8413V174.83H66.3V172.915Z" fill="#C7C7C7"/>
<path d="M66.3 177.004H63.8413V178.919H66.3V177.004Z" fill="#C7C7C7"/>
<path d="M66.3 181.088H63.8413V183.003H66.3V181.088Z" fill="#C7C7C7"/>
<path d="M66.3 185.176H63.8413V187.091H66.3V185.176Z" fill="#C7C7C7"/>
<path d="M69.8405 160.649H67.3818V162.565H69.8405V160.649Z" fill="#C7C7C7"/>
<path d="M69.8405 164.738H67.3818V166.654H69.8405V164.738Z" fill="#C7C7C7"/>
<path d="M69.8405 168.826H67.3818V170.742H69.8405V168.826Z" fill="#C7C7C7"/>
<path d="M69.8405 172.915H67.3818V174.83H69.8405V172.915Z" fill="#C7C7C7"/>
<path d="M69.8405 177.004H67.3818V178.919H69.8405V177.004Z" fill="#C7C7C7"/>
<path d="M69.8405 181.088H67.3818V183.003H69.8405V181.088Z" fill="#C7C7C7"/>
<path d="M69.8405 185.176H67.3818V187.091H69.8405V185.176Z" fill="#C7C7C7"/>
<path d="M73.372 160.649H70.9133V162.565H73.372V160.649Z" fill="#C7C7C7"/>
<path d="M73.372 164.738H70.9133V166.654H73.372V164.738Z" fill="#C7C7C7"/>
<path d="M73.372 168.826H70.9133V170.742H73.372V168.826Z" fill="#C7C7C7"/>
<path d="M73.372 172.915H70.9133V174.83H73.372V172.915Z" fill="#C7C7C7"/>
<path d="M73.372 177.004H70.9133V178.919H73.372V177.004Z" fill="#C7C7C7"/>
<path d="M73.372 181.088H70.9133V183.003H73.372V181.088Z" fill="#C7C7C7"/>
<path d="M73.372 185.176H70.9133V187.091H73.372V185.176Z" fill="#C7C7C7"/>
<path d="M85.3151 157.947H75.5588V189.182H85.3151V157.947Z" fill="#A6A6A6"/>
<path d="M82.3133 186.783H84.3162V184.868H82.3133V186.783Z" fill="#C7C7C7"/>
<path d="M82.3133 182.699H84.3162V180.784H82.3133V182.699Z" fill="#C7C7C7"/>
<path d="M82.3133 178.61H84.3162V176.695H82.3133V178.61Z" fill="#C7C7C7"/>
<path d="M82.3133 174.526H84.3162V172.611H82.3133V174.526Z" fill="#C7C7C7"/>
<path d="M82.3133 170.434H84.3162V168.518H82.3133V170.434Z" fill="#C7C7C7"/>
<path d="M82.3133 166.345H84.3162V164.429H82.3133V166.345Z" fill="#C7C7C7"/>
<path d="M82.3133 162.261H84.3162V160.345H82.3133V162.261Z" fill="#C7C7C7"/>
<path d="M79.431 186.783H81.4338V184.868H79.431V186.783Z" fill="#C7C7C7"/>
<path d="M79.431 182.699H81.4338V180.784H79.431V182.699Z" fill="#C7C7C7"/>
<path d="M79.431 178.61H81.4338V176.695H79.431V178.61Z" fill="#C7C7C7"/>
<path d="M79.431 174.526H81.4338V172.611H79.431V174.526Z" fill="#C7C7C7"/>
<path d="M79.431 170.434H81.4338V168.518H79.431V170.434Z" fill="#C7C7C7"/>
<path d="M79.431 166.345H81.4338V164.429H79.431V166.345Z" fill="#C7C7C7"/>
<path d="M79.431 162.261H81.4338V160.345H79.431V162.261Z" fill="#C7C7C7"/>
<path d="M76.558 186.783H78.5608V184.868H76.558V186.783Z" fill="#C7C7C7"/>
<path d="M76.558 182.699H78.5608V180.784H76.558V182.699Z" fill="#C7C7C7"/>
<path d="M76.558 178.61H78.5608V176.695H76.558V178.61Z" fill="#C7C7C7"/>
<path d="M76.558 174.526H78.5608V172.611H76.558V174.526Z" fill="#C7C7C7"/>
<path d="M76.558 170.434H78.5608V168.518H76.558V170.434Z" fill="#C7C7C7"/>
<path d="M76.558 166.345H78.5608V164.429H76.558V166.345Z" fill="#C7C7C7"/>
<path d="M76.558 162.261H78.5608V160.345H76.558V162.261Z" fill="#C7C7C7"/>
<path d="M179.006 122.117H169.402V133.467H179.006V122.117Z" fill="#313131"/>
<path d="M185.102 122.117H179.011V133.881H185.102V122.117Z" fill="#C7C7C7"/>
<path d="M185.507 127.131H179.462V133.885H185.507V127.131Z" fill="#313131"/>
<path d="M189.278 127.131H185.507V133.885H189.278V127.131Z" fill="#C7C7C7"/>
<path d="M181.253 132.729H165.719V189.182H181.253V132.729Z" fill="#212121"/>
<path d="M172.381 135.156H167.496V137.15H172.381V135.156Z" fill="#0D0D0D"/>
<path d="M178.629 135.156H173.744V137.15H178.629V135.156Z" fill="#0D0D0D"/>
<path d="M172.381 138.545H167.496V140.539H172.381V138.545Z" fill="#0D0D0D"/>
<path d="M178.629 138.545H173.744V140.539H178.629V138.545Z" fill="#0D0D0D"/>
<path d="M172.381 141.934H167.496V143.927H172.381V141.934Z" fill="#0D0D0D"/>
<path d="M178.629 141.934H173.744V143.927H178.629V141.934Z" fill="#0D0D0D"/>
<path d="M172.381 145.322H167.496V147.316H172.381V145.322Z" fill="#0D0D0D"/>
<path d="M178.629 145.322H173.744V147.316H178.629V145.322Z" fill="#0D0D0D"/>
<path d="M172.381 148.711H167.496V150.705H172.381V148.711Z" fill="#0D0D0D"/>
<path d="M178.629 148.711H173.744V150.705H178.629V148.711Z" fill="#0D0D0D"/>
<path d="M172.381 152.1H167.496V154.093H172.381V152.1Z" fill="#0D0D0D"/>
<path d="M178.629 152.1H173.744V154.093H178.629V152.1Z" fill="#0D0D0D"/>
<path d="M172.381 155.488H167.496V157.482H172.381V155.488Z" fill="#0D0D0D"/>
<path d="M178.629 155.488H173.744V157.482H178.629V155.488Z" fill="#0D0D0D"/>
<path d="M172.381 158.877H167.496V160.871H172.381V158.877Z" fill="#0D0D0D"/>
<path d="M178.629 158.877H173.744V160.871H178.629V158.877Z" fill="#0D0D0D"/>
<path d="M172.381 162.266H167.496V164.259H172.381V162.266Z" fill="#0D0D0D"/>
<path d="M178.629 162.266H173.744V164.259H178.629V162.266Z" fill="#0D0D0D"/>
<path d="M172.381 165.654H167.496V167.648H172.381V165.654Z" fill="#0D0D0D"/>
<path d="M178.629 165.654H173.744V167.648H178.629V165.654Z" fill="#0D0D0D"/>
<path d="M172.381 169.043H167.496V171.037H172.381V169.043Z" fill="#0D0D0D"/>
<path d="M178.629 169.043H173.744V171.037H178.629V169.043Z" fill="#0D0D0D"/>
<path d="M172.381 172.432H167.496V174.43H172.381V172.432Z" fill="#0D0D0D"/>
<path d="M178.629 172.432H173.744V174.43H178.629V172.432Z" fill="#0D0D0D"/>
<path d="M172.381 175.82H167.496V177.814H172.381V175.82Z" fill="#0D0D0D"/>
<path d="M178.629 175.82H173.744V177.814H178.629V175.82Z" fill="#0D0D0D"/>
<path d="M172.381 179.209H167.496V181.203H172.381V179.209Z" fill="#0D0D0D"/>
<path d="M178.629 179.209H173.744V181.203H178.629V179.209Z" fill="#0D0D0D"/>
<path d="M193.841 132.729H181.253V189.182H193.841V132.729Z" fill="#C7C7C7"/>
<path d="M188.569 181.203H192.579V179.21H188.569V181.203Z" fill="#212121"/>
<path d="M183.436 181.203H187.446V179.21H183.436V181.203Z" fill="#212121"/>
<path d="M188.569 177.813H192.579V175.82H188.569V177.813Z" fill="#212121"/>
<path d="M183.436 177.813H187.446V175.82H183.436V177.813Z" fill="#212121"/>
<path d="M188.569 174.425H192.579V172.427H188.569V174.425Z" fill="#212121"/>
<path d="M183.436 174.425H187.446V172.427H183.436V174.425Z" fill="#212121"/>
<path d="M188.569 171.036H192.579V169.043H188.569V171.036Z" fill="#212121"/>
<path d="M183.436 171.036H187.446V169.043H183.436V171.036Z" fill="#212121"/>
<path d="M188.569 167.647H192.579V165.654H188.569V167.647Z" fill="#212121"/>
<path d="M183.436 167.647H187.446V165.654H183.436V167.647Z" fill="#212121"/>
<path d="M188.569 164.259H192.579V162.265H188.569V164.259Z" fill="#212121"/>
<path d="M183.436 164.259H187.446V162.265H183.436V164.259Z" fill="#212121"/>
<path d="M188.569 160.87H192.579V158.876H188.569V160.87Z" fill="#212121"/>
<path d="M183.436 160.87H187.446V158.876H183.436V160.87Z" fill="#212121"/>
<path d="M188.569 157.481H192.579V155.488H188.569V157.481Z" fill="#212121"/>
<path d="M183.436 157.481H187.446V155.488H183.436V157.481Z" fill="#212121"/>
<path d="M188.569 154.093H192.579V152.099H188.569V154.093Z" fill="#212121"/>
<path d="M183.436 154.093H187.446V152.099H183.436V154.093Z" fill="#212121"/>
<path d="M188.569 150.704H192.579V148.71H188.569V150.704Z" fill="#212121"/>
<path d="M183.436 150.704H187.446V148.71H183.436V150.704Z" fill="#212121"/>
<path d="M188.569 147.315H192.579V145.322H188.569V147.315Z" fill="#212121"/>
<path d="M183.436 147.315H187.446V145.322H183.436V147.315Z" fill="#212121"/>
<path d="M188.569 143.927H192.579V141.933H188.569V143.927Z" fill="#212121"/>
<path d="M183.436 143.927H187.446V141.933H183.436V143.927Z" fill="#212121"/>
<path d="M188.569 140.538H192.579V138.544H188.569V140.538Z" fill="#212121"/>
<path d="M183.436 140.538H187.446V138.544H183.436V140.538Z" fill="#212121"/>
<path d="M188.569 137.154H192.579V135.161H188.569V137.154Z" fill="#212121"/>
<path d="M183.436 137.154H187.446V135.161H183.436V137.154Z" fill="#212121"/>
<path d="M115.528 152.398H97.208V189.186H115.528V152.398Z" fill="#C7C7C7"/>
<path d="M103.331 155.58H100.09V157.832H103.331V155.58Z" fill="#313131"/>
<path d="M103.331 160.396H100.09V162.653H103.331V160.396Z" fill="#313131"/>
<path d="M103.331 165.208H100.09V167.464H103.331V165.208Z" fill="#313131"/>
<path d="M103.331 170.023H100.09V172.28H103.331V170.023Z" fill="#313131"/>
<path d="M103.331 174.835H100.09V177.091H103.331V174.835Z" fill="#313131"/>
<path d="M103.331 179.651H100.09V181.907H103.331V179.651Z" fill="#313131"/>
<path d="M103.331 184.462H100.09V186.718H103.331V184.462Z" fill="#313131"/>
<path d="M107.996 155.58H104.754V157.832H107.996V155.58Z" fill="#313131"/>
<path d="M107.996 160.396H104.754V162.653H107.996V160.396Z" fill="#313131"/>
<path d="M107.996 165.208H104.754V167.464H107.996V165.208Z" fill="#313131"/>
<path d="M107.996 170.023H104.754V172.28H107.996V170.023Z" fill="#313131"/>
<path d="M107.996 174.835H104.754V177.091H107.996V174.835Z" fill="#313131"/>
<path d="M107.996 179.651H104.754V181.907H107.996V179.651Z" fill="#313131"/>
<path d="M107.996 184.462H104.754V186.718H107.996V184.462Z" fill="#313131"/>
<path d="M112.646 155.58H109.405V157.832H112.646V155.58Z" fill="#313131"/>
<path d="M112.646 160.396H109.405V162.653H112.646V160.396Z" fill="#313131"/>
<path d="M112.646 165.208H109.405V167.464H112.646V165.208Z" fill="#313131"/>
<path d="M112.646 170.023H109.405V172.28H112.646V170.023Z" fill="#313131"/>
<path d="M112.646 174.835H109.405V177.091H112.646V174.835Z" fill="#313131"/>
<path d="M112.646 179.651H109.405V181.907H112.646V179.651Z" fill="#313131"/>
<path d="M112.646 184.462H109.405V186.718H112.646V184.462Z" fill="#313131"/>
<path d="M115.528 148.563H103.332V152.394H115.528V148.563Z" fill="#313131"/>
<path d="M115.533 146.192H107.798V148.564H115.533V146.192Z" fill="#212121"/>
<path d="M128.383 152.398H115.528V189.186H128.383V152.398Z" fill="#A6A6A6"/>
<path d="M124.433 186.359H127.071V184.103H124.433V186.359Z" fill="#C7C7C7"/>
<path d="M124.433 181.543H127.071V179.287H124.433V181.543Z" fill="#C7C7C7"/>
<path d="M124.433 176.731H127.071V174.475H124.433V176.731Z" fill="#C7C7C7"/>
<path d="M124.433 171.916H127.071V169.66H124.433V171.916Z" fill="#C7C7C7"/>
<path d="M124.433 167.104H127.071V164.848H124.433V167.104Z" fill="#C7C7C7"/>
<path d="M124.433 162.289H127.071V160.033H124.433V162.289Z" fill="#C7C7C7"/>
<path d="M124.433 157.478H127.071V155.221H124.433V157.478Z" fill="#C7C7C7"/>
<path d="M120.634 186.359H123.272V184.103H120.634V186.359Z" fill="#C7C7C7"/>
<path d="M120.634 181.543H123.272V179.287H120.634V181.543Z" fill="#C7C7C7"/>
<path d="M120.634 176.731H123.272V174.475H120.634V176.731Z" fill="#C7C7C7"/>
<path d="M120.634 171.916H123.272V169.66H120.634V171.916Z" fill="#C7C7C7"/>
<path d="M120.634 167.104H123.272V164.848H120.634V167.104Z" fill="#C7C7C7"/>
<path d="M120.634 162.289H123.272V160.033H120.634V162.289Z" fill="#C7C7C7"/>
<path d="M120.634 157.478H123.272V155.221H120.634V157.478Z" fill="#C7C7C7"/>
<path d="M116.85 186.359H119.488V184.103H116.85V186.359Z" fill="#C7C7C7"/>
<path d="M116.85 181.543H119.488V179.287H116.85V181.543Z" fill="#C7C7C7"/>
<path d="M116.85 176.731H119.488V174.475H116.85V176.731Z" fill="#C7C7C7"/>
<path d="M116.85 171.916H119.488V169.66H116.85V171.916Z" fill="#C7C7C7"/>
<path d="M116.85 167.104H119.488V164.848H116.85V167.104Z" fill="#C7C7C7"/>
<path d="M116.85 162.289H119.488V160.033H116.85V162.289Z" fill="#C7C7C7"/>
<path d="M116.85 157.478H119.488V155.221H116.85V157.478Z" fill="#C7C7C7"/>
<path d="M126.435 148.563H115.528V152.394H126.435V148.563Z" fill="#C7C7C7"/>
<path d="M121.44 146.192H115.528V148.564H121.44V146.192Z" fill="#313131"/>
<path d="M197.179 192.106L173.012 192.217L148.84 192.258L100.5 192.336L52.1606 192.258L27.9931 192.217L3.82104 192.106L27.9931 191.991L52.1606 191.954L100.5 191.876L148.84 191.954L173.012 191.996L197.179 192.106Z" fill="#E0DCDD"/>
<path d="M197.179 189.183H3.82104V191.987H197.179V189.183Z" fill="#C7C7C7"/>
<path d="M17.3758 189.182C17.5371 189.633 17.6151 190.109 17.606 190.587C17.6151 191.057 17.537 191.526 17.3758 191.968C17.0688 191.059 17.0688 190.074 17.3758 189.164V189.182Z" fill="#E0DCDD"/>
<path d="M32.4913 189.183C32.7983 190.092 32.7983 191.077 32.4913 191.987C32.33 191.544 32.252 191.076 32.2611 190.605C32.2497 190.121 32.3278 189.639 32.4913 189.183Z" fill="#E0DCDD"/>
<path d="M47.6023 189.182C47.7636 189.633 47.8416 190.109 47.8325 190.587C47.8416 191.057 47.7636 191.526 47.6023 191.968C47.2953 191.059 47.2953 190.074 47.6023 189.164V189.182Z" fill="#E0DCDD"/>
<path d="M62.7181 189.183C63.0251 190.092 63.0251 191.077 62.7181 191.987C62.5568 191.544 62.4788 191.076 62.4879 190.605C62.4765 190.121 62.5546 189.639 62.7181 189.183Z" fill="#E0DCDD"/>
<path d="M77.8289 189.182C77.9902 189.633 78.0682 190.109 78.0591 190.587C78.0682 191.057 77.9902 191.526 77.8289 191.968C77.5219 191.059 77.5219 190.074 77.8289 189.164V189.182Z" fill="#E0DCDD"/>
<path d="M92.9447 189.183C93.2517 190.092 93.2517 191.077 92.9447 191.987C92.7834 191.544 92.7054 191.076 92.7145 190.605C92.7031 190.121 92.7811 189.639 92.9447 189.183Z" fill="#E0DCDD"/>
<path d="M108.056 189.182C108.217 189.633 108.295 190.109 108.286 190.587C108.295 191.057 108.217 191.526 108.056 191.968C107.749 191.059 107.749 190.074 108.056 189.164V189.182Z" fill="#E0DCDD"/>
<path d="M123.171 189.183C123.478 190.092 123.478 191.077 123.171 191.987C123.01 191.544 122.932 191.076 122.941 190.605C122.93 190.121 123.008 189.639 123.171 189.183Z" fill="#E0DCDD"/>
<path d="M138.282 189.182C138.444 189.633 138.522 190.109 138.512 190.587C138.522 191.057 138.444 191.526 138.282 191.968C137.975 191.059 137.975 190.074 138.282 189.164V189.182Z" fill="#E0DCDD"/>
<path d="M153.398 189.183C153.705 190.092 153.705 191.077 153.398 191.987C153.237 191.544 153.158 191.076 153.168 190.605C153.156 190.121 153.234 189.639 153.398 189.183Z" fill="#E0DCDD"/>
<path d="M168.509 189.182C168.67 189.633 168.748 190.109 168.739 190.587C168.748 191.057 168.67 191.526 168.509 191.968C168.202 191.059 168.202 190.074 168.509 189.164V189.182Z" fill="#E0DCDD"/>
<path d="M183.624 189.183C183.931 190.092 183.931 191.077 183.624 191.987C183.463 191.544 183.385 191.076 183.394 190.605C183.383 190.121 183.461 189.639 183.624 189.183Z" fill="#E0DCDD"/>
<path d="M162.311 12.7169L162.201 12.39C162.491 12.2887 162.786 12.1966 163.08 12.1045L163.182 12.4314L162.311 12.7169Z" fill="#E0DCDD"/>
<path d="M118.664 49.9329L118.59 49.5922C119.198 49.4679 119.801 49.316 120.385 49.1318L120.478 49.4633C119.888 49.6521 119.276 49.804 118.664 49.9329ZM122.692 48.7312L122.568 48.409C123.134 48.188 123.705 47.9485 124.258 47.6723L124.405 47.9854C123.843 48.257 123.268 48.5056 122.692 48.7312ZM126.463 46.8896L126.283 46.5949C126.804 46.2818 127.324 45.9411 127.83 45.5866L128.028 45.8674C127.513 46.2127 126.988 46.5535 126.463 46.8712V46.8896ZM129.884 44.4493L129.663 44.1823C130.123 43.8001 130.584 43.3858 131.044 42.9576L131.279 43.2108C130.823 43.6252 130.354 44.0396 129.884 44.4309V44.4493ZM132.955 41.5671L132.702 41.3277C133.116 40.8995 133.535 40.4391 133.959 39.9464L134.217 40.1766C133.793 40.6509 133.369 41.1159 132.955 41.5487V41.5671ZM135.717 38.4086L135.45 38.1876C135.842 37.7272 136.224 37.2253 136.606 36.7327L136.878 36.9445C136.5 37.4233 136.115 37.9052 135.722 38.3902L135.717 38.4086ZM138.287 35.0844L138.01 34.8818L139.115 33.3808L139.392 33.5834L138.287 35.0844ZM140.759 31.6957L140.478 31.4931L141.579 29.9829L141.855 30.1855L140.759 31.6957ZM143.241 28.2932L142.964 28.086C143.337 27.5887 143.715 27.0915 144.097 26.5988L144.369 26.8106C143.987 27.3033 143.614 27.7959 143.241 28.2932ZM145.814 24.992L145.547 24.771C145.943 24.3106 146.344 23.8133 146.754 23.3437L147.012 23.5693C146.606 24.0389 146.206 24.5131 145.814 24.992ZM148.577 21.8473L148.324 21.6125C148.761 21.1521 149.203 20.6916 149.636 20.2773L149.88 20.5259C149.443 20.9265 149.001 21.3869 148.572 21.8473H148.577ZM151.584 18.9559L151.358 18.6934C151.818 18.279 152.32 17.8785 152.799 17.5055L153.015 17.7772C152.527 18.1639 152.067 18.5415 151.579 18.9559H151.584ZM154.885 16.4143L154.691 16.1289C155.207 15.779 155.737 15.4383 156.266 15.1252L156.446 15.4198C155.916 15.7329 155.391 16.069 154.88 16.4143H154.885ZM158.471 14.3148L158.32 14.0063C158.872 13.7301 159.448 13.4677 160.018 13.2236L160.152 13.5413C159.581 13.7807 159.019 14.0432 158.467 14.3148H158.471Z" fill="#E0DCDD"/>
<path d="M115.395 50.4205L115.362 50.0752C115.669 50.0476 115.976 50.0153 116.283 49.9785L116.325 50.3192L115.395 50.4205Z" fill="#E0DCDD"/>
<path d="M166.658 6.43178L163.131 12.2699L168.674 9.46135L188.357 6.41797L166.658 6.43178Z" fill="#CF2A51"/>
<path opacity="0.1" d="M166.658 6.43178L163.131 12.2699L168.674 9.46135L188.357 6.41797L166.658 6.43178Z" fill="white"/>
<path d="M169.006 11.0504L163.131 12.2705L168.674 9.46191L169.006 11.0504Z" fill="#E0DCDD"/>
<path d="M168.674 9.46135L188.357 6.41797L170.392 18.1541L168.674 9.46135Z" fill="#CF2A51"/>
<path d="M166.658 6.43207L159.995 0L188.357 6.41826L166.658 6.43207Z" fill="#CF2A51"/>
<path d="M56.9165 55.8262H50.9817V189.187H56.9165V55.8262Z" fill="#37474F"/>
<path d="M56.9213 189.183H60.1396L60.1396 55.8219H56.9213L56.9213 189.183Z" fill="#455A64"/>
<path d="M56.9166 54.1455H50.4338V55.8214H56.9166V54.1455Z" fill="#E0DCDD"/>
<path d="M56.9165 55.8262H60.6965V54.1502H56.9165V55.8262Z" fill="#37474F"/>
<path d="M56.9166 52.6631H51.7415V54.1502H56.9166V52.6631Z" fill="#37474F"/>
<path d="M59.5041 52.6631H56.9165V54.1502H59.5041V52.6631Z" fill="#455A64"/>
<path d="M58.9931 49.3157C58.9922 49.9776 58.7951 50.6243 58.4267 51.1741C58.0584 51.724 57.5353 52.1523 56.9236 52.4049C56.3119 52.6575 55.639 52.7232 54.99 52.5935C54.341 52.4638 53.745 52.1447 53.2773 51.6764C52.8097 51.2081 52.4913 50.6116 52.3626 49.9624C52.2338 49.3133 52.3003 48.6405 52.5538 48.0291C52.8073 47.4178 53.2363 46.8953 53.7867 46.5277C54.337 46.1601 54.984 45.9639 55.6458 45.9639C56.0858 45.9639 56.5214 46.0506 56.9278 46.2191C57.3342 46.3876 57.7035 46.6346 58.0143 46.9459C58.3252 47.2572 58.5717 47.6267 58.7396 48.0334C58.9076 48.44 58.9937 48.8758 58.9931 49.3157Z" fill="#37474F"/>
<path d="M31.4 67.355V81.628H16.0173V67.4885C16.0167 66.4953 16.2118 65.5118 16.5915 64.594C16.9712 63.6762 17.5279 62.8423 18.23 62.1398C18.9321 61.4373 19.7657 60.88 20.6832 60.4997C21.6008 60.1195 22.5842 59.9238 23.5774 59.9238H23.9688C25.9397 59.9238 27.8298 60.7068 29.2234 62.1004C30.6171 63.494 31.4 65.3841 31.4 67.355Z" fill="#CF2A51"/>
<path d="M55.6457 66.1948V81.6419H31.3999V67.3688C31.4018 66.3918 31.2109 65.424 30.8382 64.5208C30.4656 63.6176 29.9185 62.7968 29.2283 62.1053C28.5381 61.4137 27.7182 60.8651 26.8157 60.4908C25.9132 60.1165 24.9458 59.9238 23.9688 59.9238H49.3932C51.0531 59.9287 52.6434 60.5915 53.8155 61.767C54.9875 62.9425 55.6457 64.5348 55.6457 66.1948Z" fill="#CF2A51"/>
<path opacity="0.1" d="M55.6457 66.1948V81.6419H31.3999V67.3688C31.4018 66.3918 31.2109 65.424 30.8382 64.5208C30.4656 63.6176 29.9185 62.7968 29.2283 62.1053C28.5381 61.4137 27.7182 60.8651 26.8157 60.4908C25.9132 60.1165 24.9458 59.9238 23.9688 59.9238H49.3932C51.0531 59.9287 52.6434 60.5915 53.8155 61.767C54.9875 62.9425 55.6457 64.5348 55.6457 66.1948Z" fill="white"/>
<path opacity="0.1" d="M35.6084 67.0788V81.6419H34.6185V67.3688C34.6203 66.3922 34.4296 65.4247 34.0572 64.5219C33.6849 63.619 33.1382 62.7983 32.4484 62.1069C31.7587 61.4154 30.9394 60.8667 30.0375 60.4921C29.1355 60.1176 28.1685 59.9244 27.1919 59.9238H28.4534C30.3511 59.9238 32.1709 60.6776 33.5127 62.0195C34.8546 63.3613 35.6084 65.1812 35.6084 67.0788Z" fill="white"/>
<path opacity="0.1" d="M53.3945 67.0786V81.6417H52.4046V67.3687C52.4046 65.3986 51.6223 63.5092 50.2297 62.1157C48.8371 60.7222 46.9481 59.9387 44.978 59.9375H46.2396C48.1348 59.9375 49.9526 60.6894 51.294 62.0282C52.6354 63.3671 53.3909 65.1834 53.3945 67.0786Z" fill="white"/>
<g opacity="0.1">
<path d="M40.9906 77.811V75.5089L40.1572 77.1849H39.6968L38.8634 75.5089V77.811H37.9702V73.9619H38.9371L39.9362 75.9693L40.9353 73.9619H41.8976V77.811H40.9906Z" fill="white"/>
<path d="M43.6611 73.9619H44.4668L45.848 77.811H44.9272L44.6279 76.9454H43.4308L43.1362 77.811H42.2153L43.6611 73.9619ZM44.5128 76.3331L44.0524 74.9518L43.592 76.3331H44.5128Z" fill="white"/>
<path d="M46.2485 77.811V73.9619H47.1372V77.811H46.2485Z" fill="white"/>
<path d="M47.8738 77.811V73.9619H48.7624V77.0283H50.6271V77.811H47.8738Z" fill="white"/>
</g>
<path opacity="0.3" d="M30.6127 67.7047V80.532H16.8V67.8244C16.8 66.931 16.9763 66.0464 17.3188 65.2213C17.6612 64.3961 18.1631 63.6467 18.7957 63.0158C19.4282 62.3849 20.1791 61.8851 21.0051 61.5449C21.8312 61.2047 22.7163 61.0308 23.6097 61.0332H23.9596C25.7258 61.0381 27.418 61.7431 28.6651 62.9938C29.9123 64.2444 30.6127 65.9385 30.6127 67.7047Z" fill="white"/>
<path d="M14.3092 83.0826L16.0174 81.6553H31.4L29.853 82.9491C24.8759 87.1251 18.0663 90.5138 13.8902 90.5138H12.8865C8.78418 90.5 8.19023 87.7927 14.3092 83.0826Z" fill="#37474F"/>
<path d="M31.3954 81.6416L29.853 82.9354C24.8759 87.1114 18.0663 90.5001 13.8903 90.5001H12.7991C8.77499 90.4587 8.23169 87.7376 14.3092 83.0689L16.0128 81.6416H31.3954Z" fill="#37474F"/>
<path d="M30.2582 81.6416L28.7158 82.9354C23.7571 87.0792 16.9797 90.4725 12.7991 90.5001C8.77499 90.4587 8.23169 87.7376 14.3092 83.0689L16.0128 81.6416H30.2582Z" fill="#455A64"/>
<path d="M53.2653 87.977V91.9044L45.1021 81.6416H48.2283L53.2653 87.977Z" fill="#455A64"/>
<path d="M53.2655 91.9044H52.1144L43.9512 81.6416H45.1068L53.2655 91.9044Z" fill="#37474F"/>
<path d="M40.6453 53.2798V56.9171H37.3165V70.5778C37.3165 70.8831 37.1952 71.1758 36.9794 71.3917C36.7635 71.6076 36.4707 71.7288 36.1655 71.7288C35.8602 71.7288 35.5674 71.6076 35.3515 71.3917C35.1357 71.1758 35.0144 70.8831 35.0144 70.5778V52.3682L37.3165 52.7411L40.6453 53.2798Z" fill="#455A64"/>
<path d="M40.6453 53.2798V56.9171H37.3164V70.5778C37.3154 70.8424 37.2233 71.0985 37.0556 71.3031C36.8879 71.5077 36.6548 71.6483 36.3956 71.7012C36.3171 71.7198 36.2368 71.729 36.1562 71.7288C36.0919 71.7361 36.0271 71.7361 35.9628 71.7288C35.7268 71.6926 35.5089 71.5812 35.3412 71.4112C35.1263 71.1943 35.0056 70.9015 35.0051 70.5962V52.3682L37.3072 52.7411L40.6453 53.2798Z" fill="#455A64"/>
<path d="M36.1516 71.7288H35.2538C35.0022 71.7317 34.7591 71.6377 34.5748 71.4663C34.3906 71.2949 34.2793 71.0592 34.2639 70.808V52.3682H35.0006V70.5778C35.001 70.8831 35.1218 71.1759 35.3367 71.3927C35.5628 71.5932 35.8499 71.7116 36.1516 71.7288Z" fill="#37474F"/>
<path d="M30.6128 67.7053V76.7249L28.3107 75.7626L26.9663 75.1963L26.3724 74.9477L25.9856 74.7819L25.5758 74.6116L25.4515 74.5609L25.2904 74.4919L21.9109 73.0646L22.6245 71.3656L22.7627 71.0433L23.375 69.5976L23.619 69.0083L23.7203 68.7781L24.1439 67.7651L24.6044 66.6233L26.446 62.2217L28.8586 63.2392C29.5727 64.026 30.0861 64.9738 30.355 66.0017C30.5143 66.556 30.6009 67.1287 30.6128 67.7053Z" fill="#212121"/>
<path d="M30.6128 70.0529V71.0566L30.5575 70.9415V70.8908L30.5161 70.8034C30.499 70.7752 30.4836 70.746 30.47 70.7159L29.9221 69.5879C29.9221 69.5418 29.8761 69.4958 29.8531 69.4451L29.3696 68.4322C29.2683 68.2296 29.1717 68.027 29.075 67.8198L29.0473 67.7554L28.3153 66.213C28.1357 65.8216 27.9515 65.4303 27.772 65.0343C27.3484 64.1135 26.911 63.165 26.5012 62.2119C26.9985 63.0913 27.4635 63.9845 27.9469 64.8731C28.1772 65.3336 28.4074 65.7433 28.6376 66.1807L29.365 67.562L29.4617 67.7508L29.7702 68.3493L30.1477 69.0906C30.1477 69.1274 30.1892 69.1643 30.2076 69.2011L30.6128 70.0529Z" fill="#313131"/>
<path d="M30.6127 70.8821V70.9236H30.5575L30.4193 70.965C29.8346 71.1446 29.2499 71.3057 28.6605 71.4576L28.4672 71.5037L28.039 71.6096H27.9883L27.4819 71.7293L26.492 71.9503C25.7921 72.0976 25.1107 72.2358 24.3878 72.3555H24.305L23.8768 72.4245C23.2828 72.5258 22.6889 72.6087 22.0903 72.6732C22.606 72.5028 23.1217 72.3555 23.6419 72.2127L24.1024 72.093L24.2451 72.0516C24.9634 71.8674 25.6908 71.7063 26.4137 71.5451L27.0629 71.407C27.2562 71.3748 27.445 71.3333 27.6384 71.2965C27.8318 71.2597 28.0988 71.2044 28.3382 71.1676L28.6053 71.1215L28.7526 71.0939C29.2867 71.0018 29.8254 70.919 30.3733 70.8545H30.539L30.6127 70.8821Z" fill="#313131"/>
<path d="M30.6173 68.5977H18.7017V80.366H30.6173V68.5977Z" fill="#0D0D0D"/>
<path d="M30.6127 74.0308V74.6063L30.5022 74.703L30.2904 74.8917C30.2647 74.9119 30.2401 74.9334 30.2167 74.9562L30.1523 75.0161L30.1062 75.0575L28.3244 76.6045L28.0804 76.8117L27.9745 76.8992L27.8686 76.8117L26.9754 76.0336L26.515 75.6514C26.4229 75.5686 26.3262 75.4903 26.2341 75.4028C26.2096 75.3883 26.1877 75.3696 26.1696 75.3476L25.8473 75.0713L25.8059 75.0345L25.7322 74.97L25.6586 74.9102C25.0447 74.3914 24.4492 73.8665 23.8721 73.3355L23.6327 73.1237L23.2506 72.783L22.6152 72.2167C22.1548 71.8207 21.7266 71.4202 21.2892 71.015L21.1326 70.8769L20.9623 70.7249C20.2072 70.0205 19.4429 69.3437 18.697 68.6162C19.4935 69.2286 20.2763 69.8778 21.0636 70.5039C21.1234 70.5546 21.1879 70.6006 21.2478 70.6559L21.4457 70.817L22.7533 71.8898L23.4163 72.4377L24.0931 73.004L24.3832 73.248C24.9296 73.7054 25.4744 74.1658 26.0177 74.6293L26.1374 74.7306L26.4551 75.0022L26.5978 75.122L26.8649 75.3522L27.9653 76.273C28.6099 75.7205 29.2591 75.1634 29.9083 74.6155L30.1016 74.4497C30.2259 74.3438 30.3457 74.2379 30.4746 74.1367L30.6127 74.0308Z" fill="#313131"/>
<path d="M26.0546 74.8779L25.76 75.1266C25.2995 75.5179 24.8391 75.8955 24.3327 76.2592C23.7433 76.7196 23.1402 77.1432 22.5324 77.5714C21.9247 77.9996 21.3077 78.4094 20.6907 78.8099C20.0738 79.2105 19.4292 79.6064 18.7754 79.9656C19.3371 79.4729 19.9264 79.0125 20.5158 78.5613C21.1051 78.1101 21.7129 77.6773 22.316 77.2491C22.9192 76.8209 23.5453 76.4065 24.1577 76.006C24.655 75.6883 25.1614 75.3706 25.6817 75.0851L26.0454 74.8825L26.0546 74.8779Z" fill="#313131"/>
<path d="M30.6127 75.2881V75.4815L30.2168 75.15L30.1063 75.0579L29.9221 74.9014H29.9543L30.1754 75.0257L30.3135 75.1086L30.6127 75.2881Z" fill="#313131"/>
<path d="M72.8244 139.715C72.8244 139.715 58.229 152.086 58.2152 152.091C55.4113 154.444 52.9941 156.557 51.8476 157.763C51.5505 158.014 51.3143 158.329 51.157 158.684C51.157 158.684 51.157 158.707 51.157 158.716C51.2905 160.024 69.4265 182.981 70.3289 183.579C71.2313 184.178 72.9763 181.645 72.9809 180.19C72.9855 178.735 69.9744 166.838 69.9744 166.838L84.4454 154.333L72.8244 139.715Z" fill="#EB9481"/>
<path d="M61.2126 149.545C61.2126 149.545 58.229 152.077 58.2152 152.082C55.4113 154.435 52.9941 156.548 51.8476 157.754C51.5818 158.033 51.35 158.342 51.157 158.675C51.157 158.675 51.157 158.698 51.157 158.707C51.2905 160.015 69.4265 182.971 70.3289 183.57C71.2313 184.169 72.9763 181.636 72.9809 180.181C72.9855 178.726 69.9744 166.829 69.9744 166.829L73.05 164.292L61.2126 149.545Z" fill="#212121"/>
<path d="M70.3058 183.588C69.3849 183.004 51.2674 160.047 51.1339 158.726C51.074 158.224 54.2647 155.388 58.2152 152.073L58.3441 151.967L70.2045 166.645L69.9513 166.838C69.9513 166.838 72.9624 178.731 72.9578 180.191C72.9532 181.65 71.2036 184.182 70.3058 183.588Z" fill="#CF2A51"/>
<path d="M70.987 182.626C68.0265 178.685 55.7103 163.054 52.4828 159.379C52.4551 159.352 52.4321 159.379 52.4597 159.379C55.3097 163.353 67.7503 178.883 70.9272 182.658C70.9917 182.755 71.0331 182.709 70.987 182.626Z" fill="#E0DCDD"/>
<path d="M70.8905 168.132C69.9696 166.387 68.2661 164.706 66.2632 164.402C66.185 164.402 66.1665 164.499 66.2218 164.536C67.8411 165.621 69.3399 166.876 70.6925 168.279C70.7134 168.301 70.7417 168.315 70.7719 168.317C70.8022 168.32 70.8323 168.311 70.8567 168.293C70.881 168.275 70.8979 168.249 70.9041 168.219C70.9103 168.189 70.9055 168.158 70.8905 168.132Z" fill="#E0DCDD"/>
<path d="M71.0932 169.753C70.1723 168.008 68.4688 166.332 66.489 166.023C66.4107 166.023 66.3969 166.12 66.4522 166.157C68.0701 167.242 69.5673 168.497 70.9182 169.9C70.94 169.911 70.9645 169.916 70.9887 169.913C71.0129 169.91 71.0358 169.9 71.0544 169.884C71.073 169.869 71.0867 169.848 71.0936 169.824C71.1005 169.801 71.1003 169.776 71.0932 169.753Z" fill="#E0DCDD"/>
<path d="M71.3003 171.378C70.3795 169.628 68.6759 167.952 66.6731 167.644C66.5948 167.644 66.581 167.745 66.6362 167.782C68.2541 168.865 69.7513 170.118 71.1023 171.52C71.1233 171.54 71.1506 171.552 71.1794 171.554C71.2082 171.556 71.2367 171.547 71.2601 171.531C71.2836 171.514 71.3004 171.489 71.3077 171.461C71.315 171.433 71.3124 171.404 71.3003 171.378Z" fill="#E0DCDD"/>
<path d="M80.5364 125.188C79.6155 130.419 58.4915 151.695 58.4915 151.695L73.9524 168.73C73.9524 168.73 103.88 137.422 102.038 125.948C100.413 115.975 84.496 76.0938 84.496 76.0938L67.2164 76.4989C67.2164 76.4989 81.4526 120.045 80.5364 125.188Z" fill="#37474F"/>
<path d="M75.5683 164.551C73.5103 162.106 74.1364 162.778 72.0507 160.356C71.0286 159.173 64.3157 151.396 63.1692 150.457C63.1416 150.457 63.1002 150.457 63.1186 150.503C63.9013 151.76 70.7523 159.417 71.7929 160.582C73.9246 162.962 73.3399 162.258 75.4763 164.61C75.4802 164.616 75.4853 164.622 75.4912 164.626C75.4972 164.63 75.5039 164.633 75.5109 164.634C75.518 164.636 75.5252 164.636 75.5323 164.634C75.5394 164.633 75.5462 164.63 75.5522 164.626C75.5583 164.623 75.5635 164.617 75.5676 164.612C75.5717 164.606 75.5745 164.599 75.576 164.592C75.5775 164.585 75.5776 164.577 75.5763 164.57C75.575 164.563 75.5723 164.557 75.5683 164.551Z" fill="#E0DCDD"/>
<path d="M83.4647 123.406C83.1885 122.113 82.8754 120.823 82.5715 119.539C81.9576 116.911 81.3023 114.29 80.6055 111.675C79.2365 106.491 77.7617 101.338 76.1809 96.2185C74.5878 91.0848 72.9119 85.9558 71.0011 80.928C70.7617 80.3064 70.5177 79.6894 70.2783 79.0863C70.2746 79.0759 70.267 79.0674 70.2571 79.0627C70.2471 79.0579 70.2357 79.0573 70.2253 79.061C70.215 79.0646 70.2065 79.0723 70.2017 79.0822C70.197 79.0921 70.1964 79.1035 70.2 79.1139C71.8713 84.1555 73.5933 89.1833 75.168 94.2571C76.7426 99.331 78.1975 104.386 79.5834 109.502C80.2786 112.066 80.9278 114.64 81.5678 117.218C81.8747 118.486 82.1817 119.755 82.4886 121.026C82.8563 122.312 83.1287 123.623 83.3036 124.949C83.3799 126.208 83.0577 127.46 82.3827 128.526C81.7612 129.599 81.0015 130.617 80.3108 131.629C78.8789 133.669 65.1814 149.669 64.7394 150.102C64.7026 150.138 64.7394 150.189 64.7947 150.152C66.6364 148.416 78.2758 135.221 79.7445 133.186C80.4674 132.182 81.1764 131.16 81.8717 130.133C82.5663 129.197 83.1201 128.164 83.5154 127.067C83.8175 125.863 83.8 124.601 83.4647 123.406Z" fill="#E0DCDD"/>
<path d="M80.9417 76.1768L80.2925 122.002C78.3495 110.566 67.2166 76.4991 67.2166 76.4991L80.9417 76.1768Z" fill="#E0DCDD"/>
<path d="M76.0703 161.092C76.0703 161.092 80.2141 179.168 80.2141 179.177C80.3476 182.861 80.5318 186.038 80.785 187.686C80.7829 187.695 80.7829 187.704 80.785 187.713C80.8003 188.105 80.9059 188.488 81.0935 188.832L81.1165 188.855C82.2307 189.555 111.504 189.316 112.503 188.975C113.502 188.634 112.6 185.692 111.458 184.799C110.316 183.906 99.0729 178.979 99.0729 178.979L94.7358 160.917L76.0703 161.092Z" fill="#EB9481"/>
<path d="M112.517 188.98C111.5 189.334 82.2445 189.564 81.1302 188.865L81.1072 188.842C80.9166 188.499 80.8108 188.115 80.7987 187.723C80.7967 187.718 80.7956 187.714 80.7956 187.709C80.7956 187.704 80.7967 187.699 80.7987 187.695C80.5501 186.047 80.3705 182.847 80.2324 179.191L79.5142 176.042L98.2809 175.604L99.0912 178.984C99.0912 178.984 110.33 183.91 111.481 184.808C112.632 185.706 113.539 188.625 112.517 188.98Z" fill="#212121"/>
<path d="M112.517 188.98C111.5 189.33 82.2491 189.56 81.1303 188.86C80.6975 188.602 80.4167 184.344 80.2095 179.191C80.2095 179.141 80.2095 179.086 80.2095 179.03L99.0867 178.676V178.993C99.0867 178.993 110.321 183.915 111.472 184.813C112.623 185.711 113.535 188.625 112.517 188.98Z" fill="#CF2A51"/>
<path d="M112.176 187.843C107.245 187.76 87.3459 187.893 82.4654 188.183C82.424 188.183 82.424 188.216 82.4654 188.216C87.3505 188.404 107.25 188.11 112.176 187.925C112.282 187.921 112.282 187.843 112.176 187.843Z" fill="#E0DCDD"/>
<path d="M100.671 179.025C98.7277 178.675 96.3565 178.993 94.8878 180.406C94.8279 180.462 94.8878 180.54 94.9707 180.522C96.819 179.906 98.7286 179.492 100.666 179.288C100.683 179.288 100.7 179.285 100.716 179.279C100.732 179.272 100.747 179.263 100.76 179.251C100.772 179.239 100.782 179.225 100.789 179.209C100.796 179.193 100.799 179.176 100.8 179.159C100.8 179.142 100.797 179.124 100.79 179.108C100.784 179.092 100.775 179.078 100.763 179.065C100.751 179.053 100.736 179.043 100.721 179.036C100.705 179.029 100.688 179.026 100.671 179.025Z" fill="#E0DCDD"/>
<path d="M102.079 179.859C100.136 179.509 97.7651 179.827 96.2918 181.24C96.2365 181.296 96.2918 181.374 96.3746 181.356C98.2247 180.74 100.136 180.327 102.075 180.122C102.092 180.122 102.109 180.119 102.125 180.113C102.141 180.106 102.156 180.097 102.168 180.085C102.181 180.073 102.19 180.059 102.197 180.043C102.204 180.027 102.208 180.01 102.208 179.993C102.208 179.975 102.205 179.958 102.199 179.942C102.193 179.926 102.183 179.912 102.171 179.899C102.159 179.887 102.145 179.877 102.129 179.87C102.113 179.863 102.096 179.86 102.079 179.859Z" fill="#E0DCDD"/>
<path d="M103.484 180.692C101.541 180.342 99.1695 180.66 97.7008 182.073C97.6409 182.129 97.7008 182.207 97.7836 182.189C99.6321 181.573 101.542 181.16 103.479 180.955C103.514 180.955 103.547 180.942 103.573 180.918C103.598 180.894 103.612 180.861 103.613 180.826C103.613 180.791 103.6 180.757 103.576 180.732C103.552 180.707 103.518 180.693 103.484 180.692Z" fill="#E0DCDD"/>
<path d="M82.8246 76.1262C82.8246 76.4899 81.4203 91.3201 80.9507 91.7391C80.481 92.1581 77.4239 94.3036 76.5168 94.8883C76.5168 94.8883 85.4029 120.497 87.7971 129.047C91.2733 141.446 99.7681 178.685 99.7681 178.685L79.4405 179.145C79.4405 179.145 72.4283 143.67 69.4494 131.86C66.8986 121.731 57.3127 91.403 57.3127 91.403C56.0334 86.5672 56.1628 81.4665 57.6856 76.7017C57.6856 76.7017 82.8292 76.1124 82.8246 76.1262Z" fill="#37474F"/>
<path d="M98.9485 174.748C95.7531 174.803 96.6694 174.748 93.4741 174.836C91.9132 174.882 81.6413 175.19 80.1909 175.489C80.1587 175.489 80.1633 175.549 80.1909 175.554C81.6597 175.738 91.9224 175.25 93.4833 175.176C96.674 175.02 95.7577 175.029 98.9485 174.84C98.9607 174.84 98.9724 174.835 98.981 174.827C98.9897 174.818 98.9945 174.806 98.9945 174.794C98.9945 174.782 98.9897 174.77 98.981 174.762C98.9724 174.753 98.9607 174.748 98.9485 174.748Z" fill="#E0DCDD"/>
<path d="M81.8348 90.9706C79.8833 92.1023 78.0346 93.4026 76.3098 94.8565C76.3022 94.8617 76.2957 94.8683 76.2907 94.8759C76.2857 94.8835 76.2822 94.8921 76.2805 94.9011C76.2788 94.91 76.2789 94.9193 76.2807 94.9282C76.2826 94.9372 76.2862 94.9457 76.2913 94.9532C76.2965 94.9608 76.3031 94.9673 76.3107 94.9723C76.3183 94.9773 76.3269 94.9807 76.3359 94.9825C76.3448 94.9842 76.3541 94.9841 76.363 94.9822C76.372 94.9804 76.3805 94.9768 76.388 94.9716C78.2573 93.7331 80.1773 92.5314 81.9821 91.1962C82.004 91.1737 82.0175 91.1444 82.0205 91.1132C82.0235 91.082 82.0158 91.0508 81.9986 91.0245C81.9815 90.9983 81.9559 90.9786 81.9262 90.9688C81.8964 90.959 81.8642 90.9597 81.8348 90.9706Z" fill="#E0DCDD"/>
<path d="M79.9517 76.9644C79.9517 76.8954 79.809 76.9046 79.8228 76.9644C80.2311 79.2334 80.5246 81.5215 80.7022 83.8201C80.7943 84.879 80.9877 90.8047 79.1046 90.7264C78.7869 90.7264 78.5797 90.4409 78.4462 89.9943C78.3478 89.3949 78.3231 88.7857 78.3725 88.1803C78.3725 86.9325 78.2988 85.694 78.1837 84.4509C77.989 82.139 77.5538 79.8537 76.8853 77.632C76.88 77.6187 76.87 77.6078 76.8573 77.6013C76.8445 77.5947 76.8298 77.593 76.8159 77.5963C76.802 77.5996 76.7897 77.6079 76.7813 77.6195C76.7729 77.6311 76.769 77.6454 76.7702 77.6597C77.3901 80.8032 77.7702 83.9892 77.9075 87.1904C77.9535 88.7328 77.599 91.1315 79.2151 91.0809C80.8311 91.0303 81.2133 87.0568 81.2225 85.9841C81.1931 82.935 80.7659 79.9029 79.9517 76.9644Z" fill="#E0DCDD"/>
<path d="M79.1734 90.8549C79.0839 91.2743 79.0193 91.6986 78.98 92.1256C78.9155 92.4617 78.9155 92.8071 78.98 93.1432C78.98 93.203 79.0813 93.1938 79.109 93.1432C79.2455 92.8146 79.3295 92.4665 79.3576 92.1118C79.4313 91.7159 79.5095 91.3245 79.5694 90.9285C79.5669 90.8821 79.5489 90.8379 79.5182 90.803C79.4876 90.768 79.4461 90.7444 79.4004 90.7359C79.3547 90.7274 79.3075 90.7345 79.2663 90.7561C79.2251 90.7777 79.1924 90.8125 79.1734 90.8549Z" fill="#E0DCDD"/>
<path d="M76.7333 164.062C76.6688 163.602 76.5952 163.141 76.5169 162.658C76.3696 161.76 76.1946 160.867 76.0565 159.969C75.7342 158.169 75.3843 156.373 75.0205 154.582C74.2977 151.009 73.4781 147.446 72.6217 143.905C72.1337 141.902 71.5766 139.922 70.9919 137.947C70.9504 137.809 70.757 137.883 70.7847 138.016C71.153 139.826 71.5121 141.64 71.9265 143.445C72.3409 145.249 72.7507 147.04 73.1558 148.841C73.9478 152.4 74.6936 155.973 75.481 159.532C75.7066 160.535 75.9092 161.544 76.1302 162.547C76.2407 163.051 76.3558 163.553 76.4755 164.053C76.5952 164.55 76.7609 165.038 76.8576 165.54C76.8576 165.586 76.9359 165.563 76.9267 165.54C76.8208 165.038 76.8024 164.546 76.7333 164.062Z" fill="#E0DCDD"/>
<path d="M90.1176 136.727C89.3625 133.371 88.3726 130.065 87.3781 126.773C85.3753 120.147 83.0455 113.623 80.725 107.104L78.7176 101.468C78.3815 100.547 76.7286 95.4596 76.5306 94.9808C76.5269 94.9704 76.5193 94.9619 76.5094 94.9572C76.4994 94.9524 76.488 94.9518 76.4776 94.9555C76.4673 94.9592 76.4588 94.9668 76.454 94.9767C76.4493 94.9867 76.4487 94.9981 76.4523 95.0084C76.9127 96.735 77.5942 99.2535 78.1375 100.966C78.6807 102.679 79.2655 104.327 79.8364 106.031C80.9506 109.332 82.0833 112.629 83.1698 115.944C85.3154 122.491 87.4472 129.038 89.2244 135.7C89.717 137.565 90.2143 139.43 90.6701 141.308C91.1259 143.187 91.5265 145.065 91.9639 146.944C91.9639 146.995 92.0606 146.976 92.056 146.944C91.5814 143.508 90.9344 140.098 90.1176 136.727Z" fill="#E0DCDD"/>
<path d="M77.8934 154.664C76.6273 148.255 75.1309 141.888 73.501 135.566C71.8711 129.245 70.0525 122.895 68.0727 116.638C66.0929 110.381 63.9289 104.184 61.5992 98.0419C60.4362 95.1546 59.4446 92.2013 58.6294 89.1972C57.8928 86.2045 57.4738 82.9631 58.1046 79.9151C58.2616 79.1418 58.4771 78.3814 58.7492 77.6407C58.7492 77.59 58.6893 77.5486 58.6709 77.5992C56.3688 83.3545 58.0908 89.5471 60.0844 95.0952C61.1756 98.1478 62.3312 101.177 63.4086 104.235C64.5198 107.372 65.5833 110.524 66.5993 113.692C68.6252 119.972 70.5129 126.289 72.2211 132.661C73.9292 139.033 75.4716 145.442 76.8253 151.893C78.1789 158.343 79.3898 164.867 80.5869 171.373C80.7434 172.22 80.8723 173.072 81.0013 173.924C81.0013 173.97 81.0841 173.97 81.0795 173.924C80.1633 167.492 79.1596 161.064 77.8934 154.664Z" fill="#E0DCDD"/>
<path d="M73.7959 49.7992C75.9 57.5711 80.8403 69.5973 84.9565 69.45C88.7089 69.3026 96.9274 62.447 100.394 60.1817C103.861 57.9164 95.7901 49.5 93.8011 50.9411C90.7301 53.1695 86.1535 57.1291 85.357 56.8943C84.3671 56.5996 83.0549 54.2147 77.2905 47.2255C74.9055 44.3525 72.875 46.4888 73.7959 49.7992Z" fill="#EB9481"/>
<path d="M97.4753 47.5392C99.1144 46.913 100.947 46.0659 102.789 46.0567C104.63 46.0475 106.209 48.4416 106.228 49.1369C106.246 49.8321 105.648 54.2015 103.811 54.2291C101.974 54.2568 103.005 50.9141 102.927 50.5458C102.848 50.1774 102.766 49.6802 102.42 49.7262C102.075 49.7723 96.071 52.788 96.071 52.788L97.4753 47.5392Z" fill="#EB9481"/>
<path d="M97.595 47.787C97.7009 47.787 102.581 45.729 104.423 45.7198C106.265 45.7105 107.867 48.0909 107.867 48.7954C107.867 49.4998 107.287 53.86 105.45 53.8876C103.613 53.9152 104.644 50.5726 104.566 50.2042C104.487 49.8359 104.405 49.3341 104.059 49.3801C103.714 49.4261 97.7101 52.4465 97.7101 52.4465L97.595 47.787Z" fill="#EB9481"/>
<path d="M104.814 53.6718C104.613 53.3453 104.499 52.9728 104.483 52.5898C104.437 52.1986 104.451 51.8027 104.524 51.4157C104.618 51.0824 104.684 50.7421 104.722 50.3982C104.712 50.0579 104.617 49.7256 104.446 49.4313C104.299 49.1781 104.027 49.2701 103.797 49.3576C103.459 49.4934 103.128 49.6471 102.807 49.818L101.776 50.3936C101.412 50.576 101.06 50.7805 100.721 51.0059C100.714 51.009 100.709 51.0146 100.707 51.0215C100.704 51.0284 100.704 51.0361 100.707 51.0428C100.71 51.0495 100.716 51.0547 100.723 51.0573C100.73 51.0599 100.737 51.0596 100.744 51.0566C101.059 50.9191 101.366 50.7654 101.665 50.5962L102.706 50.0897C103.032 49.9378 103.35 49.7628 103.682 49.6293C103.797 49.5786 104.027 49.4451 104.142 49.4727C104.257 49.5004 104.358 49.8457 104.395 49.9562C104.478 50.2847 104.464 50.6302 104.354 50.9507C104.264 51.2818 104.209 51.6212 104.188 51.9636C104.162 52.2861 104.195 52.6105 104.285 52.9213C104.407 53.198 104.561 53.4592 104.745 53.6994C104.782 53.7408 104.842 53.6994 104.814 53.6718Z" fill="#E0DCDD"/>
<path d="M91.8765 52.7509C91.8765 52.7509 96.8628 47.9855 97.9034 47.0417C99.9891 45.1401 108.866 41.268 110.114 41.1069C111.361 40.9457 111.868 43.4964 105.846 46.3004C102.673 47.7737 102.162 49.6246 102.231 50.6422C102.3 51.6597 103.332 53.5336 105.04 53.4461C106.748 53.3586 107.802 50.8355 109.372 50.5225C110.942 50.2094 109.966 53.1146 108.912 54.8044C107.784 56.4354 106.216 57.7127 104.391 58.4877C102.922 59.0771 98.4052 61.1582 98.4052 61.1582L91.8765 52.7509Z" fill="#EB9481"/>
<path d="M107.139 52.1936C106.504 52.7093 105.79 53.3723 104.943 53.423C104.096 53.4736 103.484 52.9211 103.06 52.2167C102.595 51.5249 102.414 50.681 102.554 49.8593C102.736 49.1159 103.128 48.4402 103.682 47.9117C104.369 47.2721 105.144 46.7341 105.984 46.3141C106.021 46.3141 105.984 46.2404 105.947 46.2588C105.169 46.6318 102.724 47.6907 102.305 49.8639C102.169 50.7032 102.358 51.5628 102.834 52.2673C103.23 52.9395 103.797 53.5841 104.63 53.6486C105.643 53.7084 106.495 52.8658 107.208 52.2351C107.218 52.189 107.172 52.166 107.139 52.1936Z" fill="#E0DCDD"/>
<path d="M91.8626 52.1017L99.7588 63.7457C99.7588 63.7457 87.8247 70.8132 84.3854 69.8002C80.9461 68.7873 75.5407 59.1001 73.211 50.5455C70.8813 41.9908 76.2452 45.1585 78.3585 47.7829C80.4718 50.4073 85.0622 56.4388 85.3062 56.3514C85.5503 56.2639 91.8626 52.1017 91.8626 52.1017Z" fill="#CF2A51"/>
<path d="M96.3288 65.6563C95.5876 66.0523 94.7726 66.4713 93.9162 66.8903L87.033 55.2508C87.7236 54.7904 88.5247 54.2839 89.2752 53.7959C91.4438 57.4332 94.0774 61.8579 96.3288 65.6563Z" fill="#212121"/>
<path d="M92.9861 67.3414L92.1941 67.7052L85.4167 56.2729C85.5641 56.19 85.8127 56.0335 86.135 55.8125C88.2667 59.4038 90.8037 63.6673 92.9861 67.3414Z" fill="#212121"/>
<path d="M91.3332 68.0873C88.6029 69.2752 85.9186 70.1546 84.5005 69.8323L84.3762 69.8001C80.9323 68.7871 75.5362 59.1045 73.2018 50.5453C72.8546 49.4004 72.6611 48.2144 72.6263 47.0185C72.6263 46.9724 72.6263 46.9356 72.6263 46.8896C72.6263 46.8435 72.6263 46.756 72.6263 46.687C72.624 46.6594 72.624 46.6317 72.6263 46.6041C72.6213 46.5428 72.6213 46.4812 72.6263 46.4199L91.3332 68.0873Z" fill="#E0DCDD"/>
<path d="M95.4771 62.6917C95.2284 62.2773 94.9706 61.8629 94.7174 61.4531C94.2063 60.629 91.1399 55.7439 89.9382 54.266C89.906 54.2245 89.8461 54.266 89.8645 54.3166C90.7209 56.0294 93.8932 60.8223 94.4227 61.6143C94.6943 62.0148 94.9614 62.42 95.2376 62.8206C95.5139 63.2211 95.8362 63.5941 96.1124 63.9992C96.1401 64.0361 96.2045 63.9992 96.1815 63.9624C95.9283 63.548 95.7257 63.106 95.4771 62.6917Z" fill="#E0DCDD"/>
<path d="M55.9775 84.2207C56.0512 84.299 86.508 80.6663 86.775 80.3394C87.1526 79.8789 79.3669 49.528 76.0749 45.5224C75.3704 44.666 73.1374 44.4956 71.2543 44.7949C70.7631 44.8672 70.2793 44.9827 69.8085 45.1402H69.7625C69.3814 45.2635 69.0247 45.452 68.7081 45.6973C63.5883 50.0759 59.6517 64.9061 58.7677 69.3537C57.2943 76.6928 55.7151 83.9398 55.9775 84.2207Z" fill="#CF2A51"/>
<path d="M86.1487 77.0472C78.782 78.0003 62.8008 80.0722 56.447 80.8319C56.668 79.7038 56.9351 78.3594 57.2389 76.8768L85.2463 73.373C85.6008 74.7543 85.9093 76.0066 86.1487 77.0472Z" fill="#212121"/>
<path d="M84.8689 71.8766C77.5943 72.8205 64.15 74.5563 57.5476 75.362L57.8054 74.1005L84.5697 70.7256C84.671 71.1123 84.7723 71.4991 84.8689 71.8766Z" fill="#212121"/>
<path d="M66.6362 53.6574C68.1787 61.5996 75.2185 76.3515 79.6109 77.6545C84.6985 79.1601 102.089 73.1516 105.468 70.5502C106.813 69.5189 99.3123 60.8814 97.641 61.526C90.5689 64.3161 84.2888 65.8125 83.3449 65.2093C81.9084 64.2885 75.9782 56.1713 72.1014 51.1435C67.2348 44.8265 65.941 50.0983 66.6362 53.6574Z" fill="#EB9481"/>
<path d="M105.021 70.8038C105.795 70.5045 111.071 66.485 112.609 64.6203C114.281 62.6881 115.625 60.4951 116.587 58.1284C118.093 54.3806 118.779 51.6503 118.369 50.444C117.909 49.0397 117.757 48.8141 114.188 55.0482C112.172 58.5796 110.178 59.017 108.442 59.0216C104.169 59.0415 99.9625 60.0868 96.1768 62.0696C96.1768 62.0696 102.052 71.941 105.021 70.8038Z" fill="#EB9481"/>
<path d="M120.924 45.7894L111.928 57.7005C111.799 57.864 111.626 57.9876 111.43 58.0569C111.233 58.1262 111.021 58.1383 110.818 58.0918L104.303 56.0936C104.219 56.0764 104.142 56.0361 104.08 55.9774C104.017 55.9186 103.973 55.8436 103.951 55.7609C103.929 55.6781 103.93 55.5909 103.955 55.509C103.98 55.427 104.027 55.3537 104.091 55.2971L113.088 43.386C113.216 43.2216 113.389 43.0973 113.586 43.028C113.782 42.9586 113.995 42.947 114.198 42.9946L120.713 44.9929C120.796 45.0101 120.874 45.0503 120.936 45.1091C120.998 45.1679 121.043 45.2428 121.065 45.3256C121.087 45.4083 121.085 45.4956 121.061 45.5775C121.036 45.6594 120.989 45.7328 120.924 45.7894Z" fill="#37474F"/>
<path d="M120.128 44.7948L113.613 42.7966C113.409 42.7506 113.197 42.7634 113.001 42.8335C112.804 42.9036 112.632 43.0281 112.503 43.1925L103.511 55.1036C103.441 55.1591 103.389 55.2336 103.361 55.3182C103.333 55.4027 103.33 55.4937 103.352 55.58C103.374 55.6663 103.421 55.7443 103.487 55.8043C103.553 55.8644 103.635 55.9041 103.723 55.9185L110.238 57.9168C110.441 57.9621 110.653 57.9495 110.849 57.8803C111.045 57.8111 111.218 57.6881 111.348 57.5254L120.34 45.6143C120.411 45.5593 120.465 45.4844 120.494 45.3992C120.523 45.3139 120.527 45.222 120.504 45.1347C120.481 45.0475 120.434 44.9687 120.367 44.9083C120.3 44.8479 120.217 44.8084 120.128 44.7948ZM111.21 57.0097C111.093 57.1639 110.935 57.282 110.754 57.3504C110.573 57.4188 110.377 57.4348 110.187 57.3965L104.363 55.6101C104.036 55.5088 103.963 55.1496 104.202 54.8596L112.577 43.7681C113.037 43.1327 113.346 43.1787 113.673 43.28L114.838 43.6391C114.907 43.6391 114.911 43.745 114.838 43.8279L114.81 43.8647C114.658 44.0673 114.782 44.1042 114.934 44.1502L117.632 44.979C117.704 45.0191 117.789 45.0296 117.868 45.0081C117.947 44.9865 118.015 44.9348 118.056 44.8639L118.084 44.827C118.109 44.7872 118.144 44.7552 118.187 44.7348C118.229 44.7144 118.276 44.7065 118.323 44.7119L119.492 45.071C119.815 45.1677 120.017 45.3335 119.575 45.9182L111.21 57.0097Z" fill="#E0DCDD"/>
<path d="M116.845 44.4311L116.113 44.2009C116.109 44.1978 116.106 44.194 116.104 44.1896C116.102 44.1852 116.101 44.1804 116.101 44.1755C116.101 44.1707 116.102 44.1658 116.104 44.1615C116.106 44.1571 116.109 44.1532 116.113 44.1502C116.122 44.1383 116.134 44.1292 116.148 44.1243C116.162 44.1194 116.177 44.1188 116.191 44.1226L116.928 44.3482C116.933 44.351 116.937 44.3551 116.939 44.3599C116.942 44.3648 116.943 44.3702 116.943 44.3758C116.943 44.3814 116.942 44.3868 116.939 44.3917C116.937 44.3965 116.933 44.4006 116.928 44.4034C116.918 44.4153 116.905 44.4242 116.89 44.4291C116.876 44.4339 116.86 44.4346 116.845 44.4311Z" fill="#0D0D0D"/>
<path d="M119.585 45.9177L111.209 57.0092C111.093 57.1634 110.935 57.2815 110.754 57.3499C110.573 57.4183 110.377 57.4343 110.187 57.396L104.363 55.6095C104.036 55.5082 103.962 55.1491 104.202 54.8591L112.577 43.7675C113.037 43.1322 113.346 43.1782 113.673 43.2795L114.838 43.6386C114.907 43.6386 114.911 43.7445 114.838 43.8274L114.81 43.8642C114.658 44.0668 114.782 44.1036 114.934 44.1497L117.632 44.9784C117.704 45.0186 117.788 45.0291 117.868 45.0075C117.947 44.986 118.015 44.9342 118.056 44.8633L118.084 44.8265C118.109 44.7866 118.144 44.7547 118.187 44.7343C118.229 44.7139 118.276 44.706 118.323 44.7114L119.492 45.0705C119.838 45.1672 120.027 45.3284 119.585 45.9177Z" fill="#0D0D0D"/>
<path d="M119.584 45.9177L118.958 46.7465L111.951 44.5963L112.577 43.7675C113.037 43.1322 113.346 43.1782 113.673 43.2795L114.838 43.6386C114.907 43.6386 114.911 43.7445 114.838 43.8274L114.81 43.8642C114.658 44.0668 114.782 44.1036 114.934 44.1497L117.632 44.9784C117.704 45.0186 117.788 45.0291 117.868 45.0075C117.947 44.986 118.014 44.9342 118.056 44.8633L118.083 44.8265C118.108 44.7866 118.144 44.7547 118.187 44.7343C118.229 44.7139 118.276 44.706 118.323 44.7114L119.488 45.0705C119.838 45.1672 120.026 45.3284 119.584 45.9177Z" fill="#CF2A51"/>
<path d="M112.964 44.4081L112.89 44.1733L113.226 44.0674L113.235 44.1042L112.959 44.1963L113.019 44.3897L112.964 44.4081Z" fill="#0D0D0D"/>
<path d="M118.944 45.9457C118.935 45.9518 118.924 45.9551 118.912 45.9551C118.901 45.9551 118.89 45.9518 118.88 45.9457C118.876 45.9432 118.873 45.9398 118.871 45.9357C118.869 45.9317 118.868 45.9272 118.868 45.9227C118.868 45.9181 118.869 45.9136 118.871 45.9096C118.873 45.9056 118.876 45.9022 118.88 45.8997C118.887 45.8893 118.897 45.8812 118.908 45.8763C118.92 45.8714 118.932 45.8699 118.944 45.872C118.954 45.9043 118.963 45.9273 118.944 45.9457Z" fill="#0D0D0D"/>
<path d="M118.848 46.0751C118.837 46.0817 118.825 46.0852 118.813 46.0852C118.801 46.0852 118.789 46.0817 118.779 46.0751C118.775 46.0726 118.772 46.0692 118.77 46.0652C118.767 46.0611 118.766 46.0567 118.766 46.0521C118.766 46.0475 118.767 46.0431 118.77 46.039C118.772 46.035 118.775 46.0316 118.779 46.0291C118.785 46.0183 118.795 46.0098 118.806 46.0048C118.818 45.9999 118.831 45.9987 118.843 46.0015C118.853 46.0008 118.863 46.0041 118.87 46.0106C118.877 46.0171 118.882 46.0262 118.882 46.036C118.883 46.0458 118.88 46.0554 118.873 46.0627C118.867 46.07 118.858 46.0745 118.848 46.0751Z" fill="#0D0D0D"/>
<path d="M118.751 46.2036C118.741 46.2101 118.729 46.2136 118.717 46.2136C118.704 46.2136 118.692 46.2101 118.682 46.2036C118.659 46.2036 118.654 46.176 118.682 46.1529C118.691 46.1438 118.702 46.1369 118.714 46.1329C118.726 46.1289 118.739 46.1279 118.751 46.1299C118.761 46.1299 118.77 46.1338 118.777 46.1407C118.784 46.1476 118.788 46.157 118.788 46.1668C118.788 46.1765 118.784 46.1859 118.777 46.1928C118.77 46.1997 118.761 46.2036 118.751 46.2036Z" fill="#0D0D0D"/>
<path d="M114.451 43.828H114.419C114.414 43.8096 114.404 43.7929 114.39 43.7799C114.376 43.7669 114.359 43.758 114.34 43.7543C114.295 43.7407 114.247 43.7407 114.202 43.7543H114.225H114.271H114.349H114.382V43.7819L114.451 43.828Z" fill="#0D0D0D"/>
<path d="M114.216 43.8144C114.247 43.8053 114.281 43.8053 114.313 43.8144C114.331 43.8148 114.35 43.8212 114.365 43.8328C114.38 43.8445 114.39 43.8606 114.395 43.8789H114.368C114.363 43.8676 114.355 43.8575 114.345 43.8496C114.336 43.8416 114.325 43.8359 114.313 43.8328C114.284 43.8142 114.249 43.8075 114.216 43.8144Z" fill="#0D0D0D"/>
<path d="M114.313 43.8691H114.285C114.283 43.8626 114.28 43.8567 114.275 43.8519C114.27 43.8471 114.264 43.8435 114.257 43.8415C114.241 43.8372 114.223 43.8372 114.207 43.8415C114.271 43.8139 114.313 43.8277 114.313 43.8691Z" fill="#0D0D0D"/>
<path d="M114.271 43.8829C114.271 43.8829 114.271 43.8829 114.244 43.8829C114.216 43.8829 114.244 43.8829 114.244 43.8829H114.267C114.267 43.8829 114.276 43.8783 114.271 43.8829Z" fill="#0D0D0D"/>
<path d="M113.327 43.5196C113.335 43.5092 113.344 43.5007 113.356 43.4951C113.367 43.4894 113.379 43.4868 113.392 43.4874C113.397 43.4903 113.401 43.4943 113.403 43.4991C113.406 43.504 113.408 43.5094 113.408 43.515C113.408 43.5206 113.406 43.526 113.403 43.5309C113.401 43.5357 113.397 43.5398 113.392 43.5426C113.383 43.5546 113.371 43.5636 113.357 43.5685C113.343 43.5735 113.328 43.5741 113.314 43.5703C113.31 43.5663 113.308 43.5616 113.307 43.5566C113.306 43.5515 113.306 43.5463 113.308 43.5414C113.309 43.5364 113.311 43.5319 113.315 43.5281C113.318 43.5243 113.323 43.5214 113.327 43.5196Z" fill="#0D0D0D"/>
<path d="M113.475 43.5652C113.484 43.5533 113.496 43.5443 113.51 43.5394C113.524 43.5344 113.539 43.5338 113.553 43.5376C113.558 43.5405 113.562 43.5445 113.565 43.5494C113.567 43.5542 113.569 43.5597 113.569 43.5652C113.569 43.5708 113.567 43.5763 113.565 43.5811C113.562 43.586 113.558 43.59 113.553 43.5929C113.544 43.6039 113.531 43.6123 113.518 43.6172C113.504 43.622 113.489 43.6232 113.475 43.6205C113.47 43.6176 113.466 43.6136 113.463 43.6087C113.461 43.6039 113.459 43.5984 113.459 43.5929C113.459 43.5873 113.461 43.5818 113.463 43.577C113.466 43.5722 113.47 43.5681 113.475 43.5652Z" fill="#0D0D0D"/>
<path d="M113.622 43.6068C113.63 43.5955 113.642 43.5872 113.655 43.583C113.668 43.5789 113.683 43.5791 113.696 43.5837C113.723 43.5837 113.728 43.616 113.696 43.639C113.684 43.6464 113.67 43.6503 113.657 43.6503C113.643 43.6503 113.629 43.6464 113.617 43.639C113.608 43.6574 113.604 43.6298 113.622 43.6068Z" fill="#0D0D0D"/>
<path d="M113.765 43.6527C113.775 43.642 113.787 43.6338 113.801 43.629C113.814 43.6242 113.829 43.6228 113.843 43.6251C113.848 43.6279 113.852 43.632 113.855 43.6368C113.857 43.6417 113.859 43.6471 113.859 43.6527C113.859 43.6583 113.857 43.6637 113.855 43.6686C113.852 43.6734 113.848 43.6775 113.843 43.6803C113.834 43.6918 113.822 43.7005 113.808 43.7054C113.794 43.7102 113.779 43.7111 113.765 43.7079C113.76 43.7051 113.756 43.701 113.753 43.6962C113.751 43.6914 113.749 43.6859 113.749 43.6803C113.749 43.6748 113.751 43.6693 113.753 43.6645C113.756 43.6596 113.76 43.6556 113.765 43.6527Z" fill="#0D0D0D"/>
<path d="M113.912 43.699C113.921 43.6871 113.933 43.6781 113.947 43.6731C113.961 43.6682 113.976 43.6676 113.99 43.6714C114.018 43.6714 114.023 43.7036 113.99 43.7267C113.982 43.7386 113.969 43.7476 113.955 43.7525C113.942 43.7575 113.926 43.7581 113.912 43.7543C113.907 43.7514 113.903 43.7474 113.901 43.7425C113.898 43.7377 113.896 43.7322 113.896 43.7267C113.896 43.7211 113.898 43.7156 113.901 43.7108C113.903 43.7059 113.907 43.7019 113.912 43.699Z" fill="#0D0D0D"/>
<path d="M119.327 45.5821L118.733 45.3979L118.986 45.0664L119.58 45.246L119.327 45.5821Z" fill="#0D0D0D"/>
<path d="M119.281 45.2963L119.037 45.2227L118.958 45.3239L119.202 45.4022L119.281 45.2963Z" fill="#0D0D0D"/>
<path d="M119.345 45.43L119.313 45.4208L119.377 45.3379L119.41 45.3471L119.345 45.43Z" fill="#0D0D0D"/>
<path d="M105.348 55.0759L105.298 55.0575L105.132 55.2785L105.031 55.2463L105.114 55.1358L104.939 55.0805L104.856 55.191L104.754 55.1634L104.92 54.9424L104.865 54.9286L105.275 54.7812L105.348 55.0759Z" fill="#212121"/>
<path d="M110.823 56.5719L110.238 56.3923L110.293 56.3232L110.878 56.4982L110.823 56.5719Z" fill="#212121"/>
<path d="M110.685 56.7562L110.104 56.5766L110.16 56.5029L110.74 56.6825L110.685 56.7562Z" fill="#212121"/>
<path d="M110.546 56.9407L109.966 56.7612L110.022 56.6875L110.602 56.8671L110.546 56.9407Z" fill="#212121"/>
<path d="M107.977 55.8443L107.692 55.9502L107.646 55.743L107.692 55.7246L107.733 55.8996L107.963 55.8075L107.977 55.8443Z" fill="#212121"/>
<path d="M107.687 56.3372C107.631 56.3464 107.573 56.3464 107.517 56.3372C107.45 56.3165 107.389 56.2809 107.338 56.2331C107.287 56.1852 107.247 56.1263 107.222 56.0609C107.202 55.9892 107.199 55.9136 107.214 55.8406C107.23 55.7676 107.262 55.6995 107.31 55.6419C107.393 55.5365 107.506 55.4574 107.633 55.4142C107.76 55.3709 107.897 55.3652 108.028 55.3979C108.095 55.4168 108.157 55.4519 108.207 55.5C108.258 55.5482 108.296 55.6079 108.318 55.6742C108.339 55.7455 108.343 55.8209 108.328 55.8938C108.314 55.9668 108.282 56.0352 108.235 56.0931C108.167 56.1716 108.083 56.2342 107.988 56.2764C107.894 56.3185 107.791 56.3393 107.687 56.3372ZM107.848 55.8123C107.792 55.8172 107.739 55.8397 107.696 55.8767C107.759 55.8748 107.819 55.8521 107.867 55.8123H107.848Z" fill="#212121"/>
<path d="M115.234 44.9608C115.271 44.9157 115.32 44.8816 115.375 44.8621C115.43 44.8427 115.489 44.8386 115.547 44.8503C115.566 44.855 115.585 44.8641 115.601 44.8768C115.617 44.8895 115.63 44.9056 115.639 44.924C115.639 44.924 115.639 44.9562 115.616 44.9608C115.593 44.9654 115.579 44.9608 115.574 44.9608C115.568 44.9479 115.559 44.9367 115.548 44.9279C115.537 44.9191 115.524 44.913 115.51 44.9101C115.471 44.8964 115.429 44.8964 115.39 44.9101C115.353 44.9234 115.32 44.9455 115.293 44.9746C115.283 44.9871 115.275 45.0019 115.271 45.0179C115.267 45.0339 115.267 45.0506 115.27 45.0667C115.276 45.082 115.285 45.0959 115.297 45.107C115.309 45.1182 115.324 45.1265 115.339 45.1311C115.373 45.1404 115.408 45.1404 115.441 45.1311H115.478C115.477 45.1394 115.473 45.147 115.467 45.1528C115.461 45.1587 115.454 45.1624 115.445 45.1634C115.397 45.1772 115.346 45.1772 115.298 45.1634C115.279 45.1565 115.261 45.1452 115.247 45.1304C115.232 45.1156 115.222 45.0977 115.216 45.0781C115.209 45.0585 115.208 45.0377 115.211 45.0173C115.214 44.997 115.222 44.9776 115.234 44.9608Z" fill="#0D0D0D"/>
<path d="M115.519 45.2224L115.722 44.9554C115.729 44.9513 115.738 44.9492 115.747 44.9492C115.756 44.9492 115.764 44.9513 115.772 44.9554C115.775 44.9575 115.777 44.9603 115.779 44.9635C115.781 44.9667 115.781 44.9702 115.781 44.9738C115.781 44.9774 115.781 44.9809 115.779 44.9841C115.777 44.9873 115.775 44.9901 115.772 44.9922L115.689 45.0981L115.823 45.1395L115.906 45.029C115.913 45.025 115.921 45.0229 115.929 45.0229C115.937 45.0229 115.945 45.025 115.952 45.029C115.952 45.029 115.975 45.029 115.952 45.0613L115.749 45.3329C115.742 45.3369 115.734 45.3391 115.726 45.3391C115.718 45.3391 115.71 45.3369 115.703 45.3329C115.703 45.3329 115.68 45.3329 115.703 45.2961L115.786 45.1856L115.653 45.1441L115.57 45.2546C115.562 45.2587 115.553 45.2608 115.544 45.2608C115.535 45.2608 115.527 45.2587 115.519 45.2546C115.519 45.2546 115.51 45.2408 115.519 45.2224Z" fill="#0D0D0D"/>
<path d="M116.076 45.3289L115.947 45.2921L115.878 45.3427C115.873 45.3459 115.866 45.3476 115.86 45.3476C115.853 45.3476 115.847 45.3459 115.841 45.3427C115.841 45.3427 115.841 45.3151 115.841 45.3013L116.159 45.0664C116.165 45.0632 116.173 45.0615 116.18 45.0615C116.187 45.0615 116.194 45.0632 116.2 45.0664C116.2 45.0664 116.2 45.0664 116.2 45.0895L116.113 45.3933C116.109 45.4014 116.104 45.4083 116.096 45.4132C116.089 45.4181 116.08 45.4208 116.072 45.421C116.072 45.421 116.072 45.421 116.072 45.398L116.076 45.3289ZM116.076 45.2736L116.108 45.1585L115.993 45.246L116.076 45.2736Z" fill="#0D0D0D"/>
<path d="M116.536 45.2365L116.458 45.2089L116.274 45.4575C116.266 45.462 116.258 45.4643 116.249 45.4643C116.24 45.4643 116.231 45.462 116.223 45.4575V45.4253L116.408 45.1813L116.329 45.1536C116.329 45.1536 116.306 45.1536 116.329 45.1214C116.336 45.1174 116.344 45.1152 116.352 45.1152C116.36 45.1152 116.368 45.1174 116.375 45.1214L116.596 45.1905V45.2227C116.589 45.2312 116.58 45.2372 116.569 45.2397C116.558 45.2422 116.547 45.2411 116.536 45.2365Z" fill="#0D0D0D"/>
<path d="M109.22 49.4632L114.23 51.001L115.289 49.6013L110.275 48.0635L109.22 49.4632Z" fill="#455A64"/>
<path d="M114.695 51.1439L114.23 51.0012L114.557 50.5684L114.695 51.1439Z" fill="#455A64"/>
<path d="M114.801 49.7814L110.363 48.4185L110.381 48.3955L114.819 49.7537L114.801 49.7814Z" fill="#0D0D0D"/>
<path d="M113.77 49.6431L110.252 48.5657L110.27 48.5381L113.788 49.6155L113.77 49.6431Z" fill="#0D0D0D"/>
<path d="M114.11 50.0986L110.035 48.8509L110.054 48.8232L114.129 50.0756L114.11 50.0986Z" fill="#0D0D0D"/>
<path d="M114.363 50.3563L109.929 48.9935L109.948 48.9658L114.386 50.3287L114.363 50.3563Z" fill="#0D0D0D"/>
<path d="M114.258 50.4989L109.819 49.136L109.838 49.1084L114.276 50.4712L114.258 50.4989Z" fill="#0D0D0D"/>
<path d="M112.918 50.2642L109.708 49.2789L109.732 49.2559L112.941 50.2366L112.918 50.2642Z" fill="#0D0D0D"/>
<path d="M106.725 52.7649L111.739 54.3027L112.793 52.903L107.784 51.3652L106.725 52.7649Z" fill="#455A64"/>
<path d="M112.204 54.4449L111.739 54.3022L112.061 53.874L112.204 54.4449Z" fill="#455A64"/>
<path d="M112.305 53.0822L107.867 51.7193L107.885 51.6963L112.324 53.0545L112.305 53.0822Z" fill="#0D0D0D"/>
<path d="M111.274 52.9439L107.756 51.8665L107.779 51.8389L111.297 52.9162L111.274 52.9439Z" fill="#0D0D0D"/>
<path d="M111.615 53.3994L107.544 52.1517L107.563 52.124L111.633 53.3764L111.615 53.3994Z" fill="#0D0D0D"/>
<path d="M111.873 53.658L107.434 52.2952L107.453 52.2676L111.891 53.6304L111.873 53.658Z" fill="#0D0D0D"/>
<path d="M111.762 53.8006L107.324 52.4378L107.347 52.4102L111.785 53.773L111.762 53.8006Z" fill="#0D0D0D"/>
<path d="M110.427 53.5659L107.218 52.5806L107.236 52.5576L110.445 53.5429L110.427 53.5659Z" fill="#0D0D0D"/>
<path d="M116.799 48.3578L111.79 46.82L112.678 45.6367L117.692 47.1745L116.799 48.3578Z" fill="#CF2A51"/>
<path d="M111.325 46.6778L111.79 46.8205L112.112 46.3877L111.325 46.6778Z" fill="#CF2A51"/>
<path d="M116.481 47.1056L112.789 45.9729L112.807 45.9453L116.504 47.0826L116.481 47.1056Z" fill="#0D0D0D"/>
<path d="M117.117 47.4793L112.678 46.1165L112.701 46.0889L117.135 47.4517L117.117 47.4793Z" fill="#0D0D0D"/>
<path d="M117.006 47.6212L112.572 46.2584L112.591 46.2354L117.029 47.5936L117.006 47.6212Z" fill="#0D0D0D"/>
<path d="M116.55 47.6589L112.462 46.4065L112.48 46.3789L116.569 47.6313L116.55 47.6589Z" fill="#0D0D0D"/>
<path d="M116.79 47.9074L112.356 46.5491L112.374 46.5215L116.813 47.8843L116.79 47.9074Z" fill="#0D0D0D"/>
<path d="M115.524 47.6954L112.246 46.6917L112.264 46.6641L115.547 47.6724L115.524 47.6954Z" fill="#0D0D0D"/>
<path d="M115.993 49.4214L110.984 47.8836L111.642 47.0088L116.656 48.5466L115.993 49.4214Z" fill="#CF2A51"/>
<path d="M110.519 47.7415L110.984 47.8842L111.306 47.4561L110.519 47.7415Z" fill="#CF2A51"/>
<path d="M116.182 48.7032L111.753 47.345L111.771 47.3174L116.2 48.6756L116.182 48.7032Z" fill="#0D0D0D"/>
<path d="M115.289 48.6064L111.642 47.4876L111.665 47.46L115.312 48.5788L115.289 48.6064Z" fill="#0D0D0D"/>
<path d="M115.547 48.8605L111.536 47.6311L111.555 47.6035L115.57 48.8374L115.547 48.8605Z" fill="#0D0D0D"/>
<path d="M114.52 48.7222L111.426 47.7737L111.449 47.7461L114.543 48.6992L114.52 48.7222Z" fill="#0D0D0D"/>
<path d="M113.507 52.718L108.493 51.1802L109.428 49.9463L114.437 51.4841L113.507 52.718Z" fill="#313131"/>
<path d="M108.033 51.0381L108.493 51.1808L108.82 50.748L108.033 51.0381Z" fill="#313131"/>
<path d="M113.401 51.9909L109.211 50.7063L109.234 50.6787L113.424 51.9679L113.401 51.9909Z" fill="#0D0D0D"/>
<path d="M112.955 52.0322L109.105 50.8489L109.124 50.8213L112.973 52.0046L112.955 52.0322Z" fill="#0D0D0D"/>
<path d="M113.378 51.6321L109.428 50.4212L109.451 50.3936L113.397 51.6045L113.378 51.6321Z" fill="#0D0D0D"/>
<path d="M113.922 51.623L109.538 50.2786L109.557 50.251L113.94 51.5954L113.922 51.623Z" fill="#0D0D0D"/>
<path d="M112.982 52.2165L108.995 50.9918L109.018 50.9688L113.001 52.1889L112.982 52.2165Z" fill="#0D0D0D"/>
<path d="M111.154 55.836L106.14 54.2982L106.918 53.2715L111.928 54.8093L111.154 55.836Z" fill="#CF2A51"/>
<path d="M105.675 54.1553L106.14 54.298L106.463 53.8652L105.675 54.1553Z" fill="#CF2A51"/>
<path d="M111.467 54.9562L107.033 53.5933L107.052 53.5703L111.49 54.9286L111.467 54.9562Z" fill="#0D0D0D"/>
<path d="M111.362 55.0988L106.923 53.7359L106.942 53.7129L111.38 55.0711L111.362 55.0988Z" fill="#0D0D0D"/>
<path d="M110.901 55.1354L106.812 53.8831L106.836 53.8555L110.919 55.1078L110.901 55.1354Z" fill="#0D0D0D"/>
<path d="M111.145 55.3839L106.707 54.0257L106.725 53.998L111.164 55.3609L111.145 55.3839Z" fill="#0D0D0D"/>
<path d="M109.879 55.1729L106.596 54.1692L106.619 54.1416L109.897 55.1499L109.879 55.1729Z" fill="#0D0D0D"/>
<path d="M109.308 58.9846C107.517 59.0536 113.258 55.3012 113.3 53.2339C113.341 51.1666 111.366 51.8803 109.824 53.0682C104.478 57.212 100.367 57.0968 97.6962 60.9828C95.0258 64.8687 109.308 58.9846 109.308 58.9846Z" fill="#EB9481"/>
<path d="M103.829 56.623C102.667 56.9409 101.55 57.405 100.505 58.0043C99.5752 58.6141 98.7704 59.3954 98.1335 60.3064C98.1058 60.3478 98.1611 60.3985 98.1933 60.3571C99.6206 58.5154 101.775 57.5623 103.843 56.6415C103.842 56.6376 103.84 56.6339 103.838 56.6307C103.835 56.6276 103.832 56.6249 103.829 56.623Z" fill="#E0DCDD"/>
<path d="M83.6948 64.7074C85.0991 65.0527 94.7449 62.1658 94.7449 62.1658L100.5 75.2556C100.5 75.2556 83.6764 79.5835 79.6983 78.3082C75.7203 77.0328 69.2744 63.7451 67.1058 55.9962C65.0662 48.7124 67.4465 43.8733 72.8565 51.3414C72.8749 51.3414 82.9627 64.5278 83.6948 64.7074Z" fill="#CF2A51"/>
<path d="M97.4429 75.9833C96.3563 76.2319 95.0579 76.5266 93.6537 76.8259L88.3818 63.9341C89.6434 63.6256 90.9648 63.2665 92.0652 62.958C93.6905 66.8716 95.6611 71.6461 97.4429 75.9833Z" fill="#212121"/>
<path d="M92.1803 77.1257L90.9601 77.3697L85.7021 64.5194C86.0705 64.4503 86.471 64.3675 86.8854 64.2754C88.4785 68.1245 90.4168 72.8208 92.1803 77.1257Z" fill="#212121"/>
<path d="M79.4959 77.8891C76.1486 76.273 71.8621 67.502 71.038 65.78C70.5085 64.6796 70.0251 63.5562 69.5462 62.4328C68.5931 60.1767 67.7045 57.8976 66.862 55.6047C66.8639 55.5999 66.8646 55.5946 66.8641 55.5893C66.8635 55.5841 66.8617 55.5791 66.8587 55.5747C66.8558 55.5703 66.8518 55.5668 66.8471 55.5643C66.8425 55.5618 66.8373 55.5605 66.832 55.5605C66.8268 55.5605 66.8216 55.5618 66.8169 55.5643C66.8123 55.5668 66.8083 55.5703 66.8054 55.5747C66.8024 55.5791 66.8006 55.5841 66.8 55.5893C66.7994 55.5946 66.8002 55.5999 66.8021 55.6047C67.2779 57.382 67.8411 59.1346 68.4918 60.8627C68.0767 60.2227 67.7 59.5585 67.3638 58.8737C67.3638 58.8415 67.2901 58.8737 67.304 58.9013C67.6474 59.7186 68.088 60.4915 68.6162 61.2035C69.2792 62.9392 70.0204 64.6428 70.84 66.3003C71.0748 66.7607 76.0473 77.53 79.7675 78.4508C81.0613 78.7731 85.4537 78.3541 86.3838 78.1193C86.4206 78.1193 86.4298 78.0594 86.3838 78.0594C85.1176 78.0779 80.7022 78.4784 79.4959 77.8891Z" fill="#E0DCDD"/>
<path d="M96.8168 73.7231C96.6418 73.2627 96.4669 72.8023 96.2873 72.3695C95.9282 71.4717 93.7642 66.1216 92.8434 64.4549C92.8434 64.4088 92.7513 64.4549 92.7651 64.4917C93.3038 66.3334 95.5875 71.6052 95.988 72.4754C96.1814 72.9358 96.3748 73.364 96.5774 73.806C96.7799 74.248 97.0378 74.6762 97.2312 75.1228C97.2312 75.1642 97.3232 75.1228 97.3048 75.0952C97.1207 74.6486 97.001 74.1743 96.8168 73.7231Z" fill="#E0DCDD"/>
<path d="M94.7542 62.1847C93.9485 62.24 86.7199 64.1001 85.1222 64.4868C84.7432 64.624 84.3419 64.6896 83.9389 64.6802C83.5447 64.5724 83.2019 64.3275 82.9721 63.9896C82.438 63.4049 76.5768 56.0243 76.1532 55.6652C75.9967 55.5271 75.8724 55.504 76.0243 55.7389C76.2868 56.1394 81.9868 63.4279 82.5024 64.0264C83.0181 64.625 83.4233 65.1176 84.2198 65.067C84.5605 65.044 94.3168 62.6175 94.8095 62.4057C94.8923 62.3643 94.8785 62.1755 94.7542 62.1847Z" fill="#E0DCDD"/>
<path d="M75.6374 49.8963C74.1824 50.1633 70.4668 48.4552 69.546 46.3511C69.4815 46.2037 69.8222 44.7764 70.1538 43.0176C70.3471 41.9494 70.5405 40.7524 70.6142 39.6519C70.6142 39.4263 77.3777 41.954 77.3777 41.954C76.8614 43.2982 76.5119 44.7007 76.3372 46.1301C76.3206 46.2831 76.3206 46.4375 76.3372 46.5905C76.3395 46.615 76.3395 46.6396 76.3372 46.6641C76.4431 47.5205 77.2028 49.6062 75.6374 49.8963Z" fill="#EB9481"/>
<path d="M76.3786 46.5719V46.6456C76.142 46.6557 75.905 46.648 75.6695 46.6225C71.6086 46.1621 70.9825 40.9824 70.8904 39.6748C72.1059 39.9603 77.4099 41.9401 77.4099 41.9401C76.8936 43.2843 76.5441 44.6868 76.3694 46.1161C76.3584 46.268 76.3615 46.4206 76.3786 46.5719Z" fill="#E0DCDD"/>
<path d="M67.8471 32.4373C67.5939 34.9972 70.2597 41.7101 72.2902 42.921C75.2276 44.6798 79.3438 44.0767 80.656 40.7064C81.9314 37.4374 78.3032 28.7355 76.1024 27.718C72.8749 26.1986 68.22 28.6526 67.8471 32.4373Z" fill="#EB9481"/>
<path d="M75.481 35.2451C75.481 35.2451 75.4534 35.282 75.481 35.2958C75.6698 35.7562 75.8171 36.2903 75.481 36.6034C75.9322 36.3593 75.7343 35.6595 75.481 35.2451Z" fill="#E0DCDD"/>
<path d="M74.8918 34.9278C74.1413 35.158 74.6569 36.6452 75.3522 36.4288C76.0474 36.2124 75.5179 34.739 74.8918 34.9278Z" fill="#E0DCDD"/>
<path d="M78.1653 34.3936C78.1653 34.3936 78.2113 34.3936 78.2159 34.4212C78.3633 34.8816 78.6073 35.3973 79.0769 35.4065C78.5474 35.5354 78.2297 34.8586 78.1653 34.3936Z" fill="#E0DCDD"/>
<path d="M78.3998 33.7722C79.1227 33.4591 79.6936 34.9232 79.026 35.2133C78.3584 35.5033 77.8059 34.0346 78.3998 33.7722Z" fill="#E0DCDD"/>
<path d="M74.0675 34.4536C74.2433 34.3292 74.4124 34.1955 74.574 34.053C74.7705 33.9357 74.9238 33.758 75.0114 33.5466C75.024 33.4742 75.0129 33.3997 74.9797 33.3341C74.9465 33.2686 74.893 33.2155 74.8272 33.1828C74.6872 33.1397 74.5381 33.1349 74.3956 33.1689C74.2531 33.2029 74.1223 33.2745 74.0168 33.3762C73.769 33.5472 73.5948 33.8053 73.5288 34.0991C73.5163 34.1667 73.524 34.2366 73.551 34.3C73.5779 34.3633 73.623 34.4172 73.6805 34.4551C73.738 34.4929 73.8054 34.513 73.8742 34.5127C73.9431 34.5124 74.0103 34.4919 74.0675 34.4536Z" fill="#E0DCDD"/>
<path d="M78.727 32.8279C78.506 32.8648 78.3034 32.8602 78.0824 32.8786C77.8577 32.9265 77.6236 32.9006 77.4148 32.8049C77.3557 32.7621 77.3124 32.701 77.2916 32.6311C77.2708 32.5612 77.2736 32.4863 77.2997 32.4182C77.373 32.2902 77.479 32.184 77.6068 32.1104C77.7346 32.0368 77.8797 31.9984 78.0271 31.9992C78.3242 31.9593 78.6257 32.0297 78.8743 32.1972C78.9289 32.2386 78.9704 32.2949 78.9937 32.3594C79.017 32.4238 79.0211 32.4937 79.0055 32.5604C78.9899 32.6271 78.9553 32.6879 78.9059 32.7354C78.8564 32.7829 78.7943 32.815 78.727 32.8279Z" fill="#E0DCDD"/>
<path d="M78.1282 38.1743C78.0216 38.494 77.8345 38.781 77.5849 39.0076C77.4448 39.1267 77.271 39.1992 77.0877 39.2148C76.6871 39.247 76.5628 38.9109 76.5306 38.6024C76.5116 38.4357 76.5116 38.2673 76.5306 38.1006C77.0414 38.2961 77.6016 38.3219 78.1282 38.1743Z" fill="#E0DCDD"/>
<path d="M77.5851 39.007C77.445 39.1261 77.2711 39.1986 77.0879 39.2142C76.6873 39.2464 76.563 38.9103 76.5308 38.6018C76.7265 38.5427 76.9365 38.5504 77.1274 38.6238C77.3183 38.6971 77.4793 38.832 77.5851 39.007Z" fill="#7D002A"/>
<path d="M70.1769 38.648C71.4937 38.1047 69.8315 34.4582 69.8315 34.4582C70.3715 34.1883 70.8238 33.7707 71.136 33.254C71.4481 32.7373 71.6073 32.1427 71.595 31.5391C71.595 31.5391 77.2443 31.0787 78.0408 28.8779C78.8374 26.6771 77.2765 23.8639 76.5813 23.9007C75.8861 23.9376 75.2 25.1439 75.2 25.1439C75.2 25.1439 74.468 24.2507 73.8971 24.3151C73.0177 24.4118 72.8795 25.5813 72.5158 25.9634C71.5213 26.9625 68.0958 28.0676 67.3545 29.0482C67.1421 29.2899 66.9927 29.5802 66.9196 29.8935C66.8465 30.2068 66.852 30.5332 66.9355 30.8439C66.6252 31.0477 66.37 31.3249 66.1925 31.651C66.015 31.9771 65.9207 32.3419 65.918 32.7132C65.8075 34.3753 68.8508 39.2005 70.1769 38.648Z" fill="#E0DCDD"/>
<path d="M70.292 38.3302C71.2542 36.949 70.3196 35.0659 69.408 33.8826C69.408 33.8826 69.408 33.8457 69.4402 33.8826C70.361 34.9646 71.4568 37.1055 70.361 38.3947C70.3525 38.4039 70.3406 38.4092 70.3281 38.4097C70.3156 38.4101 70.3034 38.4056 70.2943 38.397C70.2851 38.3885 70.2797 38.3766 70.2793 38.3641C70.2789 38.3516 70.2834 38.3394 70.292 38.3302Z" fill="#E0DCDD"/>
<path d="M70.6743 31.3369C71.9673 31.5075 73.2786 31.4842 74.5648 31.2679C75.1491 31.1455 75.7175 30.9571 76.2592 30.7062C76.7978 30.4575 77.7555 30.0294 77.9673 29.417C77.7528 29.9018 77.3701 30.2927 76.8899 30.5174C76.2679 30.8995 75.5909 31.1836 74.8825 31.36C73.4937 31.721 72.0393 31.7494 70.6374 31.4428C70.573 31.4336 70.6052 31.3323 70.6743 31.3369Z" fill="#E0DCDD"/>
<path d="M67.907 28.2053C68.5344 27.8394 69.185 27.5149 69.8546 27.2338C70.6741 26.8332 71.6686 26.4419 72.3178 25.7881H72.3409C71.8847 26.2547 71.3482 26.6353 70.757 26.9115C70.1769 27.2292 69.5829 27.5239 68.9844 27.8047C68.303 28.127 67.5525 28.4954 67.1427 29.186C66.7329 29.8766 66.8711 30.5672 66.9585 31.2625C66.9585 31.2763 66.9538 31.2897 66.945 31.3004C66.9362 31.3111 66.924 31.3185 66.9104 31.3212C66.8969 31.3239 66.8828 31.3218 66.8706 31.3153C66.8583 31.3088 66.8488 31.2983 66.8434 31.2855C66.6468 30.7274 66.6449 30.1192 66.838 29.5599C67.0312 29.0006 67.4079 28.5232 67.907 28.2053Z" fill="#E0DCDD"/>
<path d="M66.6224 31.1758C65.1767 32.2255 65.9134 34.3619 66.6546 35.6188C67.3028 36.8511 68.327 37.8445 69.5783 38.455C69.6382 38.478 69.5783 38.5701 69.5323 38.5471C68.0313 37.9578 66.9263 36.5213 66.2357 35.1124C65.72 34.0488 65.1399 31.8066 66.6224 31.1758Z" fill="#E0DCDD"/>
<path d="M70.7617 37.8381C70.7617 37.8381 68.6944 35.9411 67.8012 36.7284C66.908 37.5158 68.8049 40.5039 70.1033 40.6835C70.2677 40.7181 70.4375 40.7191 70.6023 40.6865C70.7672 40.6539 70.9237 40.5883 71.0626 40.4937C71.2015 40.3991 71.3198 40.2774 71.4105 40.136C71.5012 39.9945 71.5625 39.8362 71.5905 39.6705L70.7617 37.8381Z" fill="#EB9481"/>
<path d="M68.3674 37.571V37.6032C69.2883 37.7597 69.896 38.4365 70.3795 39.1778C70.3129 39.1044 70.231 39.0464 70.1397 39.0078C70.0484 38.9693 69.9497 38.9511 69.8506 38.9546C69.7516 38.9581 69.6544 38.9832 69.5661 39.0281C69.4777 39.073 69.4002 39.1367 69.3389 39.2147C69.3389 39.2147 69.3389 39.2653 69.3711 39.2561C69.5074 39.1752 69.6657 39.1393 69.8235 39.1533C69.9813 39.1674 70.1307 39.2307 70.2505 39.3344C70.4509 39.5056 70.6316 39.6986 70.7892 39.9099C70.8491 39.979 70.9734 39.9099 70.9274 39.827C70.7018 38.7358 69.5369 37.4236 68.3674 37.571Z" fill="#E0DCDD"/>
<path d="M76.8715 46.3965H76.8485C77.3089 47.7225 78.285 50.8165 76.1947 51.1895C75.3235 51.2633 74.4496 51.0809 73.6808 50.6646C72.8893 50.2989 72.1392 49.8497 71.4431 49.3248C70.6381 48.7579 69.8806 48.1266 69.1779 47.437C69.1456 47.4048 69.1088 47.437 69.1364 47.4831C69.8501 48.1737 70.5177 48.9196 71.2728 49.5411C72.0113 50.1482 72.8292 50.6516 73.7038 51.0375C74.5167 51.4582 75.4393 51.6189 76.3466 51.4979C76.7351 51.4068 77.0792 51.1822 77.319 50.8633C77.5588 50.5444 77.6791 50.1514 77.6588 49.7529C77.639 48.5907 77.3705 47.4463 76.8715 46.3965Z" fill="#E0DCDD"/>
<path d="M118.668 189.27H193.551V157.837H118.668V189.27Z" fill="#E0DCDD"/>
<path d="M120.086 157.836C120.086 157.836 121.118 153.209 123.176 152.5C125.234 151.791 126.491 153.881 126.491 153.881C126.491 153.881 126.974 149.461 129.893 148.14C132.812 146.818 135.008 149.521 135.008 149.521C135.008 149.521 137.251 143.913 141.252 143.913C145.253 143.913 147.274 152.118 147.274 152.118C147.274 152.118 149.641 149.673 152.062 151.054C154.484 152.435 154.484 157.85 154.484 157.85L120.086 157.836Z" fill="#37474F"/>
<path d="M161.114 157.836H192.124C192.124 157.836 191.101 153.633 189.043 153.333C186.985 153.034 186.028 154.986 186.028 154.986C186.028 154.986 186.12 149.125 182.28 148.126C178.44 147.127 175.217 152.307 175.217 152.307C175.217 152.307 172.804 149.355 169.522 149.544C166.239 149.733 165.405 154.609 165.405 154.609C165.405 154.609 162.431 152.919 161.114 157.836Z" fill="#37474F"/>
<path d="M152.26 157.836H171.322C171.322 157.836 171.276 155.11 169.402 154.388C168.895 154.172 168.333 154.122 167.797 154.246C167.26 154.369 166.776 154.659 166.414 155.074C166.414 155.074 165.65 150.06 162.16 150.06C158.67 150.06 156.994 154.388 156.994 154.388C156.69 153.969 156.273 153.646 155.792 153.457C155.31 153.268 154.784 153.222 154.277 153.324C152.339 153.563 152.26 157.836 152.26 157.836Z" fill="#455A64"/>
<path d="M133.549 189.182H196.162V185.471H133.549V189.182Z" fill="#CF2A51"/>
<path d="M133.549 184.577H196.162V180.866H133.549V184.577Z" fill="#CF2A51"/>
<path d="M133.549 179.969H196.162V176.258H133.549V179.969Z" fill="#CF2A51"/>
<path d="M133.549 175.364H196.162V171.653H133.549V175.364Z" fill="#CF2A51"/>
<path d="M133.549 170.756H196.162V167.045H133.549V170.756Z" fill="#CF2A51"/>
<path d="M133.549 166.151H196.162V162.44H133.549V166.151Z" fill="#CF2A51"/>
<path d="M133.549 161.543H196.162V157.832H133.549V161.543Z" fill="#CF2A51"/>
<path d="M116.058 189.182H133.549V185.471H116.058V189.182Z" fill="#CF2A51"/>
<path opacity="0.2" d="M116.058 189.182H133.549V185.471H116.058V189.182Z" fill="white"/>
<path d="M116.058 184.577H133.549V180.866H116.058V184.577Z" fill="#CF2A51"/>
<path opacity="0.2" d="M116.058 184.577H133.549V180.866H116.058V184.577Z" fill="white"/>
<path d="M116.058 179.969H133.549V176.258H116.058V179.969Z" fill="#CF2A51"/>
<path opacity="0.2" d="M116.058 179.969H133.549V176.258H116.058V179.969Z" fill="white"/>
<path d="M116.058 175.364H133.549V171.653H116.058V175.364Z" fill="#CF2A51"/>
<path opacity="0.2" d="M116.058 175.364H133.549V171.653H116.058V175.364Z" fill="white"/>
<path d="M116.058 170.756H133.549V167.045H116.058V170.756Z" fill="#CF2A51"/>
<path opacity="0.2" d="M116.058 170.756H133.549V167.045H116.058V170.756Z" fill="white"/>
<path d="M116.058 166.151H133.549V162.44H116.058V166.151Z" fill="#CF2A51"/>
<path opacity="0.2" d="M116.058 166.151H133.549V162.44H116.058V166.151Z" fill="white"/>
<path d="M116.058 161.543H133.549V157.832H116.058V161.543Z" fill="#CF2A51"/>
<path opacity="0.2" d="M116.058 161.543H133.549V157.832H116.058V161.543Z" fill="white"/>
</g>
<defs>
<clipPath id="clip0_380_4015">
<rect width="200" height="200" fill="white" transform="translate(0.5)"/>
</clipPath>
</defs>
</svg>
