<svg width="32" height="32" viewBox="0 0 32 32" fill="none" xmlns="http://www.w3.org/2000/svg">
<path d="M25.3942 24.2206C26.7034 23.8458 27.8434 23.2749 28.7662 22.2669C29.4085 21.5663 29.2702 20.2555 27.9445 19.4023C26.4017 18.4092 25.268 18.8909 24.5811 18.1418C24.3057 17.8412 24.1685 17.2355 24.4377 16.9298C26.0777 17.0646 27.8834 17.2469 28.9657 18.5823C29.6148 19.384 29.8217 20.4875 29.6582 21.5063C29.2468 24.0698 26.748 26.032 23.6422 25.8309C23.2457 25.8058 23.524 24.9566 23.6708 24.8155C24.0651 24.4355 24.888 24.3652 25.3942 24.2206ZM9.4371 22.5189C5.51824 19.616 3.40853 14.5303 3.71424 11.6515C3.83081 10.5572 4.24967 9.52061 4.66453 8.50118C4.78967 8.19318 4.91824 7.87947 5.13367 7.6269C5.3491 7.37433 5.67081 7.1869 6.00167 7.21718C6.55596 7.26861 6.87596 7.85375 7.0971 8.36404C9.41139 13.6852 9.88167 15.048 11.0182 16.2252C11.4662 15.0326 11.0777 13.6583 10.5691 12.4898C10.0818 11.3699 9.54993 10.27 8.97481 9.19261C8.67996 8.6389 8.36853 8.08518 7.9331 7.63432C6.99939 6.6669 5.8851 6.52347 4.68967 7.32404C3.65881 8.01433 2.95081 9.1229 2.5971 10.3126C1.80853 12.964 2.4691 17.4903 5.27596 21.0823C6.88 23.1278 9.01266 24.696 11.4434 25.6172C11.356 25.1218 11.4245 24.6475 11.2897 24.1629C10.9937 23.0972 11.1245 23.7686 9.4371 22.5189Z" fill="#FF5F6E"/>
<path d="M24.2057 28.1058C24.3972 26.6743 24.5526 21.8229 24.5794 20.1806C24.648 16.0132 24.5212 13.0132 24.496 11.756C24.4823 11.0789 24.7646 10.4132 24.0703 9.93433C23.7274 9.69775 23.2052 9.77433 22.796 9.73661C19.3663 9.41775 15.9789 9.27604 12.5377 9.51375C11.892 9.55833 11.3606 10.0509 11.2937 10.6949C10.7293 16.0994 10.662 21.5443 11.0926 26.9612C11.1406 27.564 11.0892 28.3178 11.476 28.8286C11.9103 29.4012 12.852 29.2258 13.4903 29.2772C16.5583 29.5252 19.6526 29.5972 22.7594 29.3823C23.5274 29.3286 24.1006 28.8909 24.2057 28.1058Z" fill="#E2D2F6"/>
<path d="M27.1753 11.8457C26.7204 13.0606 25.817 14.2286 24.5678 14.4995C24.5564 14.1023 24.5507 13.7109 24.5393 13.3137C25.1604 12.9743 25.4656 12.2435 25.6267 11.5463C26.505 7.85488 24.8033 4.28231 23.0364 3.25202C22.2764 2.81431 21.2867 2.70517 20.521 3.13659C18.1838 4.46802 18.8038 10.4315 18.7067 10.6566C18.6513 10.7863 18.4838 10.7595 18.3678 10.7663C16.9381 10.86 17.089 10.952 16.9867 10.5023C16.741 9.42459 16.5204 8.32574 16.5376 7.25831C16.6524 1.18802 24.0004 1.19374 26.6747 5.69259C27.7627 7.52288 27.9238 9.85431 27.1753 11.8457Z" fill="#FF5F6E"/>
<path d="M20.7337 27.7674C20.6686 27.816 20.6652 27.8126 19.416 27.7714C15.2886 27.6348 15.1834 27.6331 14.9594 27.5303C14.8773 27.4927 14.8048 27.4367 14.7477 27.3667C14.6907 27.2966 14.6505 27.2144 14.6303 27.1263C14.5789 26.8994 14.6137 26.5708 14.7126 26.356C14.796 26.1731 14.8549 26.2017 15.0652 26.2246C15.9354 26.3148 16.7526 26.212 20.336 26.3748C20.7634 26.3943 20.8029 26.516 20.7949 26.7794C20.7709 27.576 20.8194 27.7034 20.7337 27.768V27.7674ZM20.6006 21.2257C20.648 20.4354 20.6349 19.6297 20.3692 18.8714C20.1029 18.1131 19.5554 17.4 18.7417 17.0171C17.928 16.6343 16.8332 16.6457 16.1257 17.1588C15.7114 17.4594 15.4629 17.8931 15.2783 18.3286C14.8959 19.2226 14.7348 20.1956 14.8086 21.1651C16.7606 20.908 18.6503 20.9571 20.6006 21.2257ZM18.1692 15.7657C18.8629 15.5863 19.3966 14.9703 19.4326 14.3063C19.4692 13.6423 19.0052 12.98 18.3343 12.7371C17.6634 12.4948 16.8354 12.6897 16.3726 13.2C15.3052 14.3766 16.5686 16.1788 18.1692 15.7657Z" fill="#3A97D4"/>
<path d="M15.4411 24.6372C14.7474 24.6132 14.2657 24.0715 13.8674 23.5658C13.8206 23.5061 13.7995 23.4304 13.8086 23.3551C13.8177 23.2799 13.8563 23.2114 13.916 23.1646C13.9756 23.1179 14.0514 23.0967 14.1266 23.1058C14.2018 23.1149 14.2704 23.1536 14.3171 23.2132C14.6354 23.6178 15.012 24.0503 15.4605 24.0658C16.1177 24.1149 16.8205 23.1623 17.744 23.3686C17.9645 23.4183 18.1628 23.5309 18.3377 23.6303C18.9394 23.9726 18.8874 23.8132 19.2703 23.5955C19.6005 23.4058 20.0234 23.3612 20.4634 23.4698C20.8291 23.5601 21.1623 23.7401 21.4565 23.8995C21.4895 23.9174 21.5187 23.9416 21.5423 23.9708C21.5659 23.9999 21.5835 24.0334 21.5942 24.0694C21.6049 24.1054 21.6084 24.1431 21.6044 24.1804C21.6005 24.2178 21.5893 24.2539 21.5714 24.2869C21.5535 24.3199 21.5293 24.349 21.5001 24.3727C21.471 24.3963 21.4375 24.4139 21.4015 24.4246C21.3655 24.4353 21.3278 24.4387 21.2905 24.4348C21.2531 24.4309 21.217 24.4197 21.184 24.4018C19.644 23.5675 19.6165 24.1961 19.0777 24.3618C18.4834 24.5503 18.0251 24.0178 17.6194 23.9269C17.0057 23.7886 16.3143 24.6698 15.4411 24.6372ZM19.0937 11.2046C18.3053 11.127 17.5143 11.0797 16.7223 11.0629C16.6465 11.0622 16.5741 11.0313 16.5211 10.9772C16.468 10.9231 16.4386 10.8501 16.4394 10.7743C16.4402 10.6986 16.471 10.6262 16.5251 10.5732C16.5792 10.5201 16.6522 10.4907 16.728 10.4915C17.2423 10.5121 17.8891 10.5121 19.1491 10.6355C19.2246 10.6429 19.294 10.68 19.3421 10.7386C19.3903 10.7973 19.4131 10.8726 19.4057 10.9481C19.3983 11.0235 19.3612 11.093 19.3025 11.1411C19.2439 11.1892 19.1686 11.2121 19.0931 11.2046H19.0937ZM23.7463 13.4041C23.7086 13.4041 23.6724 13.3892 23.6456 13.3626C23.6189 13.3361 23.6037 13.3 23.6034 13.2623L23.5788 10.4806C23.5787 10.4619 23.5822 10.4433 23.5893 10.4259C23.5963 10.4085 23.6067 10.3927 23.6199 10.3793C23.633 10.3659 23.6487 10.3553 23.666 10.3479C23.6832 10.3406 23.7018 10.3368 23.7205 10.3366H23.7217C23.7594 10.3366 23.7955 10.3515 23.8223 10.3781C23.8491 10.4046 23.8642 10.4407 23.8645 10.4783L23.8891 13.2601C23.8893 13.2788 23.8857 13.2974 23.8787 13.3148C23.8716 13.3322 23.8612 13.348 23.8481 13.3614C23.8349 13.3748 23.8193 13.3854 23.802 13.3928C23.7847 13.4001 23.7662 13.4039 23.7474 13.4041H23.7463ZM9.81369 24.2481C8.9983 23.9287 8.27217 23.417 7.69712 22.7566C7.67241 22.728 7.66004 22.6908 7.66271 22.6531C7.66539 22.6154 7.6829 22.5803 7.7114 22.5555C7.74 22.5308 7.77722 22.5184 7.81492 22.5211C7.85262 22.5238 7.88773 22.5413 7.91255 22.5698C8.45736 23.195 9.14501 23.6796 9.91712 23.9823C9.9914 24.0109 10.0274 24.0938 9.99826 24.1675C9.99144 24.1849 9.98126 24.2008 9.96829 24.2143C9.95532 24.2278 9.93982 24.2386 9.92268 24.246C9.90554 24.2535 9.88709 24.2576 9.86839 24.2579C9.84968 24.2583 9.8311 24.2549 9.81369 24.2481ZM9.24169 23.2995L8.60569 22.8692C8.44912 22.7646 8.60855 22.5252 8.76569 22.6326L9.40112 23.0629C9.4167 23.0734 9.43007 23.0868 9.44044 23.1025C9.45081 23.1181 9.45798 23.1357 9.46154 23.1541C9.46509 23.1725 9.46497 23.1915 9.46117 23.2099C9.45737 23.2282 9.44997 23.2457 9.4394 23.2612C9.42894 23.2767 9.41553 23.29 9.39993 23.3003C9.38433 23.3106 9.36685 23.3178 9.34848 23.3213C9.33012 23.3249 9.31124 23.3248 9.29291 23.3211C9.27459 23.3173 9.25718 23.31 9.24169 23.2995ZM17.1085 8.33035C16.8521 7.691 16.8126 6.98519 16.996 6.3212C17.0065 6.28492 17.0308 6.2542 17.0637 6.23562C17.0966 6.21703 17.1355 6.21207 17.172 6.22178C17.1901 6.22679 17.2071 6.23534 17.2219 6.24695C17.2368 6.25855 17.2492 6.27297 17.2584 6.28938C17.2677 6.30579 17.2736 6.32387 17.2758 6.34257C17.278 6.36127 17.2765 6.38022 17.2714 6.39835C17.1045 7.00121 17.14 7.6422 17.3725 8.22292C17.4434 8.39949 17.1783 8.50463 17.108 8.33035H17.1085ZM26.7457 24.4138C26.7277 24.3804 26.7236 24.3413 26.7343 24.3049C26.745 24.2685 26.7696 24.2378 26.8028 24.2195C27.1611 24.0246 27.5 23.7909 27.812 23.5246C27.8261 23.5114 27.8427 23.5011 27.8609 23.4944C27.8791 23.4878 27.8984 23.4849 27.9177 23.4859C27.9371 23.487 27.956 23.492 27.9733 23.5005C27.9907 23.5091 28.0061 23.5212 28.0187 23.5359C28.0312 23.5506 28.0407 23.5678 28.0464 23.5862C28.0522 23.6047 28.0541 23.6242 28.0521 23.6435C28.05 23.6627 28.0441 23.6814 28.0347 23.6983C28.0252 23.7152 28.0125 23.73 27.9971 23.7418C27.6714 24.0206 27.3148 24.2652 26.94 24.4709C26.9066 24.4889 26.8675 24.493 26.8311 24.4823C26.7947 24.4716 26.764 24.447 26.7457 24.4138ZM10.6468 27.7269C10.0554 21.8978 10.2287 16.0163 11.1623 10.2321C11.1677 10.1948 11.1806 10.159 11.2002 10.1269C11.2197 10.0947 11.2455 10.0668 11.276 10.0448C11.3066 10.0228 11.3412 10.0071 11.3779 9.99875C11.4146 9.99038 11.4526 9.98947 11.4897 9.99606C11.6457 10.0212 11.7514 10.1675 11.7257 10.3235C10.8006 16.0583 10.6289 21.8893 11.2148 27.6686C11.2187 27.7059 11.2151 27.7436 11.2044 27.7795C11.1936 27.8155 11.1759 27.8489 11.1523 27.878C11.1286 27.9071 11.0994 27.9312 11.0664 27.949C11.0334 27.9668 10.9973 27.9779 10.96 27.9818C10.9227 27.9856 10.885 27.982 10.8491 27.9713C10.8132 27.9606 10.7797 27.9429 10.7506 27.9192C10.7215 27.8955 10.6974 27.8664 10.6796 27.8334C10.6618 27.8004 10.6507 27.7642 10.6468 27.7269Z" fill="black"/>
</svg>
