<svg width="530" height="221" viewBox="0 0 530 221" fill="none" xmlns="http://www.w3.org/2000/svg">
<path d="M13.8401 33.4695C13.0701 32.1595 12.2901 30.8895 11.5501 29.5895C9.55008 26.0895 7.58008 22.5595 5.56008 19.0695C3.90008 16.1995 2.18008 13.3595 0.500081 10.4895C0.210081 9.98953 -0.169919 9.49953 0.0700807 8.84953C0.110081 8.79953 0.140081 8.72953 0.200081 8.69953C2.33008 7.71953 4.57008 7.03953 6.83008 6.47953C8.98008 5.94953 11.2101 5.91953 13.4001 5.61953C19.8401 4.75953 26.3001 4.96953 32.7501 4.96953C35.3001 4.96953 37.8801 4.90953 40.3801 5.27953C43.0901 5.67953 45.8401 5.59953 48.5201 6.20953C50.1701 6.57953 51.8801 6.63953 53.5601 6.90953C55.6201 7.23953 57.6701 7.59953 59.7101 8.04953C62.3801 8.64953 65.0601 9.27953 67.6901 10.0195C70.2001 10.7295 72.6801 11.5495 75.1301 12.4195C77.5901 13.2795 80.0501 14.1695 82.4301 15.2195C85.4101 16.5295 88.3801 17.8995 91.2501 19.4395C103.19 25.8395 113.35 34.3995 121.81 44.9795C122.54 45.8995 123.19 46.8795 123.92 47.7995C124.14 48.0795 124.47 48.2895 124.84 48.6095C125.24 48.1195 125.6 47.7595 125.87 47.3295C130 40.6195 134.1 33.9095 138.23 27.1995C142.94 19.5495 147.67 11.9095 152.38 4.25953C153.2 2.92953 154 1.58953 154.75 0.359527C156.64 0.0095275 175.26 -0.120473 186.45 0.119527C186.96 0.129527 187.46 0.219527 187.9 0.259527C187.99 0.429527 188.03 0.479527 188.04 0.539527C188.05 0.599527 188.07 0.689527 188.04 0.729527C165.51 36.5195 143.69 72.7495 121.35 108.65C121.29 108.74 121.13 108.77 120.92 108.89C120.38 107.56 119.83 106.26 119.32 104.93C116.9 98.6595 114.51 92.3795 112.08 86.1195C111 83.3195 109.98 80.4895 108.74 77.7595C104.61 68.6895 98.9101 60.7395 91.4801 54.0795C87.9301 50.8995 84.0601 48.1295 79.9601 45.6995C76.0901 43.3995 72.0301 41.4495 67.8101 39.8795C65.0601 38.8595 62.2301 38.0595 59.4401 37.1695C56.0201 36.0895 52.4801 35.4695 48.9801 34.7295C48.0901 34.5395 47.1801 34.3895 46.2701 34.3195C42.3101 33.9995 38.4101 33.1395 34.4001 33.2595C32.5201 33.3195 30.6201 33.4095 28.7401 33.0195C28.2401 32.9195 27.7001 32.9895 27.1801 33.0195C25.8801 33.0895 24.5801 33.2295 23.2801 33.2695C20.2101 33.3595 17.1501 33.4095 13.8701 33.4895L13.8401 33.4695Z" fill="#410C9E"/>
<path d="M24.5498 52.0095C27.1398 50.7895 29.6298 50.0695 32.1998 49.6195C34.0598 49.2895 35.9198 48.9795 37.7798 48.6495C37.8398 48.6395 37.9098 48.6095 37.9698 48.6095C42.2798 48.4195 46.5898 48.2595 50.8898 48.7095C52.9598 48.9295 55.0198 49.3195 57.0698 49.7395C58.5398 50.0395 59.9798 50.4895 61.4198 50.8995C65.5298 52.0495 69.3398 53.8795 73.0098 56.0295C81.1698 60.8095 87.5598 67.3795 92.5498 75.3595C95.1498 79.5095 97.3198 83.8795 99.2298 88.3895C101.12 92.8795 102.18 97.5895 102.78 102.389C103.35 106.929 103.7 111.489 103.5 116.069C103.33 119.989 102.93 123.889 102.19 127.739C101.6 130.809 100.85 133.849 99.8098 136.819C98.1198 141.649 95.7998 146.149 93.0298 150.429C88.6198 157.269 84.1798 164.099 79.7398 170.929C74.3498 179.229 68.9398 187.519 63.5498 195.829C59.9298 201.399 56.3498 206.989 52.7298 212.569C51.3098 214.759 49.8598 216.919 48.4298 219.089C48.1298 219.159 47.8798 219.259 47.6198 219.259C36.8998 219.259 26.1898 219.249 15.4698 219.229C15.2898 219.229 15.1098 219.119 14.7998 219.019C15.2698 218.049 15.8998 217.239 16.4598 216.409C17.6598 214.629 18.9598 212.929 20.1398 211.129C23.3198 206.289 26.4698 201.429 29.5998 196.559C33.6198 190.309 37.5998 184.039 41.6198 177.779C47.3598 168.849 53.1098 159.919 58.8698 150.989C62.4698 145.409 66.1198 139.869 69.6998 134.279C71.8998 130.849 73.3998 127.149 74.2198 123.109C75.5098 116.739 75.3898 110.399 74.3398 104.029C73.7898 100.689 72.4098 97.6695 70.9498 94.6895C68.9198 90.5595 66.3198 86.7995 62.9098 83.6895C60.1398 81.1595 57.0098 79.2195 53.3998 78.0595C49.0898 76.6795 44.7098 76.3995 40.2498 76.8295C39.8698 76.8695 39.4798 76.9195 39.0098 76.9695C38.5498 76.3195 38.0598 75.7195 37.6698 75.0595C36.5198 73.0895 35.4398 71.0795 34.2998 69.0995C31.6898 64.5895 29.0498 60.0995 26.4398 55.5995C25.7898 54.4795 25.2098 53.3195 24.5198 52.0095H24.5498Z" fill="#410C9E"/>
<path d="M149.8 88.3197C151.66 87.9797 176.35 87.8097 182.33 88.0697C182.63 88.0797 182.92 88.1697 183.41 88.2597C181.62 91.3897 179.66 94.1997 177.84 97.1097C176.01 100.04 174.08 102.9 172.2 105.8C170.32 108.7 168.45 111.61 166.57 114.52C164.7 117.42 162.83 120.32 160.96 123.22C159.1 126.12 157.24 129.03 155.38 131.93C153.51 134.84 151.62 137.73 149.75 140.64C147.88 143.55 146.03 146.46 144.15 149.37C142.24 152.32 140.31 155.26 138.4 158.2C136.52 161.09 134.65 164 132.78 166.9C130.9 169.81 129.02 172.71 127.14 175.61C125.27 178.51 123.41 181.42 121.54 184.33C119.68 187.23 117.81 190.13 115.94 193.02C114.07 195.92 112.19 198.83 110.31 201.73C108.43 204.64 106.57 207.55 104.69 210.45C102.82 213.34 100.95 216.23 99.0298 219.18C98.6798 219.23 98.3098 219.34 97.9298 219.34C87.6698 219.34 77.4098 219.32 67.1498 219.3C66.7698 219.3 66.3798 219.25 65.8398 219.21C65.9598 218.82 65.9898 218.51 66.1398 218.27C67.8598 215.6 69.5998 212.94 71.3298 210.28C72.3598 208.7 73.3998 207.12 74.4198 205.54C75.7198 203.52 77.0098 201.48 78.3098 199.45C79.7198 197.25 81.1298 195.06 82.5398 192.87C83.8398 190.85 85.1498 188.83 86.4498 186.81C88.6298 183.41 90.8098 180.02 92.9898 176.62C95.5898 172.56 98.1898 168.51 100.79 164.45C102.3 162.09 103.82 159.73 105.34 157.38C107.46 154.1 109.6 150.82 111.71 147.53C113.85 144.19 115.97 140.83 118.11 137.49C121.35 132.44 124.6 127.39 127.84 122.34C132.77 114.67 137.71 107 142.64 99.3297C144.65 96.1997 146.66 93.0797 148.68 89.9597C149.03 89.4197 149.4 88.8797 149.78 88.3197H149.8Z" fill="#410C9E"/>
<path d="M185.72 33.0892C186.04 32.4392 186.19 32.0192 186.43 31.6492C193.05 21.2992 199.68 10.9492 206.18 0.809228C207.22 0.0992283 208.15 0.189228 209.06 0.189228C213.96 0.189228 218.85 0.189228 223.75 0.189228C228.45 0.189228 233.15 0.189228 237.85 0.189228C238.56 0.189228 239.27 0.229228 240.01 0.249228C240.09 1.01923 239.66 1.44923 239.35 1.90923C237.59 4.56923 235.78 7.18923 234.04 9.85923C230.38 15.4792 226.74 21.1092 223.1 26.7392C221.69 28.9192 220.28 31.0992 218.9 33.2192C217.4 33.4592 191.01 33.5592 186.91 33.3392C186.6 33.3192 186.29 33.2192 185.73 33.0992L185.72 33.0892Z" fill="#410C9E"/>
<path d="M190.48 77.0499C179.81 76.9499 169.24 76.8499 158.66 76.7399C158.48 76.7399 158.3 76.5999 158.14 76.5399C157.78 76.0599 158.02 75.6799 158.27 75.2799C161.31 70.5799 164.36 65.8899 167.38 61.1799C170.75 55.9299 174.11 50.6599 177.47 45.3999C177.61 45.1799 177.79 44.9999 177.93 44.8299C179.55 44.6099 209.28 44.5699 211.04 44.7899C211.36 45.2999 210.95 45.6499 210.73 46.0099C209.29 48.2599 207.84 50.4999 206.38 52.7399C201.47 60.3299 196.56 67.9299 191.63 75.5099C191.28 76.0499 190.85 76.5299 190.47 77.0399L190.48 77.0499Z" fill="#410C9E"/>
<path d="M335.01 74.0395C355.4 74.0395 375.78 74.0395 396.17 74.0395C396.62 74.0395 397.06 73.9695 397.63 73.9295C397.72 73.4495 397.86 73.0195 397.86 72.5995C397.85 71.2295 397.75 69.8595 397.75 68.4895C397.74 59.0795 397.74 49.6695 397.75 40.2595C397.75 39.4895 397.59 38.6895 398.04 37.8995C398.79 37.4295 399.66 37.6395 400.48 37.6095C401.33 37.5795 402.18 37.5795 403.03 37.6095C403.87 37.6395 404.73 37.4495 405.53 37.8095C405.98 38.4195 405.77 39.0895 405.77 39.7195C405.78 50.3095 405.77 60.8895 405.79 71.4795C405.79 72.2495 405.64 73.0495 406.09 73.8395C406.31 73.8995 406.55 74.0095 406.8 74.0095C443.85 74.0595 480.9 74.0295 518.03 74.0395C518.15 73.4895 518.29 73.0695 518.32 72.6395C518.37 71.9895 518.35 71.3295 518.35 70.6795C518.35 60.0895 518.35 49.5095 518.34 38.9195C518.34 38.5995 518.37 38.2795 518.39 37.9095C518.74 37.7995 519.04 37.6295 519.34 37.6195C521.55 37.6195 523.76 37.4895 526.04 37.6995C526.16 38.1495 526.3 38.5095 526.34 38.8795C526.39 39.3995 526.36 39.9195 526.36 40.4495C526.36 52.8695 526.36 65.2795 526.36 77.6995C526.36 78.4695 526.32 79.2395 526.29 80.0895C525.81 80.1995 525.45 80.3295 525.08 80.3495C524.36 80.3895 523.64 80.3695 522.92 80.3695C439.07 80.3695 355.23 80.3695 271.38 80.3695C270.61 80.3695 269.84 80.3995 269.22 80.4095C268.61 81.0295 268.66 81.6395 268.64 82.2195C268.59 84.2495 268.38 86.2495 268.06 88.2595C267.52 91.5495 266.31 94.5495 264.35 97.2095C262.31 99.9695 259.55 101.72 256.26 102.73C253.03 103.72 249.74 104.09 246.4 103.92C243.93 103.8 241.44 103.65 239.07 102.81C238.89 102.75 238.74 102.63 238.59 102.55C238.49 101.15 238.93 98.1595 239.49 96.5395C240.26 96.5395 241.01 96.7595 241.73 97.0095C242.73 97.3595 243.76 97.5095 244.81 97.5295C246.76 97.5795 248.71 97.7295 250.67 97.5695C254.53 97.2495 257.28 95.3595 258.98 91.9295C260.16 89.5495 260.53 86.9595 260.72 84.3395C260.8 83.2995 260.76 82.2495 260.76 81.1995C260.76 67.5395 260.76 53.8795 260.76 40.2195C260.76 39.4395 260.78 38.6695 260.79 37.8795C262.1 37.3495 263.34 37.6195 264.56 37.5795C265.79 37.5395 267.03 37.5195 268.33 37.6295C268.44 38.0795 268.61 38.4395 268.62 38.8095C268.65 40.2495 268.64 41.6895 268.64 43.1195C268.64 52.5295 268.64 61.9395 268.64 71.3495C268.64 72.1795 268.45 73.0595 269.06 73.8795C269.33 73.9195 269.65 73.9995 269.96 73.9995C288.71 73.9995 307.46 73.9995 326.28 73.9995C326.46 73.4895 326.67 73.0795 326.75 72.6495C326.87 72.0795 326.92 71.4895 326.96 70.8995C327.07 69.0095 327.19 67.1195 327.25 65.2295C327.37 61.6195 327.08 58.0295 326.05 54.5695C324.78 50.3095 322.19 47.0695 317.99 45.3195C315.25 44.1795 312.41 43.4995 309.43 43.4795C305.64 43.4495 301.85 43.3495 298.07 43.7795C297.82 43.8095 297.56 43.7795 297.34 43.7795C296.82 42.5495 296.74 40.9995 297.04 38.3595C297.32 37.8395 297.8 37.6795 298.34 37.6395C302.84 37.3095 307.34 37.1895 311.85 37.3795C314.28 37.4795 316.66 37.9295 318.98 38.5295C323.93 39.8095 328.16 42.3195 331 46.6895C332.02 48.2595 332.78 50.0395 333.39 51.8095C334.59 55.2895 335.05 58.9295 335.02 62.6095C335 65.6095 334.8 68.6195 334.7 71.6195C334.68 72.3195 334.46 73.0495 335.01 73.9995V74.0395Z" fill="#410C9E"/>
<path d="M465.88 188.3C466.55 189.75 467.05 192.35 467.02 194.17C466 194.78 464.83 195.22 463.63 195.44C461.39 195.85 459.2 196.5 456.91 196.72C452.86 197.12 448.82 197.25 444.82 196.41C440.7 195.55 437.05 193.78 434.37 190.38C432.35 187.83 431.01 184.94 430.43 181.75C429.97 179.25 429.5 176.76 429.46 174.19C429.4 170.22 429.96 166.36 431.28 162.65C433.33 156.85 437 152.45 442.86 150.18C444.31 149.62 445.87 149.27 447.41 149.05C450.81 148.57 454.22 148.79 457.49 149.83C460.94 150.93 463.73 153.02 465.72 156.1C467.62 159.03 468.51 162.28 468.71 165.71C468.82 167.6 468.71 169.5 468.66 171.39C468.65 171.82 468.46 172.25 468.37 172.63C467.52 173.04 466.73 172.89 465.96 172.89C457.4 172.9 448.84 172.89 440.28 172.9C439.57 172.9 438.84 172.76 438.22 173.1C438.1 173.26 437.96 173.35 437.95 173.46C437.59 176.9 438.03 180.25 439.47 183.39C440.89 186.5 443.23 188.63 446.53 189.72C448.05 190.22 449.55 190.51 451.13 190.51C452.11 190.51 453.09 190.49 454.07 190.52C457.59 190.65 460.93 189.82 464.23 188.73C464.78 188.55 465.34 188.42 465.87 188.27L465.88 188.3ZM460.68 166.74C460.73 164.47 460.31 162.23 459.3 160.17C458.62 158.78 457.64 157.58 456.3 156.66C454.21 155.23 451.94 154.79 449.46 154.84C446.1 154.9 443.46 156.26 441.34 158.8C439.62 160.86 438.7 163.26 438.24 165.86C438.18 166.22 438.24 166.61 438.24 167.1C438.82 167.18 439.32 167.31 439.82 167.31C446.14 167.32 452.47 167.31 458.79 167.31C459.37 167.31 459.97 167.36 460.7 166.73L460.68 166.74Z" fill="#410C9E"/>
<path d="M323.811 196.2C321.751 196.48 319.601 196.29 317.471 196.31C317.101 196.31 316.741 196.14 316.291 196.02C316.241 195.46 316.161 194.95 316.151 194.44C315.891 180.43 316.031 151.74 316.361 149.99C317.781 149.62 322.071 149.6 323.771 149.99C324.331 152.82 323.451 155.62 323.231 158.53C323.581 158.6 323.811 158.65 324.131 158.71C324.411 158.26 324.711 157.84 324.951 157.4C327.201 153.38 330.561 150.81 335.001 149.58C338.771 148.53 342.511 148.62 346.191 149.81C349.351 150.83 351.511 153.03 352.781 156.08C353.391 157.53 353.781 159.05 353.871 160.64C353.941 161.88 354.031 163.12 354.031 164.36C354.041 174.23 354.041 184.1 354.031 193.97C354.031 194.67 354.141 195.4 353.861 196.05C352.391 196.44 348.181 196.48 346.461 196.12C346.031 195.71 346.061 195.18 346.061 194.66C346.061 193.42 346.061 192.18 346.061 190.93C346.061 182.76 346.081 174.59 346.041 166.42C346.041 164.86 345.841 163.3 345.711 161.74C345.611 160.61 345.111 159.63 344.591 158.63C343.921 157.33 342.841 156.45 341.551 156.01C340.021 155.5 338.421 155.1 336.751 155.44C335.351 155.72 333.951 155.86 332.641 156.6C330.491 157.82 328.761 159.42 327.441 161.49C325.761 164.13 324.781 167.01 324.461 170.1C324.281 171.85 324.141 173.61 324.131 175.37C324.091 181.64 324.131 187.92 324.111 194.19C324.111 194.82 324.291 195.5 323.811 196.2Z" fill="#410C9E"/>
<path d="M283.951 132.199C285.631 131.849 290.611 131.839 292.251 132.159C292.271 132.219 292.301 132.279 292.311 132.339C292.321 132.399 292.351 132.479 292.331 132.519C285.651 145.949 278.971 159.389 272.241 172.919V184.389C272.241 186.349 272.241 188.309 272.241 190.269C272.231 192.159 272.301 194.049 272.181 195.979C271.711 196.109 271.351 196.279 270.981 196.299C267.811 196.479 265.451 196.369 264.171 196.009C263.731 195.369 263.901 194.629 263.901 193.929C263.891 187.659 263.871 181.379 263.901 175.109C263.901 173.699 263.641 172.449 263.001 171.169C260.021 165.219 257.121 159.239 254.201 153.259C251.681 148.099 249.181 142.939 246.671 137.779C246.101 136.609 245.501 135.449 244.941 134.279C244.631 133.639 244.381 132.979 244.051 132.219C245.091 131.759 246.071 131.969 247.011 131.939C247.921 131.899 248.841 131.919 249.751 131.939C250.721 131.949 251.701 131.979 252.741 131.999C254.341 134.609 255.341 137.449 256.691 140.109C258.041 142.779 259.261 145.529 260.531 148.249C261.771 150.909 263.001 153.579 264.241 156.239C265.501 158.949 266.641 161.699 267.801 164.459C268.251 164.379 268.501 164.339 268.681 164.309C271.221 158.869 273.691 153.479 276.241 148.129C278.791 142.779 281.401 137.459 283.951 132.209V132.199Z" fill="#410C9E"/>
<path d="M529.27 196.15C528.69 196.22 528.19 196.33 527.68 196.33C518.08 196.34 508.48 196.33 498.88 196.33C498.37 196.33 497.87 196.23 497.42 196.19C496.9 194.86 496.86 194.19 497.07 190.52C498.39 188.53 499.8 186.42 501.21 184.3C504.86 178.83 508.51 173.36 512.17 167.9C514.24 164.82 516.32 161.74 518.42 158.68C518.79 158.14 519.22 157.66 519.2 157C518.83 156.49 518.35 156.63 517.91 156.64C514.45 156.7 510.99 156.79 507.53 156.83C504.85 156.86 502.17 156.84 499.5 156.83C498.93 156.83 498.36 156.76 497.65 156.72C497.49 154.42 497.56 152.23 497.6 149.95C498.16 149.87 498.59 149.74 499.03 149.74C508.5 149.73 517.97 149.73 527.44 149.74C527.88 149.74 528.32 149.83 528.83 149.89C529.11 151.65 529.08 153.33 528.87 155.01C528.8 155.56 528.44 156.1 528.12 156.58C524.23 162.43 520.31 168.27 516.4 174.12C513.36 178.67 510.31 183.21 507.28 187.76C507.11 188.01 507.09 188.35 506.96 188.78C507.38 188.92 507.73 189.12 508.07 189.12C510.09 189.12 512.12 189.03 514.14 189.01C518.52 188.98 522.89 188.97 527.27 188.96C527.91 188.96 528.55 189.02 529.13 189.05C529.59 190.44 529.65 193.94 529.26 196.17L529.27 196.15Z" fill="#410C9E"/>
<path d="M376.241 219.519C376.041 217.909 376.401 214.289 376.891 212.769C377.431 212.869 378.001 212.919 378.551 213.069C380.411 213.579 382.301 213.539 384.201 213.439C384.401 213.439 384.591 213.389 384.781 213.369C387.441 213.009 388.991 211.409 389.601 208.889C389.881 207.759 389.991 206.569 390.061 205.399C390.141 203.969 390.111 202.529 390.111 201.089C390.111 184.879 390.111 168.679 390.111 152.469C390.111 151.639 389.951 150.769 390.381 150.019C391.841 149.619 396.001 149.579 397.831 149.939C398.211 150.569 398.051 151.299 398.051 151.999C398.061 158.799 398.051 165.589 398.051 172.389C398.051 182.259 398.051 192.129 398.051 201.989C398.051 204.669 397.921 207.349 397.271 209.969C396.701 212.279 395.771 214.399 394.141 216.189C391.891 218.669 388.951 219.629 385.781 219.989C383.311 220.279 380.821 220.229 378.341 219.949C377.641 219.869 376.961 219.659 376.211 219.499L376.241 219.519Z" fill="#410C9E"/>
<path d="M389.751 131.53C391.761 128.87 395.211 128.49 397.521 130.47C399.601 132.26 400.541 134.63 398.501 137.57C396.821 139.98 393.821 140.17 391.681 139.18C390.241 138.52 389.491 137.24 388.961 135.77C388.411 134.24 389.081 132.97 389.751 131.52V131.53Z" fill="#410C9E"/>
<path d="M400.221 17.9899C400.741 17.9499 401.331 17.8599 401.911 17.8699C402.491 17.8699 403.071 17.9699 403.511 18.0099C406.151 19.7299 407.131 21.6699 406.451 23.6899C405.591 26.2399 403.771 27.2399 401.641 27.1799C399.141 27.0999 397.791 25.6999 397.051 22.4299C397.331 20.5499 398.291 19.0899 400.221 17.9899Z" fill="#410C9E"/>
<path d="M262.51 18.1795C266.3 17.0495 268.31 18.9894 268.99 20.9994C269.77 23.2894 268.7 25.7394 266.53 26.7494C264.27 27.7994 261.79 27.0094 260.43 24.8194C259.09 22.6594 259.84 20.2095 262.51 18.1895V18.1795Z" fill="#410C9E"/>
<path d="M307.01 90.7195C310.23 88.6495 312.97 90.1995 314.12 92.0095C315.74 94.5395 314.52 96.7195 312.9 98.0595C311.24 99.4295 308.25 99.2595 306.78 97.7795C304.79 95.7795 304.85 93.4595 307 90.7295L307.01 90.7195Z" fill="#410C9E"/>
<path d="M523.901 90.7693C526.241 93.8093 525.931 96.2594 522.981 98.4994C519.011 99.6094 516.661 98.0194 516.221 93.9394C517.511 89.8494 520.251 88.6793 523.911 90.7693H523.901Z" fill="#410C9E"/>
<path d="M504.051 97.579C502.131 95.029 502.551 92.869 504.291 90.809C507.101 89.249 509.491 89.499 510.961 91.489C512.501 93.579 512.181 95.879 510.621 97.559C508.891 99.419 506.381 99.369 504.051 97.569V97.579Z" fill="#410C9E"/>
</svg>
