<svg width="25" height="24" viewBox="0 0 25 24" fill="none" xmlns="http://www.w3.org/2000/svg">
<path d="M18.7424 4.73356L18.2729 9.42856H16.2926V4.32373L18.7424 4.73356Z" fill="#845252"/>
<path d="M13.512 15.585H9.79045V16.2605C9.79045 16.9474 9.33792 17.5522 8.67895 17.746L8.13159 17.907L7.85437 18.6135C8.95996 19.9493 10.6306 20.8003 12.5001 20.8003C14.2957 20.8003 15.9075 20.0149 17.0118 18.7693L13.512 15.585Z" fill="#FCDBB2"/>
<path d="M16.8686 17.9074L16.3212 17.7464C15.6622 17.5526 15.2097 16.9478 15.2097 16.2609V14.3228H9.79041V15.5854C10.5997 16.0134 11.5208 16.2582 12.5001 16.2582C12.7881 16.2582 13.0704 16.2353 13.3464 16.193C13.682 16.1416 14.0216 16.2469 14.2649 16.4837C14.3868 16.6024 14.4853 16.7463 14.5334 16.9095C14.7524 17.6536 15.3357 18.2635 16.1027 18.4891L16.9565 18.7402L16.8686 17.9074Z" fill="#F5C89D"/>
<path d="M16.1234 6.87054L10.7634 4.88721H10.1775C9.10852 4.88721 8.24199 5.75374 8.24199 6.82272V8.12918C8.24199 8.55677 7.89535 8.90336 7.4678 8.90336H6.94238C6.43617 8.90336 5.97488 9.26758 5.92444 9.77125C5.86646 10.3505 6.31978 10.8388 6.88716 10.8388H7.48735C7.66585 13.1775 9.43899 15.0701 11.7234 15.4244C11.7234 15.4244 12.2372 15.4335 12.5001 15.4073C15.2071 15.1375 16.6123 13.4366 16.8106 10.8388L16.1234 6.87054Z" fill="#FFEAC6"/>
<path d="M18.0578 8.90332H17.5323C17.1047 8.90332 16.7581 8.55668 16.7581 8.12913V4.88721H10.7634C11.1656 5.87983 12.1374 6.58075 13.2743 6.58075C13.3817 6.58075 13.4876 6.57433 13.5916 6.56196C13.8892 6.52657 14.1845 6.59496 14.4332 6.76221C14.7431 6.97074 15.0846 7.12783 15.4446 7.22739C15.7696 7.31721 15.9839 7.62836 15.9839 7.96553V10.4517C15.9839 12.9678 14.1353 15.0521 11.7234 15.4244C11.977 15.4638 12.2353 15.484 12.5001 15.484C15.1486 15.484 17.3145 13.4366 17.5128 10.8388H18.113C18.6804 10.8388 19.1337 10.3505 19.0757 9.77125C19.0253 9.26753 18.564 8.90332 18.0578 8.90332Z" fill="#FCDBB2"/>
<path d="M10.1775 10.0646C10.1267 10.0646 10.0763 10.0546 10.0294 10.0352C9.98238 10.0157 9.9397 9.9872 9.90375 9.95125C9.86781 9.9153 9.83929 9.87263 9.81985 9.82566C9.8004 9.77869 9.79039 9.72834 9.79041 9.67751V9.29041C9.79041 9.07666 9.96356 8.90332 10.1775 8.90332C10.3914 8.90332 10.5646 9.07666 10.5646 9.29041V9.67751C10.5646 9.72834 10.5546 9.77869 10.5352 9.82566C10.5157 9.87263 10.4872 9.9153 10.4512 9.95125C10.4153 9.9872 10.3726 10.0157 10.3256 10.0352C10.2787 10.0546 10.2283 10.0646 10.1775 10.0646ZM14.8226 10.0646C14.7718 10.0646 14.7214 10.0546 14.6745 10.0352C14.6275 10.0157 14.5848 9.9872 14.5489 9.95125C14.5129 9.9153 14.4844 9.87263 14.465 9.82566C14.4455 9.77869 14.4355 9.72834 14.4355 9.67751V9.29041C14.4355 9.23958 14.4455 9.18924 14.465 9.14227C14.4844 9.0953 14.5129 9.05262 14.5489 9.01667C14.5848 8.98072 14.6275 8.95221 14.6745 8.93276C14.7214 8.91331 14.7718 8.90331 14.8226 8.90332C14.8735 8.90331 14.9238 8.91331 14.9708 8.93276C15.0177 8.95221 15.0604 8.98072 15.0964 9.01667C15.1323 9.05262 15.1608 9.0953 15.1803 9.14227C15.1997 9.18924 15.2097 9.23958 15.2097 9.29041V9.67751C15.2097 9.72834 15.1997 9.77869 15.1803 9.82566C15.1608 9.87263 15.1323 9.9153 15.0964 9.95125C15.0604 9.9872 15.0177 10.0157 14.9708 10.0352C14.9238 10.0546 14.8735 10.0646 14.8226 10.0646Z" fill="#845252"/>
<path d="M12.5001 12.7741C11.9194 12.7741 11.3834 12.5877 11.067 12.2755C10.9146 12.1254 10.9131 11.8803 11.0632 11.7281C11.2133 11.5758 11.459 11.5743 11.6105 11.7243C11.7394 11.8515 12.0498 11.9999 12.5 11.9999C12.9503 11.9999 13.2606 11.8515 13.3895 11.7243C13.5411 11.5742 13.7868 11.5758 13.9369 11.7281C14.087 11.8803 14.0854 12.1254 13.9331 12.2755C13.6168 12.5877 13.0807 12.7741 12.5001 12.7741Z" fill="#F5C89D"/>
<path d="M9.78999 8.51597C9.59794 8.51597 9.43125 8.37328 9.40631 8.178C9.37946 7.96594 9.52917 7.77201 9.74124 7.74497L10.611 7.63383C10.8242 7.60528 11.017 7.75687 11.0443 7.96856C11.0711 8.18062 10.9214 8.37454 10.7093 8.40159L9.83953 8.51273C9.82311 8.51494 9.80656 8.51602 9.78999 8.51597ZM15.2101 8.51597C15.1939 8.51597 15.1772 8.51503 15.1606 8.51273L14.2908 8.40159C14.0788 8.37454 13.929 8.18062 13.9559 7.96856C13.9831 7.75687 14.1771 7.60584 14.3891 7.63383L15.2589 7.74497C15.471 7.77201 15.6207 7.96594 15.5939 8.178C15.5689 8.37328 15.4021 8.51597 15.2101 8.51597Z" fill="#A46A5A"/>
<path d="M16.7263 1.18777C16.6143 1.17309 16.5179 1.11188 16.4511 1.0208C16.1701 0.637922 15.7212 0.387094 15.2098 0.387094C14.9822 0.386879 14.7574 0.437283 14.5516 0.534656C14.4195 0.597141 14.263 0.577547 14.1532 0.481078C13.8144 0.183281 13.3739 0 12.8872 0C12.2606 0 11.709 0.300938 11.357 0.763594C11.2459 0.909516 11.0553 0.950063 10.8864 0.878766C10.7234 0.809703 10.5481 0.774138 10.371 0.774188C9.99989 0.774188 9.7117 0.938391 9.53592 1.07527C9.37959 1.197 9.19968 1.28644 9.01106 1.34705C7.32497 1.8885 6.15844 3.55139 6.34504 5.41744L6.69361 8.93653C6.77447 8.91698 6.8572 8.90325 6.94233 8.90325H7.46779C7.89539 8.90325 8.24198 8.55661 8.24198 8.12906V6.82261C8.24198 5.75367 9.10851 4.88714 10.1775 4.88714H11.2498C11.4773 4.88714 11.6875 4.99242 11.8393 5.16202C11.9241 5.25678 12.0179 5.34308 12.1194 5.41969C12.1194 5.41969 14.25 6.05602 17.3756 4.36594C19.0222 3.47559 17.3507 1.34709 17.3507 1.34709C17.1497 1.26922 16.9401 1.21573 16.7263 1.18777ZM19.883 19.2008L18.0307 18.656L12.5001 20.91L6.57609 18.3647L5.15479 18.7828C4.00162 19.122 3.20972 20.1803 3.20972 21.3823V22.8387C3.20972 23.4801 3.72965 24 4.371 24H20.6291C20.7648 24 20.8951 23.9767 21.0162 23.934L21.3971 23.1299V21.2243C21.3971 20.2887 20.7807 19.4648 19.883 19.2008Z" fill="#C6805D"/>
<path d="M19.8452 18.7828L18.424 18.3647L17.7258 18.9663L19.6269 19.5253C20.4505 19.7675 21.0161 20.5234 21.0161 21.3819V23.934C21.4661 23.774 21.7903 23.3436 21.7903 22.8387V21.3823C21.7904 20.1803 20.9984 19.122 19.8452 18.7828Z" fill="#A46A5A"/>
<path d="M17.4189 18.4536L16.3148 18.5512C15.3362 19.5252 13.99 20.129 12.5 20.129C10.7045 20.129 9.11766 19.2521 8.1315 17.9072L6.57605 18.3647C7.8038 20.3502 9.99417 21.6774 12.5 21.6774C14.7126 21.6774 16.6792 20.6426 17.9544 19.0337L17.4189 18.4536Z" fill="#E29A6C"/>
<path d="M17.3506 1.34717C17.5404 1.8395 17.5961 2.40036 17.4494 2.98709C17.1867 4.0385 16.288 4.85051 15.2152 5.00421C14.9683 5.03996 14.7176 5.04168 14.4702 5.00932C14.0472 4.95368 13.6206 4.99957 13.2323 5.17653C12.8829 5.33606 12.5035 5.41897 12.1194 5.41971C12.4409 5.66239 12.8398 5.80653 13.2742 5.80653C13.5322 5.80653 13.776 5.75229 13.9997 5.65868C14.1418 5.59925 14.3073 5.63009 14.4137 5.74146C14.9392 6.29192 15.6927 6.62234 16.524 6.57645C17.8257 6.50464 18.9277 5.4627 19.0649 4.16632C19.2001 2.89015 18.4484 1.77237 17.3506 1.34717Z" fill="#A46A5A"/>
<path d="M16.8686 17.9072C16.7011 18.1361 16.516 18.3514 16.3148 18.5512L17.9545 19.0336C18.1239 18.82 18.2807 18.5966 18.4241 18.3647L16.8686 17.9072Z" fill="#C6805D"/>
</svg>
