<svg width="49" height="48" viewBox="0 0 49 48" fill="none" xmlns="http://www.w3.org/2000/svg">
<path d="M36.735 9.46742L35.796 18.8574H31.8354V8.64777L36.735 9.46742Z" fill="#845252"/>
<path d="M26.2737 31.1703H18.8307V32.5215C18.8307 33.8952 17.9256 35.1048 16.6077 35.4924L15.5129 35.8143L14.9585 37.2274C17.1697 39.899 20.511 41.6011 24.25 41.6011C27.8411 41.6011 31.0648 40.0303 33.2734 37.539L26.2737 31.1703Z" fill="#FCDBB2"/>
<path d="M32.9869 35.8145L31.8922 35.4925C30.5743 35.1049 29.6692 33.8953 29.6692 32.5216V28.6452H18.8306V31.1705C20.4491 32.0266 22.2914 32.5161 24.2499 32.5161C24.826 32.5161 25.3906 32.4703 25.9426 32.3857C26.6138 32.2829 27.293 32.4935 27.7795 32.9672C28.0233 33.2045 28.2204 33.4923 28.3165 33.8187C28.7546 35.3068 29.9211 36.5268 31.4551 36.978L33.1627 37.4801L32.9869 35.8145Z" fill="#F5C89D"/>
<path d="M31.4967 13.7408L20.7768 9.77417H19.6049C17.467 9.77417 15.734 11.5072 15.734 13.6452V16.2581C15.734 17.1133 15.0407 17.8065 14.1856 17.8065H13.1348C12.1223 17.8065 11.1998 18.5349 11.0989 19.5423C10.9829 20.7008 11.8896 21.6774 13.0243 21.6774H14.2247C14.5817 26.3547 18.128 30.14 22.6968 30.8485C22.6968 30.8485 23.7244 30.8668 24.2501 30.8144C29.6642 30.2748 32.4746 26.873 32.8712 21.6774L31.4967 13.7408Z" fill="#FFEAC6"/>
<path d="M35.3656 17.8064H34.3146C33.4594 17.8064 32.7663 17.1131 32.7663 16.258V9.77417H20.7769C21.5812 11.7594 23.5248 13.1613 25.7986 13.1613C26.0134 13.1613 26.2251 13.1484 26.4333 13.1237C27.0285 13.0529 27.6189 13.1897 28.1164 13.5242C28.7361 13.9412 29.4192 14.2554 30.1392 14.4545C30.7893 14.6342 31.2179 15.2565 31.2179 15.9308V20.9032C31.2179 25.9355 27.5206 30.104 22.6968 30.8485C23.204 30.9274 23.7205 30.9678 24.2501 30.9678C29.5473 30.9678 33.879 26.873 34.2755 21.6774H35.4759C36.6108 21.6774 37.5174 20.7008 37.4014 19.5423C37.3006 18.5348 36.378 17.8064 35.3656 17.8064Z" fill="#FCDBB2"/>
<path d="M19.6048 20.1291C19.5031 20.1291 19.4024 20.1091 19.3085 20.0702C19.2145 20.0313 19.1292 19.9743 19.0573 19.9024C18.9854 19.8305 18.9283 19.7451 18.8894 19.6512C18.8505 19.5573 18.8305 19.4566 18.8306 19.3549V18.5807C18.8306 18.1532 19.1769 17.8065 19.6048 17.8065C20.0326 17.8065 20.3789 18.1532 20.3789 18.5807V19.3549C20.379 19.4566 20.359 19.5573 20.3201 19.6512C20.2812 19.7451 20.2241 19.8305 20.1522 19.9024C20.0803 19.9743 19.995 20.0313 19.9011 20.0702C19.8071 20.1091 19.7064 20.1291 19.6048 20.1291ZM28.895 20.1291C28.7933 20.1291 28.6926 20.1091 28.5987 20.0702C28.5048 20.0313 28.4194 19.9743 28.3475 19.9024C28.2756 19.8305 28.2186 19.7451 28.1797 19.6512C28.1408 19.5573 28.1208 19.4566 28.1208 19.3549V18.5807C28.1208 18.479 28.1408 18.3783 28.1797 18.2844C28.2186 18.1905 28.2756 18.1051 28.3475 18.0332C28.4194 17.9613 28.5048 17.9043 28.5987 17.8654C28.6926 17.8265 28.7933 17.8065 28.895 17.8065C28.9967 17.8065 29.0974 17.8265 29.1913 17.8654C29.2852 17.9043 29.3706 17.9613 29.4425 18.0332C29.5144 18.1051 29.5714 18.1905 29.6103 18.2844C29.6492 18.3783 29.6692 18.479 29.6692 18.5807V19.3549C29.6692 19.4566 29.6492 19.5573 29.6103 19.6512C29.5714 19.7451 29.5144 19.8305 29.4425 19.9024C29.3706 19.9743 29.2852 20.0313 29.1913 20.0702C29.0974 20.1091 28.9967 20.1291 28.895 20.1291Z" fill="#845252"/>
<path d="M24.2501 25.5483C23.0889 25.5483 22.0167 25.1756 21.3839 24.5511C21.0792 24.2509 21.0762 23.7607 21.3763 23.4564C21.6765 23.1517 22.168 23.1487 22.4711 23.4488C22.7289 23.7033 23.3496 24 24.2501 24C25.1505 24 25.7712 23.7033 26.0291 23.4488C26.3322 23.1486 26.8237 23.1517 27.1238 23.4564C27.424 23.7607 27.4209 24.251 27.1162 24.5511C26.4836 25.1756 25.4114 25.5483 24.2501 25.5483Z" fill="#F5C89D"/>
<path d="M18.8297 17.0322C18.4456 17.0322 18.1123 16.7469 18.0624 16.3563C18.0087 15.9322 18.3081 15.5443 18.7322 15.4902L20.4719 15.268C20.8982 15.2109 21.2838 15.5141 21.3383 15.9374C21.392 16.3616 21.0926 16.7494 20.6684 16.8035L18.9288 17.0258C18.896 17.0302 18.8629 17.0323 18.8297 17.0322ZM29.67 17.0322C29.6375 17.0322 29.6042 17.0304 29.571 17.0258L27.8314 16.8035C27.4073 16.7494 27.1079 16.3616 27.1616 15.9374C27.216 15.5141 27.6039 15.212 28.028 15.268L29.7676 15.4902C30.1918 15.5443 30.4912 15.9322 30.4375 16.3563C30.3875 16.7469 30.054 17.0322 29.67 17.0322Z" fill="#A46A5A"/>
<path d="M32.7026 2.37553C32.4787 2.34619 32.2857 2.22375 32.1521 2.04159C31.5903 1.27584 30.6924 0.774188 29.6695 0.774188C29.2143 0.773757 28.7647 0.874566 28.3533 1.06931C28.0891 1.19428 27.7761 1.15509 27.5565 0.962156C26.8789 0.366562 25.9977 0 25.0243 0C23.7712 0 22.668 0.601875 21.9639 1.52719C21.7418 1.81903 21.3607 1.90013 21.0228 1.75753C20.6967 1.61941 20.3462 1.54828 19.9921 1.54838C19.2498 1.54838 18.6734 1.87678 18.3218 2.15053C18.0092 2.394 17.6494 2.57288 17.2721 2.69409C13.8999 3.777 11.5669 7.10278 11.9401 10.8349L12.6372 17.8731C12.7989 17.834 12.9644 17.8065 13.1347 17.8065H14.1856C15.0408 17.8065 15.734 17.1132 15.734 16.2581V13.6452C15.734 11.5073 17.467 9.77428 19.6049 9.77428H21.7495C22.2047 9.77428 22.6251 9.98484 22.9286 10.324C23.0982 10.5136 23.2858 10.6862 23.4888 10.8394C23.4888 10.8394 27.7501 12.112 34.0012 8.73187C37.2944 6.95119 33.9514 2.69419 33.9514 2.69419C33.5494 2.53843 33.1301 2.43145 32.7026 2.37553ZM39.0159 38.4015L35.3115 37.3119L24.2501 41.82L12.4022 36.7295L9.55959 37.5655C7.25325 38.2439 5.66943 40.3606 5.66943 42.7646V45.6773C5.66943 46.9601 6.70931 47.9999 7.992 47.9999H40.5082C40.7796 47.9999 41.0402 47.9535 41.2823 47.8679L42.0442 46.2598V42.4487C42.0442 40.5773 40.8113 38.9296 39.0159 38.4015Z" fill="#C6805D"/>
<path d="M38.9405 37.5656L36.098 36.7295L34.7017 37.9326L38.5038 39.0506C40.1511 39.5351 41.2823 41.0468 41.2823 42.7637V47.8679C42.1823 47.548 42.8306 46.6871 42.8306 45.6774V42.7646C42.8307 40.3606 41.2468 38.2439 38.9405 37.5656Z" fill="#A46A5A"/>
<path d="M34.0876 36.9072L31.8793 37.1025C29.9221 39.0504 27.2297 40.258 24.2498 40.258C20.6588 40.258 17.4851 38.5042 15.5128 35.8145L12.4019 36.7295C14.8574 40.7003 19.2381 43.3549 24.2498 43.3549C28.675 43.3549 32.6083 41.2852 35.1586 38.0674L34.0876 36.9072Z" fill="#E29A6C"/>
<path d="M33.9513 2.69409C34.3309 3.67875 34.4421 4.80047 34.1489 5.97394C33.6234 8.07675 31.826 9.70078 29.6805 10.0082C29.1866 10.0797 28.6852 10.0831 28.1904 10.0184C27.3443 9.90712 26.4912 9.9989 25.7147 10.3528C25.0159 10.6719 24.2569 10.8377 23.4888 10.8392C24.1319 11.3245 24.9295 11.6128 25.7985 11.6128C26.3144 11.6128 26.802 11.5043 27.2495 11.3171C27.5336 11.1982 27.8646 11.2599 28.0774 11.4827C29.1283 12.5836 30.6354 13.2444 32.2981 13.1527C34.9014 13.009 37.1054 10.9252 37.3799 8.3324C37.6502 5.78006 36.1468 3.5445 33.9513 2.69409Z" fill="#A46A5A"/>
<path d="M32.987 35.8145C32.652 36.2721 32.2817 36.7028 31.8794 37.1025L35.1588 38.0673C35.4975 37.6399 35.8111 37.1932 36.0979 36.7294L32.987 35.8145Z" fill="#C6805D"/>
</svg>
