<svg width="201" height="200" viewBox="0 0 201 200" fill="none" xmlns="http://www.w3.org/2000/svg">
<path d="M31.7513 158.826L22.3144 158.968C19.1484 159.015 15.954 159.039 12.769 159.043H12.552V158.826V153.546V153.311H12.7926L22.2814 153.344L27.0281 153.386L31.7749 153.443H31.8787V153.542L31.7513 158.826ZM31.7513 158.826L31.6475 153.546L31.7513 153.65L27.0045 153.707L22.2578 153.749L12.769 153.782L13.0003 153.546V158.826L12.7832 158.609C15.9257 158.609 19.0587 158.638 22.2201 158.685L31.7513 158.826Z" fill="#212121"/>
<path d="M21.1582 160.204H2.17603V165.484H21.1582V160.204Z" fill="#212121"/>
<path d="M123.657 179.229H104.674V184.508H123.657V179.229Z" fill="#212121"/>
<path d="M198.821 115.756H179.839V121.036H198.821V115.756Z" fill="#212121"/>
<path d="M147.027 8.51584L137.59 8.65739C134.424 8.70458 131.23 8.72817 128.04 8.73289H127.823V8.51584V3.23592V3H128.059L137.552 3.03303L142.294 3.07549L147.041 3.13212H147.145V3.2312L147.027 8.51584ZM147.027 8.51584L146.928 3.2312L147.027 3.33501L142.28 3.39163L137.538 3.4341L128.045 3.46712L128.281 3.2312V8.51112L128.064 8.29407C131.201 8.29407 134.339 8.32238 137.5 8.36957L147.027 8.51584Z" fill="#212121"/>
<path d="M157.615 9.89355H138.633V15.1735H157.615V9.89355Z" fill="#212121"/>
<path d="M21.1583 8.51584L11.7215 8.65739C8.55542 8.70458 5.36105 8.72817 2.17139 8.73289H1.95435V8.51584V3.23592V3H2.19027L11.6837 3.03303L16.4305 3.07549L21.1489 3.13212H21.2527V3.2312L21.1583 8.51584ZM21.1583 8.51584L21.0592 3.2312L21.1583 3.33501L16.4399 3.39163L11.6932 3.4341L2.1997 3.46712L2.43562 3.2312V8.51112L2.21858 8.29407C5.35633 8.29407 8.49408 8.32238 11.6554 8.36957L21.1583 8.51584Z" fill="#212121"/>
<path d="M106.888 80.1748H87.9053V85.4547H106.888V80.1748Z" fill="#212121"/>
<path d="M193.022 6.51953H161.13V45.2059H193.022V6.51953Z" fill="#212121"/>
<path d="M189.38 10.0488H164.773V41.6717H189.38V10.0488Z" fill="#0D0D0D"/>
<path d="M165.731 10.0488H164.773V41.6717H165.731V10.0488Z" fill="#C7C7C7"/>
<path d="M193.98 6.51953H193.022V45.2059H193.98V6.51953Z" fill="#C7C7C7"/>
<path d="M177.621 34.6465H183.425V17.3629H177.621V34.6465Z" fill="#212121"/>
<path d="M186.195 23.1144H170.251V14.1494H186.195V23.1144ZM170.723 22.6426H185.723V14.6213H170.723V22.6426Z" fill="#212121"/>
<path d="M193.022 101.855H161.13V140.542H193.022V101.855Z" fill="#212121"/>
<path d="M189.38 105.39H164.773V137.013H189.38V105.39Z" fill="#0D0D0D"/>
<path d="M165.731 105.39H164.773V137.013H165.731V105.39Z" fill="#C7C7C7"/>
<path d="M193.98 101.855H193.022V140.542H193.98V101.855Z" fill="#C7C7C7"/>
<path d="M178.824 112.703H173.021V129.987H178.824V112.703Z" fill="#212121"/>
<path d="M186.195 118.455H170.251V109.514H186.195V118.455ZM170.723 117.983H185.723V109.986H170.723V117.983Z" fill="#212121"/>
<path d="M193.022 54.3643H161.13V93.0506H193.022V54.3643Z" fill="#212121"/>
<path d="M189.38 57.8945H164.773V89.5174H189.38V57.8945Z" fill="#0D0D0D"/>
<path d="M165.731 57.8945H164.773V89.5174H165.731V57.8945Z" fill="#C7C7C7"/>
<path d="M193.98 54.3643H193.022V93.0506H193.98V54.3643Z" fill="#C7C7C7"/>
<path d="M179.66 66.0664H174.691V78.6316H179.66V66.0664Z" fill="#212121"/>
<path d="M185.133 82.6046H171.308V73.4697H185.133V82.6046ZM171.78 82.1328H184.661V73.9416H171.78V82.1328Z" fill="#313131"/>
<path d="M19.2473 144.666C27.0563 152.333 28.368 164.129 26.7213 174.51C26.6788 174.745 26.3155 174.679 26.3155 174.462C26.3155 172.103 26.3863 169.744 26.3768 167.437C26.3344 167.328 26.3014 167.229 26.2589 167.12C24.2205 165.639 22.3426 163.964 21.1819 161.671C19.8796 159.104 19.3653 156.211 18.3508 153.531C18.2564 153.277 18.5301 153.352 18.7094 153.484C23.4609 156.985 24.9755 160.755 26.3391 165.795C26.3095 163.161 26.033 160.535 25.5134 157.953C24.4848 153.168 22.4558 148.431 19.0208 144.883C19.0066 144.868 18.9954 144.85 18.9879 144.831C18.9804 144.812 18.9768 144.791 18.9773 144.771C18.9777 144.75 18.9822 144.73 18.9905 144.711C18.9987 144.692 19.0107 144.675 19.0255 144.661C19.0404 144.647 19.0579 144.635 19.0771 144.628C19.0963 144.62 19.1168 144.617 19.1374 144.617C19.158 144.618 19.1783 144.622 19.1972 144.63C19.216 144.639 19.2331 144.651 19.2473 144.666Z" fill="#E0DCDD"/>
<path d="M17.78 145.558C16.4353 145.605 15.5907 147.752 14.5432 148.389C14.4331 148.478 14.3057 148.542 14.169 148.579C14.0324 148.615 13.8896 148.623 13.7499 148.6C13.6102 148.578 13.4768 148.527 13.3582 148.45C13.2396 148.373 13.1386 148.271 13.0616 148.153C12.0235 146.704 13.4485 144.921 14.7885 143.906C13.8448 144.298 13.038 144.991 12.0047 145.185C11.8727 145.229 11.7327 145.244 11.5943 145.229C11.4558 145.214 11.3223 145.17 11.2027 145.099C11.0831 145.027 10.9802 144.931 10.9012 144.817C10.8222 144.702 10.7689 144.572 10.7448 144.435C10.273 142.462 12.769 141.604 14.4677 141.542C13.6419 140.967 11.2827 139.409 12.5378 138.645C13.7929 137.881 16.5768 140.103 17.4827 140.834C18.8086 141.915 20.394 143.524 20.4554 145.208C20.5308 147.181 18.8133 145.973 17.78 145.558Z" fill="#CF2A51"/>
<path opacity="0.1" d="M17.78 145.558C16.4353 145.605 15.5907 147.752 14.5432 148.389C14.4331 148.478 14.3057 148.542 14.169 148.579C14.0324 148.615 13.8896 148.623 13.7499 148.6C13.6102 148.578 13.4768 148.527 13.3582 148.45C13.2396 148.373 13.1386 148.271 13.0616 148.153C12.0235 146.704 13.4485 144.921 14.7885 143.906C13.8448 144.298 13.038 144.991 12.0047 145.185C11.8727 145.229 11.7327 145.244 11.5943 145.229C11.4558 145.214 11.3223 145.17 11.2027 145.099C11.0831 145.027 10.9802 144.931 10.9012 144.817C10.8222 144.702 10.7689 144.572 10.7448 144.435C10.273 142.462 12.769 141.604 14.4677 141.542C13.6419 140.967 11.2827 139.409 12.5378 138.645C13.7929 137.881 16.5768 140.103 17.4827 140.834C18.8086 141.915 20.394 143.524 20.4554 145.208C20.5308 147.181 18.8133 145.973 17.78 145.558Z" fill="white"/>
<path d="M18.1671 145.888C16.4496 145.11 13.1514 146.233 12.8683 145.581C12.3021 144.26 14.9349 143.35 16.3599 143.175C15.0482 142.821 12.538 142.255 12.6135 140.99C12.7079 139.448 16.4684 140.773 18.37 142.231C20.7669 144.072 20.7292 145.846 20.3517 146.2C19.8138 146.671 18.4502 146.02 18.1671 145.888Z" fill="#CF2A51"/>
<path d="M37.0311 143.911C28.9343 151.253 27.1743 163.021 28.4247 173.439C28.4625 173.675 28.8258 173.623 28.8352 173.406C28.9249 171.047 28.9437 168.688 29.0381 166.38C29.0853 166.277 29.123 166.178 29.1702 166.074C31.2652 164.658 33.1998 163.068 34.4501 160.817C35.8657 158.302 36.4696 155.434 37.569 152.796C37.6728 152.541 37.3944 152.607 37.2104 152.73C32.3316 156.033 30.6754 159.76 29.123 164.743C29.2505 162.111 29.6265 159.496 30.246 156.934C31.4539 152.216 33.6622 147.54 37.2293 144.124C37.3614 143.996 37.1727 143.779 37.0311 143.911Z" fill="#E0DCDD"/>
<path d="M38.4655 144.855C39.8056 144.954 40.5652 147.129 41.5844 147.799C41.6907 147.893 41.8156 147.964 41.9511 148.006C42.0865 148.048 42.2293 148.061 42.3701 148.044C42.511 148.027 42.6466 147.981 42.7682 147.908C42.8898 147.834 42.9945 147.736 43.0754 147.62C44.1701 146.204 42.8159 144.374 41.5136 143.326C42.4573 143.756 43.2217 144.477 44.2456 144.709C44.3759 144.758 44.5154 144.778 44.6544 144.769C44.7935 144.759 44.9288 144.72 45.0511 144.653C45.1734 144.586 45.2799 144.494 45.3632 144.382C45.4465 144.27 45.5047 144.142 45.5337 144.006C46.0622 142.052 43.6464 141.08 41.9241 140.972C42.7687 140.434 45.1893 138.966 43.9625 138.141C42.7357 137.315 39.8716 139.443 38.9374 140.141C37.569 141.165 35.927 142.713 35.8043 144.388C35.6486 146.374 37.4133 145.228 38.4655 144.855Z" fill="#CF2A51"/>
<path opacity="0.1" d="M38.4655 144.855C39.8056 144.954 40.5652 147.129 41.5844 147.799C41.6907 147.893 41.8156 147.964 41.9511 148.006C42.0865 148.048 42.2293 148.061 42.3701 148.044C42.511 148.027 42.6466 147.981 42.7682 147.908C42.8898 147.834 42.9945 147.736 43.0754 147.62C44.1701 146.204 42.8159 144.374 41.5136 143.326C42.4573 143.756 43.2217 144.477 44.2456 144.709C44.3759 144.758 44.5154 144.778 44.6544 144.769C44.7935 144.759 44.9288 144.72 45.0511 144.653C45.1734 144.586 45.2799 144.494 45.3632 144.382C45.4465 144.27 45.5047 144.142 45.5337 144.006C46.0622 142.052 43.6464 141.08 41.9241 140.972C42.7687 140.434 45.1893 138.966 43.9625 138.141C42.7357 137.315 39.8716 139.443 38.9374 140.141C37.569 141.165 35.927 142.713 35.8043 144.388C35.6486 146.374 37.4133 145.228 38.4655 144.855Z" fill="white"/>
<path d="M38.0645 145.17C39.8103 144.458 43.0613 145.704 43.368 145.067C43.9861 143.764 41.3862 142.759 39.9707 142.528C41.2966 142.226 43.8257 141.754 43.7974 140.49C43.7596 138.942 39.9566 140.126 37.9984 141.509C35.5354 143.255 35.4835 145.029 35.8657 145.397C36.3894 145.906 37.7719 145.288 38.0645 145.17Z" fill="#CF2A51"/>
<path d="M28.7786 163.304C28.2295 167.231 27.3889 171.113 26.2636 174.916C26.248 174.991 26.2032 175.057 26.139 175.099C26.0749 175.141 25.9966 175.155 25.9216 175.14C25.8465 175.124 25.7807 175.079 25.7386 175.015C25.6966 174.951 25.6818 174.873 25.6974 174.798C26.2306 171.221 27.1979 167.72 27.7311 164.129C28.3109 160.51 28.5196 156.84 28.3539 153.178C28.0095 147.152 26.3722 140.735 22.4417 136.022C22.3521 135.908 22.5361 135.748 22.6257 135.852C30.5008 145.039 29.2315 156.297 29.2315 157.307C30.3498 153.503 31.4964 149.148 35.7146 145.275C35.8987 145.109 36.0402 145.19 36.0072 145.473C35.2522 152.522 33.2941 156.207 29.2032 159.977C29.0758 161.091 28.9295 162.204 28.7786 163.304Z" fill="#E0DCDD"/>
<path d="M22.3427 137.074C20.9271 136.446 18.9737 138.249 17.5723 138.376C16.8316 138.442 16.2795 138.15 16.1568 137.385C15.8077 135.361 18.1857 134.224 20.0778 133.861C18.8841 133.785 17.7186 134.106 16.5437 133.79C16.3831 133.771 16.2286 133.717 16.0908 133.632C15.953 133.548 15.8351 133.434 15.7454 133.3C15.6557 133.165 15.5963 133.013 15.5712 132.853C15.5461 132.693 15.5559 132.53 15.6 132.374C16.1191 130.1 19.1341 130.435 20.9177 131.247C20.3515 130.237 18.6859 127.434 20.3704 127.269C22.0548 127.104 23.829 130.817 24.3999 132.035C25.2351 133.818 26.0655 136.281 25.2822 138.065C24.3857 140.146 23.2109 138.022 22.3427 137.074Z" fill="#CF2A51"/>
<path opacity="0.1" d="M22.3427 137.074C20.9271 136.446 18.9737 138.249 17.5723 138.376C16.8316 138.442 16.2795 138.15 16.1568 137.385C15.8077 135.361 18.1857 134.224 20.0778 133.861C18.8841 133.785 17.7186 134.106 16.5437 133.79C16.3831 133.771 16.2286 133.717 16.0908 133.632C15.953 133.548 15.8351 133.434 15.7454 133.3C15.6557 133.165 15.5963 133.013 15.5712 132.853C15.5461 132.693 15.5559 132.53 15.6 132.374C16.1191 130.1 19.1341 130.435 20.9177 131.247C20.3515 130.237 18.6859 127.434 20.3704 127.269C22.0548 127.104 23.829 130.817 24.3999 132.035C25.2351 133.818 26.0655 136.281 25.2822 138.065C24.3857 140.146 23.2109 138.022 22.3427 137.074Z" fill="white"/>
<path d="M22.5832 137.616C21.1677 135.941 17.2042 135.446 17.2373 134.629C17.3128 132.968 20.5071 133.355 22.0737 133.889C20.894 132.86 18.5726 131.01 19.2851 129.736C20.1627 128.184 23.3948 131.454 24.631 133.922C26.1928 137.036 25.2869 138.867 24.6971 139.036C23.8855 139.268 22.8097 137.89 22.5832 137.616Z" fill="#CF2A51"/>
<path d="M33.9358 165.427L37.4086 191.968H16.27C16.7041 189.609 20.6393 165.394 20.6393 165.394L33.9358 165.427Z" fill="#CF2A51"/>
<path d="M69.357 82.9348C68.9015 81.3528 68.1958 79.8539 67.2668 78.4948C66.302 77.1506 65.1788 75.9275 63.9214 74.8521C58.9057 70.4876 51.9932 68.7984 45.4582 69.2467C42.4727 69.4271 39.5459 70.1548 36.8235 71.3935C35.4969 72.0122 34.2668 72.8195 33.1714 73.7905C32.157 74.6917 31.0151 75.8005 30.5433 77.0934C30.5282 77.1399 30.5286 77.1901 30.5443 77.2363C30.5601 77.2826 30.5905 77.3226 30.6308 77.3502C30.6712 77.3778 30.7194 77.3916 30.7682 77.3895C30.8171 77.3875 30.864 77.3697 30.9019 77.3387C31.5011 76.8669 32.006 76.2724 32.5769 75.7534C33.1528 75.2387 33.7646 74.7657 34.4077 74.3378C35.6708 73.5066 37.0145 72.8047 38.4183 72.2428C44.0285 69.978 50.6862 70.0346 56.3483 72.0824C59.0941 73.0848 61.6288 74.5906 63.8223 76.5225C64.8558 77.4358 65.8034 78.4419 66.6534 79.5281C67.5646 80.6311 68.4046 81.791 69.1683 83.0009C69.2532 83.0669 69.3995 83.0386 69.357 82.9348Z" fill="#E0DCDD"/>
<path d="M65.2189 74.0078C64.6519 73.1028 63.9393 72.2976 63.1097 71.625C62.241 70.9867 61.3227 70.4187 60.3636 69.9264C56.8514 68.0316 53.0062 66.8331 49.0394 66.397C47.1255 66.1862 45.1903 66.2818 43.3065 66.6801C42.4138 66.8798 41.5331 67.1303 40.6689 67.4303C39.7888 67.6903 38.9523 68.0799 38.187 68.5863C38.1691 68.6033 38.1569 68.6256 38.1522 68.6499C38.1476 68.6742 38.1507 68.6993 38.1611 68.7218C38.1716 68.7442 38.1888 68.7628 38.2104 68.7749C38.232 68.787 38.2568 68.792 38.2814 68.7892C39.2911 68.5816 40.2584 68.2089 41.2729 68.0154C42.2873 67.822 43.2357 67.7842 44.2266 67.6898C55.8198 66.614 64.2044 73.7813 65.0254 74.2107C65.0532 74.2306 65.0872 74.2398 65.1211 74.2366C65.1551 74.2334 65.1868 74.218 65.2103 74.1933C65.2339 74.1686 65.2477 74.1362 65.2493 74.1022C65.2508 74.0681 65.2401 74.0346 65.2189 74.0078Z" fill="#E0DCDD"/>
<path d="M25.1077 110.703C27.4669 112.227 30.2602 111.113 32.1098 109.325C34.0349 107.466 35.3466 105.031 36.3564 102.582C37.3001 100.346 37.9654 98.0103 38.7156 95.703C39.4658 93.3957 40.1311 90.9846 41.3202 88.8755C42.4328 86.8583 44.2989 85.3637 46.5104 84.7185C48.9066 84.0737 51.454 84.3029 53.6966 85.365C54.8843 85.8889 55.9619 86.6334 56.8721 87.559C57.7056 88.4647 58.3547 89.524 58.7831 90.6779C59.7787 93.1692 60.2788 95.821 60.8828 98.4208C61.3782 100.572 62.4068 102.512 64.4216 103.573C66.1391 104.479 68.2529 104.753 69.9988 103.776C70.0248 103.764 70.0453 103.742 70.0565 103.716C70.0677 103.689 70.0688 103.659 70.0595 103.632C70.0502 103.605 70.0312 103.582 70.0061 103.567C69.981 103.553 69.9515 103.548 69.9233 103.554C68.8237 103.768 67.6895 103.726 66.6092 103.429C65.5289 103.133 64.5316 102.591 63.6949 101.846C62.8326 100.974 62.2354 99.8742 61.9727 98.6756C61.5952 97.2601 61.3121 95.8021 60.9252 94.3771C60.2835 92.0179 59.6465 89.437 58.0942 87.4741C56.5131 85.5727 54.3817 84.2078 51.9932 83.5672C49.6939 82.8982 47.2383 83.0043 45.0053 83.8692C42.785 84.7874 40.9741 86.481 39.9094 88.6348C37.6823 92.8814 36.9651 97.7225 35.2476 102.167C34.4572 104.374 33.2778 106.421 31.7654 108.212C30.1941 109.967 27.6698 111.269 25.32 110.292C25.2658 110.267 25.2037 110.263 25.1468 110.282C25.0899 110.301 25.0427 110.342 25.0151 110.395C24.9875 110.448 24.9818 110.51 24.999 110.568C25.0163 110.625 25.0553 110.674 25.1077 110.703Z" fill="#E0DCDD"/>
<path d="M24.5934 103.262C25.6786 103.408 26.6742 102.592 27.1791 101.695C27.8654 100.405 28.3915 99.0362 28.7456 97.6185C29.4931 94.6858 30.439 91.8072 31.5766 89.0027C33.464 84.6098 36.4036 80.3727 40.636 77.938C42.7332 76.7167 45.072 75.9687 47.4886 75.7462C49.9052 75.5237 52.3412 75.8321 54.6262 76.6498C56.8017 77.4433 58.7903 78.6769 60.4676 80.2736C62.1936 81.9718 63.5832 83.9809 64.5632 86.1952C65.5425 88.4904 66.3469 90.8564 66.9696 93.2728C67.2479 94.2401 67.6396 95.415 68.5738 95.9387C68.9223 96.1571 69.3369 96.2446 69.7438 96.1859C70.1508 96.1271 70.5237 95.9259 70.7962 95.6179C70.8481 95.5566 70.7632 95.4905 70.7065 95.5282C70.4419 95.704 70.1258 95.7856 69.8091 95.7599C69.4924 95.7342 69.1936 95.6028 68.9607 95.3867C68.4566 94.9587 68.1219 94.3646 68.017 93.7117C67.7009 92.4094 67.4461 91.0976 67.0734 89.8001C66.3762 87.1637 65.2764 84.6507 63.8129 82.3497C62.4946 80.3756 60.7989 78.6817 58.8233 77.3656C56.8478 76.0495 54.6314 75.1372 52.3018 74.6811C49.9722 74.225 47.5754 74.2342 45.2494 74.7081C42.9234 75.182 40.7141 76.1113 38.7487 77.4425C34.6719 80.2075 31.9117 84.4683 30.0856 88.9649C29.1419 91.4295 28.3539 93.951 27.7264 96.5144C27.415 97.8106 27.0307 99.0882 26.5751 100.341C26.3619 100.89 26.1096 101.423 25.8202 101.936C25.7159 102.172 25.5509 102.375 25.3419 102.526C25.133 102.677 24.8877 102.77 24.6311 102.795C24.5692 102.79 24.5078 102.809 24.4604 102.85C24.4131 102.89 24.3837 102.947 24.3787 103.009C24.3737 103.071 24.3935 103.133 24.4338 103.18C24.474 103.227 24.5314 103.257 24.5934 103.262Z" fill="#E0DCDD"/>
<path d="M25.9098 112.742C25.9028 112.794 25.916 112.847 25.9466 112.89C25.9773 112.933 26.0232 112.963 26.0749 112.973C26.458 113.064 26.8477 113.124 27.2404 113.152C27.4164 113.162 27.5928 113.162 27.7689 113.152C29.8497 113.049 32.0154 111.869 34.1954 109.647C36.0381 107.766 37.556 105.593 38.6873 103.215C39.5793 101.178 40.2654 99.057 40.7351 96.8833C40.8861 96.2746 41.0418 95.6612 41.2069 95.0572C41.7212 93.1227 42.6555 90.3388 44.7646 88.5836C45.4765 87.9904 46.3123 87.5647 47.2106 87.3376C48.1089 87.1106 49.0467 87.0881 49.9549 87.2718C51.3648 87.5578 52.7009 88.1305 53.8803 88.9543C55.0597 89.7782 56.0571 90.8356 56.8108 92.061C57.9928 94.0311 58.4187 96.3636 58.0092 98.6244C57.5078 101.068 56.3213 103.318 54.5884 105.112C52.7839 106.969 50.6452 108.469 48.2846 109.533C47.2843 110.005 45.9584 110.633 44.5995 111.133L43.8209 111.421C42.8301 111.784 41.8109 112.152 40.8342 112.581C40.7709 112.612 40.7208 112.664 40.6929 112.729C40.6651 112.794 40.6615 112.866 40.6827 112.933C40.7039 113 40.7485 113.057 40.8084 113.094C40.8682 113.131 40.9394 113.145 41.0088 113.134C41.6929 112.987 42.3677 112.799 42.9952 112.614C47.5485 111.307 53.22 109.194 56.6787 104.423C58.2417 102.356 59.149 99.8677 59.2832 97.2796C59.3449 94.9051 58.6071 92.5788 57.1882 90.6738C55.4028 88.2199 52.7293 86.5606 49.7378 86.0498C48.7534 85.8877 47.7462 85.9298 46.7786 86.1733C45.8111 86.4168 44.904 86.8566 44.1135 87.4653C42.3677 88.8195 41.0843 90.9758 40.1925 94.0711C39.9471 94.911 39.7206 95.7697 39.5177 96.6002C39.0676 98.6098 38.4359 100.574 37.6304 102.47C36.4906 104.942 34.9164 107.189 32.9827 109.104C31.4021 110.661 28.939 112.515 26.1693 112.52C26.1057 112.516 26.0431 112.537 25.9947 112.578C25.9462 112.62 25.9158 112.678 25.9098 112.742Z" fill="#E0DCDD"/>
<path d="M25.0038 105.985C25.5926 106.117 26.2044 106.11 26.7897 105.962C27.3749 105.815 27.9173 105.531 28.3728 105.135C29.4061 104.31 29.9393 102.937 30.3639 101.719C31.3501 98.8882 32.1145 95.9628 33.0959 93.1176C34.62 88.6822 36.8706 84.1525 40.8671 81.4819C42.6644 80.3006 44.6933 79.5169 46.818 79.1833C48.9427 78.8497 51.1141 78.9738 53.187 79.5474C55.4814 80.1967 57.5613 81.446 59.2124 83.1664C60.7265 84.845 61.9268 86.7821 62.7559 88.8851C63.1947 89.9421 63.5722 91.0179 63.9072 92.1125C64.2136 93.2707 64.5789 94.4125 65.0019 95.5334C65.7757 97.3924 67.7244 99.6243 69.9704 98.7042C70.0068 98.6866 70.0364 98.6574 70.0546 98.6213C70.0729 98.5852 70.0786 98.544 70.0711 98.5043C70.0636 98.4645 70.0432 98.4284 70.013 98.4014C69.9829 98.3744 69.9447 98.3581 69.9043 98.355C69.2788 98.2968 68.6734 98.1034 68.1299 97.7881C67.5865 97.4728 67.1181 97.0432 66.7571 96.529C65.9597 95.406 65.653 94.0188 65.2897 92.7118C64.654 90.2705 63.7156 87.9182 62.4964 85.7096C61.4095 83.7557 59.9299 82.048 58.1507 80.6939C56.2248 79.3017 54.0025 78.3747 51.6582 77.9856C49.5128 77.6353 47.319 77.7175 45.2057 78.2271C43.0925 78.7368 41.1024 79.6637 39.3525 80.9535C35.4693 83.8553 33.2563 88.4039 31.7417 92.8911C30.8877 95.4107 30.2271 97.9823 29.4438 100.521C28.8493 102.455 27.7971 105.711 25.1548 105.282C25.0677 105.276 24.9814 105.301 24.9117 105.354C24.842 105.407 24.7935 105.483 24.7752 105.568C24.7569 105.653 24.7699 105.742 24.8119 105.819C24.8538 105.895 24.922 105.954 25.0038 105.985Z" fill="#E0DCDD"/>
<path d="M24.8103 107.835C25.1207 108.184 25.4956 108.471 25.9144 108.679C26.7826 109.113 28.0519 108.972 28.9201 108.623C29.987 108.134 30.8829 107.337 31.4916 106.334C32.1571 105.262 32.7195 104.129 33.1714 102.951C33.714 101.644 34.1858 100.299 34.6483 98.9592C35.5919 96.265 36.4365 93.5472 37.4793 90.886C38.3852 88.5268 39.5129 86.2761 41.4098 84.5586C43.0985 83.0091 45.1951 81.9748 47.4524 81.5777C49.7096 81.1806 52.0333 81.4372 54.1495 82.3173C56.3203 83.2292 58.1665 84.7729 59.4483 86.7479C60.8638 88.9042 61.5055 91.4192 62.1284 93.8775C62.6851 96.0668 63.1334 98.4307 64.5348 100.266C65.7002 101.8 68.1821 103.012 69.8194 101.417C69.8366 101.402 69.8478 101.382 69.8508 101.359C69.8539 101.336 69.8485 101.313 69.8358 101.294C69.8231 101.275 69.8039 101.261 69.7818 101.255C69.7597 101.249 69.7361 101.252 69.7156 101.262C68.5454 101.842 67.1724 101.446 66.1956 100.653C65.2961 99.8651 64.622 98.8523 64.2422 97.7183C63.2749 95.2128 62.8927 92.528 62.0057 89.9753C61.2797 87.7124 60.0132 85.6605 58.3159 83.9971C56.6862 82.4403 54.7001 81.3063 52.5311 80.6942C50.3299 80.1235 48.0186 80.1322 45.8217 80.7192C43.6249 81.3062 41.6173 82.4517 39.9942 84.0443C38.1965 85.8514 37.0688 88.1304 36.1581 90.4849C35.1673 93.0659 34.3651 95.7176 33.4686 98.3364C32.9968 99.6764 32.525 101.007 32.0012 102.333C31.6029 103.475 31.1056 104.58 30.5149 105.636C29.9705 106.619 29.1185 107.396 28.0896 107.849C27.6104 108.061 27.0834 108.141 26.5627 108.083C26.042 108.024 25.5463 107.827 25.1265 107.514C24.9094 107.349 24.6499 107.655 24.8103 107.835Z" fill="#E0DCDD"/>
<path d="M70.3762 94.2174C70.4116 93.6045 70.4116 92.9901 70.3762 92.3772C69.8857 87.3187 67.728 82.5668 64.2423 78.8683C61.0137 75.37 56.7125 73.0459 52.0169 72.2625C47.4029 71.5588 42.6842 72.2832 38.4939 74.3386C34.3242 76.3973 30.8918 79.693 28.6654 83.7755C26.3754 87.8 25.3418 92.4175 25.6975 97.0343C25.6975 97.1333 25.8579 97.1145 25.8626 97.0343C26.1614 92.0521 27.7784 87.2387 30.548 83.0866C33.0116 79.4632 36.4779 76.6364 40.5228 74.952C44.559 73.2962 49.0072 72.9239 53.2625 73.8857C57.6456 74.9741 61.5498 77.4724 64.3744 80.9963C65.8657 82.8651 67.0681 84.9471 67.9415 87.1727C68.8046 89.4756 69.4877 91.8419 69.9846 94.2504C70.0554 94.4297 70.3621 94.4297 70.3762 94.2174Z" fill="#E0DCDD"/>
<path d="M63.1711 111.236C63.6901 110.471 64.8037 111.146 65.3793 111.467C66.2428 111.939 67.1723 112.585 68.2104 112.411C68.2273 112.405 68.2457 112.406 68.2616 112.414C68.2775 112.422 68.2897 112.436 68.2953 112.453C68.3009 112.47 68.2996 112.489 68.2917 112.504C68.2837 112.52 68.2697 112.533 68.2528 112.538C67.9161 112.705 67.5464 112.794 67.1708 112.799C66.7952 112.803 66.4233 112.724 66.0824 112.566C65.715 112.416 65.3559 112.246 65.0066 112.057C64.6757 111.866 64.3222 111.717 63.9543 111.613C63.887 111.604 63.8188 111.604 63.7514 111.613C63.6807 111.613 63.6996 111.613 63.6901 111.637C63.6241 111.76 63.7279 112.019 63.7656 112.142C63.8529 112.461 63.9748 112.769 64.1289 113.062C64.4566 113.664 64.8716 114.214 65.3604 114.694C65.6355 114.976 65.9269 115.24 66.2333 115.487C66.5448 115.737 66.9128 115.926 67.2101 116.19C67.2345 116.203 67.2526 116.226 67.2606 116.252C67.2686 116.279 67.2657 116.307 67.2525 116.332C67.2394 116.356 67.2171 116.374 67.1905 116.382C67.164 116.39 67.1354 116.387 67.111 116.374C66.7519 116.263 66.4091 116.104 66.0918 115.902C65.7599 115.708 65.4444 115.487 65.1481 115.242C64.5494 114.749 64.0457 114.151 63.6618 113.477C63.469 113.142 63.3109 112.788 63.19 112.42C63.0941 112.238 63.0425 112.036 63.0392 111.83C63.036 111.625 63.0811 111.421 63.1711 111.236Z" fill="#E0DCDD"/>
<path d="M64.7518 112.699C65.3149 112.957 65.8403 113.291 66.3136 113.69C66.5243 113.866 66.7414 114.031 66.9647 114.186C67.0732 114.261 67.1912 114.332 67.3044 114.398C67.4205 114.457 67.5403 114.509 67.6631 114.554C67.6864 114.561 67.7069 114.575 67.7215 114.594C67.7361 114.614 67.7439 114.638 67.7439 114.662C67.7439 114.686 67.7361 114.71 67.7215 114.73C67.7069 114.749 67.6864 114.764 67.6631 114.771C67.1016 114.907 66.5118 114.539 66.0871 114.219C65.5514 113.83 65.0746 113.366 64.6716 112.841C64.6055 112.794 64.6621 112.699 64.7518 112.699Z" fill="#E0DCDD"/>
<path d="M27.8679 114.43C27.8656 114.441 27.8656 114.452 27.8679 114.463C27.8712 114.502 27.8867 114.538 27.9122 114.567C27.9377 114.596 27.9718 114.616 28.0095 114.624C28.1486 114.66 28.2908 114.682 28.4341 114.69C28.9329 114.698 29.4303 114.634 29.911 114.501C30.5841 114.341 31.2388 114.112 31.8644 113.817C33.0874 113.226 34.2188 112.461 35.224 111.547C38.6448 108.556 41.0512 104.295 42.3771 98.8737C42.462 98.5151 42.5517 98.1518 42.6366 97.7932C43.1084 95.835 43.5803 93.8156 44.6655 92.1311C45.2361 91.2407 46.013 90.501 46.9304 89.9748C47.8859 89.4953 48.9481 89.2679 50.0162 89.3142C50.0712 89.3117 50.1239 89.2911 50.166 89.2557C50.2081 89.2202 50.2373 89.1719 50.2492 89.1181C50.261 89.0643 50.2547 89.0081 50.2314 88.9583C50.208 88.9084 50.1689 88.8677 50.12 88.8423C48.8979 88.2431 47.3786 88.8093 46.7841 89.0783C45.7299 89.5788 44.806 90.3169 44.0852 91.2346C42.6696 92.9851 42.1412 95.2311 41.6316 97.4016L41.4995 97.9442C40.9551 100.396 40.1137 102.773 38.994 105.022C37.8428 107.229 36.3 109.208 34.4407 110.863C33.5407 111.689 32.5385 112.396 31.4587 112.968C30.9041 113.246 30.3301 113.484 29.7411 113.68C29.543 113.746 29.3401 113.798 29.1372 113.855C28.7384 113.948 28.3508 114.084 27.9812 114.26C27.9487 114.276 27.9209 114.3 27.901 114.33C27.881 114.36 27.8696 114.394 27.8679 114.43Z" fill="#E0DCDD"/>
<path d="M39.7063 111.755C39.7036 111.792 39.711 111.828 39.7276 111.86C39.7443 111.893 39.7696 111.92 39.8007 111.939C39.8283 111.959 39.8611 111.971 39.8951 111.972C39.9294 111.974 39.9636 111.966 39.9942 111.95C40.0249 111.935 40.0508 111.911 40.0697 111.883C40.4833 111.372 41.0281 110.984 41.6456 110.76C42.2024 110.5 42.7827 110.288 43.3442 110.056L43.599 109.953C45.142 109.349 46.3971 108.811 47.5484 108.259C52.6537 105.81 55.6971 102.639 56.6077 98.8219C57.1248 96.7863 56.8693 94.6312 55.8905 92.7729C55.4462 91.8884 54.8223 91.1063 54.0586 90.4767C53.2949 89.847 52.4082 89.3836 51.4552 89.1161C51.3989 89.1015 51.3392 89.1078 51.2871 89.1338C51.2351 89.1598 51.1942 89.2038 51.1721 89.2577C51.1497 89.3069 51.1464 89.3627 51.163 89.4142C51.1796 89.4657 51.2148 89.5092 51.2618 89.5361C53.0904 90.5953 54.5197 92.2268 55.329 94.179C56.3624 96.9157 55.8622 101.389 51.04 105.008C49.2369 106.281 47.2945 107.345 45.2505 108.179C44.2313 108.627 43.08 109.122 41.9759 109.721C41.5187 109.951 41.0828 110.221 40.6736 110.528C40.2974 110.846 39.9782 111.226 39.7299 111.651C39.7111 111.682 39.7029 111.719 39.7063 111.755Z" fill="#E0DCDD"/>
<path d="M26.3581 115.388C27.0516 115.805 27.8383 116.042 28.6466 116.077C30.1264 116.099 31.5876 115.746 32.8931 115.048C34.8352 114.022 36.5964 112.684 38.107 111.09C38.2533 110.939 38.3901 110.783 38.5316 110.618L38.659 110.481C38.6929 110.465 38.7233 110.442 38.7487 110.415C39.9425 109.226 41.5798 108.565 43.151 107.924C43.6983 107.702 44.2693 107.452 44.8024 107.225C47.44 105.998 49.2378 104.781 50.625 103.271C52.0317 101.814 52.9189 99.933 53.1493 97.9205C53.3145 96.1747 52.904 93.74 51.2195 92.6075C49.535 91.4751 47.4023 92.282 46.1519 93.6456C44.6986 95.2357 43.9578 97.4817 43.3586 99.3077L43.151 99.9447C42.6059 101.769 41.9083 103.545 41.0654 105.253C40.1335 107.017 38.9669 108.647 37.5974 110.099C36.2352 111.542 34.6827 112.793 32.9828 113.817C30.7463 115.152 28.5663 115.558 26.5138 115.039H26.4761C26.4334 115.037 26.3911 115.049 26.3549 115.071C26.3187 115.094 26.2902 115.127 26.2732 115.166C26.2598 115.207 26.2609 115.252 26.2764 115.292C26.2919 115.333 26.3207 115.366 26.3581 115.388ZM40.6549 107.98C40.9947 107.508 41.2919 107.036 41.5562 106.565C42.5413 104.814 43.3324 102.961 43.9154 101.039C44.0145 100.733 44.1088 100.426 44.2126 100.096C44.7553 98.3782 45.3167 96.5993 46.3123 95.0989C46.7888 94.2975 47.5029 93.6643 48.3554 93.287C48.7439 93.134 49.1604 93.0649 49.5775 93.0841C50.0756 93.1028 50.5507 93.2986 50.9175 93.6362C52.333 94.9573 52.4227 97.3779 51.8612 99.1897C51.2218 101.009 50.0537 102.596 48.5064 103.748C46.7559 105.14 44.6845 106.069 42.8443 106.89L42.6697 106.966C42.0138 107.31 41.3108 107.626 40.6549 107.98Z" fill="#E0DCDD"/>
<path d="M43.7265 104.839C43.7152 104.88 43.7163 104.924 43.7298 104.965C43.7432 105.007 43.7683 105.043 43.802 105.07C43.8367 105.098 43.8798 105.115 43.9247 105.117C43.9547 105.119 43.9847 105.114 44.0125 105.102C44.0403 105.091 44.0652 105.073 44.0851 105.051C44.1889 104.947 44.9533 104.4 45.3214 104.15C45.4393 104.069 45.562 103.994 45.68 103.909C45.93 103.744 46.1896 103.574 46.4349 103.385C47.1706 102.828 47.8616 102.215 48.5016 101.55C49.7378 100.252 50.3182 98.9547 50.2144 97.6855C50.2126 97.3722 50.1233 97.0658 49.9566 96.8006C49.7898 96.5355 49.5522 96.3223 49.2707 96.185C48.9281 96.0702 48.5579 96.0672 48.2135 96.1767C47.8691 96.2861 47.5685 96.5022 47.355 96.7937C46.9258 97.3657 46.5912 98.0029 46.3641 98.681C46.1471 99.2284 45.9536 99.7993 45.7602 100.347L45.6045 100.79C45.0737 102.111 44.4542 103.394 43.7501 104.631C43.7277 104.66 43.7137 104.695 43.7095 104.732C43.7054 104.768 43.7113 104.805 43.7265 104.839ZM46.1376 101.573C46.583 100.41 47.1063 99.2783 47.7042 98.1856L47.7325 98.1384C47.8929 97.8553 48.2751 97.1947 48.6431 97.1193H48.7234C48.801 97.1258 48.8749 97.1554 48.9357 97.2042C49.2565 97.4543 49.2093 98.1479 49.0584 98.6716C48.7092 99.9267 47.6428 100.941 46.8124 101.757L46.1518 102.39C45.9253 102.602 45.7036 102.819 45.4818 103.036C45.7649 102.512 45.9678 101.998 46.1376 101.573Z" fill="#E0DCDD"/>
<path d="M46.7084 126.128C45.8934 127.747 45.1626 129.407 44.5191 131.101C44.5175 131.112 44.5195 131.123 44.5247 131.133C44.53 131.143 44.5382 131.151 44.5482 131.155C44.5583 131.16 44.5695 131.162 44.5804 131.159C44.5913 131.157 44.6012 131.152 44.6087 131.144C45.5288 129.775 46.2932 128.312 47.1567 126.897C47.7229 125.986 48.7468 123.858 50.1293 124.203C50.7097 124.344 51.1249 124.986 51.4457 125.444C51.8664 126.077 52.3233 126.685 52.8141 127.265C53.569 128.124 54.9846 129.247 56.2208 128.945C56.2774 128.945 56.3104 128.841 56.2538 128.813C55.9235 128.638 55.5744 128.53 55.2488 128.341C54.8899 128.138 54.5572 127.893 54.2579 127.609C53.6805 127.02 53.1709 126.368 52.7386 125.665C52.0308 124.571 51.2051 123.127 49.6669 123.306C48.2419 123.471 47.2699 124.967 46.7084 126.128Z" fill="#E0DCDD"/>
<path d="M26.292 116.61C27.7878 118.578 30.4631 118.229 32.3977 117.181C33.5125 116.533 34.5645 115.783 35.5401 114.94C36.5722 114.07 37.6772 113.29 38.843 112.609C38.8574 112.605 38.8695 112.595 38.8766 112.581C38.8837 112.568 38.8852 112.553 38.8808 112.538C38.8764 112.524 38.8665 112.512 38.8532 112.505C38.8399 112.498 38.8244 112.496 38.81 112.501C36.4178 112.883 34.6908 114.86 32.7421 116.105C30.9114 117.285 28.2549 117.993 26.3675 116.502C26.3203 116.445 26.2449 116.549 26.292 116.61Z" fill="#E0DCDD"/>
<path d="M65.2473 120.338C65.3983 120.338 65.4597 120.112 65.304 120.074C62.8881 119.475 60.9819 117.663 59.8117 115.506C58.7533 113.541 58.1427 111.366 58.0234 109.137C57.9143 107.46 58.162 105.78 58.7501 104.206C58.9054 103.681 59.1763 103.197 59.5428 102.79C59.6258 102.685 59.7304 102.599 59.8495 102.537C59.9686 102.475 60.0995 102.44 60.2334 102.432C60.3674 102.425 60.5013 102.447 60.6263 102.495C60.7513 102.544 60.8645 102.619 60.9583 102.715C61.2164 103.073 61.4482 103.45 61.6519 103.843C62.2073 104.675 62.9467 105.37 63.8129 105.871C64.6749 106.373 65.6474 106.653 66.644 106.688C67.702 106.715 68.7465 106.445 69.6591 105.909C69.7204 105.871 69.6921 105.753 69.6166 105.777C68.359 106.161 67.0159 106.164 65.7564 105.787C64.497 105.409 63.3775 104.667 62.539 103.654C61.9633 102.913 61.6519 101.766 60.5525 101.681C59.4531 101.597 58.6887 102.474 58.2546 103.385C57.2882 105.567 56.9705 107.982 57.3392 110.34C57.9196 114.497 60.4204 120.116 65.2473 120.338Z" fill="#E0DCDD"/>
<path d="M47.789 129.535C47.6376 129.965 47.5688 130.419 47.5861 130.875C47.5896 130.888 47.5968 130.901 47.607 130.911C47.6171 130.92 47.6297 130.927 47.6434 130.93C47.6571 130.933 47.6714 130.932 47.6846 130.927C47.6978 130.922 47.7095 130.914 47.7182 130.903C47.9372 130.56 48.1042 130.186 48.2137 129.794C48.3599 129.389 48.5109 128.983 48.6855 128.586C48.8576 128.188 49.0594 127.803 49.2895 127.435C49.3651 127.273 49.4672 127.125 49.5915 126.996L49.6245 126.973L49.7 127.048C49.7709 127.116 49.8371 127.188 49.8981 127.265C50.3773 127.924 50.894 128.554 51.4458 129.153C51.9176 129.591 52.6679 130.068 53.3332 129.917C53.3422 129.913 53.3499 129.906 53.3552 129.898C53.3606 129.889 53.3634 129.88 53.3634 129.87C53.3634 129.86 53.3606 129.85 53.3552 129.842C53.3499 129.833 53.3422 129.827 53.3332 129.823C52.9544 129.629 52.6036 129.384 52.2904 129.096C51.9984 128.794 51.7346 128.465 51.5024 128.115C51.2335 127.747 50.9928 127.355 50.7003 127.001C50.4077 126.647 50.0822 126.189 49.615 126.189C49.1479 126.189 48.9262 126.609 48.7421 126.944C48.5182 127.344 48.3287 127.763 48.1759 128.195C48.0485 128.638 47.907 129.082 47.789 129.535Z" fill="#E0DCDD"/>
<path d="M66.375 117.795C66.3931 117.8 66.4127 117.799 66.4302 117.792C66.4476 117.784 66.4619 117.771 66.4704 117.754C66.4789 117.737 66.4811 117.717 66.4765 117.699C66.472 117.681 66.4611 117.664 66.4458 117.653C65.8659 117.164 65.3292 116.625 64.8415 116.044C64.377 115.439 63.9455 114.809 63.5486 114.157C62.7586 113.034 62.0821 111.836 61.5292 110.58C61.2436 109.97 61.0954 109.305 61.0951 108.632C61.1847 107.688 62.1331 108.377 62.5436 108.731C63.0003 109.178 63.4892 109.591 64.0063 109.967C65.0337 110.628 66.2532 110.925 67.4697 110.811C68.0547 110.707 68.6179 110.505 69.1353 110.212C69.2532 110.16 69.1683 110 69.0503 110.038C68.5876 110.151 68.1106 110.196 67.6348 110.17C67.2435 110.177 66.8522 110.153 66.4646 110.099C65.6587 109.973 64.8921 109.665 64.2234 109.198C63.4212 108.627 61.9491 106.711 60.8261 107.636C59.8541 108.433 60.6044 110.288 60.996 111.194C61.6441 112.569 62.4348 113.872 63.3552 115.082C64.1101 116.12 65.1104 117.361 66.375 117.795Z" fill="#E0DCDD"/>
<path d="M29.3024 121.404C30.3308 121.609 31.3985 121.429 32.3033 120.899C32.4968 120.796 32.6761 120.678 32.8648 120.56C32.7657 120.673 32.6713 120.781 32.5817 120.895C31.9335 121.686 31.5273 122.648 31.4115 123.664C31.4112 123.678 31.4152 123.692 31.423 123.703C31.4309 123.715 31.4421 123.723 31.4552 123.728C31.4682 123.733 31.4824 123.733 31.4958 123.73C31.5091 123.726 31.5209 123.718 31.5295 123.707C32.0579 122.9 32.6006 122.088 33.2045 121.348C33.8085 120.607 34.5115 119.875 35.0919 119.097C35.1144 119.062 35.1264 119.022 35.1264 118.981C35.1264 118.94 35.1144 118.899 35.0919 118.865C35.0694 118.83 35.0374 118.803 34.9997 118.787C34.9619 118.77 34.9202 118.765 34.8796 118.771C33.8793 118.998 33.129 119.715 32.242 120.187C31.3034 120.678 30.3126 121.063 29.2882 121.333C29.2505 121.333 29.2505 121.395 29.3024 121.404Z" fill="#E0DCDD"/>
<path d="M40.2537 125.821C39.717 126.82 39.2442 127.852 38.8381 128.911C38.825 128.937 38.8226 128.967 38.8314 128.994C38.8403 129.022 38.8597 129.045 38.8853 129.058C38.911 129.071 38.9408 129.073 38.9682 129.064C38.9956 129.056 39.0184 129.036 39.0316 129.011C39.8337 127.93 40.4801 126.732 41.2256 125.609C41.9712 124.486 42.7119 123.466 43.5235 122.443C44.8137 120.776 46.3772 119.34 48.1476 118.196C48.6014 117.906 49.0743 117.648 49.5631 117.422C50.0671 117.137 50.6314 116.975 51.2098 116.95C52.2573 117.007 52.9368 118.012 53.4039 118.79C54.5316 120.678 55.4942 122.669 57.24 124.108C58.0046 124.774 58.9274 125.232 59.92 125.439C60.3428 125.561 60.7933 125.548 61.2082 125.401C61.3356 125.321 61.4158 125.203 61.2884 125.09C61.2459 125.057 61.1799 125.09 61.2082 125.156C61.2365 125.222 60.5995 125.094 60.5712 125.085L60.1654 124.972C59.8804 124.884 59.604 124.77 59.3397 124.632C58.8354 124.369 58.3609 124.052 57.9242 123.688C56.9925 122.855 56.2105 121.869 55.6121 120.772C55.0695 119.852 54.5882 118.885 53.9843 118.002C53.5141 117.206 52.7967 116.585 51.9412 116.233C50.8654 115.884 49.7754 116.271 48.8034 116.705C47.8658 117.129 46.978 117.656 46.1564 118.276C44.4806 119.547 43.0429 121.105 41.9098 122.877C41.3067 123.828 40.7539 124.811 40.2537 125.821Z" fill="#E0DCDD"/>
<path d="M42.9574 127.925C42.6257 128.713 42.3912 129.539 42.259 130.384C42.2578 130.397 42.2613 130.411 42.2688 130.423C42.2764 130.434 42.2876 130.443 42.3007 130.447C42.3138 130.452 42.328 130.451 42.341 130.447C42.354 130.442 42.365 130.433 42.3723 130.421C42.8441 129.6 43.1744 128.69 43.6651 127.869C44.1558 127.048 44.6088 126.236 45.0807 125.448C45.9634 124.033 46.9862 122.71 48.1335 121.499C48.6761 120.947 49.3131 120.475 50.1058 120.555C50.8493 120.706 51.5168 121.111 51.9931 121.702C53.0595 122.896 53.5502 124.533 54.6496 125.703C55.1369 126.237 55.7449 126.647 56.4229 126.898C57.101 127.149 57.8293 127.235 58.547 127.147C58.5942 127.147 58.6084 127.048 58.547 127.034C57.6232 126.813 56.7575 126.396 56.0085 125.812C55.2785 125.185 54.6775 124.422 54.2391 123.566C53.4275 122.15 52.6396 120.612 51.1061 119.904C50.4336 119.581 49.6614 119.534 48.9545 119.772C48.2176 120.093 47.5699 120.589 47.0671 121.216C45.8684 122.515 44.8366 123.959 43.9954 125.514C43.5926 126.292 43.2457 127.098 42.9574 127.925Z" fill="#E0DCDD"/>
<path d="M36.1299 127.128C36.1185 127.165 36.1214 127.206 36.1379 127.242C36.1544 127.277 36.1835 127.306 36.2195 127.321H36.2809C36.3077 127.321 36.3342 127.315 36.358 127.303C36.3819 127.29 36.4024 127.272 36.4177 127.25C37.1316 126.134 37.9049 125.057 38.7344 124.023C39.6061 122.963 40.5371 121.953 41.523 120.999C43.1568 119.33 44.9019 117.774 46.7463 116.341C47.6565 115.648 48.6446 115.064 49.6906 114.6C50.6862 114.166 52.0498 113.576 52.9935 114.416C53.5413 114.985 53.9753 115.653 54.2722 116.384C54.4043 116.658 54.5365 116.922 54.6733 117.172C55.2468 118.238 55.9215 119.246 56.6881 120.182C57.4323 121.096 58.3238 121.879 59.3257 122.499C60.2837 123.102 61.3763 123.459 62.5059 123.537C62.5445 123.541 62.5832 123.53 62.614 123.506C62.6447 123.483 62.6652 123.448 62.671 123.41C62.6813 123.373 62.6766 123.333 62.6581 123.3C62.6396 123.266 62.6086 123.241 62.5719 123.23C59.4342 122.131 57.4194 119.729 56.287 117.908C55.9709 117.398 55.683 116.846 55.4141 116.318C55.1451 115.789 54.8667 115.256 54.5459 114.747C53.8617 113.638 52.9841 113.072 51.9555 113.039C50.7192 113.006 49.4358 113.543 48.4591 114.006C47.3859 114.524 46.3719 115.157 45.4346 115.893C43.5389 117.435 41.7701 119.126 40.1453 120.951C38.4608 122.768 36.7999 124.778 36.1299 127.128Z" fill="#E0DCDD"/>
<path d="M65.5824 119.347C65.7381 119.423 65.8325 119.192 65.7145 119.097C64.1344 117.895 62.7715 116.432 61.685 114.77C60.7952 113.323 60.1808 111.723 59.8731 110.052C59.7101 109.196 59.6264 108.328 59.623 107.457C59.623 106.82 59.4579 105.211 60.3921 105.206C61.3264 105.201 61.8407 106.324 62.3833 106.862C63.0032 107.491 63.7343 108 64.5396 108.363C65.3383 108.737 66.2273 108.875 67.1018 108.76C67.9763 108.646 68.7998 108.284 69.4751 107.716C69.4859 107.707 69.493 107.695 69.4952 107.681C69.4973 107.667 69.4943 107.653 69.4867 107.642C69.4791 107.63 69.4675 107.622 69.454 107.618C69.4405 107.614 69.4262 107.616 69.4138 107.622C67.3377 108.778 64.6151 107.877 63.0109 106.329C62.3597 105.706 61.8313 104.805 60.9065 104.555C60.7194 104.482 60.519 104.45 60.3185 104.46C60.118 104.47 59.9219 104.523 59.7434 104.615C59.5649 104.707 59.408 104.836 59.2831 104.993C59.1583 105.15 59.0682 105.332 59.0191 105.527C58.8311 106.396 58.777 107.289 58.8587 108.174C58.9015 109.071 59.0375 109.961 59.2644 110.83C60.194 114.284 62.3361 117.705 65.5824 119.347Z" fill="#E0DCDD"/>
<path d="M34.7992 123.773C34.4218 124.425 34.1405 125.127 33.964 125.859C33.9456 125.946 33.9575 126.036 33.9979 126.115C34.0383 126.194 34.1046 126.257 34.1858 126.293C34.221 126.305 34.2574 126.313 34.2943 126.317C34.3525 126.319 34.4104 126.306 34.4619 126.279C34.5133 126.251 34.5565 126.211 34.5868 126.161C34.8652 125.731 35.1295 125.293 35.3937 124.859C35.9563 123.883 36.587 122.948 37.2811 122.061C38.3148 120.811 39.4376 119.638 40.6406 118.55C43.071 116.519 45.6152 114.629 48.2608 112.888C52.0356 110.378 54.626 109.052 55.2205 109.325C55.6263 109.514 55.6452 110.189 55.664 110.741C55.6641 110.899 55.672 111.056 55.6876 111.213C55.7844 111.986 55.923 112.753 56.1029 113.511C56.4194 114.963 56.9658 116.355 57.7213 117.635C58.4158 118.799 59.3582 119.796 60.4816 120.555C61.0949 120.956 62.6851 121.858 64.1478 121.579C64.1859 121.564 64.2189 121.539 64.2427 121.505C64.2666 121.472 64.2804 121.433 64.2824 121.392C64.2844 121.351 64.2745 121.31 64.254 121.275C64.2334 121.24 64.2031 121.211 64.1666 121.192C63.926 121.098 63.6948 121.013 63.4542 120.928C62.9482 120.756 62.4548 120.55 61.9773 120.31C61.2878 119.938 60.6528 119.473 60.0899 118.927C58.9458 117.775 58.0849 116.373 57.575 114.832C57.0996 113.329 56.7833 111.781 56.6313 110.213C56.6272 109.878 56.5474 109.549 56.3979 109.25C56.2483 108.951 56.0329 108.69 55.7678 108.486C55.2111 108.122 54.2532 108.372 53.7814 108.575C51.073 109.736 42.3722 115.294 38.9042 118.512C37.8254 119.538 36.8531 120.669 36.0024 121.891C35.5668 122.495 35.1651 123.124 34.7992 123.773Z" fill="#E0DCDD"/>
<path d="M27.9104 119.334C29.727 120.122 31.8786 119.334 33.5347 118.513C35.1909 117.692 36.5545 116.583 38.1069 115.682C38.508 115.455 38.909 115.243 39.3242 115.049C39.5319 114.955 39.7442 114.865 39.9565 114.785C40.065 114.743 40.1924 114.662 40.3057 114.7C40.4189 114.738 40.4425 114.7 40.3529 114.79C40.2632 114.879 40.2962 114.87 40.2632 114.908C39.7253 115.578 38.8807 116.059 38.2343 116.616C36.9121 117.733 35.7103 118.986 34.6483 120.353C33.648 121.65 32.6052 123.141 32.2891 124.779C32.2891 124.859 32.3834 124.887 32.4259 124.831C33.0629 123.962 33.5961 123.019 34.2284 122.146C34.8493 121.295 35.5355 120.493 36.2809 119.749C36.9462 119.079 37.6398 118.432 38.3428 117.805C39.0459 117.177 39.7867 116.639 40.4189 115.974C40.8577 115.502 41.641 114.559 40.7822 114.087C40.0886 113.709 39.06 114.356 38.4466 114.662C36.7102 115.531 35.1437 116.705 33.4545 117.64C32.5853 118.13 31.6622 118.518 30.7037 118.796C29.7896 119.03 28.8532 119.166 27.9104 119.201C27.8349 119.206 27.8349 119.305 27.9104 119.334Z" fill="#E0DCDD"/>
<path d="M49.5774 128.534C49.5766 128.517 49.5766 128.499 49.5774 128.482C49.5831 128.466 49.5925 128.451 49.6048 128.439C49.6171 128.427 49.6321 128.418 49.6485 128.412C49.6648 128.407 49.6823 128.405 49.6994 128.407C49.7165 128.41 49.7329 128.416 49.7473 128.425L49.785 128.449C49.9502 128.51 50.0587 128.751 50.12 128.893C50.1814 129.034 50.2757 129.246 50.3559 129.416C50.5117 129.756 50.6485 130.105 50.8278 130.44C50.8374 130.455 50.8414 130.472 50.8388 130.49C50.8362 130.507 50.8273 130.523 50.8138 130.534C50.8004 130.545 50.7833 130.551 50.7658 130.55C50.7483 130.549 50.7318 130.542 50.7193 130.53C50.3849 130.302 50.0993 130.01 49.8794 129.671C49.7807 129.506 49.694 129.334 49.6199 129.157C49.5735 129.045 49.5433 128.928 49.5302 128.808C49.5162 128.714 49.5328 128.618 49.5774 128.534Z" fill="#E0DCDD"/>
<path d="M12.6179 77.6317H11.2024V61.0889H27.7452V62.5044H12.6179V77.6317Z" fill="#CF2A51"/>
<path d="M83.9322 133.814H67.3894V132.399H82.5167V117.271H83.9322V133.814Z" fill="#CF2A51"/>
<path d="M27.7452 133.814H11.2024V117.271H12.6179V132.399H27.7452V133.814Z" fill="#CF2A51"/>
<path d="M83.9322 77.6317H82.5167V62.5044H67.3894V61.0889H83.9322V77.6317Z" fill="#CF2A51"/>
<path d="M87.5748 137.461H86.4565V137.107H87.2209V136.343H87.5748V137.461Z" fill="#CF2A51"/>
<path d="M84.5598 137.461H82.6724V137.107H84.5598V137.461ZM80.7851 137.461H78.8977V137.107H80.7851V137.461ZM77.0103 137.461H75.123V137.107H77.0103V137.461ZM73.2356 137.461H71.3482V137.107H73.2356V137.461ZM69.4609 137.461H67.5735V137.107H69.4609V137.461ZM65.6861 137.461H63.7987V137.107H65.6861V137.461ZM61.9114 137.461H60.024V137.107H61.9114V137.461ZM58.1366 137.461H56.2493V137.107H58.1366V137.461ZM54.3619 137.461H52.4745V137.107H54.3619V137.461ZM50.5872 137.461H48.6998V137.107H50.5872V137.461ZM46.8124 137.461H44.925V137.107H46.8124V137.461ZM43.0377 137.461H41.1503V137.107H43.0377V137.461ZM39.2629 137.461H37.3756V137.107H39.2629V137.461ZM35.4882 137.461H33.6008V137.107H35.4882V137.461ZM31.7135 137.461H29.8261V137.107H31.7135V137.461ZM27.9387 137.461H26.0514V137.107H27.9387V137.461ZM24.164 137.461H22.2766V137.107H24.164V137.461ZM20.3892 137.461H18.5019V137.107H20.3892V137.461ZM16.6145 137.461H14.7271V137.107H16.6145V137.461ZM12.8398 137.461H10.9524V137.107H12.8398V137.461Z" fill="#CF2A51"/>
<path d="M8.67808 137.461H7.55981V136.343H7.9137V137.107H8.67808V137.461Z" fill="#CF2A51"/>
<path d="M7.91369 134.442H7.54565V132.554H7.89954L7.91369 134.442ZM7.91369 130.667H7.54565V128.779H7.89954L7.91369 130.667ZM7.91369 126.892H7.54565V125.005H7.89954L7.91369 126.892ZM7.91369 123.117H7.54565V121.23H7.89954L7.91369 123.117ZM7.91369 119.343H7.54565V117.455H7.89954L7.91369 119.343ZM7.91369 115.568H7.54565V113.68H7.89954L7.91369 115.568ZM7.91369 111.793H7.54565V109.906H7.89954L7.91369 111.793ZM7.91369 108.018H7.54565V106.131H7.89954L7.91369 108.018ZM7.91369 104.244H7.54565V102.356H7.89954L7.91369 104.244ZM7.91369 100.469H7.54565V98.5815H7.89954L7.91369 100.469ZM7.91369 96.6942H7.54565V94.8068H7.89954L7.91369 96.6942ZM7.91369 92.9194H7.54565V91.0321H7.89954L7.91369 92.9194ZM7.91369 89.1447H7.54565V87.2573H7.89954L7.91369 89.1447ZM7.91369 85.3699H7.54565V83.4826H7.89954L7.91369 85.3699ZM7.91369 81.5952H7.54565V79.7078H7.89954L7.91369 81.5952ZM7.91369 77.7969H7.54565V75.9095H7.89954L7.91369 77.7969ZM7.91369 74.0221H7.54565V72.1348H7.89954L7.91369 74.0221ZM7.91369 70.2474H7.54565V68.36H7.89954L7.91369 70.2474ZM7.91369 66.4727H7.54565V64.5853H7.89954L7.91369 66.4727ZM7.91369 62.6979H7.54565V60.8105H7.89954L7.91369 62.6979Z" fill="#CF2A51"/>
<path d="M7.9137 58.5646H7.55981V57.4463H8.67808V57.8002H7.9137V58.5646Z" fill="#CF2A51"/>
<path d="M84.5598 57.8002H82.6724V57.4463H84.5598V57.8002ZM80.7851 57.8002H78.8977V57.4463H80.7851V57.8002ZM77.0103 57.8002H75.123V57.4463H77.0103V57.8002ZM73.2356 57.8002H71.3482V57.4463H73.2356V57.8002ZM69.4609 57.8002H67.5735V57.4463H69.4609V57.8002ZM65.6861 57.8002H63.7987V57.4463H65.6861V57.8002ZM61.9114 57.8002H60.024V57.4463H61.9114V57.8002ZM58.1366 57.8002H56.2493V57.4463H58.1366V57.8002ZM54.3619 57.8002H52.4745V57.4463H54.3619V57.8002ZM50.5872 57.8002H48.6998V57.4463H50.5872V57.8002ZM46.8124 57.8002H44.925V57.4463H46.8124V57.8002ZM43.0377 57.8002H41.1503V57.4463H43.0377V57.8002ZM39.2629 57.8002H37.3756V57.4463H39.2629V57.8002ZM35.4882 57.8002H33.6008V57.4463H35.4882V57.8002ZM31.7135 57.8002H29.8261V57.4463H31.7135V57.8002ZM27.9387 57.8002H26.0514V57.4463H27.9387V57.8002ZM24.164 57.8002H22.2766V57.4463H24.164V57.8002ZM20.3892 57.8002H18.5019V57.4463H20.3892V57.8002ZM16.6145 57.8002H14.7271V57.4463H16.6145V57.8002ZM12.8398 57.8002H10.9524V57.4463H12.8398V57.8002Z" fill="#CF2A51"/>
<path d="M87.5748 58.5646H87.2209V57.8002H86.4565V57.4463H87.5748V58.5646Z" fill="#CF2A51"/>
<path d="M87.5748 134.442H87.2209V132.554H87.5748V134.442ZM87.5748 130.667H87.2209V128.779H87.5748V130.667ZM87.5748 126.892H87.2209V125.005H87.5748V126.892ZM87.5748 123.117H87.2209V121.23H87.5748V123.117ZM87.5748 119.343H87.2209V117.455H87.5748V119.343ZM87.5748 115.568H87.2209V113.68H87.5748V115.568ZM87.5748 111.793H87.2209V109.906H87.5748V111.793ZM87.5748 108.018H87.2209V106.131H87.5748V108.018ZM87.5748 104.244H87.2209V102.356H87.5748V104.244ZM87.5748 100.469H87.2209V98.5815H87.5748V100.469ZM87.5748 96.6942H87.2209V94.8068H87.5748V96.6942ZM87.5748 92.9194H87.2209V91.0321H87.5748V92.9194ZM87.5748 89.1447H87.2209V87.2573H87.5748V89.1447ZM87.5748 85.3699H87.2209V83.4826H87.5748V85.3699ZM87.5748 81.5952H87.2209V79.7078H87.5748V81.5952ZM87.5748 77.7969H87.2209V75.9095H87.5748V77.7969ZM87.5748 74.0221H87.2209V72.1348H87.5748V74.0221ZM87.5748 70.2474H87.2209V68.36H87.5748V70.2474ZM87.5748 66.4727H87.2209V64.5853H87.5748V66.4727ZM87.5748 62.6979H87.2209V60.8105H87.5748V62.6979Z" fill="#CF2A51"/>
<path d="M110.582 191.968H154.152C154.511 190.552 154.855 189.184 155.204 187.825C155.601 186.252 155.989 184.728 156.37 183.253C156.45 182.923 156.539 182.592 156.624 182.267C156.912 181.13 157.191 180.021 157.469 178.964C157.634 178.303 157.799 177.657 157.941 177.02C158.082 176.383 158.271 175.727 158.413 175.104C158.455 174.939 158.498 174.769 158.54 174.632C158.583 174.495 158.63 174.269 158.672 174.094L158.837 173.448C158.899 173.221 158.955 173 159.007 172.778C159.12 172.358 159.224 171.947 159.323 171.542C159.479 170.947 159.625 170.362 159.772 169.791C159.833 169.546 159.899 169.296 159.96 169.055C160.064 168.654 160.163 168.267 160.258 167.89C160.324 167.635 160.385 167.385 160.446 167.144C160.706 166.144 160.942 165.205 161.164 164.313C161.225 164.082 161.277 163.841 161.338 163.634C161.432 163.251 161.527 162.888 161.617 162.534C161.678 162.312 161.73 162.1 161.782 161.888C161.975 161.138 162.15 160.472 162.301 159.854C162.343 159.694 162.381 159.538 162.423 159.382L162.692 158.316C162.725 158.193 162.754 158.071 162.787 157.957C162.82 157.844 162.848 157.717 162.872 157.613C162.895 157.509 162.914 157.457 162.928 157.391C162.942 157.325 162.985 157.179 163.008 157.094C163.016 157.049 163.027 157.005 163.041 156.962L163.141 156.565H120.788C120.788 156.565 119.372 161.383 117.155 169.145C116.683 170.725 116.211 172.448 115.687 174.241C114.182 179.37 112.451 185.409 110.582 191.968Z" fill="#37474F"/>
<path d="M147.018 191.968H148.103C149.717 185.293 151.28 178.607 152.793 171.91C153.158 170.28 153.518 168.649 153.873 167.017L153.973 166.545C153.975 166.528 153.972 166.512 153.963 166.498C153.954 166.484 153.94 166.474 153.924 166.47C153.908 166.466 153.891 166.468 153.876 166.475C153.862 166.483 153.851 166.496 153.845 166.512L153.803 166.663C153.312 168.412 152.824 170.165 152.34 171.924C150.514 178.577 148.74 185.258 147.018 191.968Z" fill="#E0DCDD"/>
<path d="M122.142 156.523L124.029 165.894L125.549 173.566L128.163 186.66L128.432 188.005L128.88 190.241L129.215 191.935H154.157C154.51 190.52 154.86 189.147 155.204 187.792C155.6 186.22 155.989 184.696 156.37 183.22C156.45 182.89 156.539 182.56 156.624 182.234C156.912 181.097 157.191 179.988 157.469 178.931C157.634 178.271 157.799 177.624 157.941 176.987C158.082 176.35 158.271 175.694 158.413 175.072C158.455 174.906 158.498 174.737 158.54 174.6C158.582 174.463 158.63 174.236 158.672 174.062L158.837 173.415C158.899 173.189 158.955 172.967 159.007 172.745C159.12 172.325 159.224 171.915 159.323 171.509C159.479 170.915 159.625 170.33 159.772 169.759C159.838 169.509 159.899 169.263 159.96 169.023C160.064 168.621 160.163 168.235 160.258 167.857C160.324 167.602 160.385 167.352 160.446 167.112C160.706 166.111 160.942 165.172 161.163 164.281C161.225 164.049 161.277 163.809 161.338 163.601C161.432 163.219 161.527 162.856 161.616 162.502C161.678 162.28 161.73 162.068 161.782 161.855C161.975 161.105 162.15 160.44 162.301 159.822C162.343 159.661 162.381 159.505 162.423 159.35L162.692 158.283C162.725 158.161 162.754 158.038 162.787 157.925C162.82 157.812 162.848 157.684 162.872 157.58C162.895 157.477 162.914 157.425 162.928 157.359C162.942 157.293 162.985 157.146 163.008 157.061C163.015 157.016 163.027 156.972 163.041 156.929L163.14 156.533L122.142 156.523Z" fill="#E0DCDD"/>
<path d="M122.137 156.509C122.137 156.745 122.317 159.274 122.723 163.114C122.841 164.242 122.977 165.474 123.138 166.804C123.388 168.899 123.695 171.207 124.081 173.646C124.733 177.893 125.582 182.545 126.686 187.084C127.078 188.717 127.512 190.335 127.969 191.92H182.703C182.057 183.578 181.467 176.033 181 170.088C180.339 161.718 179.924 156.476 179.924 156.476H130.267L122.137 156.509Z" fill="#37474F"/>
<path d="M122.255 161.539C122.317 163.497 122.397 165.455 122.524 167.404C122.656 169.518 122.85 171.627 123.128 173.736C123.133 173.814 123.143 173.891 123.157 173.967C123.418 175.943 123.713 177.913 124.044 179.88C124.36 181.71 124.591 183.687 125.403 185.386C125.71 186.041 126.145 186.628 126.681 187.113C127.176 187.562 127.779 187.875 128.432 188.019C128.539 188.046 128.648 188.063 128.757 188.071C128.786 188.071 128.819 188.071 128.852 188.071C128.831 188.081 128.814 188.098 128.803 188.118C128.792 188.138 128.788 188.161 128.79 188.184C128.814 188.84 128.79 189.51 128.871 190.161C128.871 190.189 128.871 190.218 128.871 190.246C128.937 190.812 129.04 191.374 129.144 191.94H130.088C130.088 191.94 130.088 191.94 130.088 191.907C129.923 191.289 129.786 190.666 129.616 190.019C129.446 189.373 129.239 188.764 129.092 188.132C129.085 188.106 129.068 188.084 129.045 188.071C129.642 188.101 130.234 187.947 130.74 187.629C131.246 187.312 131.643 186.847 131.876 186.297C132.113 185.458 132.13 184.572 131.923 183.725L131.414 180.361C131.093 178.304 130.682 176.265 130.314 174.227C130.263 173.915 130.206 173.604 130.149 173.283C129.418 169.117 128.649 164.946 127.729 160.817C127.696 160.647 127.653 160.477 127.616 160.303C127.578 160.128 127.408 160.223 127.417 160.331C127.446 160.609 127.474 160.888 127.507 161.166C127.667 162.752 127.856 164.328 128.073 165.885C128.337 167.734 128.521 169.593 128.781 171.443L129.05 173.33C129.475 176.374 129.918 179.417 130.437 182.446C130.682 183.862 131.56 186.377 129.531 186.816C129.067 186.919 128.582 186.857 128.158 186.641C127.264 186.109 126.593 185.271 126.271 184.282C125.695 182.668 125.492 180.894 125.195 179.214C124.858 177.361 124.563 175.504 124.308 173.642C123.978 171.32 123.638 168.999 123.27 166.682C123.091 165.498 122.902 164.323 122.713 163.134C122.628 162.591 122.538 162.044 122.449 161.497C122.435 161.388 122.255 161.421 122.255 161.539Z" fill="#E0DCDD"/>
<path d="M170.695 176.09C168.415 176.068 166.147 175.764 163.943 175.184C162.923 174.92 161.918 174.595 160.923 174.269C159.934 173.994 159.008 173.529 158.196 172.901C156.662 171.575 155.945 169.489 155.28 167.64C154.551 165.552 153.96 163.42 153.51 161.256C153.487 161.147 153.331 161.18 153.326 161.284C153.283 163.735 153.601 166.178 154.27 168.536C154.822 170.537 155.563 172.783 157.181 174.198C158.88 175.67 161.192 176.189 163.367 176.458C165.814 176.744 168.289 176.711 170.728 176.359C170.745 176.357 170.762 176.351 170.778 176.343C170.793 176.334 170.807 176.322 170.818 176.308C170.829 176.294 170.837 176.278 170.842 176.261C170.846 176.244 170.848 176.226 170.846 176.208C170.843 176.191 170.838 176.174 170.829 176.158C170.82 176.143 170.809 176.129 170.795 176.118C170.781 176.107 170.765 176.099 170.747 176.094C170.73 176.089 170.712 176.088 170.695 176.09Z" fill="#E0DCDD"/>
<path d="M174.488 161.299C174.611 164.366 174.74 167.433 174.875 170.499C175.19 177.643 175.534 184.787 175.909 191.931H176.937C176.465 184.768 175.97 177.613 175.451 170.466C175.224 167.403 174.992 164.345 174.753 161.294C174.752 161.259 174.737 161.225 174.712 161.201C174.687 161.177 174.653 161.163 174.618 161.164C174.583 161.165 174.55 161.179 174.525 161.204C174.501 161.23 174.488 161.264 174.488 161.299Z" fill="#E0DCDD"/>
<path d="M128.215 93.4281C106.651 112.863 86.6595 134.148 85.0929 145.01C82.9272 160.052 92.1706 164.228 96.3228 164.266C107.609 164.379 128.12 118.639 135.255 101.176C142.181 84.2177 132.952 89.1579 128.215 93.4281Z" fill="#D9887E"/>
<path d="M95.667 124.533L119.646 137.565C119.646 137.565 134.552 110.028 137.987 97.2649C141.422 84.5016 136.293 84.8602 125.034 94.7972C113.776 104.734 95.667 124.533 95.667 124.533Z" fill="#C7C7C7"/>
<path d="M95.667 124.533L119.646 137.565C119.646 137.565 134.552 110.028 137.987 97.2649C141.422 84.5016 136.293 84.8602 125.034 94.7972C113.776 104.734 95.667 124.533 95.667 124.533Z" fill="#CF2A51"/>
<path opacity="0.1" d="M137.986 97.26C134.551 110.028 119.641 137.569 119.641 137.569L97.8091 125.698L138.019 87.9033C139.36 88.9319 139.416 91.9659 137.986 97.26Z" fill="white"/>
<path d="M100.602 120.857C109.846 127.113 118.806 131.176 120.604 132.209C120.689 132.261 120.76 132.119 120.67 132.072C118.853 131.152 109.015 125.028 100.673 120.706C100.579 120.654 100.499 120.795 100.602 120.857Z" fill="#E0DCDD"/>
<path d="M114.239 173.523L184.454 173.726C184.454 173.726 178.32 120.88 152.548 89.6862C146.584 82.4623 136.977 86.3833 132.924 90.2241C122.638 99.9582 114.041 173.268 114.239 173.523Z" fill="#CF2A51"/>
<path d="M138.392 86.8135C140.077 88.045 141.695 89.4039 143.314 90.6637L148.032 94.3205C149.448 95.4293 150.863 96.6797 152.472 97.5526C153.921 98.3453 155.605 98.6992 157.157 97.9914C157.537 97.8154 157.893 97.5935 158.219 97.3308L158.38 97.5809C157.589 98.2384 156.612 98.6312 155.586 98.7039C154.034 98.7936 152.585 98.0858 151.34 97.2365C149.764 96.1701 148.296 94.9386 146.791 93.7732C143.87 91.513 140.987 89.1538 137.986 86.9928C138.104 86.9314 138.246 86.8701 138.392 86.8135ZM166.396 128.85C168.881 128.835 171.361 129.054 173.804 129.506C173.747 129.341 173.686 129.171 173.62 129.006C171.473 128.613 169.296 128.409 167.113 128.397C160.758 128.279 152.255 128.675 148.414 122.447C146.9 119.993 146.409 116.733 148.074 114.218C149.542 112 152.283 111.043 154.855 111.066C156.196 111.074 157.523 111.337 158.766 111.84C160.235 112.509 161.59 113.404 162.782 114.492C165.066 116.436 167.194 118.715 170.053 119.795L169.826 119.248C168.975 118.882 168.168 118.422 167.42 117.875C164.764 115.954 162.617 113.293 159.663 111.793C157.401 110.652 154.811 110.343 152.345 110.92C149.985 111.491 147.886 113.024 147.013 115.36C146.041 117.965 146.8 120.947 148.353 123.169C152.345 128.864 160.201 128.77 166.396 128.85ZM155.619 104.569C157.477 103.678 159.398 102.926 161.366 102.318C161.281 102.181 161.196 102.035 161.107 101.898C156.577 103.168 152.392 106.032 147.721 106.834C142.052 107.732 136.251 106.536 131.4 103.47C130.071 102.638 128.831 101.672 127.7 100.587C127.644 100.738 127.592 100.889 127.54 101.058C128.62 102.074 129.792 102.987 131.041 103.786C135.726 106.787 141.301 108.083 146.829 107.457C149.929 107.037 152.779 105.852 155.619 104.569ZM159.866 154.702C163.328 155.953 166.866 156.984 170.459 157.788C174.441 158.732 179.367 159.524 182.585 162.219C182.543 161.987 182.495 161.747 182.448 161.525C179.235 159.076 174.625 158.293 170.789 157.396C167.186 156.585 163.636 155.555 160.158 154.311C157.172 153.211 154.218 151.734 152.033 149.351C151.091 148.343 150.364 147.154 149.895 145.857C149.426 144.559 149.226 143.179 149.306 141.802C149.49 139.018 151.075 136.484 153.817 135.616C156.756 134.672 160.036 135.781 162.489 137.456C165.292 139.377 167.307 142.26 169.463 144.827C171.506 147.275 173.771 149.545 176.758 150.781C177.878 151.256 179.072 151.535 180.287 151.607C180.254 151.47 180.226 151.324 180.188 151.182C177.805 151.031 175.47 149.861 173.62 148.427C170.897 146.322 168.944 143.392 166.703 140.816C164.65 138.457 162.301 136.362 159.271 135.38C156.648 134.531 153.633 134.616 151.415 136.423C149.481 138.008 148.711 140.575 148.844 143.005C149.004 145.662 150.136 148.168 152.024 150.045C154.185 152.23 157.006 153.636 159.861 154.693L159.866 154.702ZM151.33 166.72C150.83 168.999 151.066 171.33 150.929 173.632H151.363C151.528 170.801 151.08 167.843 152.255 165.177C152.535 164.495 152.96 163.882 153.5 163.381C154.04 162.879 154.683 162.5 155.383 162.271C156.952 161.866 158.614 162.053 160.055 162.794C163.103 164.285 164.73 167.513 166.212 170.381C166.788 171.481 167.378 172.618 168.057 173.684H168.567C166.887 171.136 165.816 168.23 164.004 165.757C162.253 163.398 159.62 161.445 156.53 161.652C153.666 161.846 151.901 164.073 151.325 166.72H151.33ZM123.803 173.566H124.36C124.988 172.46 125.437 171.261 125.69 170.013C126.37 166.88 126.162 163.639 125.945 160.468C125.426 153.121 124.157 145.619 125.766 138.32C126.381 135.33 127.546 132.481 129.201 129.916C130.937 127.321 133.447 124.882 136.481 123.891C137.279 123.594 138.129 123.462 138.98 123.502C139.83 123.542 140.664 123.752 141.431 124.122C142.723 124.849 143.746 125.975 144.347 127.331C145.88 130.596 144.932 134.29 143.469 137.395C140.605 143.453 135.958 148.559 133.65 154.91C132.63 157.746 132.203 160.762 132.396 163.77C132.589 166.778 133.398 169.714 134.773 172.396C134.981 172.797 135.198 173.194 135.429 173.585H135.943C134.809 171.721 133.962 169.696 133.433 167.579C132.66 164.566 132.56 161.42 133.141 158.364C133.782 155.061 135.25 152.027 136.915 149.158C138.581 146.289 140.567 143.496 142.261 140.566C143.955 137.636 145.597 134.347 145.564 130.851C145.531 128.152 144.276 125.292 141.889 123.881C139.058 122.202 135.665 123.344 133.188 125.108C128.314 128.586 125.841 134.422 124.935 140.179C123.756 147.691 125.233 155.278 125.586 162.799C125.733 165.8 125.723 168.9 124.671 171.764C124.449 172.395 124.157 172.999 123.803 173.566ZM130.843 110.151C129.327 108.867 127.425 108.129 125.44 108.056C125.407 108.179 125.374 108.311 125.336 108.433C125.812 108.456 126.285 108.515 126.752 108.608C129.649 109.184 132.584 111.439 132.617 114.624C132.659 118.092 129.715 120.668 126.865 122.103C125.195 122.942 123.444 123.594 121.731 124.316C121.703 124.467 121.67 124.613 121.642 124.787C122.727 124.316 123.831 123.91 124.945 123.457C127.894 122.249 130.866 120.626 132.334 117.653C132.982 116.419 133.188 114.999 132.917 113.631C132.646 112.263 131.913 111.03 130.843 110.137V110.151Z" fill="#0D0D0D"/>
<path d="M157.478 92.0462C177.928 107.744 199.25 134.403 199.585 149.776C199.902 164.969 191.366 163.46 189.932 162.988C174.738 158.269 156.431 116.11 149.646 98.9493C142.908 81.9299 152.401 88.1629 157.478 92.0462Z" fill="#D9887E"/>
<path d="M190.333 122.668L166.59 136.13C166.59 136.13 151.189 108.862 147.527 96.16C143.866 83.458 149.004 83.7364 160.461 93.4611C171.917 103.186 190.333 122.668 190.333 122.668Z" fill="#CF2A51"/>
<path d="M185.331 119.082C176.196 125.499 167.312 129.727 165.514 130.789C165.429 130.84 165.358 130.699 165.443 130.652C167.241 129.708 176.97 123.399 185.232 118.931C185.35 118.879 185.43 119.021 185.331 119.082Z" fill="#E0DCDD"/>
<path d="M168.114 135.2C167.631 135.387 167.158 135.599 166.698 135.837C164.419 131.303 164.834 132.341 162.508 127.816C161.373 125.614 160.234 123.401 159.092 121.177C157.912 118.875 156.856 116.459 155.553 114.241C155.546 114.227 155.534 114.217 155.52 114.212C155.505 114.207 155.489 114.208 155.475 114.215C155.462 114.222 155.451 114.234 155.446 114.249C155.441 114.263 155.443 114.279 155.449 114.293C156.204 116.473 157.228 118.587 158.196 120.691C157.983 120.366 157.78 120.031 157.544 119.714C157.021 119.011 156.506 118.299 156.044 117.563C155.969 117.45 155.78 117.539 155.851 117.657C156.322 118.365 156.69 119.096 157.082 119.842C157.474 120.587 157.903 121.29 158.342 122.008C158.781 122.725 159.238 123.348 159.71 124.003L159.88 124.249C160.503 125.565 161.107 126.886 161.767 128.189C164.051 132.751 166.401 136.342 166.486 136.319C167.086 136.032 167.662 135.698 168.208 135.318C168.246 135.281 168.18 135.196 168.114 135.2Z" fill="#E0DCDD"/>
<path d="M97.3656 163.733C104.405 162.704 108.393 149.629 116.206 128.816C117.575 125.164 99.4039 104.248 96.9362 107.612C93.8268 111.858 85.612 135.351 84.7721 141.74C83.1537 154.329 89.1744 164.936 97.3656 163.733Z" fill="#D9887E"/>
<path d="M108.194 149.875C108.827 148.105 109.497 146.35 110.171 144.595L112.214 139.343C112.922 137.602 113.602 135.851 114.286 134.106C114.635 133.231 114.972 132.355 115.296 131.477C115.631 130.6 115.956 129.717 116.206 128.812C115.815 130.654 115.286 132.465 114.626 134.228C114.007 136.007 113.323 137.762 112.653 139.518C111.983 141.273 111.238 143.005 110.502 144.731C109.766 146.458 108.992 148.181 108.194 149.875Z" fill="#E0DCDD"/>
<path d="M90.4153 122.697C91.4014 115.553 93.4162 105.588 95.9689 103.498C98.6489 101.308 108.383 93.9806 111.191 93.0086C113.998 92.0366 126.53 87.2662 128.833 88.5968C130.678 89.6632 128.493 94.509 122.534 96.8352C117.291 98.8736 114.592 100.78 113.097 101.426C111.601 102.073 107.906 107.036 108.897 109.226C109.487 110.514 113.243 112.029 115.579 110.972C117.914 109.915 118.49 105.309 121.156 103.115C123.822 100.921 128.531 101.2 128.804 102.469C129.078 103.738 127.521 104.333 125.115 108.655C123.567 111.429 123.463 118.092 119.953 122.876C118.188 125.278 115.126 131.667 115.126 131.667L90.4153 122.697Z" fill="#D9887E"/>
<path d="M123.647 101.143C124.509 101.018 125.317 100.652 125.978 100.086C126.244 99.83 126.43 99.5019 126.511 99.142C126.542 98.945 126.542 98.7444 126.511 98.5474C126.505 98.3366 126.425 98.1346 126.285 97.9765C126.238 97.9435 126.309 97.8869 126.332 97.934C126.396 98.0334 126.467 98.128 126.544 98.2171C126.599 98.3018 126.645 98.3919 126.681 98.4861C126.752 98.6729 126.786 98.8716 126.78 99.0712C126.761 99.5079 126.595 99.9254 126.309 100.256C125.964 100.608 125.543 100.877 125.079 101.04C124.614 101.204 124.118 101.258 123.628 101.199C123.619 101.213 123.619 101.152 123.647 101.143Z" fill="#E0DCDD"/>
<path d="M95.969 103.497C98.2386 99.935 104.047 93.499 109.803 91.2908C113.691 89.7951 127.082 96.3065 126.695 98.8639C126.308 101.421 124.02 101.435 120.632 101.034C119.401 100.888 112.875 98.5477 111.762 99.9161C110.167 101.888 108.138 108.612 108.138 108.612L95.969 103.497Z" fill="#D9887E"/>
<path d="M126.36 97.8636C124.704 95.1269 121.071 93.6689 117.452 92.5176C117.395 92.5176 117.362 92.5836 117.419 92.6025C118.339 92.8951 124.237 95.6034 126.323 97.9107C126.346 97.9343 126.379 97.8919 126.36 97.8636Z" fill="#E0DCDD"/>
<path d="M95.969 103.497C98.2386 99.9348 104.047 93.4988 109.803 91.2906C113.691 89.7949 124.289 98.1276 123.897 100.69C123.506 103.252 120.226 103.455 116.593 102.195C115.418 101.784 111.483 99.0194 110.37 100.388C108.775 102.355 104.882 107.244 104.882 107.244L95.969 103.497Z" fill="#D9887E"/>
<path d="M107.104 104.205C107.472 103.644 107.576 103.445 107.968 102.889C108.359 102.332 108.723 101.785 109.138 101.261C109.461 100.773 109.866 100.345 110.336 99.9963C110.823 99.7192 111.385 99.6066 111.941 99.6755C113.201 99.7934 114.338 100.591 115.409 101.204C116.603 101.888 119.075 102.997 120.972 102.794C121.493 102.764 122.002 102.626 122.468 102.389C122.82 102.227 123.126 101.981 123.359 101.671C124.18 100.256 123.152 98.6893 122.104 97.5616C120.146 95.4619 117.513 93.9426 114.961 92.6922C114.333 92.3855 113.701 92.0977 113.073 91.8051C112.363 91.4255 111.579 91.2019 110.775 91.1493C109.459 91.1493 107.303 92.4799 106.637 92.8856C106.585 92.914 106.548 92.8337 106.595 92.8007C107.406 92.2958 109.426 90.6538 111.53 90.7576C112.306 90.8749 113.055 91.1272 113.743 91.5031C114.484 91.8193 115.215 92.1637 115.937 92.5223C117.346 93.2148 118.7 94.0145 119.986 94.9146C121.194 95.778 122.482 96.8019 123.289 98.0429C123.665 98.5922 123.885 99.2332 123.927 99.8977C123.968 100.562 123.829 101.226 123.524 101.818C122.944 102.761 121.703 103.016 121.137 103.092C120.581 103.165 120.018 103.165 119.462 103.092C118.224 102.824 117.007 102.47 115.819 102.03C114.668 101.558 113.63 100.794 112.446 100.435C112.166 100.339 111.87 100.3 111.575 100.321C111.28 100.341 110.992 100.42 110.728 100.553C110.244 100.877 109.811 101.271 109.445 101.723C108.653 102.502 107.936 103.354 107.303 104.266C107.147 104.531 106.972 104.451 107.104 104.205Z" fill="#E0DCDD"/>
<path d="M94.2893 106.612C95.1197 104.913 96.5211 97.9204 97.8706 95.7594C99.2201 93.5983 105.373 86.1951 108.251 86.516C111.87 86.917 108.105 93.4332 106.213 96.118C104.321 98.8028 104.646 103.365 104.646 103.365L94.2893 106.612Z" fill="#D9887E"/>
<path d="M108.85 91.6875C108.176 92.5368 107.581 93.4805 106.996 94.3912C106.394 95.2376 105.854 96.127 105.382 97.0524C104.986 97.9996 104.749 99.0054 104.679 100.03C104.632 100.535 104.618 101.035 104.613 101.54C104.608 102.044 104.66 102.648 104.651 103.196C104.649 103.203 104.648 103.21 104.649 103.218C104.65 103.225 104.653 103.232 104.657 103.238C104.662 103.244 104.668 103.249 104.674 103.253C104.681 103.256 104.688 103.258 104.696 103.258C104.703 103.258 104.71 103.256 104.717 103.253C104.724 103.249 104.73 103.244 104.734 103.238C104.738 103.232 104.741 103.225 104.742 103.218C104.743 103.21 104.743 103.203 104.74 103.196C104.805 102.189 104.936 101.189 105.132 100.2C105.308 99.1705 105.611 98.1673 106.033 97.2128C106.878 95.3254 108.114 93.6268 108.973 91.7441C108.992 91.6734 108.897 91.6262 108.85 91.6875Z" fill="#E0DCDD"/>
<path d="M104.688 104.148C104.741 104.995 104.918 105.83 105.212 106.626C105.48 107.434 105.805 108.222 106.184 108.985C106.551 109.746 106.959 110.486 107.406 111.202C107.84 111.924 108.35 112.576 108.883 113.264C109.968 114.609 110.832 116.117 111.445 117.733C112.02 119.349 112.307 121.052 112.295 122.767C112.138 121.078 111.74 119.419 111.115 117.841C110.444 116.291 109.566 114.839 108.506 113.524C107.966 112.855 107.468 112.154 107.015 111.424C106.571 110.685 106.177 109.917 105.835 109.126C105.184 107.555 104.58 105.875 104.688 104.148Z" fill="#E0DCDD"/>
<path d="M130.503 94.1639C130.605 95.2721 130.762 96.3744 130.975 97.4668C131.142 98.4617 131.4 99.4393 131.744 100.388C132.419 102.091 133.707 103.69 135.693 104.129C136.617 104.306 137.567 104.296 138.487 104.099C139.407 103.902 140.278 103.523 141.049 102.983C142.695 101.897 143.979 100.359 145.154 98.8635C145.887 97.9386 146.574 96.9855 147.216 96.0041C147.537 95.5039 147.867 95.0132 148.159 94.4989C148.452 93.9846 148.73 93.4656 149.061 92.9749C149.089 92.9324 149.174 92.9749 149.15 93.0079C148.509 94.1686 146.583 97.849 145.942 98.7597C144.767 100.421 143.488 102.114 141.785 103.341C140.153 104.583 138.102 105.141 136.066 104.898C135.09 104.746 134.17 104.346 133.392 103.737C132.614 103.129 132.004 102.331 131.621 101.421C131.171 100.333 130.883 99.1856 130.767 98.0141C130.607 96.7307 130.522 95.4379 130.465 94.1498C130.475 94.1498 130.503 94.1498 130.503 94.1639Z" fill="#E0DCDD"/>
<path d="M137.302 100.926C141.634 100.808 146.975 92.7345 148.4 86.9639C148.494 86.5675 143.389 73.1342 142.653 70.3644C142.493 69.7982 126.389 79.1973 126.389 79.1973C126.389 79.1973 129.64 84.5433 130.89 89.375C130.989 89.7808 133.112 101.039 137.302 100.926Z" fill="#D9887E"/>
<path d="M126.389 79.1975C126.389 79.1975 129.64 84.5435 130.89 89.3798C130.89 89.4742 131.05 90.1773 131.301 91.1964C139.355 88.238 143.266 81.7596 145.059 77.4045C143.96 74.3564 142.946 71.4923 142.653 70.374C142.493 69.7984 126.389 79.1975 126.389 79.1975Z" fill="#E0DCDD"/>
<path d="M117.14 47.8912C116.107 48.0658 112.639 56.3042 113.144 59.9091C113.649 63.5139 116.003 70.4972 117.079 70.4642C118.155 70.4312 117.957 47.7544 117.14 47.8912Z" fill="#E0DCDD"/>
<path d="M141.922 51.0854C145.479 56.7145 147.088 75.3428 143.809 80.4953C139.039 87.9646 128.805 91.3477 121.845 85.0769C115.093 78.9902 113.422 54.6761 117.325 49.7454C123.062 42.4837 136.665 42.7715 141.922 51.0854Z" fill="#D9887E"/>
<path d="M128.535 62.9809C129.085 63.0579 129.637 63.1067 130.192 63.1271C130.829 63.1743 131.333 63.2828 131.914 62.9573C132.068 62.8462 132.18 62.6876 132.235 62.5059C132.29 62.3242 132.283 62.1297 132.216 61.9522C131.885 61.2115 131.121 60.9567 130.357 60.867C129.591 60.7468 128.807 60.9149 128.158 61.3388C128.013 61.4444 127.901 61.5903 127.838 61.7585C127.775 61.9267 127.763 62.1097 127.804 62.2847C127.844 62.4597 127.935 62.6191 128.065 62.7429C128.195 62.8667 128.359 62.9494 128.535 62.9809Z" fill="#E0DCDD"/>
<path d="M129.281 67.0478C129.281 66.9959 129.385 67.095 129.39 67.1469C129.479 68.4067 129.795 69.8317 130.97 70.1337C131.008 70.1337 131.013 70.2044 130.97 70.2044C129.545 70.1525 129.144 68.251 129.281 67.0478Z" fill="#E0DCDD"/>
<path d="M130.248 65.6227C132.254 65.2594 132.825 69.2937 130.97 69.624C129.116 69.9542 128.573 65.9247 130.248 65.6227Z" fill="#E0DCDD"/>
<path d="M122.052 67.8729C122.052 67.8257 121.963 67.9484 121.972 67.9956C122.189 69.2413 122.227 70.6993 121.156 71.2749C121.123 71.2749 121.156 71.3551 121.156 71.3457C122.529 70.9729 122.453 69.0336 122.052 67.8729Z" fill="#E0DCDD"/>
<path d="M120.75 66.7453C118.721 66.8821 119.137 70.9306 121.014 70.8079C122.892 70.6852 122.454 66.6368 120.75 66.7453Z" fill="#E0DCDD"/>
<path d="M118.9 64.599C119.425 64.4116 119.94 64.1974 120.443 63.9573C121.033 63.7025 121.529 63.561 121.892 63.0136C121.977 62.8434 122.003 62.6502 121.967 62.4635C121.931 62.2769 121.835 62.1071 121.694 61.9803C121.057 61.4754 120.255 61.6075 119.533 61.8812C118.796 62.1358 118.18 62.6556 117.806 63.3392C117.732 63.4993 117.706 63.6772 117.731 63.8517C117.756 64.0261 117.83 64.1897 117.946 64.3227C118.062 64.4558 118.213 64.5526 118.382 64.6016C118.552 64.6506 118.732 64.6497 118.9 64.599Z" fill="#E0DCDD"/>
<path d="M131.857 77.2587C131.602 77.5937 131.385 78.0372 130.914 78.141C130.448 78.1992 129.975 78.1573 129.526 78.0183C129.522 78.0152 129.516 78.0131 129.511 78.012C129.506 78.0109 129.5 78.0109 129.494 78.012C129.489 78.0131 129.484 78.0153 129.479 78.0184C129.474 78.0215 129.47 78.0255 129.467 78.0301C129.464 78.0348 129.462 78.04 129.461 78.0455C129.46 78.0509 129.46 78.0566 129.461 78.0621C129.462 78.0675 129.464 78.0727 129.467 78.0774C129.471 78.082 129.475 78.086 129.479 78.0891C129.691 78.3131 129.959 78.4754 130.256 78.5585C130.553 78.6416 130.866 78.6425 131.164 78.5609C131.408 78.4586 131.617 78.2861 131.764 78.0653C131.911 77.8445 131.989 77.5852 131.989 77.32C131.994 77.2256 131.895 77.2115 131.857 77.2587Z" fill="#E0DCDD"/>
<path d="M130.017 73.7055C129.77 74.2452 129.414 74.7279 128.972 75.1233C128.529 75.5188 128.01 75.8184 127.446 76.0034C126.955 76.1706 126.444 76.2675 125.926 76.2912C125.827 76.3006 125.728 76.3006 125.629 76.2912C125.536 76.2959 125.443 76.2959 125.351 76.2912C125.282 76.2878 125.216 76.262 125.163 76.2177C125.11 76.1734 125.073 76.1131 125.058 76.0459C125.053 76.0035 125.053 75.9608 125.058 75.9185V75.8099C124.893 74.8663 124.78 73.3752 124.78 73.3752C124.454 73.6017 122.774 74.6586 122.732 74.1538C122.392 69.9591 122.01 65.2973 122.553 61.0554C122.558 61.0288 122.572 61.0048 122.594 60.9876C122.615 60.9703 122.641 60.9609 122.668 60.9609C122.695 60.9609 122.722 60.9703 122.743 60.9876C122.764 61.0048 122.778 61.0288 122.784 61.0554C123.256 65.0755 123.053 69.1522 123.482 73.1912C124.077 72.8046 124.723 72.5043 125.403 72.2994C125.544 72.2994 125.572 75.1305 125.681 75.5787C125.678 75.5927 125.678 75.6073 125.681 75.6212C127.323 75.6212 128.474 74.937 129.885 73.63C129.965 73.5357 130.074 73.597 130.017 73.7055Z" fill="#E0DCDD"/>
<path d="M144.106 67.076C140.86 67.8074 138.756 64.3676 136.944 59.4086C135.882 56.5067 135.877 50.4436 135.877 50.4436C135.877 50.4436 128.007 55.5017 123.189 55.7188C118.372 55.9358 113.753 52.3828 113.47 48.6411C113.229 45.409 118.075 40.5207 125.143 39.2656C130.074 38.3927 138.982 41.2474 143.394 46.0837C143.394 46.0837 150.033 48.2306 149.735 53.067C149.438 57.9034 147.791 66.2456 144.106 67.076Z" fill="#E0DCDD"/>
<path d="M143.823 66.7318C139.619 68.2275 136.458 62.0133 135.896 58.6397C135.311 55.1244 136.189 51.3733 136.34 47.8486H136.312C135.406 52.2226 134.528 57.7196 136.538 61.8954C137.803 64.5283 140.431 68.8079 143.908 66.963C144.026 66.8969 143.955 66.6846 143.823 66.7318Z" fill="#E0DCDD"/>
<path d="M150.514 51.5C149.518 48.669 145.824 46.2579 142.965 45.9512C142.936 45.9512 142.927 45.9936 142.965 45.9984C146.447 46.7627 150.807 50.0798 150.273 53.9442C149.844 57.03 148.938 61.1398 147.225 63.7727C147.183 63.8387 147.282 63.9001 147.329 63.8387C148.716 62.0316 149.136 59.8564 149.688 57.7048C150.146 55.8032 151.184 53.4582 150.514 51.5Z" fill="#E0DCDD"/>
<path d="M144.083 46.4234C139.421 41.3275 130.111 36.0806 123.128 38.7701C123.128 38.7701 123.128 38.8126 123.128 38.8032C130.63 36.6091 138.416 42.2004 143.847 46.6924C144.017 46.8245 144.215 46.565 144.083 46.4234Z" fill="#E0DCDD"/>
<path d="M142.021 67.5527C142.021 67.5527 144.545 60.744 147.537 61.4943C150.528 62.2445 149.679 71.403 146.909 73.3234C146.571 73.597 146.181 73.7995 145.763 73.9188C145.345 74.038 144.907 74.0716 144.476 74.0174C144.044 73.9632 143.628 73.8223 143.253 73.6033C142.877 73.3843 142.549 73.0917 142.29 72.743L142.021 67.5527Z" fill="#D9887E"/>
<path d="M147.244 64.0986C147.296 64.0986 147.319 64.1458 147.282 64.1788C145.361 65.5944 144.748 67.9017 144.498 70.176C144.927 69.2323 145.687 68.5481 146.951 69.0294C147.017 69.053 146.989 69.1568 146.923 69.1568C146.513 69.1359 146.107 69.242 145.76 69.4608C145.413 69.6795 145.142 70.0002 144.984 70.3789C144.728 71.0149 144.54 71.6759 144.422 72.3512C144.37 72.5729 143.998 72.5588 144.012 72.3181C144.01 72.3009 144.01 72.2835 144.012 72.2662C143.243 69.5484 144.38 65.1556 147.244 64.0986Z" fill="#E0DCDD"/>
<path d="M133.391 97.7643L143.3 127.306C143.686 128.165 143.3 128.915 142.431 128.981L126.879 130.156C126.405 130.159 125.939 130.028 125.536 129.777C125.133 129.527 124.808 129.167 124.6 128.741L114.692 99.1987C114.305 98.3353 114.692 97.585 115.56 97.519L131.102 96.3252C131.581 96.324 132.05 96.4586 132.455 96.7133C132.86 96.9681 133.185 97.3325 133.391 97.7643Z" fill="#37474F"/>
<path d="M131.541 97.8875L141.45 127.43C141.837 128.288 141.45 129.043 140.582 129.109L125.035 130.303C124.558 130.303 124.091 130.167 123.687 129.912C123.284 129.658 122.961 129.294 122.756 128.864L112.847 99.3219C112.455 98.4632 112.847 97.7129 113.715 97.6469L129.281 96.4531C129.755 96.4557 130.218 96.5917 130.617 96.8454C131.017 97.099 131.337 97.4602 131.541 97.8875Z" fill="#455A64"/>
<path d="M127.394 99.5907C127.419 99.8518 127.521 100.099 127.688 100.302C127.854 100.505 128.077 100.654 128.328 100.73C128.579 100.807 128.847 100.807 129.098 100.73C129.349 100.654 129.572 100.506 129.738 100.303C129.904 100.1 130.007 99.8526 130.033 99.5915C130.058 99.3305 130.006 99.0677 129.882 98.8364C129.759 98.6051 129.569 98.4157 129.338 98.2921C129.106 98.1685 128.844 98.1164 128.583 98.1422C128.233 98.1768 127.911 98.3488 127.688 98.6204C127.465 98.892 127.359 99.241 127.394 99.5907Z" fill="#E0DCDD"/>
<path d="M193.14 163.186C186.374 164.172 177.833 158.986 155.704 143.208C152.637 141.009 162.234 115.261 165.613 117.417C169.883 120.14 185.864 131.643 186.926 132.634C195.905 141.009 197.741 162.478 193.14 163.186Z" fill="#D9887E"/>
<path d="M173.554 125.094C173.554 125.094 167.203 116.393 162.451 112.85C156.086 108.131 148.641 106.64 145.465 106.211C138.859 105.314 122.345 107.706 122.18 112.595C122.048 117.021 138.845 113.718 138.845 113.718C138.845 113.718 121.165 114.256 121.986 119.611C122.807 124.966 142.096 120.031 142.096 120.031C142.096 120.031 123.94 120.975 125.662 126.382C126.964 130.454 144.682 126.962 144.682 126.962C144.682 126.962 129.083 127.906 130.239 132.153C131.522 136.843 148.074 134.649 148.074 134.649C152.873 144.935 159.337 147.893 164.197 149.446C165.372 149.818 173.554 125.094 173.554 125.094Z" fill="#D9887E"/>
<path d="M144.97 113.142C142.889 113.142 140.785 113.104 138.713 113.274C136.642 113.444 134.57 113.694 132.523 114.058C127.498 114.954 124.501 116.304 124.69 116.238C129.295 114.751 136.703 114.015 138.779 113.841C140.855 113.666 142.908 113.392 144.979 113.218C145.031 113.213 145.017 113.142 144.97 113.142Z" fill="#E0DCDD"/>
<path d="M145.73 120.616C143.073 120.715 140.435 120.715 137.784 120.932C135.132 121.149 132.659 121.588 130.041 121.985C129.838 122.013 129.923 122.112 130.126 122.088C132.754 121.796 135.212 121.73 137.845 121.47C140.478 121.211 143.106 120.843 145.739 120.678C145.796 120.678 145.796 120.616 145.73 120.616Z" fill="#E0DCDD"/>
<path d="M147.537 126.915C143.469 126.859 139.397 127.552 135.42 128.331C135.221 128.369 135.344 128.487 135.547 128.458C139.567 127.911 142.714 127.453 147.537 127.043C147.607 127.047 147.621 126.915 147.537 126.915Z" fill="#E0DCDD"/>
<path d="M180.83 128.095C182.585 129.251 184.274 130.501 185.912 131.827C186.733 132.483 187.52 133.181 188.271 133.917C189.048 134.649 189.731 135.475 190.304 136.376C191.394 138.188 192.309 140.099 193.036 142.085C193.792 144.053 194.327 146.099 194.631 148.186C194.405 147.162 194.122 146.153 193.782 145.161C193.456 144.166 193.098 143.184 192.697 142.217C191.93 140.277 190.995 138.408 189.903 136.63C189.365 135.748 188.715 134.939 187.969 134.224C187.237 133.483 186.449 132.808 185.666 132.101C184.883 131.393 184.071 130.742 183.26 130.076C182.448 129.411 181.656 128.741 180.83 128.095Z" fill="#E0DCDD"/>
<path d="M113.838 35.6137C113.838 35.6137 111.898 51.1373 108.709 54.6337C104.882 58.8236 102.103 58.2103 100.56 60.3713C99.0124 58.2055 96.238 58.8236 92.4066 54.629C89.2217 51.1373 87.2871 35.6137 87.2871 35.6137C95.6859 31.537 100.565 26.9648 100.565 26.9648C100.711 27.1111 105.566 31.5983 113.838 35.6137Z" fill="#CF2A51"/>
<path opacity="0.2" d="M100.56 26.9696V60.3713C99.0124 58.2055 96.238 58.8236 92.4066 54.629C89.2217 51.1373 87.2871 35.6137 87.2871 35.6137C95.6859 31.537 100.565 26.9648 100.565 26.9648L100.56 26.9696Z" fill="white"/>
<path opacity="0.1" d="M113.838 35.6139C113.838 35.6139 111.898 51.1375 108.709 54.6339C104.882 58.8238 102.103 58.2104 100.56 60.3715V26.9697C100.711 27.1113 105.566 31.5985 113.838 35.6139Z" fill="white"/>
<path d="M111.776 36.8647C111.776 36.8647 110.138 49.9819 107.444 52.9309C104.212 56.4792 101.862 55.9554 100.56 57.7814C99.2529 55.9554 96.9079 56.4792 93.671 52.9309C90.9768 49.9819 89.3442 36.8647 89.3442 36.8647C96.4219 33.4202 100.56 29.5605 100.56 29.5605C100.56 29.5605 104.679 33.4297 111.776 36.8647Z" fill="#CF2A51"/>
<path opacity="0.1" d="M100.56 29.5651V57.7813C99.2576 55.9552 96.9078 56.4743 93.6757 52.9307C90.9815 49.977 89.3489 36.8598 89.3489 36.8598C96.4265 33.4153 100.56 29.5557 100.56 29.5557V29.5651Z" fill="white"/>
<path d="M105.585 41.1719H95.5349V50.2879H105.585V41.1719Z" fill="#0D0D0D"/>
<path d="M104.58 43.9895H103.556V39.9175C103.556 39.1228 103.241 38.3607 102.679 37.7988C102.117 37.2369 101.355 36.9213 100.56 36.9213C99.7654 36.9213 99.0033 37.2369 98.4414 37.7988C97.8795 38.3607 97.5639 39.1228 97.5639 39.9175V43.9895H96.54V39.9175C96.5022 39.3676 96.5779 38.8159 96.7624 38.2966C96.9469 37.7773 97.2361 37.3014 97.6123 36.8986C97.9884 36.4958 98.4433 36.1746 98.9488 35.955C99.4543 35.7354 99.9995 35.6221 100.551 35.6221C101.102 35.6221 101.647 35.7354 102.152 35.955C102.658 36.1746 103.113 36.4958 103.489 36.8986C103.865 37.3014 104.154 37.7773 104.339 38.2966C104.523 38.8159 104.599 39.3676 104.561 39.9175L104.58 43.9895Z" fill="#0D0D0D"/>
<path d="M100.876 45.8855L101.202 47.4237H99.824L100.15 45.8855C100.022 45.8065 99.9243 45.6882 99.8703 45.5485C99.8163 45.4088 99.8093 45.2553 99.8504 45.1113C99.8914 44.9673 99.9783 44.8406 100.098 44.7504C100.217 44.6601 100.363 44.6113 100.513 44.6113C100.663 44.6113 100.808 44.6601 100.928 44.7504C101.047 44.8406 101.134 44.9673 101.175 45.1113C101.216 45.2553 101.209 45.4088 101.155 45.5485C101.101 45.6882 101.003 45.8065 100.876 45.8855Z" fill="#37474F"/>
<path d="M100.735 97.0144H98.7246V96.6558H100.56V96.7785H100.735V97.0144ZM96.8372 97.0144H94.9499V96.6558H96.8372V97.0144ZM93.0625 97.0144H91.1751V96.6558H93.0625V97.0144ZM89.2878 97.0144H87.4004V96.6558H89.2878V97.0144ZM100.735 94.8958H100.381V93.0085H100.735V94.8958ZM100.735 91.1211H100.381V89.2337H100.735V91.1211ZM100.735 87.3464H100.381V85.459H100.735V87.3464ZM100.735 83.5716H100.381V81.6842H100.735V83.5716ZM100.735 79.7969H100.381V77.9095H100.735V79.7969ZM100.735 76.0221H100.381V74.1348H100.735V76.0221ZM100.735 72.2474H100.381V70.36H100.735V72.2474ZM100.735 68.4727H100.381V66.5853H100.735V68.4727ZM100.735 64.6979H100.381V62.8105H100.735V64.6979Z" fill="#CF2A51"/>
<path d="M101.357 62.4244C101.357 62.2666 101.311 62.1125 101.223 61.9813C101.135 61.8502 101.011 61.748 100.865 61.6876C100.719 61.6273 100.559 61.6115 100.404 61.6423C100.25 61.673 100.108 61.749 99.996 61.8605C99.8845 61.972 99.8085 62.1141 99.7778 62.2688C99.747 62.4235 99.7628 62.5838 99.8232 62.7295C99.8835 62.8752 99.9857 62.9998 100.117 63.0874C100.248 63.175 100.402 63.2218 100.56 63.2218C100.771 63.2218 100.974 63.1378 101.124 62.9882C101.273 62.8387 101.357 62.6359 101.357 62.4244Z" fill="#CF2A51"/>
<path d="M31.8692 41.3703H7.65894V10.29H25.6361L31.8692 16.2164V41.3703Z" fill="#212121"/>
<path d="M25.6362 10.29L31.8693 16.2164H25.6362V10.29Z" fill="#313131"/>
<path d="M10.023 16.3008H23.4846V15.5034L10.023 15.5034V16.3008Z" fill="#313131"/>
<path d="M10.023 18.3164H23.4846V17.519H10.023V18.3164Z" fill="#313131"/>
<path d="M10.023 20.3359H23.4846V19.5385H10.023V20.3359Z" fill="#313131"/>
<path d="M10.0228 22.3506L29.7458 22.3506V21.5532L10.0228 21.5532V22.3506Z" fill="#313131"/>
<path d="M10.0228 24.3652L29.7458 24.3652V23.5678L10.0228 23.5678V24.3652Z" fill="#313131"/>
<path d="M10.0228 26.3799L29.7458 26.3799V25.5825L10.0228 25.5825V26.3799Z" fill="#313131"/>
<path d="M10.0228 28.3945L29.7458 28.3945V27.5971L10.0228 27.5971V28.3945Z" fill="#313131"/>
<path d="M10.0228 30.4043L29.7458 30.4043V29.6069L10.0228 29.6069V30.4043Z" fill="#313131"/>
<path d="M10.0228 32.4199H29.7458V31.6225L10.0228 31.6225V32.4199Z" fill="#313131"/>
<path d="M10.0228 34.4346H29.7458V33.6372H10.0228V34.4346Z" fill="#313131"/>
<path d="M10.0228 36.4492H29.7458V35.6518H10.0228V36.4492Z" fill="#313131"/>
<path d="M10.0228 38.4639H29.7458V37.6665H10.0228V38.4639Z" fill="#313131"/>
<path d="M33.5048 44.1994C35.6695 43.297 36.6928 40.8105 35.7904 38.6458C34.888 36.481 32.4015 35.4577 30.2368 36.3601C28.072 37.2626 27.0487 39.749 27.9511 41.9138C28.8536 44.0785 31.34 45.1018 33.5048 44.1994Z" fill="#E0DCDD"/>
<path d="M33.9735 39.209H29.7646V43.0309H33.9735V39.209Z" fill="#0D0D0D"/>
<path d="M33.5536 40.3839H33.1242V38.6806C33.1242 38.3477 32.992 38.0285 32.7566 37.7931C32.5212 37.5577 32.202 37.4255 31.8691 37.4255C31.5363 37.4255 31.217 37.5577 30.9816 37.7931C30.7463 38.0285 30.614 38.3477 30.614 38.6806V40.3839H30.1941V38.6806C30.1941 38.2338 30.3716 37.8054 30.6875 37.4895C31.0034 37.1736 31.4318 36.9961 31.8786 36.9961C32.3253 36.9961 32.7538 37.1736 33.0697 37.4895C33.3856 37.8054 33.563 38.2338 33.563 38.6806L33.5536 40.3839Z" fill="#0D0D0D"/>
<path d="M32.0485 41.1631L32.2231 42.003H31.4775L31.6521 41.1631C31.5836 41.1201 31.531 41.056 31.5021 40.9804C31.4732 40.9049 31.4697 40.822 31.4921 40.7443C31.5145 40.6665 31.5615 40.5982 31.6261 40.5496C31.6907 40.5009 31.7694 40.4746 31.8503 40.4746C31.9312 40.4746 32.0099 40.5009 32.0745 40.5496C32.1391 40.5982 32.1861 40.6665 32.2085 40.7443C32.2309 40.822 32.2274 40.9049 32.1985 40.9804C32.1696 41.056 32.117 41.1201 32.0485 41.1631Z" fill="#E0DCDD"/>
<path d="M48.4592 57.6209H48.1242V55.7336H48.478L48.4592 57.6209ZM48.4592 53.8462H48.1242V51.9588H48.478L48.4592 53.8462ZM48.4592 50.0715H48.1242V48.1841H48.478L48.4592 50.0715ZM48.4592 46.2967H48.1242V44.4093H48.478L48.4592 46.2967ZM48.4592 42.522H48.1242V40.6346H48.478L48.4592 42.522ZM48.4592 38.7472H48.1242V36.8599H48.478L48.4592 38.7472ZM48.4592 34.9725H48.1242V33.0851H48.478L48.4592 34.9725ZM48.4592 31.1977H48.1242V29.3104H48.478L48.4592 31.1977ZM46.7086 29.183H44.8213V28.8291H46.7086V29.183ZM42.9339 29.183H41.0465V28.8291H42.9339V29.183ZM39.1591 29.183H37.2718V28.8291H39.1591V29.183ZM35.3844 29.183H34.5681V28.8291H35.3844V29.183Z" fill="#CF2A51"/>
<path d="M34.5869 28.2393C34.4273 28.2384 34.271 28.2851 34.1381 28.3736C34.0052 28.462 33.9017 28.5881 33.8408 28.7357C33.78 28.8833 33.7646 29.0456 33.7965 29.2021C33.8285 29.3585 33.9064 29.5018 34.0203 29.6136C34.1342 29.7255 34.2789 29.8008 34.4358 29.83C34.5928 29.8592 34.7549 29.8409 34.9014 29.7774C35.0478 29.7139 35.172 29.6082 35.2581 29.4737C35.3441 29.3392 35.3881 29.1821 35.3843 29.0225C35.3794 28.8139 35.2934 28.6154 35.1445 28.4691C34.9956 28.3229 34.7956 28.2404 34.5869 28.2393Z" fill="#CF2A51"/>
<path d="M62.0245 162.577H60.9157V162.242H62.0245V162.577ZM59.0283 162.577H57.1409V162.242H59.0283V162.577ZM55.2536 162.577H53.3662V162.242H55.2536V162.577ZM51.4788 162.577H49.5915V162.242H51.4788V162.577ZM48.459 161.822H48.124V159.935H48.4779L48.459 161.822ZM48.459 158.047H48.124V156.16H48.4779L48.459 158.047ZM48.459 154.272H48.124V152.385H48.4779L48.459 154.272ZM48.459 150.498H48.124V148.61H48.4779L48.459 150.498ZM48.459 146.723H48.124V144.836H48.4779L48.459 146.723ZM48.459 142.948H48.124V141.061H48.4779L48.459 142.948ZM48.459 139.174H48.124V137.286H48.4779L48.459 139.174Z" fill="#CF2A51"/>
<path d="M61.9822 163.2C62.4226 163.2 62.7796 162.843 62.7796 162.403C62.7796 161.962 62.4226 161.605 61.9822 161.605C61.5418 161.605 61.1848 161.962 61.1848 162.403C61.1848 162.843 61.5418 163.2 61.9822 163.2Z" fill="#CF2A51"/>
<path d="M94.9215 157.227H64.7708V175.421H94.9215V157.227Z" fill="#455A64"/>
<path d="M75.5665 159.515H67.1394V170.292H75.5665V159.515Z" fill="#0D0D0D"/>
<path d="M71.3528 165.824C72.4551 165.824 73.3487 164.93 73.3487 163.828C73.3487 162.726 72.4551 161.832 71.3528 161.832C70.2505 161.832 69.3569 162.726 69.3569 163.828C69.3569 164.93 70.2505 165.824 71.3528 165.824Z" fill="#455A64"/>
<path d="M75.5665 170.291H67.1394C67.1394 170.291 67.3706 168.281 67.7811 167.682C68.1916 167.083 69.2768 166.408 71.353 166.408C73.4291 166.408 74.5143 167.083 74.9248 167.682C75.3353 168.281 75.5665 170.291 75.5665 170.291Z" fill="#455A64"/>
<path d="M91.6185 159.515H77.7463V160.038H91.6185V159.515Z" fill="#0D0D0D"/>
<path d="M91.6185 164.64H77.7463V165.163H91.6185V164.64Z" fill="#0D0D0D"/>
<path d="M91.6185 166.149H77.7463V166.673H91.6185V166.149Z" fill="#0D0D0D"/>
<path d="M91.6185 167.654H77.7463V168.178H91.6185V167.654Z" fill="#0D0D0D"/>
<path d="M91.6185 169.164H77.7463V169.688H91.6185V169.164Z" fill="#0D0D0D"/>
<path d="M91.6185 170.669H77.7463V171.193H91.6185V170.669Z" fill="#0D0D0D"/>
<path d="M88.9809 161.025H77.7463V161.549H88.9809V161.025Z" fill="#0D0D0D"/>
<path d="M96.5553 179.345C98.7201 178.442 99.7434 175.956 98.8409 173.791C97.9385 171.627 95.4521 170.603 93.2873 171.506C91.1226 172.408 90.0992 174.895 91.0017 177.059C91.9041 179.224 94.3905 180.247 96.5553 179.345Z" fill="#E0DCDD"/>
<path d="M97.026 174.35H92.8171V178.172H97.026V174.35Z" fill="#0D0D0D"/>
<path d="M96.606 175.525H96.1766V173.821C96.1766 173.488 96.0444 173.169 95.809 172.934C95.5736 172.698 95.2544 172.566 94.9215 172.566C94.5887 172.566 94.2694 172.698 94.0341 172.934C93.7987 173.169 93.6664 173.488 93.6664 173.821V175.525H93.2371V173.821C93.2371 173.374 93.4145 172.946 93.7304 172.63C94.0463 172.314 94.4748 172.137 94.9215 172.137C95.3683 172.137 95.7967 172.314 96.1126 172.63C96.4285 172.946 96.606 173.374 96.606 173.821V175.525Z" fill="#0D0D0D"/>
<path d="M95.1008 176.303L95.2754 177.143H94.5251L94.7044 176.303C94.6495 176.268 94.6046 176.22 94.574 176.163C94.5434 176.106 94.5282 176.042 94.53 175.977C94.5318 175.912 94.5504 175.849 94.5841 175.793C94.6178 175.738 94.6653 175.692 94.7221 175.661C94.7788 175.63 94.8427 175.613 94.9075 175.614C94.9723 175.615 95.0358 175.633 95.0917 175.666C95.1476 175.699 95.1939 175.746 95.2261 175.802C95.2583 175.858 95.2753 175.922 95.2754 175.987C95.2754 176.05 95.2595 176.112 95.2289 176.167C95.1984 176.223 95.1543 176.269 95.1008 176.303Z" fill="#E0DCDD"/>
<path d="M199.576 191.968L174.809 192.082L150.037 192.124L100.499 192.204L50.9599 192.124L26.1929 192.082L1.42114 191.968L26.1929 191.85L50.9599 191.813L100.499 191.732L150.037 191.813L174.809 191.855L199.576 191.968Z" fill="#E0DCDD"/>
</svg>
