<svg width="67" height="16" viewBox="0 0 67 16" fill="none" xmlns="http://www.w3.org/2000/svg">
<path d="M24.9887 3.57837H21.3627C21.2427 3.57829 21.1266 3.62109 21.0353 3.69905C20.944 3.77701 20.8836 3.88501 20.8649 4.00358L19.3984 13.3014C19.3917 13.3446 19.3943 13.3887 19.4063 13.4307C19.4182 13.4727 19.4391 13.5116 19.4675 13.5448C19.4959 13.5779 19.5312 13.6045 19.5709 13.6227C19.6106 13.641 19.6538 13.6504 19.6974 13.6503H21.4285C21.5486 13.6503 21.6648 13.6075 21.7561 13.5294C21.8473 13.4513 21.9077 13.3432 21.9263 13.2246L22.3218 10.7168C22.3404 10.5982 22.4007 10.4902 22.4919 10.4121C22.5831 10.334 22.6991 10.2911 22.8192 10.291H23.967C26.3555 10.291 27.734 9.13524 28.094 6.84484C28.2562 5.84279 28.1009 5.05546 27.6316 4.50407C27.1163 3.8986 26.2023 3.57837 24.9887 3.57837ZM25.407 6.9742C25.2087 8.27528 24.2146 8.27528 23.2534 8.27528H22.7062L23.0901 5.84544C23.1013 5.77435 23.1376 5.70961 23.1923 5.66286C23.247 5.61611 23.3166 5.59042 23.3886 5.59042H23.6393C24.2941 5.59042 24.9118 5.59042 25.231 5.96367C25.4213 6.18635 25.4796 6.51718 25.407 6.9742ZM35.8272 6.93232H34.0909C34.0189 6.93232 33.9493 6.95801 33.8946 7.00476C33.8399 7.05151 33.8036 7.11625 33.7924 7.18734L33.7155 7.67299L33.5941 7.49697C33.2182 6.95141 32.38 6.76902 31.5433 6.76902C29.6246 6.76902 27.9858 8.22226 27.6666 10.2608C27.5007 11.2777 27.7366 12.2501 28.3135 12.9282C28.8426 13.5517 29.5997 13.8115 30.5005 13.8115C32.0465 13.8115 32.9038 12.8174 32.9038 12.8174L32.8264 13.2998C32.8195 13.343 32.822 13.3871 32.8338 13.4292C32.8456 13.4712 32.8664 13.5102 32.8947 13.5435C32.923 13.5767 32.9582 13.6035 32.9979 13.6218C33.0375 13.6402 33.0807 13.6497 33.1244 13.6498H34.6884C34.8085 13.6498 34.9247 13.6069 35.016 13.5289C35.1073 13.4508 35.1677 13.3427 35.1862 13.224L36.1247 7.28118C36.1316 7.23814 36.1291 7.19411 36.1173 7.15214C36.1055 7.11017 36.0848 7.07126 36.0565 7.03808C36.0282 7.00491 35.9931 6.97828 35.9535 6.96002C35.9139 6.94176 35.8708 6.93231 35.8272 6.93232ZM33.4069 10.3117C33.2394 11.3037 32.4521 11.9696 31.4479 11.9696C30.9437 11.9696 30.5408 11.8079 30.282 11.5015C30.0254 11.1971 29.9279 10.764 30.0095 10.2815C30.1659 9.298 30.9665 8.61035 31.9553 8.61035C32.4484 8.61035 32.8492 8.77418 33.1132 9.08328C33.3778 9.39556 33.4828 9.83137 33.4069 10.3117ZM45.0747 6.93232H43.3299C43.2476 6.93245 43.1666 6.95265 43.0939 6.99118C43.0212 7.02971 42.9589 7.08539 42.9126 7.15341L40.5061 10.6982L39.486 7.29178C39.4547 7.18789 39.3908 7.09683 39.3037 7.0321C39.2166 6.96736 39.111 6.93237 39.0025 6.93232H37.2879C37.2398 6.93219 37.1923 6.94356 37.1495 6.96548C37.1066 6.9874 37.0696 7.01924 37.0416 7.05835C37.0135 7.09745 36.9952 7.14269 36.9881 7.19031C36.9811 7.23792 36.9855 7.28653 37.0011 7.33208L38.923 12.9722L37.1161 15.5229C37.084 15.5681 37.065 15.6213 37.0611 15.6766C37.0572 15.732 37.0686 15.7873 37.094 15.8366C37.1195 15.8859 37.158 15.9272 37.2054 15.956C37.2528 15.9849 37.3072 16.0001 37.3627 16.0001H39.1054C39.1867 16.0002 39.2669 15.9806 39.339 15.9429C39.4112 15.9052 39.4731 15.8506 39.5194 15.7838L45.3228 7.40683C45.3543 7.36151 45.3728 7.30845 45.3762 7.25339C45.3796 7.19833 45.3679 7.14338 45.3424 7.09449C45.3168 7.0456 45.2784 7.00465 45.2312 6.97606C45.184 6.94747 45.1299 6.93234 45.0747 6.93232Z" fill="#253B80"/>
<path d="M50.8515 3.57817H47.2251C47.1051 3.57822 46.9891 3.62107 46.898 3.69902C46.8068 3.77697 46.7465 3.88489 46.7278 4.00338L45.2613 13.3012C45.2545 13.3443 45.2571 13.3883 45.2689 13.4303C45.2807 13.4723 45.3015 13.5112 45.3299 13.5443C45.3582 13.5775 45.3933 13.6041 45.4329 13.6224C45.4725 13.6406 45.5156 13.6501 45.5592 13.6501H47.4202C47.5041 13.65 47.5853 13.6199 47.6491 13.5653C47.7128 13.5106 47.755 13.4351 47.768 13.3521L48.1842 10.7166C48.2028 10.598 48.2631 10.4899 48.3542 10.4119C48.4454 10.3338 48.5615 10.2909 48.6815 10.2908H49.8288C52.2178 10.2908 53.5958 9.13503 53.9563 6.84464C54.1191 5.84259 53.9627 5.05526 53.4935 4.50387C52.9787 3.8984 52.0651 3.57817 50.8515 3.57817ZM51.2699 6.974C51.0721 8.27507 50.078 8.27507 49.1163 8.27507H48.5696L48.954 5.84524C48.965 5.77415 49.0011 5.70935 49.0558 5.66257C49.1105 5.6158 49.18 5.59013 49.252 5.59022H49.5028C50.157 5.59022 50.7752 5.59022 51.0944 5.96347C51.2847 6.18615 51.3425 6.51698 51.2699 6.974ZM61.6896 6.93212H59.9543C59.8823 6.93192 59.8127 6.95755 59.758 7.00434C59.7033 7.05114 59.6672 7.116 59.6563 7.18713L59.5795 7.67278L59.4575 7.49676C59.0816 6.9512 58.2439 6.76882 57.4073 6.76882C55.4885 6.76882 53.8503 8.22206 53.5311 10.2606C53.3657 11.2775 53.6006 12.2499 54.1774 12.928C54.7076 13.5515 55.4636 13.8113 56.3644 13.8113C57.9104 13.8113 58.7677 12.8172 58.7677 12.8172L58.6903 13.2996C58.6834 13.3429 58.686 13.3871 58.6978 13.4292C58.7097 13.4713 58.7306 13.5104 58.759 13.5437C58.7874 13.577 58.8228 13.6037 58.8625 13.6219C58.9023 13.6402 58.9456 13.6496 58.9894 13.6496H60.5529C60.6729 13.6495 60.789 13.6066 60.8801 13.5285C60.9713 13.4504 61.0316 13.3424 61.0502 13.2238L61.9891 7.28098C61.9958 7.2378 61.993 7.1937 61.981 7.15169C61.969 7.10969 61.9481 7.07078 61.9196 7.03763C61.8912 7.00449 61.8559 6.9779 61.8162 6.95968C61.7765 6.94147 61.7333 6.93206 61.6896 6.93212ZM59.2693 10.3115C59.1028 11.3035 58.3144 11.9694 57.3103 11.9694C56.8071 11.9694 56.4031 11.8077 56.1444 11.5012C55.8878 11.1969 55.7913 10.7638 55.8719 10.2813C56.0293 9.2978 56.8289 8.61015 57.8176 8.61015C58.3107 8.61015 58.7115 8.77398 58.9756 9.08308C59.2412 9.39535 59.3462 9.83117 59.2693 10.3115ZM63.7366 3.83319L62.2484 13.3012C62.2416 13.3443 62.2442 13.3883 62.256 13.4303C62.2679 13.4723 62.2887 13.5112 62.317 13.5443C62.3453 13.5775 62.3805 13.6041 62.4201 13.6224C62.4597 13.6406 62.5028 13.6501 62.5464 13.6501H64.0426C64.2912 13.6501 64.5022 13.4698 64.5404 13.2243L66.0079 3.92703C66.0148 3.88393 66.0122 3.83987 66.0003 3.79787C65.9885 3.75588 65.9677 3.71694 65.9394 3.68374C65.9111 3.65055 65.8759 3.62387 65.8363 3.60555C65.7967 3.58724 65.7536 3.57771 65.71 3.57764H64.0346C63.9627 3.57789 63.8932 3.60375 63.8386 3.65057C63.784 3.6974 63.7478 3.76214 63.7366 3.83319Z" fill="#179BD7"/>
<path d="M4.34058 15.4571L4.61787 13.6958L4.0002 13.6815H1.05078L3.10048 0.685061C3.10658 0.645351 3.12675 0.609156 3.15731 0.583074C3.18786 0.556992 3.22678 0.542759 3.26695 0.542971H8.24009C9.89108 0.542971 11.0305 0.886531 11.6253 1.56464C11.9042 1.88275 12.0818 2.21517 12.1677 2.581C12.2578 2.96486 12.2594 3.42347 12.1714 3.98281L12.165 4.02363V4.38204L12.4439 4.54003C12.6568 4.6479 12.8482 4.7938 13.0086 4.97054C13.2472 5.24253 13.4014 5.58821 13.4667 5.99804C13.534 6.41954 13.5117 6.92109 13.4014 7.48892C13.2742 8.14211 13.0685 8.711 12.7907 9.1765C12.5455 9.59352 12.216 9.95469 11.8231 10.2369C11.4541 10.4988 11.0156 10.6976 10.5199 10.8248C10.0395 10.95 9.49185 11.0131 8.89116 11.0131H8.50412C8.22736 11.0131 7.95856 11.1127 7.74755 11.2914C7.53683 11.472 7.39705 11.7215 7.35309 11.9955L7.32393 12.154L6.83404 15.2583L6.81177 15.3722C6.80594 15.4083 6.79586 15.4263 6.78102 15.4385C6.76664 15.4503 6.7487 15.4568 6.73012 15.4571H4.34058Z" fill="#253B80"/>
<path d="M12.7079 4.06494C12.6931 4.15984 12.6761 4.25687 12.657 4.35654C12.0012 7.72375 9.75742 8.88697 6.89177 8.88697H5.4327C5.08225 8.88697 4.78693 9.14146 4.73232 9.48714L3.98529 14.2249L3.77375 15.5678C3.76532 15.6211 3.76854 15.6756 3.78318 15.7275C3.79782 15.7794 3.82354 15.8275 3.85856 15.8685C3.89358 15.9095 3.93707 15.9425 3.98604 15.9651C4.03501 15.9877 4.0883 15.9994 4.14223 15.9994H6.73006C7.03651 15.9994 7.29683 15.7767 7.34507 15.4745L7.37052 15.343L7.85776 12.251L7.88904 12.0813C7.93676 11.7781 8.19761 11.5554 8.50406 11.5554H8.89109C11.3983 11.5554 13.3611 10.5374 13.9347 7.59173C14.1744 6.36117 14.0503 5.33367 13.4162 4.61103C13.2152 4.38749 12.9752 4.20243 12.7079 4.06494Z" fill="#179BD7"/>
<path d="M12.0219 3.7915C11.8125 3.73092 11.5995 3.68364 11.3841 3.64994C10.9586 3.58454 10.5284 3.55316 10.0979 3.5561H6.19997C6.05163 3.55598 5.90814 3.60894 5.79544 3.7054C5.68274 3.80186 5.60827 3.93546 5.58549 4.08204L4.75628 9.33405L4.73242 9.48728C4.75825 9.32008 4.84307 9.16766 4.97154 9.05757C5.1 8.94749 5.26362 8.88702 5.4328 8.88711H6.89187C9.75751 8.88711 12.0013 7.72335 12.6571 4.35668C12.6767 4.257 12.6931 4.15998 12.708 4.06507C12.5349 3.97432 12.3546 3.89824 12.1688 3.83763C12.1201 3.82147 12.0711 3.80609 12.0219 3.7915Z" fill="#222D65"/>
<path d="M5.58543 4.08189C5.60802 3.93527 5.68245 3.80161 5.79521 3.7052C5.90796 3.60879 6.05156 3.55602 6.19991 3.55648H10.0978C10.5596 3.55648 10.9907 3.5867 11.3841 3.65032C11.6503 3.69216 11.9128 3.75474 12.1693 3.83748C12.3628 3.90163 12.5425 3.97745 12.7085 4.06493C12.9036 2.82058 12.7069 1.97335 12.0341 1.20617C11.2923 0.361586 9.95362 0 8.2406 0H3.26746C2.91754 0 2.61905 0.254489 2.56497 0.600699L0.493535 13.7307C0.483887 13.7917 0.487558 13.854 0.504295 13.9134C0.521033 13.9728 0.55044 14.0279 0.590494 14.0749C0.630548 14.1218 0.680298 14.1595 0.736322 14.1854C0.792345 14.2113 0.853314 14.2248 0.915032 14.2249H3.98533L4.75622 9.3339L5.58543 4.08189Z" fill="#253B80"/>
</svg>
