<svg width="119" height="119" viewBox="0 0 119 119" fill="none" xmlns="http://www.w3.org/2000/svg">
<path fill-rule="evenodd" clip-rule="evenodd" d="M59.5747 118.506C67.3136 118.506 74.9768 116.981 82.1266 114.02C89.2765 111.058 95.773 106.717 101.245 101.245C106.717 95.773 111.058 89.2765 114.02 82.1266C116.981 74.9768 118.506 67.3136 118.506 59.5747C118.506 51.8358 116.981 44.1726 114.02 37.0228C111.058 29.8729 106.717 23.3764 101.245 17.9042C95.773 12.4319 89.2765 8.0911 82.1266 5.12953C74.9768 2.16797 67.3136 0.643677 59.5747 0.643677C43.9452 0.643677 28.9559 6.85246 17.9042 17.9042C6.85246 28.9559 0.643677 43.9452 0.643677 59.5747C0.643677 75.2042 6.85246 90.1935 17.9042 101.245C28.9559 112.297 43.9452 118.506 59.5747 118.506ZM51.6059 33.3177L88.5622 53.8519C89.5825 54.4191 90.4326 55.2488 91.0244 56.255C91.6162 57.2612 91.9283 58.4073 91.9283 59.5747C91.9283 60.7421 91.6162 61.8882 91.0244 62.8944C90.4326 63.9006 89.5825 64.7303 88.5622 65.2976L51.6059 85.8318C50.4093 86.4969 49.0596 86.8378 47.6907 86.8208C46.3217 86.8037 44.981 86.4293 43.8013 85.7346C42.6216 85.0399 41.6439 84.049 40.965 82.8601C40.2862 81.6712 39.9297 80.3255 39.931 78.9565V40.1929C39.9297 38.8239 40.2862 37.4782 40.965 36.2893C41.6439 35.1004 42.6216 34.1095 43.8013 33.4148C44.981 32.7201 46.3217 32.3457 47.6907 32.3286C49.0596 32.3116 50.4093 32.6525 51.6059 33.3177Z" fill="white"/>
</svg>
