<svg id="Layer_1" data-name="Layer 1" xmlns="http://www.w3.org/2000/svg" xmlns:xlink="http://www.w3.org/1999/xlink" viewBox="0 0 202.67 133.11"><defs><style>.cls-1{fill:none;}.cls-2{clip-path:url(#clip-path);}.cls-3{fill:#4693cf;}.cls-4{fill:#bcbcbc;}.cls-5{fill:#1062a1;}.cls-6{fill:#7f7f80;}.cls-7{fill:#2f77bc;}.cls-8{fill:#ababab;}.cls-9{fill:#173d6b;}</style><clipPath id="clip-path" transform="translate(0 0)"><rect class="cls-1" width="202.67" height="133.11"/></clipPath></defs><g class="cls-2"><path class="cls-3" d="M12.85,19H6.12A6.13,6.13,0,0,1,0,12.85V6.12A6.12,6.12,0,0,1,6.12,0h6.73A6.13,6.13,0,0,1,19,6.12v6.73A6.14,6.14,0,0,1,12.85,19" transform="translate(0 0)"/><path class="cls-4" d="M104.7,0H98a6.12,6.12,0,0,0-6.12,6.12v6.73A6.13,6.13,0,0,0,98,19h6.73a6.13,6.13,0,0,0,6.12-6.13V6.12A6.12,6.12,0,0,0,104.7,0" transform="translate(0 0)"/><path class="cls-3" d="M127.66,19h-6.73a6.13,6.13,0,0,1-6.12-6.13V6.12A6.12,6.12,0,0,1,120.93,0h6.73a6.12,6.12,0,0,1,6.12,6.12v6.73A6.13,6.13,0,0,1,127.66,19" transform="translate(0 0)"/><path class="cls-5" d="M35.81,65.68H6.12A6.12,6.12,0,0,1,0,59.56V52.83A6.13,6.13,0,0,1,6.12,46.7H35.81a6.13,6.13,0,0,1,6.13,6.13v6.73a6.12,6.12,0,0,1-6.13,6.12" transform="translate(0 0)"/><path class="cls-5" d="M104.7,65.68H98a6.12,6.12,0,0,1-6.12-6.12V52.83A6.13,6.13,0,0,1,98,46.7h6.73a6.13,6.13,0,0,1,6.12,6.13v6.73a6.12,6.12,0,0,1-6.12,6.12" transform="translate(0 0)"/><path class="cls-6" d="M58.77,46.7H52.05a6.13,6.13,0,0,0-6.13,6.13v6.73a6.12,6.12,0,0,0,6.13,6.12h6.72a6.12,6.12,0,0,0,6.13-6.12V52.83a6.13,6.13,0,0,0-6.13-6.13" transform="translate(0 0)"/><path class="cls-6" d="M127.66,46.7h-6.73a6.13,6.13,0,0,0-6.12,6.13v6.73a6.12,6.12,0,0,0,6.12,6.12h6.73a6.12,6.12,0,0,0,6.12-6.12V52.83a6.13,6.13,0,0,0-6.12-6.13" transform="translate(0 0)"/><path class="cls-7" d="M70.26,42.33H63.53A6.13,6.13,0,0,1,57.4,36.2V29.48a6.13,6.13,0,0,1,6.13-6.13h6.73a6.12,6.12,0,0,1,6.12,6.13V36.2a6.12,6.12,0,0,1-6.12,6.13" transform="translate(0 0)"/><path class="cls-7" d="M93.22,42.33H86.49a6.13,6.13,0,0,1-6.13-6.13V29.48a6.13,6.13,0,0,1,6.13-6.13h6.73a6.12,6.12,0,0,1,6.12,6.13V36.2a6.12,6.12,0,0,1-6.12,6.13" transform="translate(0 0)"/><path class="cls-8" d="M24.33,23.35H6.12A6.12,6.12,0,0,0,0,29.48V36.2a6.12,6.12,0,0,0,6.12,6.13H24.33a6.13,6.13,0,0,0,6.13-6.13V29.48a6.13,6.13,0,0,0-6.13-6.13" transform="translate(0 0)"/><path class="cls-8" d="M116.18,23.35h-6.73a6.12,6.12,0,0,0-6.12,6.13V36.2a6.12,6.12,0,0,0,6.12,6.13h6.73a6.12,6.12,0,0,0,6.12-6.13V29.48a6.12,6.12,0,0,0-6.12-6.13" transform="translate(0 0)"/><path class="cls-7" d="M162.1,42.33h-6.73a6.12,6.12,0,0,1-6.12-6.13V29.48a6.12,6.12,0,0,1,6.12-6.13h6.73a6.12,6.12,0,0,1,6.12,6.13V36.2a6.12,6.12,0,0,1-6.12,6.13" transform="translate(0 0)"/><path class="cls-7" d="M196.54,42.33H178.33a6.12,6.12,0,0,1-6.12-6.13V29.48a6.12,6.12,0,0,1,6.12-6.13h18.21a6.12,6.12,0,0,1,6.13,6.13V36.2a6.12,6.12,0,0,1-6.13,6.13" transform="translate(0 0)"/><path class="cls-5" d="M196.54,65.68H166.85a6.12,6.12,0,0,1-6.12-6.12V52.83a6.13,6.13,0,0,1,6.12-6.13h29.69a6.13,6.13,0,0,1,6.13,6.13v6.73a6.12,6.12,0,0,1-6.13,6.12" transform="translate(0 0)"/><path class="cls-9" d="M0,70.31H23.59q5.9,0,8.56,2.67c1.78,1.78,2.66,4.63,2.66,8.56v5a14.14,14.14,0,0,1-1.54,7.24,7.61,7.61,0,0,1-4.91,3.43l7,12.34h-11L18,97.82H10.12V109.6H0Zm24.7,11.23q0-3.37-3.37-3.37H10.12V90H21.34q3.38,0,3.37-3.37Z" transform="translate(0 0)"/><path class="cls-9" d="M75.79,98.94q0,5.9-2.67,8.56c-1.77,1.78-4.63,2.67-8.56,2.67h-14q-5.89,0-8.56-2.67T39.3,98.94V81c0-3.93.89-6.79,2.67-8.56s4.63-2.67,8.56-2.67h14c3.93,0,6.79.89,8.56,2.67s2.67,4.63,2.67,8.56ZM65.69,81c0-2.25-1.13-3.37-3.37-3.37H52.78q-3.37,0-3.37,3.37v18q0,3.38,3.37,3.37h9.54c2.24,0,3.37-1.12,3.37-3.37Z" transform="translate(0 0)"/><polygon class="cls-9" points="115.09 87.71 107.23 101.75 99.37 101.75 91.51 87.71 91.51 109.61 81.41 109.61 81.41 70.31 92.07 70.31 103.3 91.08 114.52 70.31 125.19 70.31 125.19 109.61 115.09 109.61 115.09 87.71"/><path class="cls-9" d="M167.29,98.94q0,5.9-2.67,8.56c-1.77,1.78-4.63,2.67-8.56,2.67H142q-5.9,0-8.56-2.67t-2.67-8.56V81c0-3.93.89-6.79,2.67-8.56s4.63-2.67,8.56-2.67h14c3.93,0,6.79.89,8.56,2.67s2.67,4.63,2.67,8.56Zm-10.1-18c0-2.25-1.13-3.37-3.37-3.37h-9.54q-3.37,0-3.37,3.37v18q0,3.38,3.37,3.37h9.54c2.24,0,3.37-1.12,3.37-3.37Z" transform="translate(0 0)"/><polygon class="cls-9" points="202.66 78.17 183.01 101.75 202.66 101.75 202.66 109.61 170.66 109.61 170.66 101.75 190.31 78.17 170.66 78.17 170.66 70.31 202.66 70.31 202.66 78.17"/><polygon class="cls-8" points="33.51 132.91 29.65 132.91 24.79 124.39 24.79 132.91 21.14 132.91 21.14 118.72 24.99 118.72 29.86 127.23 29.86 118.72 33.51 118.72 33.51 132.91"/><polygon class="cls-8" points="53.68 132.91 42.43 132.91 42.43 118.72 53.68 118.72 53.68 121.55 46.08 121.55 46.08 124.29 52.06 124.29 52.06 127.13 46.08 127.13 46.08 130.07 53.68 130.07 53.68 132.91"/><polygon class="cls-8" points="68.68 132.91 65.03 132.91 65.03 121.55 60.77 121.55 60.77 118.72 72.94 118.72 72.94 121.55 68.68 121.55 68.68 132.91"/><polygon class="cls-8" points="91.19 118.72 93.62 127.84 95.75 118.72 99.7 118.72 95.85 132.91 92 132.91 89.56 124.09 87.13 132.91 83.28 132.91 79.43 118.72 83.38 118.72 85.51 127.84 87.94 118.72 91.19 118.72"/><path class="cls-8" d="M120,129.05a3.49,3.49,0,0,1-4.06,4.06h-5.07a3.48,3.48,0,0,1-4-4.06v-6.48a4.24,4.24,0,0,1,1-3.09,4.19,4.19,0,0,1,3.09-1h5.07a4.19,4.19,0,0,1,3.09,1,4.24,4.24,0,0,1,1,3.09Zm-3.65-6.48a1.08,1.08,0,0,0-1.22-1.22h-3.45a1.07,1.07,0,0,0-1.21,1.22v6.48a1.07,1.07,0,0,0,1.21,1.22h3.45a1.08,1.08,0,0,0,1.22-1.22Z" transform="translate(0 0)"/><path class="cls-8" d="M128.49,118.72H137a3.48,3.48,0,0,1,4.05,4v1.83a5.12,5.12,0,0,1-.55,2.61,2.76,2.76,0,0,1-1.78,1.24l2.54,4.46h-4L135,128.65h-2.84v4.26h-3.65Zm8.92,4a1.07,1.07,0,0,0-1.21-1.22h-4.06v4.26h4.06a1.07,1.07,0,0,0,1.21-1.21Z" transform="translate(0 0)"/><polygon class="cls-8" points="153.23 132.91 149.58 132.91 149.58 118.72 153.23 118.72 153.23 124.29 155.05 124.29 158.21 118.72 162.07 118.72 158.09 125.71 162.05 132.91 158.19 132.91 155.05 127.13 153.23 127.13 153.23 132.91"/><path class="cls-8" d="M172.81,123.18a1.07,1.07,0,0,0,1.22,1.21h3.65a4.06,4.06,0,0,1,2.92.92,3.88,3.88,0,0,1,.93,2.87v1a3.88,3.88,0,0,1-.93,2.87,4.06,4.06,0,0,1-2.92.92h-5.4a16.24,16.24,0,0,1-2.94-.27v-2.59h7.53a1.06,1.06,0,0,0,.74-.26.91.91,0,0,0,.27-.7v-1.72h-4.66a4.28,4.28,0,0,1-3.1-1,4.24,4.24,0,0,1-1-3.09v-.61a4.24,4.24,0,0,1,1-3.09,4.28,4.28,0,0,1,3.1-1h7.11v2.83H174a1.08,1.08,0,0,0-1.22,1.22Z" transform="translate(0 0)"/></g></svg>