<svg width="35" height="35" viewBox="0 0 35 35" fill="none" xmlns="http://www.w3.org/2000/svg">
<path d="M17.5 10.2084C18.3054 10.2084 18.9584 9.55544 18.9584 8.75002C18.9584 7.94461 18.3054 7.29169 17.5 7.29169C16.6946 7.29169 16.0417 7.94461 16.0417 8.75002C16.0417 9.55544 16.6946 10.2084 17.5 10.2084Z" fill="#77548C"/>
<path d="M8.75 24.7917H26.25V27.7084H8.75V24.7917ZM14.5833 17.2521L18.655 21.3267L24.3892 15.5881L26.25 17.5V11.6667H20.4167L22.3271 13.5261L18.6535 17.1996L14.5833 13.125L8.75 18.9584L10.8121 21.0204L14.5833 17.2521Z" fill="#77548C"/>
<path d="M27.7084 4.37502H22.8988C22.7543 4.16029 22.5985 3.9534 22.4321 3.75523L22.4175 3.73773C21.3457 2.49023 19.8384 1.69851 18.2029 1.52398C17.7384 1.43634 17.2616 1.43634 16.7971 1.52398C15.1617 1.69851 13.6544 2.49023 12.5825 3.73773L12.5679 3.75523C12.4015 3.95292 12.2458 4.15933 12.1013 4.37356V4.37502H7.29169C6.13172 4.37618 5.01959 4.83748 4.19937 5.65771C3.37915 6.47793 2.91785 7.59005 2.91669 8.75002V29.1667C2.91785 30.3267 3.37915 31.4388 4.19937 32.259C5.01959 33.0792 6.13172 33.5405 7.29169 33.5417H27.7084C28.8683 33.5405 29.9804 33.0792 30.8007 32.259C31.6209 31.4388 32.0822 30.3267 32.0834 29.1667V8.75002C32.0822 7.59005 31.6209 6.47793 30.8007 5.65771C29.9804 4.83748 28.8683 4.37618 27.7084 4.37502ZM29.1667 29.1667C29.1667 29.5535 29.013 29.9244 28.7396 30.1979C28.4661 30.4714 28.0951 30.625 27.7084 30.625H7.29169C6.90491 30.625 6.53398 30.4714 6.26049 30.1979C5.987 29.9244 5.83335 29.5535 5.83335 29.1667V8.75002C5.83335 8.36324 5.987 7.99231 6.26049 7.71882C6.53398 7.44533 6.90491 7.29169 7.29169 7.29169H13.9271C14.0945 6.46752 14.5416 5.72655 15.1927 5.19433C15.8439 4.66211 16.659 4.37136 17.5 4.37136C18.341 4.37136 19.1561 4.66211 19.8073 5.19433C20.4584 5.72655 20.9056 6.46752 21.0729 7.29169H27.7084C28.0951 7.29169 28.4661 7.44533 28.7396 7.71882C29.013 7.99231 29.1667 8.36324 29.1667 8.75002V29.1667Z" fill="#77548C"/>
</svg>
