<svg xmlns="http://www.w3.org/2000/svg" data-name="Layer 1" viewBox="0 0 2000 2000"><path fill="#04020e" d="M1189.49,317.1a193.92,193.92,0,1,1-387.84,0c0-107.1,86.82-193.92,193.92-193.92S1189.49,210,1189.49,317.1Z"/><path fill="#04020e" d="M1228,747.74l-228,37.1L770.71,747.71c40.8-5.52,170.62-35,227.84-188.47H1000C1057.29,712.94,1187.35,742.26,1228,747.74Z"/><path fill="#fea669" d="M1626,1743.66v133.16H374V1743.66c0-2.17,0-4.36,0-6.52,0-1.93.05-3.86.1-5.79,0-.5,0-1,0-1.5.05-1.42.07-2.83.12-4.26.09-2.8.21-5.61.33-8.42.1-2,.19-3.93.31-5.88.14-2.38.29-4.74.45-7.12.12-1.61.24-3.26.36-4.87.36-4.55.79-9.07,1.24-13.57.33-3,.66-6,1-9,.38-3.31.81-6.64,1.29-10,.54-4,1.11-7.87,1.76-11.8q2.46-15.29,5.73-30.3c.22-1,.46-2.12.69-3.16.31-1.43.65-2.83,1-4.24.26-1.19.55-2.38.83-3.57.69-2.85,1.41-5.71,2.12-8.54q4.5-17.43,10-34.42c.53-1.59,1-3.19,1.6-4.78s1.07-3.19,1.64-4.78,1.09-3.17,1.67-4.74q2.54-7.11,5.28-14.14c.55-1.4,1.07-2.78,1.62-4.16.71-1.79,1.45-3.6,2.19-5.41.62-1.47,1.21-2.92,1.83-4.37,1.31-3.1,2.62-6.17,4-9.21s2.72-6.07,4.15-9.12c2.07-4.52,4.23-9,6.47-13.49.74-1.48,1.5-3,2.24-4.46l2.28-4.42q4.57-8.85,9.5-17.49c.81-1.43,1.64-2.88,2.47-4.31q2.51-4.29,5.05-8.55,3.86-6.39,7.85-12.63c.88-1.41,1.79-2.79,2.69-4.17q3.39-5.2,6.88-10.3t7.12-10.14q14.38-20.1,30.55-38.82,13.68-15.93,28.56-30.73,3.72-3.71,7.48-7.35c2.21-2.12,4.42-4.21,6.66-6.31,4.48-4.16,9.05-8.26,13.66-12.28s9.31-7.95,14-11.83,9.57-7.66,14.45-11.37c2.43-1.86,4.88-3.72,7.35-5.52h0q8.46-6.25,17.16-12.14t17.66-11.5c2.4-1.5,4.83-3,7.28-4.45,1-.57,1.88-1.14,2.83-1.69,1.55-.95,3.12-1.88,4.69-2.76,1.81-1.07,3.62-2.09,5.43-3.12.9-.52,1.78-1,2.69-1.52s1.78-1,2.69-1.5l1.16-.64q12.78-7,26-13.4,4.58-2.22,9.21-4.33,4.18-1.93,8.4-3.79v0a550.89,550.89,0,0,1,139.52-40.55l14.78-94.13,8-51.27h263.56l6.92,50.91,12.78,94a546.35,546.35,0,0,1,64.34,13.36c2.88.78,5.75,1.59,8.63,2.4.43.12.86.24,1.29.38,2.57.74,5.14,1.5,7.69,2.28l1.35.43c2.93.91,5.83,1.84,8.74,2.79s6.07,2,9.09,3.07,6,2.12,9,3.21c4.5,1.64,9,3.36,13.4,5.12s8.85,3.57,13.23,5.45c.74.31,1.48.64,2.22,1l5.28,2.29c.45.21.88.4,1.33.59s1.14.5,1.69.76c2.64,1.19,5.29,2.41,7.93,3.65,3,1.42,6.07,2.9,9.09,4.38,2.26,1.09,4.52,2.23,6.76,3.37,3.35,1.72,6.71,3.46,10,5.24s6.61,3.59,9.9,5.45q4.38,2.46,8.71,5,8.1,4.74,16,9.78c1.78,1.12,3.52,2.24,5.28,3.38q5.25,3.42,10.43,6.93c3.42,2.35,6.85,4.73,10.23,7.16,2.71,1.93,5.4,3.9,8.09,5.88q8,5.92,15.81,12.18c2.61,2.1,5.18,4.19,7.75,6.31s5.1,4.26,7.62,6.43,5,4.35,7.5,6.56q5.6,5,11,10.1c3.64,3.4,7.21,6.87,10.76,10.4,3,2.92,5.88,5.87,8.76,8.87s5.73,6,8.54,9.07,5.62,6.14,8.35,9.26,5.45,6.28,8.14,9.45c2.15,2.54,4.26,5.11,6.36,7.69s4.16,5.18,6.23,7.8,4.07,5.26,6.07,7.9,4,5.33,6,8.05q5.92,8.07,11.47,16.37c1,1.48,2,2.93,3,4.4.86,1.31,1.72,2.62,2.58,4q4,6.21,7.9,12.56a554.67,554.67,0,0,1,40.77,81.06c.64,1.57,1.26,3.14,1.88,4.72,1.23,3.14,2.45,6.3,3.61,9.47.6,1.59,1.19,3.19,1.76,4.78s1.15,3.19,1.72,4.79q2.54,7.2,4.85,14.49c.48,1.5,1,3,1.43,4.47.31,1,.6,2,.93,3,.38,1.31.79,2.62,1.17,3.93q2,6.57,3.73,13.21c.55,2,1.07,4,1.6,6s1,4,1.52,6.07q.54,2.18,1,4.38c.28,1.14.54,2.29.81,3.43,1.54,6.69,3,13.45,4.26,20.23.33,1.71.64,3.4.95,5.12s.62,3.4.9,5.11c.88,5.12,1.69,10.28,2.43,15.45.17,1.16.33,2.35.5,3.54.21,1.6.43,3.22.64,4.84.53,4.14,1,8.28,1.45,12.44a.74.74,0,0,0,0,.26c.21,2.12.43,4.24.62,6.38.28,3.12.54,6.24.78,9.38.12,1.67.24,3.36.36,5,.24,3.52.43,7,.59,10.59.08,1.47.15,3,.19,4.45l.08,1.28c0,1.64.09,3.29.14,4.93,0,1.4.09,2.83.12,4.24,0,1.78.07,3.54.07,5.3C1626,1739.3,1626,1741.47,1626,1743.66Z"/><path fill="#04020e" d="M1138.7,1092.83l-64.53,91.57c-16.24,23-42,38-70.19,39.24-1.47.07-2.94.1-4.41.1-29.5,0-57-15-74.13-39l-65.26-91.54,8-51.27h263.56Z"/><path fill="#fea669" d="M1171.94,1031.41,1061.18,1145.7a100.91,100.91,0,0,1-122.61.33L826.5,1031.68c-24.78-26.53-52.57-59.69-54.08-97L743.33,543.91h513.35l-31.23,391.63C1223.75,972.36,1196.29,1005.15,1171.94,1031.41Z"/><path fill="#6436d6" d="M1148.13,400a19.88,19.88,0,0,1,6.22,28.49A194,194,0,0,1,839,431.6a19.82,19.82,0,0,1,5.56-28.49c33.66-20.91,72.28-40,113.32-40h82.71C1079.31,363.13,1115.86,380.88,1148.13,400Z"/><path fill="#04020e" d="M1277.79,626.45V739.62L1228,747.74c-40.63-5.48-170.69-34.8-228-188.5h-1.45c-57.22,153.51-187,183-227.84,188.47l-50-8.09V626.45c0-131,106.19-237.14,237.16-237.14h82.71C1171.6,389.31,1277.79,495.48,1277.79,626.45Z"/><path fill="#fff" d="M1626,1743.66v133.16H374V1743.66c0-2.17,0-4.36,0-6.52,0-1.93.05-3.86.1-5.79,0-.5,0-1,0-1.5.05-1.42.07-2.83.12-4.26.09-2.8.21-5.61.33-8.42.1-2,.19-3.93.31-5.88.14-2.38.29-4.74.45-7.12.12-1.61.24-3.26.36-4.87.36-4.55.79-9.07,1.24-13.57.33-3,.66-6,1-9,.38-3.31.81-6.64,1.29-10,.54-4,1.11-7.87,1.76-11.8q2.46-15.29,5.73-30.3c.22-1,.46-2.12.69-3.16.31-1.43.65-2.83,1-4.24.26-1.19.55-2.38.83-3.57.69-2.85,1.41-5.71,2.12-8.54q4.5-17.43,10-34.42c.53-1.59,1-3.19,1.6-4.78s1.07-3.19,1.64-4.78,1.09-3.17,1.67-4.74q2.54-7.11,5.28-14.14c.55-1.4,1.07-2.78,1.62-4.16.71-1.79,1.45-3.6,2.19-5.41.62-1.47,1.21-2.92,1.83-4.37,1.31-3.1,2.62-6.17,4-9.21s2.72-6.07,4.15-9.12c2.09-4.52,4.26-9,6.47-13.49.74-1.48,1.5-3,2.24-4.46l2.28-4.42q4.61-8.82,9.5-17.49c.81-1.43,1.64-2.88,2.47-4.31q2.51-4.29,5.05-8.55,3.86-6.39,7.85-12.63c.88-1.41,1.79-2.79,2.69-4.17q3.39-5.2,6.88-10.3t7.12-10.14q14.41-20.1,30.55-38.82,13.68-15.93,28.56-30.73,3.72-3.71,7.48-7.35c2.21-2.12,4.42-4.21,6.66-6.31q6.75-6.24,13.66-12.28t14-11.83c4.76-3.85,9.57-7.66,14.45-11.37,2.43-1.86,4.88-3.72,7.35-5.52h0q8.46-6.21,17.16-12.14t17.66-11.5c2.4-1.5,4.83-3,7.28-4.45,1-.57,1.88-1.14,2.83-1.69,1.55-.95,3.12-1.88,4.69-2.76,1.81-1.07,3.62-2.09,5.43-3.12.9-.52,1.78-1,2.69-1.52s1.78-1,2.69-1.5l1.16-.64q12.78-7,26-13.4,4.58-2.22,9.21-4.33c2.79-1.31,5.59-2.57,8.4-3.81v0c22.76,140.21,144.35,247.26,291,247.26a294.7,294.7,0,0,0,291.4-249.8c.74.31,1.48.64,2.22,1l5.28,2.29c.45.21.88.4,1.33.59s1.14.5,1.69.76c2.64,1.19,5.29,2.41,7.93,3.65,3,1.42,6.07,2.9,9.09,4.38,2.26,1.09,4.52,2.23,6.76,3.37,3.35,1.72,6.71,3.46,10,5.24s6.61,3.62,9.9,5.45q4.38,2.46,8.71,5,8.1,4.74,16,9.78c1.78,1.12,3.52,2.24,5.28,3.38q5.25,3.42,10.43,6.93c3.42,2.35,6.85,4.73,10.23,7.16,2.71,1.93,5.4,3.9,8.09,5.88q8,5.92,15.81,12.18c2.61,2.1,5.18,4.19,7.75,6.31s5.1,4.26,7.62,6.43,5,4.35,7.5,6.56c3.73,3.34,7.4,6.69,11,10.1s7.21,6.87,10.76,10.4c3,2.92,5.88,5.87,8.76,8.87s5.73,6,8.54,9.07,5.59,6.14,8.35,9.26,5.45,6.28,8.14,9.45c2.15,2.54,4.26,5.11,6.36,7.69s4.16,5.18,6.23,7.8,4.07,5.26,6.07,7.9,4,5.33,6,8.05q5.89,8.07,11.47,16.37c1,1.48,2,2.93,3,4.4.86,1.31,1.72,2.62,2.58,4q4,6.21,7.9,12.56a554.67,554.67,0,0,1,40.77,81.06c.64,1.57,1.26,3.14,1.88,4.72,1.23,3.14,2.45,6.3,3.61,9.47.6,1.59,1.19,3.19,1.76,4.78s1.15,3.19,1.72,4.79q2.54,7.2,4.85,14.49c.48,1.5,1,3,1.43,4.47.31,1,.6,2,.93,3,.38,1.31.79,2.62,1.17,3.93q2,6.57,3.73,13.21c.55,2,1.07,4,1.6,6s1,4,1.52,6.07q.54,2.18,1,4.38c.28,1.14.54,2.29.81,3.43,1.54,6.69,3,13.45,4.26,20.23.33,1.71.64,3.4.95,5.12s.62,3.4.9,5.11c.88,5.12,1.69,10.28,2.43,15.45.17,1.16.33,2.35.5,3.54.21,1.6.43,3.22.64,4.84.53,4.14,1,8.28,1.45,12.44a.74.74,0,0,0,0,.26c.21,2.12.43,4.24.62,6.38.28,3.12.54,6.24.78,9.38.12,1.67.24,3.36.36,5,.24,3.52.43,7,.59,10.59.08,1.47.15,3,.19,4.45l.08,1.28c0,1.64.09,3.29.14,4.93,0,1.4.09,2.83.12,4.24,0,1.78.07,3.54.07,5.3C1626,1739.3,1626,1741.47,1626,1743.66Z"/><path fill="#04020e" d="M1085.79,1021.63c-21.79,5.68-33.35-7.46-51.14-15-16.54-7-33.09,13.63-35.31,16.55-2.23-2.92-18.77-23.59-35.32-16.55-17.79,7.56-29.35,20.7-51.14,15,0,0,20.45,13.5,43.36,15.1,20.87,1.45,39.66,2,42.83,2.11h.53c3.18-.09,22-.66,42.83-2.11C1065.34,1035.13,1085.79,1021.63,1085.79,1021.63Z"/><path fill="#000006" d="M1170.45,804c-.84,0-1.37,0-1.47,0a2.38,2.38,0,0,1-2.19-2.55,2.32,2.32,0,0,1,2.55-2.19c.1,0,10.79.71,15-5.61a2.38,2.38,0,0,1,4,2.64C1183.61,803.28,1174.12,804,1170.45,804Z"/><path fill="#000006" d="M1157.55,794a2.38,2.38,0,0,1-.3-4.74c7.21-.94,17.61-4.12,18.13-8.27a2.41,2.41,0,0,1,2.66-2.06,2.38,2.38,0,0,1,2.06,2.66c-1.16,9.21-18.73,11.94-22.24,12.39A1.62,1.62,0,0,1,1157.55,794Z"/><path fill="#000006" d="M830.59,804c-3.67,0-13.16-.72-17.85-7.76a2.38,2.38,0,0,1,4-2.64c4.24,6.36,14.9,5.62,15,5.61a2.33,2.33,0,0,1,2.56,2.18,2.38,2.38,0,0,1-2.19,2.56C832,804,831.43,804,830.59,804Z"/><path fill="#ce5300" d="M964.19,1059.29s12.52,14.29,36.31,14.29,34-14.29,34-14.29l25-25.79-125.41-1.66Z"/><path fill="#000006" d="M843.49,794a1.51,1.51,0,0,1-.3,0c-3.51-.45-21.08-3.18-22.25-12.39a2.38,2.38,0,1,1,4.72-.6c.53,4.15,10.92,7.33,18.14,8.27a2.38,2.38,0,0,1-.31,4.74Z"/><path fill="#04020e" d="M1036.08,753.72a4.76,4.76,0,0,1-2.36-8.9c2.19-1.24,54-30.69,94.11-43.67a4.76,4.76,0,0,1,2.93,9.06c-39.15,12.68-91.8,42.58-92.33,42.88A4.66,4.66,0,0,1,1036.08,753.72Z"/><path fill="#04020e" d="M962.46,753.72a4.66,4.66,0,0,1-2.35-.63c-.53-.3-53.17-30.2-92.33-42.88a4.76,4.76,0,0,1,2.94-9.06c40.09,13,91.92,42.43,94.11,43.67a4.76,4.76,0,0,1-2.37,8.9Z"/><path fill="#ce5300" d="M1040.15,969.6H958.52A9.91,9.91,0,0,1,949,957l22.06-79.74a3.57,3.57,0,1,1,6.88,1.9l-22.07,79.78a2.78,2.78,0,0,0,2.65,3.57h81.63a2.78,2.78,0,0,0,2.66-3.54l-22.08-79.81a3.57,3.57,0,0,1,6.88-1.9L1049.68,957a9.92,9.92,0,0,1-9.53,12.62Z"/><path fill="#000006" d="M1000.5,1074.77c-25.12,0-38.44-14.87-39-15.51a3.57,3.57,0,0,1,5.36-4.71c.15.17,11.91,13.08,33.63,13.08,21.5,0,30.7-12.28,31.08-12.81a3.57,3.57,0,0,1,5.81,4.16C1036.93,1059.63,1025.84,1074.77,1000.5,1074.77Z"/><path fill="#6436d6" d="M1626,1743.66v133.16H1007.64L1142.23,1444l73.59-236.66c2.88.78,5.75,1.59,8.63,2.4.43.12.86.24,1.29.38,2.57.74,5.14,1.5,7.69,2.28l1.35.43c2.93.91,5.83,1.84,8.74,2.79s6.07,2,9.09,3.07,6,2.12,9,3.21c4.5,1.64,9,3.36,13.4,5.12s8.85,3.57,13.23,5.45c.74.31,1.48.64,2.22,1l5.28,2.29c.45.21.88.4,1.33.59s1.14.5,1.69.76c2.64,1.19,5.29,2.41,7.93,3.65,3,1.42,6.07,2.9,9.09,4.38,2.26,1.09,4.52,2.23,6.76,3.37,3.35,1.72,6.71,3.46,10,5.24s6.61,3.59,9.9,5.45q4.38,2.46,8.71,5,8.1,4.74,16,9.78c1.78,1.12,3.52,2.24,5.28,3.38q5.25,3.42,10.43,6.93c3.42,2.35,6.85,4.73,10.23,7.16,2.71,1.93,5.4,3.9,8.09,5.88q8,5.92,15.81,12.18c2.61,2.1,5.18,4.19,7.75,6.31s5.1,4.26,7.62,6.43,5,4.35,7.5,6.56q5.6,5,11,10.1c3.64,3.4,7.21,6.87,10.76,10.4,3,2.92,5.88,5.87,8.76,8.87s5.73,6,8.54,9.07,5.62,6.14,8.35,9.26,5.45,6.28,8.14,9.45c2.15,2.54,4.26,5.11,6.36,7.69s4.16,5.18,6.23,7.8,4.07,5.26,6.07,7.9,4,5.33,6,8.05q5.92,8.07,11.47,16.37c1,1.48,2,2.93,3,4.4.86,1.31,1.72,2.62,2.58,4q4,6.21,7.9,12.56a554.67,554.67,0,0,1,40.77,81.06c.64,1.57,1.26,3.14,1.88,4.72,1.23,3.14,2.45,6.3,3.61,9.47.6,1.59,1.19,3.19,1.76,4.78s1.15,3.19,1.72,4.79q2.54,7.2,4.85,14.49c.48,1.5,1,3,1.43,4.47.31,1,.6,2,.93,3,.38,1.31.79,2.62,1.17,3.93q2,6.57,3.73,13.21c.55,2,1.07,4,1.6,6s1,4,1.52,6.07q.54,2.18,1,4.38c.28,1.14.54,2.29.81,3.43,1.54,6.69,3,13.45,4.26,20.23.33,1.71.64,3.4.95,5.12s.62,3.4.9,5.11c.88,5.12,1.69,10.28,2.43,15.45.17,1.16.33,2.35.5,3.54.21,1.6.43,3.22.64,4.84.53,4.14,1,8.28,1.45,12.44a.74.74,0,0,0,0,.26c.21,2.12.43,4.24.62,6.38.28,3.12.54,6.24.78,9.38.12,1.67.24,3.36.36,5,.24,3.52.43,7,.59,10.59.08,1.47.15,3,.19,4.45l.08,1.28c0,1.64.09,3.29.14,4.93,0,1.4.09,2.83.12,4.24,0,1.78.07,3.54.07,5.3C1626,1739.3,1626,1741.47,1626,1743.66Z"/><path fill="#6436d6" d="M374,1743.66v133.16H992.36L857.77,1444l-73.59-236.66c-2.88.78-5.75,1.59-8.63,2.4-.43.12-.86.24-1.29.38-2.57.74-5.14,1.5-7.69,2.28l-1.35.43c-2.93.91-5.83,1.84-8.74,2.79s-6.07,2-9.09,3.07-6,2.12-9,3.21c-4.5,1.64-9,3.36-13.4,5.12s-8.85,3.57-13.23,5.45c-.74.31-1.48.64-2.22,1l-5.28,2.29c-.45.21-.88.4-1.33.59s-1.14.5-1.69.76c-2.64,1.19-5.29,2.41-7.93,3.65-3,1.42-6.07,2.9-9.09,4.38-2.26,1.09-4.52,2.23-6.76,3.37-3.35,1.72-6.71,3.46-10,5.24s-6.61,3.59-9.9,5.45q-4.38,2.46-8.71,5-8.1,4.74-16,9.78c-1.78,1.12-3.52,2.24-5.28,3.38q-5.25,3.42-10.43,6.93c-3.42,2.35-6.85,4.73-10.23,7.16-2.71,1.93-5.4,3.9-8.09,5.88q-8,5.92-15.81,12.18c-2.61,2.1-5.18,4.19-7.75,6.31s-5.1,4.26-7.62,6.43-5,4.35-7.5,6.56q-5.59,5-11,10.1c-3.64,3.4-7.21,6.87-10.76,10.4-3,2.92-5.88,5.87-8.76,8.87s-5.73,6-8.54,9.07-5.62,6.14-8.35,9.26-5.45,6.28-8.14,9.45c-2.15,2.54-4.26,5.11-6.36,7.69s-4.16,5.18-6.23,7.8-4.07,5.26-6.07,7.9-4,5.33-5.95,8.05q-5.92,8.07-11.47,16.37c-1,1.48-2,2.93-2.95,4.4-.86,1.31-1.72,2.62-2.58,4q-4,6.21-7.9,12.56a554.67,554.67,0,0,0-40.77,81.06c-.64,1.57-1.26,3.14-1.88,4.72-1.23,3.14-2.45,6.3-3.61,9.47-.6,1.59-1.19,3.19-1.76,4.78s-1.15,3.19-1.72,4.79q-2.54,7.2-4.85,14.49c-.48,1.5-1,3-1.43,4.47-.31,1-.6,2-.93,3-.38,1.31-.79,2.62-1.17,3.93q-1.95,6.57-3.73,13.21c-.55,2-1.07,4-1.6,6s-1,4-1.52,6.07q-.54,2.18-1.05,4.38c-.28,1.14-.54,2.29-.81,3.43-1.54,6.69-3,13.45-4.26,20.23-.33,1.71-.64,3.4-.95,5.12s-.62,3.4-.9,5.11c-.88,5.12-1.69,10.28-2.43,15.45-.17,1.16-.33,2.35-.5,3.54-.21,1.6-.43,3.22-.64,4.84-.53,4.14-1,8.28-1.45,12.44a.74.74,0,0,1,0,.26c-.21,2.12-.43,4.24-.62,6.38-.28,3.12-.54,6.24-.78,9.38-.12,1.67-.24,3.36-.36,5-.24,3.52-.43,7-.59,10.59-.08,1.47-.15,3-.19,4.45l-.08,1.28c0,1.64-.09,3.29-.14,4.93,0,1.4-.09,2.83-.12,4.24,0,1.78-.07,3.54-.07,5.3C374,1739.3,374,1741.47,374,1743.66Z"/><path fill="#fea669" d="M1287.07,807.62c-22.68,17.49-23.32,31.48-22.82,44.17s-1,52.45-37.11,40.22l-.11-1.38,11.4-143c.78-1.62,1.57-3.16,2.4-4.64,13.56-24.18,41.62-27.37,55.81-6.12S1309.75,790.15,1287.07,807.62Z"/><path fill="#000006" d="M1245.23,784.09a3.57,3.57,0,0,1-3.13-5.27c.65-1.21,16.15-29.54,33.68-32.79a17.68,17.68,0,0,1,15.26,4.35,3.57,3.57,0,1,1-4.64,5.42,10.71,10.71,0,0,0-9.32-2.75c-11.79,2.19-24.72,21.79-28.7,29.17A3.59,3.59,0,0,1,1245.23,784.09Z"/><path fill="#fea669" d="M709.61,807.62c22.68,17.49,23.33,31.48,22.83,44.17s.95,52.45,37.1,40.22l.12-1.38-11.4-143c-.79-1.62-1.57-3.16-2.4-4.64-13.57-24.18-41.63-27.37-55.82-6.12S686.93,790.15,709.61,807.62Z"/><path fill="#000006" d="M753.83,784.09a3.56,3.56,0,0,1-3.14-1.87c-4-7.38-16.94-27-28.71-29.17a10.7,10.7,0,0,0-9.31,2.75,3.57,3.57,0,1,1-4.65-5.42A17.67,17.67,0,0,1,723.28,746c17.53,3.25,33,31.58,33.69,32.79a3.57,3.57,0,0,1-3.14,5.27Z"/><circle cx="1252.06" cy="890.06" r="20.5" fill="#fff"/><circle cx="997.12" cy="1428.79" r="20.5" fill="#fff"/><circle cx="746.69" cy="890.06" r="20.5" fill="#fff"/><path fill="#fff" d="M998.7,1413.94l-.26-.08c-95.49-28.27-134.85-86-151.05-129.54-17.56-47.12-12.43-88.13-12.38-88.54a1.19,1.19,0,1,1,2.36.31c0,.4-5.1,40.92,12.28,87.5,16,42.9,54.9,99.9,149.19,127.91,3.44-.63,39.87-7.85,77.19-36.3,36-27.44,80.2-80.83,86.46-179.34a1.12,1.12,0,0,1,1.26-1.11,1.17,1.17,0,0,1,1.11,1.26c-6.32,99.47-51.06,153.42-87.48,181.15-39.48,30.07-78,36.67-78.41,36.74Z"/><path fill="#fff" d="M1178.26,819.18l-119.46,5.64s6.2-27.52,36.62-39.31a78.09,78.09,0,0,1,20.29-4.73,63.38,63.38,0,0,1,23.59,1.73C1168.69,790.57,1178.26,819.18,1178.26,819.18Z"/><path fill="#000002" d="M1142.26,795a24.25,24.25,0,1,1-46.84-7.06,78.09,78.09,0,0,1,20.29-4.73,63.38,63.38,0,0,1,23.59,1.73A24.14,24.14,0,0,1,1142.26,795Z"/><circle cx="1116.96" cy="792.59" r="4.72" fill="#fff"/><path fill="#fff" d="M823.3,819.52l119.47,5.64s-6.21-27.52-36.63-39.31a77.59,77.59,0,0,0-20.29-4.73,63.38,63.38,0,0,0-23.59,1.73C832.87,790.91,823.3,819.52,823.3,819.52Z"/><path fill="#000002" d="M859.31,795.28a24.25,24.25,0,1,0,46.83-7,77.59,77.59,0,0,0-20.29-4.73,63.38,63.38,0,0,0-23.59,1.73A24.13,24.13,0,0,0,859.31,795.28Z"/><circle cx="884.6" cy="792.93" r="4.72" fill="#fff"/><path fill="#ce5300" d="M936.38,831.9l-.36,0L823,820.79a3.57,3.57,0,0,1,.7-7.11l113,11.09a3.57,3.57,0,0,1-.34,7.13Z"/><path fill="#000006" d="M1226.38,815.47a3.32,3.32,0,0,1-1-.15,3.56,3.56,0,0,1-2.4-4.44l18.71-62.94a3.57,3.57,0,1,1,6.84,2l-18.71,62.94A3.57,3.57,0,0,1,1226.38,815.47Z"/><path fill="#000006" d="M773.71,815.47a3.57,3.57,0,0,1-3.42-2.55L751.59,750a3.57,3.57,0,1,1,6.84-2l18.71,62.94a3.57,3.57,0,0,1-2.41,4.44A3.28,3.28,0,0,1,773.71,815.47Z"/><path fill="#000006" d="M1000,975.67a30,30,0,0,1-20.78-8.36c-1.48-1.09-11.49-8-17.23-.51a3.57,3.57,0,0,1-5.66-4.35,15.12,15.12,0,0,1,10.29-6.11c8.59-1.11,16.81,5.2,17.16,5.47l.38.34c.57.58,14.3,14.21,33.33-.25,4-3.7,13.9-8.3,24.21-.06a3.57,3.57,0,1,1-4.46,5.57c-8-6.36-14.28-.85-15-.2l-.28.25C1014.11,973.5,1006.6,975.67,1000,975.67Z"/><path fill="#000006" d="M1057,825.45a3.43,3.43,0,0,1-1.49-.33,3.57,3.57,0,0,1-1.75-4.73c.8-1.74,20.15-42.69,65-42.69,39.12,0,54.69,22.3,58.39,28.8,2.41.3,7.47.42,11.7-2.87a3.57,3.57,0,0,1,4.39,5.64c-8.62,6.7-18.94,4-19.38,3.88l-1.61-.44-.7-1.52c-.49-1.07-12.75-26.35-52.79-26.35s-58.31,38.15-58.49,38.54A3.57,3.57,0,0,1,1057,825.45Z"/><path fill="#ce5300" d="M1065.19,831.56a3.57,3.57,0,0,1-.35-7.12l113-11.1a3.57,3.57,0,1,1,.7,7.11l-113,11.09A2.11,2.11,0,0,1,1065.19,831.56Z"/><path fill="#000006" d="M943,825.45a3.59,3.59,0,0,1-3.25-2.07c-.17-.39-18.31-38.54-58.48-38.54s-52.3,25.28-52.8,26.36l-.7,1.5-1.6.45c-.44.11-10.76,2.82-19.38-3.88a3.57,3.57,0,1,1,4.39-5.63c4.22,3.28,9.28,3.16,11.7,2.86,3.71-6.5,19.27-28.8,58.39-28.8,44.81,0,64.17,40.95,65,42.69a3.57,3.57,0,0,1-1.75,4.73A3.43,3.43,0,0,1,943,825.45Z"/><circle cx="1138.7" cy="916.57" r="87.63" fill="#f48940"/><circle cx="860.92" cy="916.57" r="87.63" fill="#f48940"/><path fill="#ce5300" d="M891.83,1002.15a3.57,3.57,0,0,1-1.12-7c42.67-14,50.42-53.19,50.49-53.58a3.57,3.57,0,1,1,7,1.3c-.33,1.78-8.64,43.74-55.28,59.06A3.58,3.58,0,0,1,891.83,1002.15Z"/><path fill="#c93981" d="M1129.3,945.83a104.89,104.89,0,1,1,104.89-104.89A105,105,0,0,1,1129.3,945.83Zm0-202.64a97.75,97.75,0,1,0,97.75,97.75A97.86,97.86,0,0,0,1129.3,743.19Z"/><path fill="#c93981" d="M870.44,945.83a104.89,104.89,0,1,1,104.9-104.89A105,105,0,0,1,870.44,945.83Zm0-202.64a97.75,97.75,0,1,0,97.76,97.75A97.86,97.86,0,0,0,870.44,743.19Z"/><path fill="#000006" d="M1028.34,825.45a3.56,3.56,0,0,1-2.76-1.3c-6.79-8.24-14.49-12.6-22.88-13-15.91-.72-29.68,13.06-29.82,13.2a3.57,3.57,0,0,1-5.1-5c.65-.66,16.06-16.15,35.19-15.35,10.51.45,20,5.69,28.12,15.57a3.56,3.56,0,0,1-2.75,5.84Z"/><path fill="#ce5300" d="M1107.8,1002.15a3.64,3.64,0,0,1-1.12-.18c-46.64-15.32-55-57.28-55.28-59.06a3.57,3.57,0,0,1,7-1.31h0c.3,1.61,8,39.62,50.49,53.59a3.57,3.57,0,0,1-1.11,7Z"/></svg>