<svg width="20" height="21" viewBox="0 0 20 21" fill="none" xmlns="http://www.w3.org/2000/svg">
<path d="M10 8.83333C9.33696 8.83333 8.70107 8.56994 8.23223 8.1011C7.76339 7.63226 7.5 6.99638 7.5 6.33333C7.5 5.67029 7.76339 5.03441 8.23223 4.56557C8.70107 4.09673 9.33696 3.83333 10 3.83333C10.663 3.83333 11.2989 4.09673 11.7678 4.56557C12.2366 5.03441 12.5 5.67029 12.5 6.33333C12.5 6.99638 12.2366 7.63226 11.7678 8.1011C11.2989 8.56994 10.663 8.83333 10 8.83333ZM7.47333 13.2075C7.6447 12.6721 7.98172 12.205 8.43578 11.8736C8.88983 11.5422 9.43744 11.3636 9.99958 11.3636C10.5617 11.3636 11.1093 11.5422 11.5634 11.8736C12.0174 12.205 12.3545 12.6721 12.5258 13.2075C12.5811 13.4217 12.7192 13.6051 12.9097 13.7175C13.1002 13.8298 13.3275 13.8619 13.5417 13.8067C13.7558 13.7514 13.9393 13.6133 14.0516 13.4228C14.164 13.2323 14.1961 13.005 14.1408 12.7908C13.0483 8.66833 6.94917 8.67 5.86 12.7908C5.82991 12.8976 5.82146 13.0094 5.83514 13.1195C5.84882 13.2296 5.88436 13.3359 5.93966 13.4321C5.99497 13.5283 6.06893 13.6125 6.1572 13.6797C6.24548 13.747 6.3463 13.7959 6.45374 13.8236C6.56118 13.8514 6.67308 13.8574 6.78287 13.8413C6.89266 13.8252 6.99814 13.7874 7.09311 13.73C7.18808 13.6726 7.27064 13.5968 7.33593 13.5071C7.40122 13.4174 7.44794 13.3155 7.47333 13.2075ZM10.0075 20.2208C9.59637 20.2211 9.19952 20.0701 8.8925 19.7967L5.76917 17.1667H3.33333C2.44928 17.1667 1.60143 16.8155 0.976311 16.1904C0.35119 15.5652 0 14.7174 0 13.8333V3.83333C0 2.94928 0.35119 2.10143 0.976311 1.47631C1.60143 0.85119 2.44928 0.5 3.33333 0.5L16.6667 0.5C17.5507 0.5 18.3986 0.85119 19.0237 1.47631C19.6488 2.10143 20 2.94928 20 3.83333V13.8333C20 14.7174 19.6488 15.5652 19.0237 16.1904C18.3986 16.8155 17.5507 17.1667 16.6667 17.1667H14.2892L11.0833 19.8167C10.7863 20.0786 10.4035 20.2224 10.0075 20.2208ZM3.33333 2.16667C2.89131 2.16667 2.46738 2.34226 2.15482 2.65482C1.84226 2.96738 1.66667 3.39131 1.66667 3.83333V13.8333C1.66667 14.2754 1.84226 14.6993 2.15482 15.0118C2.46738 15.3244 2.89131 15.5 3.33333 15.5H6.07417C6.27054 15.5 6.46061 15.5694 6.61083 15.6958L9.9825 18.5375L13.4592 15.6908C13.6085 15.5674 13.7963 15.5 13.99 15.5H16.6667C17.1087 15.5 17.5326 15.3244 17.8452 15.0118C18.1577 14.6993 18.3333 14.2754 18.3333 13.8333V3.83333C18.3333 3.39131 18.1577 2.96738 17.8452 2.65482C17.5326 2.34226 17.1087 2.16667 16.6667 2.16667H3.33333Z" fill="#410C9E"/>
</svg>
