<svg width="74" height="16" viewBox="0 0 74 16" fill="none" xmlns="http://www.w3.org/2000/svg">
<path d="M9.55737 1.71069H17.258V14.2881H9.55737V1.71069Z" fill="#FF5F00"/>
<path d="M10.3505 8.00065C10.3495 6.78956 10.6241 5.59412 11.1533 4.5048C11.6826 3.41548 12.4527 2.46082 13.4054 1.71307C12.2255 0.785756 10.8084 0.209113 9.31626 0.0490471C7.82409 -0.111019 6.31699 0.151951 4.9672 0.8079C3.61742 1.46385 2.47941 2.48632 1.68323 3.75844C0.887058 5.03056 0.464844 6.50102 0.464844 8.00174C0.464844 9.50247 0.887058 10.9729 1.68323 12.2451C2.47941 13.5172 3.61742 14.5396 4.9672 15.1956C6.31699 15.8515 7.82409 16.1145 9.31626 15.9544C10.8084 15.7944 12.2255 15.2177 13.4054 14.2904C12.4524 13.5424 11.6821 12.5874 11.1529 11.4977C10.6236 10.408 10.3492 9.21208 10.3505 8.00061V8.00065Z" fill="#EB001B"/>
<path d="M25.5828 12.957V12.6993H25.6939V12.646H25.4296V12.6993H25.534V12.9571L25.5828 12.957ZM26.0961 12.957V12.646H26.0161L25.9228 12.8682L25.8294 12.646H25.7495V12.957H25.8072V12.7215L25.8939 12.9237H25.9539L26.0406 12.7215V12.957H26.0961Z" fill="#F79E1B"/>
<path d="M26.3472 8.0004C26.3471 9.50125 25.9248 10.9718 25.1285 12.244C24.3322 13.5161 23.194 14.5386 21.844 15.1944C20.4941 15.8503 18.9868 16.1131 17.4946 15.9528C16.0023 15.7925 14.5853 15.2156 13.4054 14.2879C14.3577 13.5395 15.1276 12.5846 15.657 11.4952C16.1864 10.4059 16.4615 9.21047 16.4615 7.99927C16.4615 6.78807 16.1864 5.59268 15.657 4.50331C15.1276 3.41393 14.3577 2.45901 13.4054 1.7106C14.5853 0.782984 16.0023 0.206054 17.4946 0.0457554C18.9868 -0.114543 20.4941 0.148257 21.844 0.804116C23.194 1.45998 24.3322 2.48243 25.1285 3.7546C25.9248 5.02677 26.3471 6.49733 26.3472 7.99818V8.0004Z" fill="#F79E1B"/>
<mask id="mask0_637_2223" style="mask-type:luminance" maskUnits="userSpaceOnUse" x="30" y="1" width="44" height="14">
<path d="M52.4244 5.5146C52.4 7.4348 54.1357 8.50643 55.4431 9.1435C56.7865 9.79724 57.2377 10.2164 57.2326 10.8009C57.2223 11.6957 56.161 12.0905 55.1675 12.1058C53.4345 12.1328 52.4269 11.638 51.6258 11.2637L51.0015 14.185C51.8053 14.5555 53.2935 14.8785 54.8368 14.8926C58.4593 14.8926 60.8294 13.1044 60.8423 10.3318C60.8564 6.81311 55.9751 6.61827 56.0084 5.04545C56.02 4.5686 56.475 4.05971 57.4723 3.93024C57.9658 3.86487 59.3284 3.81487 60.873 4.5263L61.4793 1.69983C60.6487 1.39731 59.5809 1.10762 58.2517 1.10762C54.842 1.10762 52.4436 2.92015 52.4244 5.5146ZM67.3053 1.35117C66.6439 1.35117 66.0863 1.737 65.8376 2.32922L60.6628 14.6849H64.2827L65.0031 12.6942H69.4268L69.8447 14.6849H73.0352L70.251 1.35117H67.3053ZM67.8117 4.95315L68.8564 9.96004H65.9953L67.8117 4.95315ZM48.0354 1.35117L45.182 14.6849H48.6314L51.4835 1.35117H48.0354ZM42.9323 1.35117L39.3419 10.4266L37.8895 2.70992C37.7191 1.84852 37.0461 1.35117 36.2988 1.35117H30.4292L30.3472 1.73828C31.5521 1.99978 32.9211 2.42151 33.7505 2.87272C34.2581 3.14832 34.4029 3.3893 34.5696 4.04432L37.3204 14.6849H40.966L46.5548 1.35117H42.9323Z" fill="white"/>
</mask>
<g mask="url(#mask0_637_2223)">
<path d="M25.8768 2.75401L67.9372 -12.7358L77.5057 13.2468L35.4458 28.7366" fill="url(#paint0_linear_637_2223)"/>
</g>
<defs>
<linearGradient id="paint0_linear_637_2223" x1="34.2139" y1="14.4737" x2="70.1907" y2="1.22395" gradientUnits="userSpaceOnUse">
<stop stop-color="#222357"/>
<stop offset="1" stop-color="#254AA5"/>
</linearGradient>
</defs>
</svg>
